<svg xmlns="http://www.w3.org/2000/svg" height="800" width="1200" viewBox="-10.79961 -26.3258 93.59662 157.9548"><defs><linearGradient id="i" spreadMethod="pad" gradientTransform="scale(37.388 -37.388) rotate(-30 -3.6486 -4.2215)" gradientUnits="userSpaceOnUse" y2="0" x2="1" y1="0" x1="0"><stop offset="0" stop-color="#231f20"/><stop offset="1" stop-color="#d3d2d2"/></linearGradient><linearGradient id="h" spreadMethod="pad" gradientTransform="matrix(33.40797 -19.2881 -19.2881 -33.40796 92.8774 105.7876)" gradientUnits="userSpaceOnUse" y2="0" x2="1" y1="0" x1="0"><stop offset="0" stop-color="#393536"/><stop offset="1" stop-color="#fff"/></linearGradient><linearGradient id="g" spreadMethod="pad" gradientTransform="scale(36.1882 -36.1882) rotate(-75 -.1192 -2.76)" gradientUnits="userSpaceOnUse" y2="0" x2="1" y1="0" x1="0"><stop offset="0" stop-color="#231f20"/><stop offset="1" stop-color="#a7a5a6"/></linearGradient><linearGradient id="f" spreadMethod="pad" gradientTransform="scale(-21.555 21.555) rotate(60 -6.1147 -1.648)" gradientUnits="userSpaceOnUse" y2="0" x2="1" y1="0" x1="0"><stop offset="0" stop-color="#918f90"/><stop offset="1" stop-color="#fff"/></linearGradient><linearGradient id="e" spreadMethod="pad" gradientTransform="scale(37.388 -37.388) rotate(-30 -5.1675 -6.759)" gradientUnits="userSpaceOnUse" y2="0" x2="1" y1="0" x1="0"><stop offset="0" stop-color="#d3d2d2"/><stop offset="1" stop-color="#fff"/></linearGradient><linearGradient id="d" spreadMethod="pad" gradientTransform="scale(45.00529 -45.00529) rotate(30 7.1095 .9847)" gradientUnits="userSpaceOnUse" y2="0" x2="1" y1="0" x1="0"><stop offset="0" stop-color="#7b7979"/><stop offset="1" stop-color="#fff"/></linearGradient><linearGradient id="c" spreadMethod="pad" gradientTransform="scale(31.9139 -31.9139) rotate(30 10.104 2.4262)" gradientUnits="userSpaceOnUse" y2="0" x2="1" y1="0" x1="0"><stop offset="0" stop-color="#231f20"/><stop offset="1" stop-color="#fff"/></linearGradient><linearGradient id="b" spreadMethod="pad" gradientTransform="scale(18.0426 -18.0426) rotate(-30 -10.6421 -13.514)" gradientUnits="userSpaceOnUse" y2="0" x2="1" y1="0" x1="0"><stop offset="0" stop-color="#231f20"/><stop offset="1" stop-color="#a7a5a6"/></linearGradient><linearGradient id="a" spreadMethod="pad" gradientTransform="scale(77.75339 -77.75339) rotate(-30 -1.9917 -2.1558)" gradientUnits="userSpaceOnUse" y2="0" x2="1" y1="0" x1="0"><stop offset="0" stop-color="#231f20"/><stop offset="1" stop-color="#fff"/></linearGradient></defs><path d="M4.6363 80.8956c.635 0 1.3975-.0637 1.6725.6138.1687.9312.36 2.2225-.1488 3.0487-.38.4438-.9525.4238-1.5237.4013zm1.1012 9.865c-.3812-.0212-.8687.1063-1.0587-.3175-.17-1.4825-.1063-3.1337-.0425-4.6575.9737 1.905 1.715 3.9163 2.6887 5.8425l3.8525-.0637-.0425-.8675c-.2962 0-.6137.0637-.7612-.2538l-2.3925-4.6575.9737-.2112c1.3125-.89 1.1638-2.8163.8463-4.2138-.1688-.5925-.7825-1.0575-1.355-1.1637L.0638 80.133v.8688c.3387.0412.805-.1275 1.0162.2537.1688 2.9638.1063 6.16.0425 9.1025-.1487.4875-.72.36-1.1225.445.0213.275-.0425.5713.0638.825h5.6737zm5.6943.8678l9.7162-.0638v-3.345h-1.735c-.1487.8263.2113 2.0963-.805 2.4775-.825-.0425-2.0537.3813-2.54-.3387v-4.0225c.2325-.3813.8038-.3175 1.2063-.2538.5087.2113.36.7838.4662 1.2275.4863-.0212 1.0163.0425 1.46-.0625v-3.4087h-1.5237c0 .4225.0637.8887-.2538 1.185-.4237 0-1.1012.2325-1.355-.2113v-3.345c.4225-.805 1.6725-.4025 2.4338-.36.7412.3813.4875 1.2913.615 1.9688h1.7137v-2.9425h-9.3987v.8262h.5712c.2338 0 .5088.1475.5513.4013v9.04c-.1913.5075-.7838.275-1.165.4025.0212.275-.0425.5712.0425.825m12.7016-1.122l-.0425-6.245 3.9587 7.3675c1.08-.0213 2.2013.0412 3.26-.0638l.0425-10.2037c.1688-.5088.6988-.4025 1.1213-.4025v-.825c-1.2275.0212-2.4763-.0425-3.6613.0625.0213.255-.0425.53.0425.7625.4013-.0213.8675-.0425 1.0788.2962l.0425 6.5625c-1.46-2.54-2.7725-5.1225-4.17-7.6837h-4.255v.825c.4025.0212.8675-.1063 1.1212.2962.17 2.9638.1063 6.0975.0425 9.1025-.1475.53-.7612.3388-1.1637.445.0212.275-.0425.5725.0425.8263l3.7037-.0638c0-.275.0425-.5712-.0412-.805-.4025-.0425-.8688.085-1.1225-.2537m12.7016-8.3405c.3813 1.355.8888 2.7312 1.1225 4.17l-2.1387.0425c.1062-1.4388.7625-2.7725 1.0162-4.2125m-4.7212 9.4625c1.1437-.0213 2.3287.0425 3.4512-.0638-.0212-.275.0425-.5712-.0425-.8037h-.6137c-.2538-.0425-.36-.3175-.2963-.5725.2963-.91.3813-1.9675.91-2.73h2.7313c.5287.8887.635 1.9475.9312 2.9425-.1487.465-.635.2962-.9737.4025v.7612h5.8425c-.0213-.275.0425-.5712-.0425-.8037-.4238.0212-.8888.0212-1.08-.4025l-3.1963-10.225h-5.1225l.0425.8687c.38.02.8887-.1062 1.0575.295-.5713 3.0275-1.6512 5.97-2.4763 8.955-.2112.4663-.6774.5088-1.1224.5088zM44.096 81.4036l.0638 7.8325c.105.6775.3387 1.355.9525 1.7788 1.6512 1.1212 4.3612 1.1012 6.2025.4012.6775-.3587 1.185-1.0575 1.3125-1.7775l.1062-8.2775c.2325-.445.7188-.4237 1.1638-.4025v-.825h-3.5988v.825c.445-.0212.91-.0425 1.1225.4025l.0413 7.2613c-.02.6137-.0625 1.2062-.55 1.63-.635.5075-1.6725.4875-2.4338.2537-.4025-.1687-.8262-.5712-.8687-1.0162V81.361c.2125-.445.6775-.4237 1.1225-.4025v-.825h-5.7375v.825h.5087c.2538-.0212.5288.1913.5925.445m10.0554 9.3994c.0212.275-.0213.5712.0637.825l9.2513-.0625c-.0213-1.1225.0412-2.3075-.0638-3.4088l-1.7787.0638c-.0213.6137.085 1.27-.105 1.82-.0638.3387-.4025.5512-.6988.6562-.635-.0425-1.6725.3813-1.99-.3387v-8.9963c.2325-.445.72-.4237 1.1638-.4025v-.825h-5.8425v.825c.4237.0213.8887-.1062 1.1225.2963.1687 2.9637.1262 6.0975.0625 9.1025-.1475.53-.7613.3387-1.185.445"/><path d="M71.9336 80.1335h-9.8012l.0637 3.4088 1.7138-.0425c.0425-.6138-.0838-1.2913.1062-1.8425.1488-.4013.5713-.8038 1.0588-.6988.1062.1063.2537.2125.2537.3388l-.0425 9.0612c-.1475.4438-.6775.4025-1.1212.4025v.8038h5.8c-.0213-.275.0425-.5713-.0638-.8038-.3812-.0425-.91.1475-1.0587-.36l-.0413-9.1875c.0625-.2337.2963-.275.5075-.255 1.1013.3613.8463 1.6313.9525 2.5838l1.7363-.0425c-.0213-1.1225.0425-2.265-.0638-3.3663m-6.499 18.1421c-1.2912-.91-3.43-.6137-4.0012-2.3925-.085-.6775.0637-1.2487.5925-1.6725.445-.3387 1.1862-.2112 1.6937-.105.9738.4863.995 1.5238 1.0163 2.4975l1.7787-.0637-.0637-2.8363c-2.1388-.5925-5.1438-.9312-7.1125.2963-.9113.8675-.995 2.1587-.9113 3.3662.0425 2.815 3.2188 2.6463 4.8688 3.81.4875.3813.5725.91.5087 1.525-.0637.55-.1475 1.1638-.7625 1.46-.5075.19-1.1637.2963-1.7137.1063-1.1438-.53-.975-1.8638-1.1225-2.9425l-1.7363.0425v2.9637c2.265 1.0788 5.7163 1.545 7.7275-.36.9525-1.0162.9738-2.5412.7613-3.9162-.1263-.7413-.8675-1.4188-1.5238-1.7788m-28.0281-2.8367c-.7625 2.4762-.8262 5.7575.2538 8.1287 1.905 2.4138 5.8012 1.8425 8.3837 1.0588-.0212-1.08.02-2.2013-.0637-3.26l-1.715.0637c0 .91.0637 1.8413-.4663 2.54-.3587.4875-.8887.53-1.4175.55-.6562-.0625-1.355-.3375-1.63-1.015-.5087-1.9487-.3175-4.1925-.36-6.3512.1263-1.165-.0212-2.625 1.3338-3.0913.6562-.19 1.46-.1475 1.9687.36.4863.6138.5713 1.3975.5075 2.2225h1.8425v-2.9c-2.7312-.5712-7.1137-1.3975-8.6375 1.6938M3.9166 96.8996l1.7363-.0425c.0212-.91-.17-1.9475.6562-2.4975.19-.0425.5288-.1487.6563.105.1687 3.0063.105 6.1613.0425 9.1875-.1275.5513-.7413.4238-1.165.5088.0212.2537-.0425.55.0637.7625h5.7788v-.805c-.4013-.0213-.91.085-1.1213-.36l-.0425-9.1875c.0638-.2113.2963-.275.5075-.2538 1.08.36.8688 1.63.9738 2.5825l1.6725-.0425V93.491H3.874zm16.3004.8257c-.2962.5925-.9737.55-1.5662.5925V94.254c.4862.02 1.0162-.0425 1.3762.2538.5288.8887.5075 2.2437.19 3.2175m4.1275 6.0962c-.7825-1.5875-1.715-3.1537-2.35-4.7412.4025.085.6575-.1275.975-.1913 1.27-.91 1.1425-2.9.7613-4.2762-.19-.55-.7825-.9525-1.3125-1.0575l-8.3825-.0638v.8675c.3387.0213.72-.085.9525.2125.275 2.9425.1475 6.0963.1062 9.0813-.1062.6137-.7412.3175-1.1225.465.0213.2762-.0425.5725.0638.805h5.6737l-.0425-.8463c-.36-.0425-.8262.0838-1.0162-.255-.17-1.5025-.1063-3.1537-.0425-4.6775.9312 1.905 1.7575 3.8525 2.625 5.7788h3.8737v-.8463c-.2962-.0212-.6137.0413-.7625-.255m8.32-9.5046c.445-.0425.8888 0 1.1225.36l.0625 7.6212-.1687.7613c-.2538.445-.72.8262-1.2063.9112-.9737.0625-1.99.0213-2.435-.9112l-.0637-8.235c.085-.6138.7412-.465 1.165-.5713 0-.2537.0425-.5287-.0425-.7612h-5.7375v.825h.2962c.2963.0637.72.0425.8263.4025l.085 8.0225c.1687.6137.4225 1.2287.9737 1.63 1.7138 1.165 4.4238 1.0375 6.3075.2962.5938-.3587 1.0375-.9525 1.165-1.6087l.1063-8.2975c.1262-.53.6975-.445 1.1637-.445v-.825h-3.62zm25.1491 9.8013c-.275.0213-.5075-.0637-.6987-.2537l-3.0063-6.4988v-.255c.995-.91 1.3975-2.7512 3.0063-2.7512v-.8675H53.601v.8675h.55c.1275.0638.3388.1688.2538.36-1.1 1.3962-2.1375 2.985-3.3025 4.2125l.0637-4.2125c.1913-.445.6775-.4238 1.1225-.4025v-.825H46.551v.825c.3813 0 .8263-.085 1.0588.2963.17 2.9637.1062 6.0762.0425 9.04-.1275.5287-.6775.465-1.1013.465v.805h5.7375v-.805c-.445.0212-.9312.0424-1.1225-.4026.1275-1.1212-.5925-2.7725.6138-3.45l1.8637 4.6575 4.2338-.0425c-.0213-.255.0425-.53-.0638-.7625"/><path d="M71.8406 78.14H.0006V0h71.84z" fill="#e32119"/><path d="M86.536 166.392c-.72 0-1.152-.144-1.44-.72L60.688 121.32c-.36-.648-.576-1.224-.576-1.872 0-.72.216-1.296.576-1.872l24.408-44.352c.288-.576.72-.72 1.44-.72h20.88c.576 0 1.08.144 1.368.648l24.696 44.424c.432.648.576 1.296.576 1.872 0 .504-.144 1.152-.576 1.872l-24.696 44.424c-.288.504-.792.648-1.368.648zm-1.08-47.016l11.664 24.336 11.592-24.264L97.12 95.256z" fill="url(#a)" transform="matrix(.6217 0 0 -.6217 -24.1905 112.3654)"/><path d="M97.12 146.88v-3.168l11.592-24.264h2.16l-13.68 27.504zm0-3.24v.072z" fill="url(#b)" transform="matrix(.6217 0 0 -.6217 -24.1905 112.3654)"/><path d="M97.12 146.88l-13.824-27.432h2.16l7.92 16.488 3.744 7.704c4.752 10.296 8.28 16.344 11.664 22.104-.144.288-.432.504-.72.576-3.744-6.336-7.416-13.032-10.944-19.44" fill="url(#c)" transform="matrix(.6217 0 0 -.6217 -24.1905 112.3654)"/><path d="M86.968 166.248c-.36-.072-.648-.072-.792-.36l-24.84-45v-.072l-.072-.072-.072-.144v-.072l-.072-.072-.072-.144v-.144l-.072-.072v-.216l-.072-.072v-.36h22.392L97.12 146.88l.072.072c3.312 6.12 7.272 13.104 10.872 19.224-.072 0-.144 0-.216.072z" fill="url(#d)" transform="matrix(.6217 0 0 -.6217 -24.1905 112.3654)"/><path d="M97.912 145.368l12.96-25.92h22.392c0 .504-.216 1.008-.432 1.44l-24.48 44.064c-3.096-5.184-6.264-10.8-10.44-19.584" fill="url(#e)" transform="matrix(.6217 0 0 -.6217 -24.1905 112.3654)"/><path d="M83.296 119.448v-.072L97.12 91.944v3.312l-11.664 24.12v.072z" fill="url(#f)" transform="matrix(.6217 0 0 -.6217 -24.1905 112.3654)"/><path d="M108.712 119.448l-7.92-16.488-3.672-7.704c-4.824-10.224-8.352-16.344-11.736-22.104.216-.288.432-.504.72-.576 3.744 6.408 7.488 13.032 11.016 19.44l13.752 27.432z" fill="url(#g)" transform="matrix(.6217 0 0 -.6217 -24.1905 112.3654)"/><path d="M110.872 119.448L97.12 92.016v-.072c-3.456-6.12-7.416-13.104-11.016-19.224H107.2c.36 0 .648 0 .792.288l24.84 44.928.072.072v.144l.072.072.072.072v.144l.072.072v.072l.072.072v.216l.072.072v.504z" fill="url(#h)" transform="matrix(.6217 0 0 -.6217 -24.1905 112.3654)"/><path d="M61.336 117.936l24.48-43.992c3.096 5.184 6.264 10.8 10.44 19.584l-12.96 25.848-22.392.072c0-.576.216-1.08.432-1.512" fill="url(#i)" transform="matrix(.6217 0 0 -.6217 -24.1905 112.3654)"/></svg>