<svg xmlns="http://www.w3.org/2000/svg" height="800" width="1200" viewBox="-30.244125 -18.5579 262.11575 111.3474"><path d="M23.7197 49.4488h9.4187V33.525H65.421v-9.36H33.1384V13.1925h34.04V3.8338H23.7197zM113.1763 31.32c-2.0075 6.41-8.0225 11.06-15.1312 11.06-8.75 0-15.8413-7.0412-15.8413-15.7375 0-8.6937 7.0913-15.7387 15.8413-15.7387 7.1087 0 13.1237 4.6525 15.1312 11.06h9.645c-2.205-11.61-12.4475-20.3963-24.7762-20.3963-13.935 0-25.2363 11.2275-25.2363 25.075 0 13.8438 11.3013 25.0713 25.2363 25.0713 12.3287 0 22.5712-8.7825 24.7762-20.3938zM150.0578 0l-28.7462 49.4487h10.8812l17.865-30.735 17.88 30.735h10.8812z" fill="#5d7fc8"/><path d="M139.7403 69.7539c0 .5025-.0825.9712-.25 1.3937-.1663.4313-.3925.8125-.6913 1.1338-.2912.3225-.6462.5775-1.0587.7687-.41.1838-.865.2763-1.3513.2763-.49 0-.9412-.0962-1.355-.2875a3.463 3.463 0 01-1.0687-.77c-.2988-.3225-.5325-.7-.7087-1.135a4.116 4.116 0 01-.2438-1.4013v-.025c0-.5.0862-.96.2437-1.3925.1763-.4337.4026-.8112.6976-1.135.2962-.3237.6462-.575 1.06-.76.4087-.1912.865-.285 1.3537-.285.4863 0 .9387.0975 1.345.2913.4125.1912.7738.4462 1.0688.7725.3062.3175.5424.6987.7087 1.135.1675.4387.25.9062.25 1.3987v.0213zm-.1938-3.1875c-.3862-.4125-.8412-.7375-1.38-.975-.535-.24-1.125-.365-1.7775-.365-.6462 0-1.2475.1287-1.7887.3687-.5313.2413-.9962.5725-1.3787.985a4.4914 4.4914 0 00-.8963 1.4388c-.2112.5437-.3162 1.1187-.3162 1.7137v.0213c0 .6038.1012 1.1675.3125 1.7175.205.54.5 1.0213.8825 1.4225.3887.4138.8437.7375 1.3824.9825.5313.2388 1.1213.355 1.7813.355.6538 0 1.2475-.12 1.785-.3662.5387-.2438.9975-.5713 1.3825-.9813.3862-.4062.6737-.8875.8862-1.43a4.6375 4.6375 0 00.3263-1.7212.0275.0275 0 000-.025 4.7653 4.7653 0 00-.3125-1.7063c-.2163-.5487-.5113-1.0262-.8888-1.435m-17.605 3.8775c0 .9488-.2375 1.6688-.6987 2.1488-.465.4787-1.09.715-1.8825.715-.8225 0-1.465-.2475-1.9275-.75-.4688-.5075-.6913-1.2363-.6913-2.1788v-5.0037h-.9687v5.0687c0 .6138.09 1.155.26 1.63.1712.47.4137.865.7225 1.1875.3162.315.6987.5588 1.1287.7188.4375.1625.9238.2412 1.4513.2412.5425 0 1.0212-.0788 1.4625-.2412.4312-.16.8162-.4038 1.1225-.725.3187-.3238.5587-.725.7287-1.2125.1738-.4775.265-1.035.265-1.6813v-4.9862h-.9725zm-28.105-.6275v-3.5337h2.65c.695 0 1.23.1575 1.6213.4525.3787.31.57.7262.57 1.2687v.0263c0 .2788-.0512.5325-.1588.745-.1162.2225-.2675.4188-.4625.5713a2.138 2.138 0 01-.695.3425c-.2737.09-.5662.1275-.8825.1275h-2.6425zm4.4213.4163c.285-.1325.5275-.305.74-.5188.2112-.2075.3575-.4587.4762-.75.1238-.2837.18-.6062.18-.9762v-.0275c0-.345-.0563-.66-.18-.9513-.1187-.295-.2787-.54-.4875-.755-.27-.28-.6037-.4887-1.0162-.645-.4175-.1525-.8825-.2337-1.4175-.2337h-3.685v8.7137h.9687v-3.3862h2.4488l2.4862 3.3862h1.1838l-2.6325-3.5612c.3375-.0625.6475-.16.935-.295m10.0062.665l1.9588-4.4363 1.9412 4.4363zm1.5138-5.5813l-3.9038 8.7725h.9938l1.0175-2.3037h4.6537l1.0113 2.3037h1.035l-3.9038-8.7725zm-24.7463 4.8288h4.6725v-.8863h-4.6725v-2.9987h5.2238v-.885h-6.185v8.7137h6.245v-.885h-5.2838zm62.2238-.0175l-3.1213-4.7525h-.9825v8.7137h.9513v-7.0437l3.1225 4.65h.035l3.1212-4.6575v7.0512h.9688v-8.7137h-.9713zm53.6925.0288c-.4513-.3813-1.1613-.6775-2.1125-.8975-.475-.0975-.8575-.205-1.1638-.32-.2987-.1075-.5412-.23-.7075-.3713-.175-.135-.2925-.28-.355-.4487-.07-.1613-.094-.3438-.094-.5525v-.0213c0-.4.1562-.735.4762-1.0025.33-.2713.7813-.4075 1.34-.4075.4413 0 .865.075 1.2675.2225.4063.1512.81.395 1.205.7225l.56-.7538c-.4312-.3562-.8887-.6262-1.3587-.7975-.4725-.1812-1.0213-.2737-1.645-.2737-.4138 0-.7863.0612-1.1225.18-.35.1175-.6463.285-.8988.5037-.2537.2075-.4487.4513-.5875.7463-.1425.29-.2125.6037-.2125.9475v.0238c0 .3512.066.6662.1738.9325.125.2662.2925.4962.5387.6912.2263.2.5275.37.8925.51.365.1463.7888.27 1.2775.3813.455.0987.8238.1962 1.1113.305.2962.1112.5187.2325.685.3625.1625.1337.2787.285.34.445.066.16.1037.3412.1037.5362v.03c0 .4263-.1762.7825-.5237 1.0613-.3513.275-.8088.415-1.3863.415-.5975 0-1.125-.1-1.58-.305-.465-.205-.9125-.5088-1.355-.9225l-.6037.7175c.5175.4737 1.0562.8262 1.6287 1.0487.5625.23 1.1875.3488 1.8688.3488.43 0 .82-.0638 1.1737-.1788.3575-.115.6663-.2812.92-.4962a2.294 2.294 0 00.605-.775c.135-.31.2188-.6488.2188-1.0163v-.0312c0-.655-.2288-1.175-.68-1.56m-13.0288-.0113h4.6788v-.8862h-4.6788v-2.9988h5.2238v-.885H186.95v8.7138h6.255v-.885h-5.2863zm-7.9312-4.77h-.9763v8.7138H184.8v-.9125h-4.8125zm-8.6525 6.27c0 .4913-.1875.87-.5588 1.1425-.3825.28-.9.4163-1.5487.4163h-2.87v-3.0763h2.7062c.7463 0 1.3088.1375 1.6913.3963.3887.2587.58.6237.58 1.1012zm-4.9775-5.3875h2.605c.6075 0 1.0737.1325 1.4037.3913.3263.2587.49.5975.49 1.0237v.0263c0 .5088-.1837.89-.5462 1.1563-.3613.2662-.8325.3912-1.42.3912h-2.5325v-2.9887zm5.405 4.0388c-.16-.1613-.3613-.305-.5838-.4275-.2225-.1188-.455-.2188-.7125-.2863.1713-.0862.3375-.1737.4975-.2887.1525-.1113.2975-.2513.4263-.4088a1.98 1.98 0 00.3162-.57c.0738-.2225.115-.4662.115-.7487v-.0325c0-.535-.18-.9913-.5525-1.3875-.2462-.235-.5562-.4263-.9337-.5638-.3788-.1262-.8088-.2075-1.2963-.2075h-3.6425v8.7138h3.8025c.4663 0 .8825-.0638 1.2675-.165.3825-.1038.7125-.2675.9838-.4675.27-.2013.4825-.4463.6287-.7475.1463-.295.2175-.6275.2175-1.0038v-.0212c0-.3037-.0512-.56-.145-.7937a1.9713 1.9713 0 00-.3887-.5938m-10.0238-.5425c0 .5025-.0825.9713-.2462 1.3938-.1675.4312-.4038.8125-.6975 1.1337-.2963.3225-.6438.5775-1.0563.7688-.4137.1837-.8587.2762-1.3475.2762-.4937 0-.9425-.0962-1.3612-.2875a3.3147 3.3147 0 01-1.0638-.77c-.3012-.3225-.5387-.7-.705-1.135-.17-.4387-.2462-.905-.2462-1.4012v-.025c0-.5.0763-.96.2462-1.3925.1663-.4338.4038-.8113.6875-1.135.295-.3238.6463-.575 1.0663-.76.4137-.1913.8612-.285 1.345-.285.4962 0 .9437.0975 1.3575.2912.41.1913.7675.4463 1.0625.7725.3087.3175.545.6988.7125 1.135.1637.4388.2462.9063.2462 1.3988v.0213zm-.195-3.1875c-.3887-.4125-.8437-.7375-1.375-.975-.5375-.24-1.1212-.365-1.7775-.365-.6537 0-1.2475.1288-1.7887.3688-.5425.2412-.9938.5725-1.3825.985-.3863.41-.6813.8887-.8925 1.4387-.2125.5438-.32 1.1188-.32 1.7138v.0213c0 .6037.1075 1.1675.31 1.7175.2037.54.51 1.0212.885 1.4225.3825.4137.8475.7375 1.375.9825.5425.2387 1.1362.355 1.7825.355.6562 0 1.25-.12 1.7875-.3663.5387-.2437.9975-.5712 1.3862-.9812.3825-.4063.6813-.8875.8925-1.43.2088-.5563.3163-1.1238.3163-1.7213.01-.007.01-.0187 0-.025a4.8455 4.8455 0 00-.3088-1.7062c-.2125-.5488-.5037-1.0263-.89-1.435m13.3788 7.5225h.965v-8.7125h-.965zm-50.2175-7.8063h2.8787v7.8063h.9625v-7.8063h2.8788v-.9075h-6.72zm-87.2588 6.7175c-.4237.2175-.9262.3263-1.5175.3263-.465 0-.9062-.0925-1.3125-.2763-.4-.1912-.7575-.4462-1.045-.7687-.31-.3213-.5387-.7025-.7025-1.135-.17-.4375-.26-.9138-.26-1.4138v-.025c0-.5.09-.96.26-1.3987.1638-.4338.3925-.815.7025-1.1388.2875-.3237.645-.575 1.045-.7575.4063-.1837.8475-.2775 1.3125-.2775.5913 0 1.0938.1188 1.5175.3413.4138.22.81.5087 1.175.8562l.6625-.7237c-.2112-.2038-.4337-.3988-.6625-.5638a3.7155 3.7155 0 00-.74-.4362c-.2787-.12-.5662-.2188-.8787-.2788-.3088-.0687-.6675-.1037-1.06-.1037-.6275 0-1.205.1212-1.7363.3562-.5312.2363-.9825.5638-1.3687.9738-.3775.4075-.6838.8875-.9063 1.4312-.215.5513-.315 1.1338-.315 1.745v.0213c0 .625.1 1.2088.315 1.7613.2225.5475.5288 1.02.9063 1.4237.3862.3988.8375.7113 1.355.9475.5237.2325 1.0937.345 1.7162.345.3925 0 .7425-.035 1.0688-.1062.3162-.0813.615-.18.8825-.315.2812-.13.545-.29.7812-.4775a6.0603 6.0603 0 00.6988-.6313l-.6463-.6275c-.3987.3963-.8237.7038-1.2475.9263m10.0963-3.7538h-4.9413v-3.8712h-.9625v8.7137h.9625v-3.9175h4.9413v3.9175h.9625v-8.7137h-.9625zM20.0262 66.283h2.8788v7.8062h.9687V66.283h2.8725v-.9075h-6.72zM0 74.089h.965v-3.7987h4.64v-.8813H.965v-3.126h5.1925v-.9075H0zm13.9725-3.1912l1.955-4.4363 1.945 4.4363zm1.51-5.5813L11.59 74.0891h.99l1.0175-2.3037h4.66l1.0012 2.3037h1.0375l-3.9037-8.7725zM8.7212 74.089H9.69v-8.7125h-.9688zm43.795-4.2725V66.283h2.65c.685 0 1.2263.1575 1.615.4525.3788.31.57.7262.57 1.2687v.0263c0 .2788-.0525.5325-.1662.745-.105.2225-.2575.4188-.455.5713-.195.1462-.435.2675-.7025.3425-.2638.09-.5625.1275-.885.1275h-2.6263zm4.4113.4163c.285-.1325.5312-.305.7325-.5188.2162-.2075.3787-.4587.4962-.75.105-.2837.1638-.6062.1638-.9762v-.0275c0-.345-.0588-.66-.1638-.9513-.1175-.295-.28-.54-.4962-.755-.2638-.28-.6113-.4887-1.0238-.645-.4062-.1525-.8787-.2337-1.4075-.2337h-3.685v8.7137h.9725v-3.386h2.4425l2.4788 3.3862h1.1887l-2.63-3.5612c.3413-.0625.64-.16.9313-.295m6.0225-.5l-2.88-4.3575H58.9l3.5562 5.2675v3.4462h.97v-3.4587l3.56-5.255H65.86zm10.405.4237c-.4513-.3812-1.1525-.6775-2.115-.8975-.475-.0975-.8613-.205-1.1638-.32-.2987-.1075-.5337-.23-.7012-.3712-.18-.135-.295-.28-.3613-.4488-.0625-.1612-.0937-.3437-.0937-.5525v-.0213c0-.4.16-.735.48-1.0025.3288-.2712.7813-.4075 1.3438-.4075.4337 0 .8575.075 1.26.2225.41.1513.81.395 1.2062.7225l.5688-.7537c-.4438-.3563-.8963-.6263-1.365-.7975-.475-.1813-1.0175-.2738-1.6525-.2738-.4 0-.7788.0612-1.1225.18-.3363.1175-.6425.285-.8888.5038-.26.2075-.455.4512-.5937.7462-.1325.29-.2088.6038-.2088.9475v.0238c0 .3513.0625.6663.17.9325.1188.2663.2963.4963.5325.6913.2388.2.5375.37.9063.51.3575.1462.7812.27 1.27.3812.4525.0987.8275.1963 1.1125.305.295.1113.5275.2325.6875.3625.16.1338.2775.285.34.445.07.16.1037.3413.1037.5363v.03c0 .4262-.1762.7825-.5275 1.0612-.34.275-.8062.415-1.3862.415-.5938 0-1.1138-.1-1.5763-.305-.4587-.205-.9137-.5087-1.3575-.9225l-.6012.7175c.5175.4738 1.0562.8263 1.6187 1.0488.57.23 1.1938.3487 1.875.3487.4313 0 .8163-.0638 1.1813-.1787.3612-.115.6662-.2813.92-.4963.2537-.2175.4475-.4787.5975-.775.1462-.31.2187-.6487.2187-1.0162v-.0312c0-.655-.2287-1.175-.6775-1.56m3.98-4.7813h-.965v8.7138h5.7825v-.9125H77.335z" fill="#7a7f81"/></svg>