<svg xmlns="http://www.w3.org/2000/svg" height="800" width="1200" version="1.0" viewBox="-132.87405 -43.1525 1151.5751 258.915"><g fill-rule="evenodd"><path d="M885.827 16.078v139.93h-35.404V70.595l-33.161 45.262h-5.114L778.99 70.595v85.413h-35.404V16.078h31.066l39.942 53.298 40.58-53.298zM85.713 104.57c-10.409-1.338-25.637.319-34.928 4.41l22.59-59.304 43.861 106.36h33.485L92.946 15.916H53.618L0 156.056h33.452c6.081-20.824 32.709-36.518 57.4-38.743zm185.335 24.047v27.228h-97.993V15.963h34.594v112.655zM529.78 16.154v27.103h-46.22v112.56h-35.415V43.258h-46.17V16.154zM382.45 45.096c-39.775-14.31-65.447-4.5-65.447 6.838 0 25.618 76.171 11.047 76.038 61.128-.115 37.485-31.486 47.632-63.6 47.632-13.446 0-30.246-2.09-43.074-6.233l3.332-30.123c9.625 4.656 23.806 7.79 39.743 7.79 13.89 0 30.423-2.766 31.295-13.696 2.257-28.55-75.813-10.737-75.813-62.941 0-34.752 33.023-45.541 62.003-45.541 13.633 0 31.57 4.647 37.82 7.48z" fill="#062173"/><path d="M710.344 125.99c13.18-23.81 11.223-52.3-3.062-74.623l8.89-9.351c15.128 25.375 15.3 57.279-1 83.83zM583.612 95.028c.187-24.799 20.505-45.132 46.095-45.803 26.128-.686 47.837 19.403 48.494 44.874.658 25.467-19.96 46.667-46.094 47.328-13.014.338-24.966-4.48-33.718-12.57l-6.853 6.932c-30.156-27.904-31.35-74.408-2.704-103.865C611.854 8.296 647.145 2.85 675.754 16.06l.376.424 3.652-4.039c-36.374-21.11-84.364-15.152-115.03 16.27-36.158 37.062-34.41 95.624 3.609 130.776l6.847-6.995c15.018 13.78 32.552 20.594 52.99 20.089 41.084-1.095 73.527-34.385 72.488-74.461-.518-20.032-9.31-37.96-23.142-50.742l4.843-4.952c-23.905-22.133-63.48-21.69-86.608 2.038-13.681 14.062-20.128 32.99-17.06 50.742z" fill="#e70000"/></g></svg>