<svg xmlns="http://www.w3.org/2000/svg" height="800" width="1200" version="1.0" viewBox="-30.33276 -11.134375 262.88392 66.80625"><path d="M43.1872.01c-1.1594.042-2.7844.2168-5.3125.7187-5.0563 1.0038-5.7188 1.2738-8.75 3.7188-3.03 2.445-8.375 8.0937-8.375 8.0937S10.2459 24.2112 4.3434 31.76c-1.4025 1.7937-2.54 3.3525-3.2187 4.4687-.0513.0838-.1088.1688-.1563.25-1.3087 2.275-1.12 3.7575-.4375 4.7188.9925 1.3987 3.0313 1.6875 3.0313 1.6875l2.0312.0937c2.5288.1675 11.5625 0 11.5625 0 5.8175-.4425 10.675-1.18 14.0313-1.7812 3.1175-.5575 4.9375-1 4.9375-1 2.2662-.7338 2.5312.0937 2.5312.0937s.3375.3825.9688.9063c.9737.8087 2.61 1.9362 4.7187 2.375a9.0047 9.0047 0 001.8125.1875c.7075.0012 1.3825-.07 2.0625-.1875 2.4763-.4325 4.7013-1.55 6.0938-2.375.9562-.5675 1.5312-1 1.5312-1 1.4175-1.3513 2.5475-2.605 3.4688-3.7188 1.9175-2.32 2.8487-4.0287 3.1875-4.7187.1075-.2188.1562-.3438.1562-.3438.572-1.2615 1.3067-1.5863 1.5313-1.6562l3.4687-.7813c2.6125-.6037 1.5 1.0313 1.5 1.0313l-.9687 1.75-1.8125 3.3125c-.3013.4987-.5575.9587-.8125 1.4062-1.205 2.1175-1.9313 3.665-2.3438 4.7188-.4762 1.2162-.5625 1.7812-.5625 1.7812h6.75c.33-.5637.73-1.1687 1.1563-1.7812 1.1275-1.6188 2.5112-3.3238 3.6875-4.7188 1.4462-1.7112 2.5937-2.9375 2.5937-2.9375 1.44-1.8587 1.9375-.4375 1.9375-.4375s.4975 1.5313 1.9375 1.5313c1.4413 0 2.7713-.9375 2.6875-.9375-.0462 0 1.1925-1.02 2.3125-1.9375.9088-.745 1.75-1.4063 1.75-1.4063 2.7975-1.9425 1.5.5625 1.5.5625a25.3496 25.3496 0 00-.5625.8438c-1.185 1.85-1.905 3.4887-2.3437 4.7187-.5038 1.415-.625 2.2813-.625 2.2813s-.3513 1.1925-.1875 2.4375h-.0313c.1213.9187.5525 1.8725 1.625 2.375.4113.1912.9038.3087 1.5313.3437 1.24.07 2.3937-.0787 3.4062-.3437 2.6363-.6863 4.375-2.0938 4.375-2.0938s.11-.1087.3125-.2812c.9363-.7875 3.7088-3.1313 5.5-4.7188.275-.2437.5313-.4575.75-.6562 1.9425-1.775 1.1875.25 1.1875.25l-.1562.4062-1.8125 4.7188-.8125 2.125h6.3125l1.7812-2.125 3.9375-4.7188 3.6563-4.375c.145-.135.2862-.2437.4062-.3437 1.1425-.965 1.1813-.4925 1.0625 0-.0713.2987-.1875.5937-.1875.5937-.5787 1.0575-1.0687 2.6575-1.4375 4.125-.4825 1.9275-.7812 3.625-.7812 3.625-.04.4113-.004.7788.0625 1.0938.4875 2.3237 3.4687 2.1875 3.4687 2.1875 2.7425-.205 5.0688-1.3 6.5313-2.1875 1.0562-.6413 1.6562-1.1563 1.6562-1.1563s1.9175-1.58 4.2813-3.5625a615.4407 615.4407 0 005.5625-4.7187c1.6512-1.4188 2.9875-2.5838 3.4062-3.0313 1.4225-1.525 1.5213-.1787 1.4375.4063-.0437.3012-.305 1.4237-.625 2.625-.3025 1.1337-.6625 2.3625-.9062 3.0625-.5013 1.44-1.3438 1.4062-1.3438 1.4062a19.329 19.329 0 00-1.2187.25c-1.9625.475-2.8538 1.09-4.2813 1.9375-.8612.51-1.6512 1.6388-1.8437 2.7813-.1475.8675.0637 1.755.8437 2.375.21.1662.4513.3137.75.4375 2.3925.9937 4.6188.0925 5.7813-.4375.2287-.1038.4225-.1913.5625-.25.5262-.2163 1.895-.9413 3.4062-2.125.945-.7413 1.9438-1.6725 2.8125-2.7813.7763-.99 1.3263-1.58 1.7188-1.9375.75-.6875.9062-.5.9062-.5l2.875-.25c1.2363-.1962 1.5613.3025 1.625.75.045.3163-.0312.5938-.0312.5938.1075 1.8037.5 3.1662.9063 4.125.545 1.2837 1.125 1.875 1.125 1.875s.2525.2237.7812.5c1.3513.7037 4.405 1.7175 9.0625.0937.0937-.0325.1863-.0587.2813-.0937 1.6987-.62 3.3537-1.475 4.8437-2.375 2.8875-1.7475 5.1975-3.7138 6.3125-4.7188a54.687 54.687 0 00.7188-.6562c2.9887-2.6425 2.0687.5275 2.0312.6562l-2.2812 4.7188-1.125 2.375-.0625.0937h6.5937l.0625-.0937 1.875-2.375 3.75-4.7188 1.4687-1.8437c1.3563-2.3613 2.875-.4063 2.875-.4063 1.9425 1.3575 4.375.6563 4.375.6563 2.9238-1.0163 4.2513-2.265 4.8438-3.125.4112-.5975.4687-1 .4687-1-1.7525.9762-2.7812-.4063-2.7812-.4063-1.4375-2.095-.0937-6.25-.0937-6.25-2.3613.4188-7.25 5.5625-7.25 5.5625-2.0263 2.2775-1.4375.5-1.4375.5l2.5312-4.9687-5.375-.0938c-2.015-.0187-2.875 1.1875-2.875 1.1875-1.34 1.44-3.6112 3.495-5.875 5.4688-2.1087 1.84-4.2087 3.6012-5.5625 4.7187-.84.6925-1.3875 1.13-1.4687 1.1875-.3525.2513-4.4525 3.0438-7.25 2.625-2.7975-.4187-2.9375-3.375-2.9375-3.375-.0163-.155-.0337-.3-.0312-.4375.0387-2.0087 1.9687-2 1.9687-2 3.7738-.455 6.6025-1.4625 8.7813-2.7187 1.03-.5938 1.93-1.26 2.6875-1.9375 2.3612-2.11.99-4.0513.6562-4.2188-.335-.1662-1.1687-1.8462-8-1.3437-6.8325.5012-11.875 6.75-11.875 6.75-.19.2712-.3637.52-.5312.75-1.1088 1.525-1.75 2.1875-1.75 2.1875l-2.4375.375c-3.1313.8375-1.9688-1.125-1.9688-1.125.2025-.505.4013-.9825.5625-1.4375 1.7213-4.8825 1.2188-7 1.2188-7h-6.75c-1.7788.0262-2.5313 1.0312-2.5313 1.0312-1.5925 1.515-4.37 3.8675-6.9062 5.9688a701.8265 701.8265 0 01-5.5625 4.5625s-.1025.0537-.25.1562c-.7213.4963-2.9275 1.9063-3.9688 1.2813-.3887-.2325-.455-.7225-.375-1.2813.1788-1.2475 1.125-2.8437 1.125-2.8437l1.0625-1.875 3.75-6.6563h-5.0625c-3.0412-.0875-3.875 1.1875-3.875 1.1875l-5.1562 4.125c-3.2813 2.8625-2.25.1875-2.25.1875l2.0937-5.1562h-7.4062s-2.845 3.1675-5.6563 6.3125c-1.585 1.7725-3.165 3.5325-4.2187 4.7187-.7375.8288-1.23 1.37-1.2813 1.4375-.2513.335-2.425 2.1175-3.7813 1.5313-1.3575-.585-.4375-2.4375-.4375-2.4375l.2812-.5313 2.3438-4.7187 3.375-6.8125-7 .5c-4.9725 4.2187-5.8125 3.875-5.8125 3.875-2.2775-.3525-2.0313-4.4688-2.0313-4.4688.25-1.925-.75-.75-.75-.75-1.19.8363-2.4375 2.3438-2.4375 2.3438-4.7212 5.2237-2.7187-.5-2.7187-.5.46-1.265-.75-1.0938-.75-1.0938l-5.4063.25c-1.6925-.0837-1.9375.75-1.9375.75-1.255 1.8588-5.0687 2.385-6.1562 2.4688-1.0875.0837-1.4163-.3325-1.5-1.1875-.0838-.855-.9363-2.7875-1.4375-3.625-.4063-.6763-1.2013-2.4213-4.3125-2.5313-2.3613-.0837-4.875 3.2813-4.875 3.2813l-3.2188-.0938c-3.2162-.1675-4.2187 1.0313-4.2187 1.0313-2.7113 2.3262-4.5375 4.6875-5.7188 6.5625-1.3862 2.1975-1.875 3.7187-1.875 3.7187-.6375.3688-1.5837.7025-2.6562 1-2.3375.6475-5.2613 1.1088-6.9375 1.2813-2.445.2512-8.1838.2412-9.875-.0938-1.0975-.2162-1.4438-.6137-1.3438-1.1875.0538-.3112.2363-.6812.5-1.0937.425-.66 1.7563-2.3063 2.8438-3.625a92.3692 92.3692 0 011.5625-1.8438s5.645-6.165 9.7812-10.7187c4.1363-4.555 11.2188-10.875 11.2188-10.875s4.0887-3.1075 6.0312-5.4688c1.9425-2.3612-.4062-2.625-.4062-2.625s-.84-.1562-2.5313-.1562c-.6706 0-1.3719-.1046-2.5312-.0625zm59.3437 8.6562c-1.7651.1035-3.7451 1.2973-5.1562 3.3125-2.0513 2.93-2.1063 6.4663-.0938 7.875 2.0125 1.4088 5.3225.18 7.375-2.75 2.0525-2.9312 2.075-6.465.0625-7.875-.6289-.4402-1.3851-.6095-2.1875-.5625zm65.9375 17.5c1.0672-.0725 1.1417 1.6744.9375 2.2188-.2512.6687-2.1687 2.1962-2.5937 2.4687-.4863.3113-1.8725 1.01-2.375.1563-.5013-.855.9375-2.375.9375-2.375s.6012-.7425.5937-.75c0 0 .7125-.7325 1.5938-1.3438.3611-.2505.66-.3583.9062-.375zm-117.0312 1.625c.4826-.0801.864.3727 1.125.8438.4187.7525.2562.8725 1.3437 1.625.6163.4262.785 1.0412.8125 1.5.0213.35-.0625.5937-.0625.5937s-.385 1.9538-1.7187 4.125c-.7075 1.1513-1.6888 2.3538-3 3.375C46.1534 42.8 46.1559 38.51 46.1559 38.51l.1563-1.1875a4.871 4.871 0 01.1875-.8438c.3987-1.2725 1.3-3.1037 2.1562-4.7187.705-1.33 1.3775-2.5225 1.7813-3.125.3834-.572.7104-.7957 1-.8438zm86.9062 11.5313c.3742.0588.5844.55.375.9687-.1637.3275-.37.625-.625.9063a5.534 5.534 0 01-.875.7812c-.585.4188-1.345.5138-1.0937-.1562.0838-.225.1837-.435.3125-.625.255-.375.6125-.7388 1.125-1.4063.2892-.3764.5567-.504.7812-.4687z" fill-rule="evenodd"/></svg>