<svg xmlns="http://www.w3.org/2000/svg" height="800" width="1200" version="1.0" viewBox="-6.889695 -11.189375 59.71069 67.13625"><path d="M0 44.7575h45.9312V0H0z" fill="#01a5e4"/><path d="M45.9066.5192s-33.879 2.6233-17.4804 13.747c0 0 7.659 6.6027-6.5772 12.8427 0 0-7.9254 3.7079-21.849 4.6123V0h45.9066z" fill="#e63d26"/><path d="M16.8574 33.2626c-.978-.1987-2.0899-.3175-3.0942-.3175-2.1298 0-4.8075.45-4.8075 2.9938 0 3.5912 4.915 2.465 4.915 3.71 0 .4637-.764.6362-1.607.6362-1.0718 0-2.25-.2112-3.2142-.61v2.3988c1.3395.305 2.4776.4375 3.857.4375 2.0761 0 4.5537-.6225 4.5537-3.1 0-3.565-4.9151-2.425-4.9151-3.6313 0-.5962.9768-.61 1.5396-.61 1.018 0 1.9685.1863 2.7727.4638zm1.6313-.1589h3.5875v9.2488h-3.5875zm12.5005.1589c-.9775-.1987-2.0887-.3175-3.0925-.3175-2.1275 0-4.805.45-4.805 2.9938 0 3.5912 4.9125 2.465 4.9125 3.71 0 .4637-.7637.6362-1.6062.6362-1.0713 0-2.2487-.2112-3.2125-.61v2.3988c1.3388.305 2.4762.4375 3.855.4375 2.075 0 4.5512-.6225 4.5512-3.1 0-3.565-4.9124-2.425-4.9124-3.6313 0-.5962.9762-.61 1.5387-.61a8.559 8.559 0 012.7713.4638zm5.1774-.159h-3.5875v5.6175c0 2.73 2.0488 3.79 4.6588 3.79 2.8237 0 4.685-.98 4.685-3.975v-5.4325h-3.5075v5.4988c0 .9012-.2 1.5237-1.1375 1.5237-.8563 0-1.1113-.6625-1.1113-1.5375z" fill="#fff"/></svg>