<svg xmlns="http://www.w3.org/2000/svg" height="800" width="1200" viewBox="-6.750003 -1.27121 58.500026 7.62726"><path d="M44.96932 2.37524c-.024-.0653-.061-.12559-.10548-.1792-.0515-.0624-.11289-.11572-.1785-.1637-.066-.048-.13583-.0903-.20779-.12912-.048-.0261-.097-.0501-.14676-.0734-.0825-.0385-.16686-.0737-.25223-.10619-.18274-.0706-.3697-.12947-.5581-.1838-.2434-.0699-.48895-.13158-.73589-.18768-.2995-.0677-.60114-.127-.90347-.18203-.46637-.0843-.9345-.15769-1.40405-.22437-.85549-.121-1.7145-.21907-2.57457-.30444-1.03435-.1023-2.0701-.18592-3.10692-.25718-1.11266-.0762-2.22638-.13829-3.34045-.18909-1.17898-.054-2.35867-.0949-3.5387-.12559-1.1684-.0303-2.33717-.0501-3.50557-.0607-2.33539-.0212-4.67113-.004-7.00546.0529-1.18004.0286-2.35973.0677-3.53906.11924-1.1236.0487-2.24649.10901-3.36868.18345-1.01988.0677-2.0394.14711-3.05717.24377-.46249.0441-.92463.0917-1.38642.14393-.4205.0476-.84067.0991-1.26012.15593-.38312.0519-.76553.1083-1.14688.1711-.32315.0529-.64594.11041-.96697.17462-.2681.0536-.5355.11254-.8008.17851-.22719.0568-.4526.11923-.67557.19155-.17357.0568-.34572.1196-.51188.1958-.0914.0413-.18098.0868-.26635.139-.0607.037-.11924.0773-.17392.12311-.0635.0529-.1217.11324-.16616.1831-.0526.0829-.0857.17955-.0854.27727 0 .0568.0113.11395.0307.16757.024.0656.0607.1256.10513.17921.0515.0621.11324.11572.17886.16334.066.0483.13582.0907.20743.12912.0483.0261.0974.0501.14676.0734.0829.0385.16722.0737.25223.10654.18274.0706.36972.12947.5581.1838.24342.0699.48895.1316.7359.18733.29985.0681.60113.12735.90346.18203.46672.0847.93486.15804 1.40405.22472.85584.12135 1.71486.21907 2.57458.3041 1.03434.1023 2.07045.18626 3.10726.25752 1.11266.0762 2.22603.1383 3.34045.1891 1.179.0536 2.35868.0949 3.53872.12558 1.1684.03 2.3368.0501 3.50555.0607 2.3354.0212 4.67078.004 7.00546-.0529 1.18004-.0286 2.35973-.0677 3.53872-.11924 1.1236-.049 2.24684-.109 3.36867-.18344 1.02023-.0677 2.03941-.1471 3.05717-.24377.46285-.0441.925-.0917 1.38642-.14394.42051-.0476.84067-.0991 1.26012-.15592.38312-.0522.76553-.10866 1.14724-.1711.32314-.0529.64558-.11042.96696-.17463.26811-.0536.53516-.11253.80045-.17885.2272-.0568.45297-.11889.67557-.19156.17392-.0564.34572-.11959.51223-.19544.091-.0416.18063-.0868.266-.139.0607-.037.11924-.0776.17392-.12312.0635-.0533.12206-.11359.16651-.18344.0522-.0829.0854-.1792.0854-.27728 0-.0572-.0113-.1136-.0307-.16722m-.8442.72037c-.6745.28434-1.37266.42122-2.08209.55598-1.17193.22296-2.3509.37183-3.53554.49918-1.5628.16792-3.12773.28822-4.69583.38418-3.76907.23106-7.53674.32102-11.3118.32102-3.7779 0-7.5484-.09-11.3203-.32138-1.56739-.096-3.1309-.2166-4.6923-.38417-1.18392-.12736-2.36184-.27658-3.53307-.49918-.70873-.13476-1.40617-.27164-2.07997-.55598-.19156-.0808-.64524-.25294-.64524-.5528 0-.30057.45403-.47237.64594-.55316.67416-.28434 1.37231-.42122 2.08174-.55633 1.17228-.2226 2.35127-.37183 3.5359-.49883C8.055.76622 9.62027.64557 11.18837.54962 14.95746.3189 18.72478.22894 22.49985.22894c3.77825 0 7.54873.09 11.32063.32138 1.56704.096 3.13091.21661 4.6923.38418 1.18392.12735 2.36185.27622 3.53272.49882.70908.13512 1.40652.272 2.08033.55633.19156.0808.64523.2526.64523.55281 0 .30021-.45438.47201-.64594.55315"/><path d="M37.5241 1.3837h-.53447v2.31705h.53446zm-26.48463.0001H8.02745v2.31703h.53446v-.49918h2.47756c.502 0 .90911-.40675.90911-.90875s-.4071-.9091-.9091-.9091m0 1.2834H8.5619v-.7486h2.47756c.20673 0 .3743.16757.3743.3743 0 .20673-.16757.3743-.3743.3743m20.86104-.72392c.72036.53587 1.4411 1.07174 2.16181 1.60761.20038.14922.46814.17251.6911.06a.66051.66051 0 00.36441-.59055V1.3838h-.53446v1.67746c0 .0473-.0162.0734-.0586.0945-.042.0212-.0727.0187-.11042-.01-.72072-.53587-1.44109-1.07174-2.16182-1.6076-.20073-.14888-.46813-.17216-.69144-.06-.2233.11218-.36407.34078-.36407.59054v1.6316h.53446V2.02778c0-.0473.0162-.0734.0582-.0945.0423-.0212.073-.0183.11077.01m-14.1596 1.75749v-1.4792c0-.0575-.006-.115-.0173-.17109-.0141-.0663-.036-.13124-.0653-.19227a.85284.85284 0 00-.12524-.18909c-.0448-.0508-.0956-.0967-.15134-.13546a.8275.8275 0 00-.1799-.0949c-.0462-.0176-.0938-.0314-.14254-.0406-.0169-.003-.0339-.006-.0511-.008-.0166-.002-.0335-.004-.0501-.005a.22644.22644 0 00-.0222-.001c-.0134-.0007-.0272-.0007-.0406-.0007H14.6474c-.0113.00035-.0226.001-.0335.001-.0134.0007-.0265.002-.0395.003-.0205.002-.0409.005-.0614.008-.0504.009-.10054.0222-.14887.0402-.0653.0243-.12735.0571-.1845.0967-.0564.0395-.1083.0857-.15346.1376a.8457.8457 0 00-.15487.2607.82025.82025 0 00-.0392.1471c-.005.0268-.008.0543-.0102.0818-.001.019-.002.0381-.002.0572v.004c0 .4932 0 .98602.00035 1.4792h.5334v-.49918h2.85397v.49918zm-3.38737-1.03364v-.44556c0-.006 0-.0123.00035-.0183a.2968.2968 0 01.0282-.11148c.0162-.0349.0395-.0663.0674-.0928a.3131.3131 0 01.097-.061c.018-.007.0363-.0123.055-.0155.0152-.003.03-.005.0452-.005.002-.00035.003-.00035.005-.00035h.54313c.56938.00035 1.13876.001 1.70815-.00036.16827-.00035.3048.13653.30444.3048-.00035.14852-.00035.29704-.00035.44556zm8.98644-.39238h-1.59103c-.11712 0-.21166.0949-.21166.21167v.32314h1.48484c.0843-.00035.11924.0342.11924.11818v.11853c0 .0349-.0102.06-.0346.0847-.0247.0247-.0494.0353-.0843.0353h-2.51954c-.1965 0-.35595-.1598-.35595-.3563V2.2748c0-.19685.15945-.3563.35595-.3563h3.03001v-.32315c0-.11677-.0945-.2113-.2113-.2113h-2.8187c-.49178 0-.89077.39863-.89077.89075v.53516c0 .49178.399.89077.89076.89077h2.57281c.2921 0 .52881-.23672.52881-.52882v-.63253c0-.0773-.0229-.13229-.0776-.18697-.0547-.0547-.1097-.0776-.18697-.0776m5.98573 1.42596v-1.4792c0-.0575-.006-.115-.0176-.17109a.84152.84152 0 00-.0649-.19227.85284.85284 0 00-.12524-.18909c-.0448-.0508-.0956-.0967-.15134-.13546a.8275.8275 0 00-.1799-.0949c-.0462-.0176-.0938-.0314-.14254-.0406-.0169-.003-.0339-.006-.0511-.008-.0166-.002-.0335-.004-.0501-.005a.22644.22644 0 00-.0222-.001c-.0134-.0007-.0272-.0007-.0406-.0007H26.2323c-.0113.00035-.0226.001-.0335.001-.0134.0007-.0265.002-.0395.003-.0205.002-.0409.005-.0614.008-.0504.009-.10054.0222-.14887.0402-.0653.0243-.12735.0571-.1845.0967-.0565.0395-.1083.0857-.15346.1376a.8457.8457 0 00-.15487.2607.84696.84696 0 00-.0395.1471c-.005.0268-.008.0543-.01.0818-.001.019-.002.0381-.002.0572v1.4832h.5334v-.49918h2.85432v.49918zm-3.38772-1.03364v-.44556c.00035-.006.00035-.0123.0007-.0183a.2968.2968 0 01.0282-.11148c.0162-.0349.0395-.0663.0674-.0928a.3131.3131 0 01.097-.061c.018-.007.0363-.0123.055-.0155.0152-.003.03-.005.0452-.005.002-.00035.003-.00035.005-.00035h.54313c.56938.00035 1.13876.001 1.70815-.00036.16827-.00035.3048.13653.30444.3048 0 .14852-.00035.29704-.00035.44556z"/></svg>