<svg xmlns="http://www.w3.org/2000/svg" height="800" width="1200" version="1.0" viewBox="-48.77556 -24.378625 422.72152 146.27175"><path d="M162.5.0145c-11.9935.3566-23.0055 7.0311-28.4687 18.1563-3.6717 7.477-3.9664 19.1345-.6563 26.3437 4.4447 9.6804 14.1126 17.184 24.2813 18.8438 24.4425 3.9896 44.4888-19.647 36.0312-42.4688-3.001-8.0976-11.3663-16.4674-19.0312-19.0312C170.6148.5065 166.4979-.1044 162.5.0145zm-.25 3.625c1.852.069 2.1643.7825.1563 1.9063-3.7854 2.1184-8.8742 7.273-11.4063 11.5937-1.4493 2.473-3.1492 6.8187-3.7812 9.625l-1.1563 5.0938-1.5937-2.5c-2.2468-3.4639-4.0962-11.4396-3.3438-14.4375.8562-3.4114 9.6633-9.2065 16.2813-10.6875 2.0427-.4572 3.7325-.6351 4.8437-.5938zm17.3125 6.0938c1.3932.0613 2.4839.8644 4.375 2.875 1.6998 1.807 4.1752 5.6228 5.5 8.5 1.3684 2.972 2.2726 6.5628 2.0938 8.3125l-.3125 3.0937-3.9063-4.6875c-4.818-5.7829-11.168-9.9047-17.6875-11.4687-7.4218-1.7805-5.009-3.6484 8.4063-6.4688.5743-.1207 1.0668-.1767 1.5312-.1562zm-16.4687 8.0312c6.9587-.2353 14.625 6.9106 14.625 14.125 0 4.5364-3.2129 9.7072-7.5938 12.2188-4.7618 2.73-8.8134 2.8469-13.4062.4062-12.6835-6.74-9.4523-23.9449 5-26.5937.4552-.0835.911-.1406 1.375-.1563zm-5.1563 4.6563l-.375 1.4062h2.2813l-3.7813 12.4063-.5903.6863-1.1545.1974-1.0688 2.2662 18.0011.0376 3.25-7.8438-2.1875.0313-.7187 2.2812s-.756 2.1727-1.4641 2.641c-.9178.6069-4.0579.4189-4.0579.4189l-3.361-.0578 3.633-12.8458 2.4375-.0313.375-1.5625zm-23.2187 8.8125l5.1562 5.625c5.4044 5.9132 11.9269 9.8938 18.1563 11.0625 2.032.3812 3.6875 1.0396 3.6875 1.4687 0 .429-1.7773 1.4982-3.9688 2.375-7.1279 2.852-11.221 3.0456-14.2187.6875-3.5151-2.765-8.8125-13.4762-8.8125-17.8125zm45.5937 2.0937c1.3208-.1522 4.4215 6.3863 5.0938 12.0625.5309 4.4827.4198 4.7327-3.4688 7.8125-2.2165 1.7555-5.539 3.8381-7.375 4.5938-1.836.7556-5.2949 1.6683-7.6875 2.0625l-4.3437.7187 6.9375-6.8437c6.7297-6.646 10.25-13.02 10.25-18.5313 0-1.2524.2239-1.8324.5937-1.875zM35.2812 78.077l-2.5312.5938s-1.5215.4539-2.0625 1.0625c-.5362.6031-1.125 2.2187-1.125 2.2187s-.7294 1.8213-.6563 2.625c.0692.7595.8898 2.6245 1.2188 3.3125.4274.8936 1.699 1.9842 2.5625 2 4.9989.0915 13.3438.1875 13.3438.1875s.5002.3526.6562.5625c.1818.2447.3735.625.4063.9063.0434.3736-.1206.9533-.25 1.1875-.182.3291-.8125.6875-.8126.6875h-16.875v.8125c0 .44.2749 1.4748 1 2.0625 0 0 .8704 1.1336 1.4063 1.125 0 0 13.063.0985 18.875-.0313.4788-.0107.8217-.5202 1.163-.9554.314-.4007.5797-1.1367.7745-1.607.2674-2.1384.3871-4.4972-.125-6.5938-.2134-.3924-.4687-1.3823-.8438-1.625-.375-.2427-1.115-.7119-1.5-.7188 0 0-10.2189-.0522-14.4062-.0625-.5203-.0013-.3896-1.1746-.3692-1.6944.0213-.5458-.0206-1.7319.5254-1.743 4.7981-.0972 16.5-.0313 16.5-.0313v-1.5s-.3898-.9912-.7812-1.375c-.4169-.4089-1.3992-.8675-1.9375-1.0938-.759-.319-2.4062-.3125-2.4063-.3125zm20.875 0v19.3438h5.875v-7.3125h12.0313v7.3125h6.0938V78.077s-1.475.2106-2.4867.4184c-.8121.1668-2.0302.5681-2.632 1.1383-.6627.628-.9566 2.3623-.9566 2.3623l-.0185 3.4873H62.0312v-3.25s.0798-2.269-.5937-3c-.5369-.5828-1.55-.6864-2.375-.7813-.825-.095-2.9062-.375-2.9062-.375zm92 0v19.3438h19v-5h-13.5c.0629-4.1884.0837-8.375 0-12.5625-.6953-.9807-1.249-.8155-2.0729-1.25-.8094-.4268-3.427-.5313-3.427-.5313zm73 .4375v18.9063h19v-5H227.25s-.128-4.2723-.3125-12.2188c-.0218-.9311-2.1053-1.493-3.0312-1.5937-.8256-.0898-2.75-.0938-2.75-.0938zM87.0626 78.077c-.6656.001-2.1686 1.2719-2.5938 1.6875-.3994.3906-1.2107 1.7094-1.2187 2.375-.0945 3.8747-.1011 7.7495-.0938 11.625.0027.74.691 1.6076 1.1876 2.1563.4964.5486 1.385 1.4902 2.125 1.5 6.3428-.0791 12.6896.1479 19.0312 0 .7392-.034 1.6389-.7223 2.1875-1.2188.5486-.4965 1.4242-1.6548 1.4311-1.9433.0476-1.9858.0376-6.4004.0376-6.4004s.0302-2.853-.0625-5.5938c-.0242-.702-.4778-2.3528-.9375-2.8125-.4596-.4596-1.5687-1.3733-2.2187-1.375-4.9638-.013-12.92-.0087-18.875 0zm184.0938.3125v19.0313h6.2812V83.577L288.5 97.4208h8.6563v-19h-6V91.452c-3.3683-4.2649-7.1304-8.158-10.909-12.0517-.9132-.9362-4.5812-.9668-4.5812-.9668zm-19.625 0l-10.4688 19.0313h6.875l2-3.0625 10.9688.0625 2.0312 3.0937 6.375-.0937-.3125-.875c-2.974-6.1211-6.2224-12.1096-9.3437-18.1563zm-139.375-.3125v19.3438h6v-7h1.0625c.583 0 3.1351 1.575 5.6562 3.5l4.5625 3.5h8.1875l-3.9375-3.25c-2.164-1.7875-4.861-3.9742-5.9687-4.875l-2-1.6563 4.9687-4.5625 4.8935-5h-7.5243l-4.0254 3.8438c-2.1308 1.925-4.3266 3.5-4.875 3.5h-1V78.077zm188 .3438v19c7.1145-.0525 14.2295.08 21.3437 0 .7833-.0165 1.765-.5969 2.3438-1.125.563-.5138 1.3015-1.4254 1.3125-2.1875-.0103-4.0102.0365-8.0211 0-12.0313-.0126-.7535-.6831-1.6276-1.1875-2.1875-.5139-.5702-1.3424-1.3178-2.1095-1.3468zm-81.0313.0937h-6.1562l-6.8125 6.8125-3.4375-3.5312-3.0938-3.2813h-6.6875l5.1875 6.375 5.0313 5.9375v6.5938h6V90.827l5.0312-6.4062zm-27.9687.1875s-12.5976.1206-18.125.125c-.4353.0004-1.487.3024-1.8125.5938-.3795.3394-1.0365 1.2096-1.0313 1.7187l-.0312 16.2813h21v-5h-15v-2.4734h15v-4.0752h-15V83.327h15zm-181.125-.625L0 97.4208l6.4063.0312 1.6875-3.0312 11.625-.0313c.706 1.2886 1.0359 1.901 1.7187 3.0313h7.125L18.625 78.077zm245.375 5l2.9062 6.3438h-6.2187zm-241.0568-.1886l2.9942 6.5324-6.5312-.0313c1.3099-2.3258 1.8105-3.787 3.537-6.5011zm303.338.4074s.548.3258.7188.5312c.2011.242.4375.9375.4375.9375v6.7188s-.2557.4324-.4063.5937c-.1484.159-.5625.4375-.5625.4375h-11.7187V83.327zm-225.3438.5312c2.9063.0043 5.8126.0043 8.7188 0 .9378.0368 1.2413.1841 1.406.457.1831.3033.2294 1.2575.219 2.1993-.0128 1.1671-.024 3.4183-.05 4.5949 0 0 .02.8039-.1754 1.0052-.1885.1942-1.2775.2998-1.2775.2998h-9.452c-2.0279.1214-2.1433-.6404-2.2575-1.6253-.008-1.1377-.0064-1.8388.0249-3.9309.0531-1.9688-.2262-2.8162 1.3078-2.9875.5217-.0583.7212-.016 1.536-.0125z" fill="#016fb6"/></svg>