<svg xmlns="http://www.w3.org/2000/svg" height="800" width="1200" version="1.0" viewBox="-56.3874 -36.0245 488.6908 216.147"><path d="M221.867 32.301l-.186.081c-2.279 1.027-4.445 1.741-7.654 2.975-5.047 2.055-9.693 4.688-13.508 8.537a39.46 39.46 0 00-2.961 3.703l-.162.228c-8.931 12.768-11.3 30.76-11.958 41.492l-.049 1.272c-.033 2.034-.1 3.378-.1 3.648 0-.986.049-2.229.1-3.648.172-9.636.021-34.48-13.012-33.91 3.721-.39 8.76-1.018 8.857-2.752.098-1.662-5.295-3.41-10.283-3.41-.574 0-2.416-.055-2.96-.02 4.806-.319 11.693-1.196 11.68-2.775-.015-1.589-4.707-3.79-10.651-4.147-2.629-.182-4.617-.07-4.742-.07a78.57 78.57 0 013.285-.092c.469.004.759-.06 1.56-.075 5.677-.406 10.362-1.672 10.743-3.848.711-4.054-19.953-4.865-23.065-5.259 1.374 0 16.136-.049 16.689-.049 22.547 0 40.825-6.173 40.825-14.054 0-7.878-30.117-21.188-72.142-13.272C152.48.308 180.718-.173 184.193.037c28.169 1.71 49.55 10.057 49.55 20.091 0 4.541-4.379 8.736-11.781 12.128z" fill="#ED1C24"/><path d="M353.048 138.516c-4.282 0-13.405.474-13.405-6.309 0-12.61 7.829-14.192 17.347-14.192 2.992 0 7.886 2.73 7.886 5.52-.001 8.345-2.853 14.981-11.828 14.981zm-172.386-19.515c3.492-.007 20.83-1.164 20.83 2.4 0 3.094-2.396 4.855-5.666 4.855l-16.16.004zm148.731 10.053v4.73c0 8.107 10.621 10.251 18.924 10.251 15.481 0 27.599-4.365 27.599-19.713 0-11-14.148-11.827-23.655-11.827-10.383 0-22.868 6.175-22.868 16.56zm-128.709 2.06c13.428-1.117 14.865-17.81 0-17.81h-29.142l-5.488 30.794 10.345-.033 1.917-12.087 10.225-.055c2.29 0 8.278 9.797 8.905 12.142h11.332zm71.189-17.818l-10.479.01-3.58 21.795c.104 5.342 6.49 8.965 11.676 8.965h19.428l.811-4.856c-4.18 0-8.135.346-11.6.243-8.424-.248-10.699-2.463-9.297-9.94zm-130.51 6.31l5.007 11.542-13.803-.126zm-18.391 24.46l6.476-7.286h19.428l2.545 7.241 11.216.044-16.19-30.76h-7.286l-26.713 30.76zm-108.358-25.08l13.646-.015c6.144-.004 6.477 1.547 6.477 4.856 0 2.522-4.005 4.048-6.477 4.048l-14.754-.023zm14.456 14.556c7.345 0 17-3.439 17-10.523V121.4c0-7.986-11.199-8.096-19.428-8.096H5.595L0 144.08l10.452-.014 1.665-10.516zm84.859-20.264l-10.386.026-3.377 21.023-1.479.023-15.381-21.047H71.973l-5.833 30.73 10.69.03 3.499-22.62 17.548 22.62 10.176-.066zm-49.249.026l-10.515.001-5.797 30.736 10.622.02zm161.906 12.953c1.133-11.493 25.211-8.185 28.471-8.467l.672-4.485h-18.617c-13.381 0-23.477 6.981-23.477 20.237 0 10.721 15.824 10.523 23.266 10.523h13.973l.879-5.652-21.117-.014c-4.66 0-5.666-2.537-5.666-7.285h27.373l.959-4.857zm81.422-12.96l-10.479.008-3.582 21.796c.105 5.342 6.49 8.965 11.678 8.965h19.428l.809-4.856c-4.178 0-8.135.346-11.598.243-8.426-.248-10.699-2.463-9.297-9.94z" clip-rule="evenodd" fill-rule="evenodd"/></svg>