<svg xmlns="http://www.w3.org/2000/svg" height="800" width="1200" viewBox="-25.3302 -35.864 219.5284 215.184"><path fill="none" d="M0 143.456h168.868V0H0"/><path d="M107.345 48.866c-.157-9.635-8.038-17.425-17.71-17.425-9.67 0-17.551 7.791-17.708 17.425-6.255 2.738-10.637 8.983-10.637 16.236 0 9.77 7.947 17.716 17.716 17.716 3.985 0 7.667-1.324 10.63-3.553a17.627 17.627 0 0010.63 3.553c9.769 0 17.717-7.948 17.717-17.716-.001-7.252-4.384-13.498-10.638-16.236zm-10.701 14.61a17.682 17.682 0 00-5.608-11.364 15.86 15.86 0 016.28-2.677c1.565 2.944 3.007 6.52 4.284 10.244a15.999 15.999 0 01-4.956 3.796zm-7.008 13.498a15.911 15.911 0 01-5.283-10.905c1.669.522 3.444.805 5.283.805 1.839 0 3.614-.282 5.283-.805a15.917 15.917 0 01-5.283 10.905zM77.67 59.68c1.277-3.725 2.718-7.3 4.284-10.244a15.853 15.853 0 016.28 2.677 17.678 17.678 0 00-5.608 11.363 16.041 16.041 0 01-4.956-3.796zm-1.295-1.679a15.85 15.85 0 01-2.658-7.938 15.869 15.869 0 015.288-.905c.365 0 .725.017 1.083.041-1.262 2.438-2.5 5.371-3.713 8.802zm6.494-10.185c2.089-3.479 4.373-5.745 6.766-5.745s4.677 2.266 6.766 5.745a17.65 17.65 0 00-6.766 3.123 17.635 17.635 0 00-6.766-3.123zm6.766 17.286c-1.853 0-3.632-.32-5.288-.905a15.912 15.912 0 015.288-10.967 15.916 15.916 0 015.288 10.967 15.873 15.873 0 01-5.288.905zm9.546-15.904a15.864 15.864 0 016.371.864A15.843 15.843 0 01102.895 58c-1.212-3.43-2.451-6.363-3.713-8.802zm-9.546-15.985c8.467 0 15.41 6.635 15.913 14.978a17.674 17.674 0 00-7.293-.688c-2.776-4.788-5.658-7.204-8.62-7.204-2.961 0-5.844 2.416-8.62 7.204a17.647 17.647 0 00-7.293.688c.502-8.344 7.446-14.978 15.913-14.978zM63.06 65.103c0-6.279 3.649-11.719 8.936-14.318a17.626 17.626 0 003.679 9.262l-.096.287c-2.547 7.735-4.25 15.547-4.835 18.402-4.604-2.8-7.684-7.864-7.684-13.633zm15.945 15.945c-2.366 0-4.61-.522-6.631-1.45.86-4.412 2.489-11.314 4.659-18.003a17.778 17.778 0 005.523 3.8 17.67 17.67 0 005.679 12.7 15.867 15.867 0 01-9.23 2.953zm12.03-2.956a17.673 17.673 0 005.679-12.699 17.782 17.782 0 005.524-3.8c2.169 6.69 3.797 13.591 4.659 18.003a15.851 15.851 0 01-6.632 1.45 15.834 15.834 0 01-9.23-2.954zm17.49.644c-.585-2.855-2.288-10.667-4.834-18.402l-.097-.287a17.614 17.614 0 003.679-9.262c5.288 2.6 8.937 8.04 8.937 14.318 0 5.77-3.081 10.833-7.684 13.633zm25.361 23.874a1.82 1.82 0 01-.646-.469 2.171 2.171 0 01-.415-.726 2.848 2.848 0 01-.147-.94v-2.263c0-.38.058-.714.174-1.002.116-.288.269-.529.458-.722.19-.193.412-.337.664-.432.252-.095.512-.142.779-.142.285 0 .55.052.797.156.246.104.449.264.606.481.157.217.28.498.37.842.065.255.11.547.138.873.026.327.04.674.04 1.042 0 .285-.014.603-.04.953a8.376 8.376 0 01-.103.864c-.101.517-.3.92-.597 1.212-.297.291-.712.436-1.247.436a2.045 2.045 0 01-.831-.164m-1.207 4.478v-3.93c.137.178.319.362.548.552.229.19.51.34.846.45.336.11.732.165 1.189.165.374 0 .754-.062 1.14-.187.387-.125.73-.343 1.034-.655.303-.312.54-.703.713-1.17a5.92 5.92 0 00.303-1.28c.065-.49.098-1.064.098-1.724 0-.742-.042-1.395-.125-1.956a4.97 4.97 0 00-.437-1.475c-.511-1.009-1.41-1.514-2.7-1.514-.635 0-1.17.13-1.607.388a3.068 3.068 0 00-1.056 1.03l-.044-1.132h-1.693v12.438zm-7.95-4.478a1.82 1.82 0 01-.646-.468 2.154 2.154 0 01-.415-.726 2.822 2.822 0 01-.147-.94v-2.263c0-.38.058-.714.173-1.002a2.17 2.17 0 01.459-.722c.19-.193.41-.337.663-.432.252-.095.513-.142.78-.142.285 0 .55.052.797.156.246.104.448.264.606.481.157.217.28.498.37.842.065.255.11.547.138.873a12.69 12.69 0 010 1.995 8.376 8.376 0 01-.103.864c-.101.517-.3.92-.597 1.212-.297.291-.712.436-1.247.436-.3.001-.578-.054-.831-.164m-1.207 4.478v-3.93c.136.178.319.362.548.552.229.19.51.34.846.45.336.11.732.165 1.189.165a3.68 3.68 0 001.14-.187 2.505 2.505 0 001.034-.655 3.28 3.28 0 00.712-1.17 5.78 5.78 0 00.303-1.28c.066-.49.099-1.064.099-1.724 0-.742-.042-1.395-.125-1.956a4.97 4.97 0 00-.437-1.475c-.511-1.009-1.411-1.514-2.7-1.514-.635 0-1.171.13-1.607.388a3.068 3.068 0 00-1.056 1.03l-.045-1.132h-1.692v12.438zm-6.497-3.168c.46-.27.85-.628 1.17-1.073l.019 1.185h1.692v-9.38h-1.791v5.531c0 .315-.068.661-.205 1.038a2.353 2.353 0 01-.726 1.002 1.787 1.787 0 01-1.18.436c-.535 0-.933-.135-1.194-.405-.261-.27-.392-.693-.392-1.27V94.65h-1.791v6.824c0 .546.08 1.002.24 1.368.16.365.37.658.628.877.258.22.549.376.873.468.324.092.648.138.975.138.662 0 1.22-.135 1.682-.405m-8.54.111v-4.32c0-.393.05-.847.152-1.364a2.59 2.59 0 01.735-1.359c.389-.389.913-.583 1.572-.583.22 0 .383.012.49.036v-1.809h-.231c-.606 0-1.152.176-1.64.526-.486.35-.873.84-1.157 1.47l-.018-1.978h-1.692v9.381zm-8.65 0v-3.76l1.239-1.256 2.458 5.016h2.03l-3.18-6.352 2.976-3.029h-2.13l-3.393 3.465v-6.78h-1.79v12.696zm-9.36 0v-5.533c0-.32.07-.673.21-1.06.14-.386.38-.72.726-1.006a1.817 1.817 0 011.194-.428c.534 0 .923.137 1.167.41.243.273.365.694.365 1.265v6.352h1.79v-6.824c0-.552-.1-1.05-.297-1.497a2.082 2.082 0 00-.918-1.007c-.413-.225-.895-.338-1.447-.338-.665 0-1.23.134-1.693.401a3.76 3.76 0 00-1.176 1.07l-.018-1.186h-1.693v9.381zm-9.1-6.802c.105-.359.243-.645.415-.855.172-.21.377-.359.615-.445a2.433 2.433 0 011.688.049c.3.12.54.392.722.82.18.426.272 1.02.272 1.781h-3.884c.01-.54.069-.99.173-1.35m3.367 6.891c.46-.136.85-.346 1.167-.628.317-.282.589-.637.815-1.064l-1.417-.73c-.077.13-.19.282-.338.454-.148.172-.361.322-.637.45a2.208 2.208 0 01-.94.192c-.327 0-.625-.042-.895-.125a1.628 1.628 0 01-.7-.428c-.196-.202-.347-.472-.454-.81-.107-.34-.161-.76-.161-1.266v-.258h5.657v-.98c0-.422-.021-.864-.062-1.328a4.828 4.828 0 00-.29-1.296 3.096 3.096 0 00-.672-1.065 2.899 2.899 0 00-1.007-.637c-.404-.157-.903-.236-1.497-.236-.641 0-1.185.082-1.63.245-.445.164-.82.403-1.123.718a3.38 3.38 0 00-.61.877c-.181.36-.32.826-.414 1.4a11.919 11.919 0 00-.143 1.937c0 .552.03 1.05.089 1.492.06.443.164.851.312 1.225.25.647.658 1.154 1.225 1.52.567.364 1.314.547 2.24.547a5.213 5.213 0 001.485-.206m-9.203.112c.306-.062.576-.144.81-.245.236-.1.438-.212.607-.334.169-.12.3-.245.396-.369.184-.232.333-.482.445-.753.113-.27.169-.61.169-1.02a2.94 2.94 0 00-.116-.882 2.867 2.867 0 00-.268-.615 3.023 3.023 0 00-.615-.646c-.267-.217-.79-.444-1.568-.682a15.043 15.043 0 01-1.042-.338 4.582 4.582 0 01-.771-.36 1.572 1.572 0 01-.477-.42.886.886 0 01-.16-.52c0-.405.127-.71.383-.918.154-.137.34-.232.56-.285.22-.054.479-.08.776-.08.439 0 .81.093 1.114.28.303.187.54.477.712.87l1.435-.696c-.255-.624-.662-1.088-1.221-1.394-.558-.306-1.244-.459-2.058-.459-.458 0-.898.057-1.323.17a3.022 3.022 0 00-1.07.498c-.288.22-.506.475-.654.766a2.425 2.425 0 00-.272.721 3.53 3.53 0 00-.076.686c0 .238.036.49.107.753.072.265.193.506.366.726.136.172.332.352.587.54.255.186.576.354.962.502l1.372.507c.243.095.49.196.744.303.253.107.453.251.602.432.148.181.223.423.223.726a.94.94 0 01-.143.53 1.074 1.074 0 01-.383.352c-.16.09-.347.153-.561.191a3.822 3.822 0 01-.686.058 2.38 2.38 0 01-.712-.098 2.076 2.076 0 01-1-.676 2.994 2.994 0 01-.33-.508l-1.478.66a3.044 3.044 0 001.238 1.513c.303.184.64.331 1.01.441.373.11.825.165 1.36.165.366.001.7-.03 1.006-.092m-8.02 0c.307-.062.577-.144.812-.245.235-.1.437-.212.606-.334.169-.12.3-.245.396-.369.185-.232.333-.482.446-.753.113-.27.169-.61.169-1.02a2.94 2.94 0 00-.116-.882 2.82 2.82 0 00-.267-.615 2.998 2.998 0 00-.615-.646c-.268-.217-.79-.444-1.568-.682a15.043 15.043 0 01-1.042-.338 4.582 4.582 0 01-.771-.36 1.572 1.572 0 01-.477-.42.879.879 0 01-.16-.52c0-.405.127-.71.383-.918a1.28 1.28 0 01.56-.285c.22-.054.48-.08.776-.08.439 0 .81.093 1.113.28.303.187.54.477.713.87l1.434-.696c-.255-.624-.662-1.088-1.22-1.394-.558-.306-1.244-.459-2.058-.459-.458 0-.898.057-1.323.17a3 3 0 00-1.07.498c-.288.22-.505.475-.654.766a2.45 2.45 0 00-.271.721 3.53 3.53 0 00-.076.686c0 .238.036.49.107.753.07.265.193.506.365.726.137.172.333.352.588.54.255.186.576.354.962.502l1.373.507c.243.095.49.196.744.303.253.107.453.251.602.432.148.181.223.423.223.726a.947.947 0 01-.143.53 1.074 1.074 0 01-.383.352c-.16.09-.348.153-.562.191a3.814 3.814 0 01-.686.058c-.268 0-.505-.033-.713-.098a2.055 2.055 0 01-.998-.676 2.994 2.994 0 01-.33-.508l-1.48.66a3.044 3.044 0 001.24 1.513c.303.184.64.331 1.01.441.372.11.825.165 1.359.165.363.001.697-.03 1.003-.092m-10.918 2.935c.338-.095.668-.324.988-.686.32-.362.618-.9.89-1.613l3.992-10.218H60.69l-2.45 6.495-2.334-6.495H54.08l3.234 8.944-.418.891a2.755 2.755 0 01-.521.864c-.223.25-.542.374-.958.374-.148 0-.288-.012-.42-.036v1.586c.162.023.372.036.634.036.309.001.632-.047.97-.142M47.7 104.03v-5.533c0-.32.07-.673.21-1.06a2.31 2.31 0 01.726-1.006 1.82 1.82 0 011.194-.428c.535 0 .923.137 1.167.41.244.273.366.694.366 1.265v6.352h1.79v-6.824c0-.552-.1-1.05-.298-1.497a2.085 2.085 0 00-.917-1.007c-.413-.225-.895-.338-1.448-.338-.641 0-1.186.122-1.634.365a3.594 3.594 0 00-1.154.998v-4.393h-1.79v12.696zm-3.338 0v-1.479a6.69 6.69 0 01-.677.036 1.84 1.84 0 01-.682-.107.918.918 0 01-.414-.32 1.283 1.283 0 01-.205-.535 4.57 4.57 0 01-.053-.749v-4.82h1.933V94.65H42.33v-3.314h-1.782v3.314h-1.212v1.407h1.212v4.838c0 .481.04.92.12 1.314.08.395.226.73.437 1.007.21.276.5.49.868.641.368.152.84.228 1.417.228.344 0 .668-.018.97-.054z" fill="#0095d8"/></svg>