<svg xmlns="http://www.w3.org/2000/svg" height="800" width="1200" viewBox="-59.861955 -22.242925 518.80361 133.45755"><path d="M399.0795 63.6301c-.322-7.4656-3.7363-19.9652-20.1634-21.5436 14.6234-2.197 17.5222-11.9023 17.5866-19.5386.1285-7.7642-4.6382-21.0956-23.9642-21.117-2.77.02-75.8864.02-75.9508 0v62.2632L270.369 1.431h-47.4773l-22.7401 56.3974-24.093-56.4187h-47.8639l-20.6142 52.2806c-2.1259-14.654-15.9761-21.8422-47.3485-21.2877-15.7828.2985-21.1296-1.8984-21.1296-8.4254 0-6.2925 5.7333-8.6815 13.7858-8.4042 7.8592.3415 14.43 1.5998 14.4944 12.073h37.299C104.746 4.5665 77.2387.1938 54.8206.0018 32.5315-.1047 4.509 4.5665 3.8003 27.3259c-.6442 22.6528 17.2 26.7056 42.4525 26.3643 23.2555-.2775 22.869 6.591 22.9978 9.0654-.0645.1495 0 .2775 0 .469.0645 2.6876-1.4171 8.5108-16.3625 8.2548-10.8225 0-14.1724-4.906-15.0743-8.2548-.58-1.8558-.4505-3.2422-.4505-3.1782-7.537-.064-37.299-.064-37.3633 0 .0645.9812.129 2.0477.193 3.1782C1.739 75.788 12.8836 89.6102 55.2718 88.9489c33.9492-.3415 38.2008-7.103 41.6151-9.5133l-2.5124 7.295h30.9859l5.6045-13.5021h42.3237l5.669 13.502h41.9372l5.6045-13.502h42.3237l5.6046 13.502h101.7831c16.5558.02 22.8045-14.142 22.869-23.1006-.0645-.256-.0645.2345 0 0zM139.2749 53.3702l12.8195-31.0569 12.9483 31.057zm95.5344-.02l12.8195-31.0142 12.884 31.0142zm93.2797-19.3466V21.76h26.7342c3.4786-.02 6.1198 2.7517 6.1198 6.1432s-2.9633 6.1004-6.313 6.1004zm0 30.481V52.4118h28.538c3.3498 0 6.313 2.6663 6.313 6.0365 0 3.3488-2.9632 6.0578-6.313 6.0578" fill="#c8c8c8"/></svg>