<svg xmlns="http://www.w3.org/2000/svg" height="800" width="1200" viewBox="-37.19943 -8.649 322.39506 51.894"><g fill-rule="evenodd"><path fill="#d50000" d="M212.7862 0l-29.88 34.596h14.64l29.82-34.568-14.58-.0278zm20.63 0l-29.88 34.596h14.64l29.82-34.568-14.58-.0278z"/><path d="M61.8572 8.3164c-4.243-.0127-19.133.3624-19.133 7.1714 0 4.791 6.966 6.171 12.717 6.791 4.071.439 7.522.418 7.522.418s3.235.129 7.154-.093c6.08-.346 13.82-1.716 13.82-7.118 0-7.1323-20.21-7.1577-20.988-7.1577-.097 0-.486-.0099-1.092-.0117zm-39.972.1992l-19.743.0078c.0004 0-.925-.0792-1.4762.3516-.5147.4018-.5195 1.3088-.5195 1.3088L0 20.9058c0 1.661 1.8848 1.53 1.8848 1.53l20.689-.016s6.8.169 11.438-1.402c3.04-1.029 4.603-3.002 4.603-5.508 0-2.804-2.701-4.74-6.361-5.756-4.598-1.275-10.369-1.2382-10.369-1.2382zm88.021 0l-19.736.0078s-.926-.0792-1.477.3516c-.515.4018-.519 1.3088-.519 1.3088l-.149 10.722c0 1.661 1.885 1.53 1.885 1.53l20.696-.016s6.79.169 11.43-1.402c3.04-1.029 4.61-3.002 4.61-5.508 0-2.804-2.7-4.74-6.37-5.756-4.59-1.275-10.37-1.2382-10.37-1.2382zm59.07.0156c-.18 0-22.9.0176-22.9.0176s-1.7-.0096-3.96.1934c-4.53.4058-11.33 1.7876-11.33 6.7456 0 2.307 1.25 3.941 3.41 4.973 4.7 2.126 12.88 1.967 12.88 1.967h20.44c1.79 0 1.97-1.058 1.97-1.772 0-.713.05-3.541.05-5.168 0-1.626-1.76-1.488-1.76-1.488h-18.19c-.8 0-.8.651-.8.651s-.04.838-.04 1.582c0 .746.76.726.76.726h10.49c.69 0 .77.557.77.557v1.26c0 .648-.69.691-.69.691h-12.04c-1.86 0-8.38 0-8.38-3.979 0-3.978 7.7-4.015 7.7-4.015h21.51c.87 0 .75-1.047.75-1.047V9.1152c0-.5695-.46-.584-.64-.584zm7.06.0098c-1.61 0-2.13.2627-2.18 1.7498-.04 1.176-.17 8.523-.17 10.223 0 1.698.94 1.914 2.06 1.914h32.96c.74 0 .71-.574.71-.705v-1.637c0-.623-.91-.619-.91-.619h-24.93c-.97 0-.94-.602-.94-.602s.01-.57.01-1.207c0-.635.58-.738.86-.738h23.46c.69 0 .68-.648.68-.648v-1.621c0-.701-.85-.674-.85-.674h-23.37c-.78 0-.79-.791-.79-.791l.02-.883c0-.766.77-.83.77-.83h24.72c.73 0 .83-.527.83-1.047V9.1152c0-.631-.87-.5742-.87-.5742zm-113.02 2.7288c2.066 0 12.055.18 12.055 4.267.011 4.391-9.321 4.137-12.055 4.137-2.735 0-11.355-.168-11.355-4.137 0-4.392 9.288-4.267 11.355-4.267zm-40.947.203s2.776.107 4.898.912c1.663.631 2.786 1.769 2.786 3.109 0 1.128-.731 2.265-2.053 2.871-2.261 1.035-5.641 1.098-5.641 1.098l-12.738.008s-.7188.018-.7188-.649c0 0 .1133-6.597.1133-6.683 0-.087-.0083-.658.7515-.658.874 0 12.602-.008 12.602-.008zm88.022 0s2.78.107 4.9.912c1.67.631 2.79 1.769 2.79 3.109 0 1.128-.73 2.265-2.06 2.871-2.26 1.035-5.64 1.098-5.64 1.098l-12.735.008s-.716.018-.716-.649c0 0 .111-6.597.111-6.683 0-.087-.008-.658.752-.658.873 0 12.598-.008 12.598-.008z"/></g></svg>