<svg xmlns="http://www.w3.org/2000/svg" height="800" width="1200" xml:space="preserve" y="0" x="0" id="Livello_1" version="1.1" viewBox="-42.1968 -106.604 365.7056 639.624"><style id="style2783" type="text/css">.st3{fill:#fff}</style><path d="M10.648 139.416h260c-2 68.7-3 137.9-6 213-1 23.9.5 53.8-10 63-9.1 8-35.6 6-56 6h-122c-20.3 0-44.2 1.9-53-8-9.4-10.5-7.5-42.5-8-64-1.7-70.2-4.4-139.3-7-207-.2-1.4.7-2.7 2-3z" id="FIAT_background" fill-rule="evenodd" clip-rule="evenodd" fill="#e00000"/><path d="M251.848 5.416c-94.7.5-222.9-4.6-235 4-15.4 11-10.2 40.2-10.1 58 .2 22.9 1.8 39.3 2 65h265.3c-7-39.4 24.2-127.3-22.2-127z" id="polski_background" fill-rule="evenodd" clip-rule="evenodd" fill="#fff"/><path id="path2787" d="M272.648 8.416c-10.5-10.3-42.1-7.9-65.5-7.9h-134.1c-27.3 0-51.1-3.1-63.4 5.9-11.6 8.5-9.9 23-9 45 4.7 109.8 8.4 207.6 10 314 .2 15.7-.7 40.1 5 49 9.2 14.4 36.1 11 63 11h122c17.3 0 45.2 4 57-4 12.8-8.6 11.1-30.2 12-53 3.5-86.9 5.5-171.8 8-250 .2-29.7 10.8-94.5-5-110zm-8 344c-1 23.9.5 53.8-10 63-9.2 8-35.6 6-56 6h-122c-20.3 0-44.2 1.9-53-8-9.4-10.5-7.5-42.5-8-64-1.7-70.3-7-210-7-210h262.4c-2 68.7-3.4 138-6.4 213zm7-220h-263c-.2-25.7-1.8-42.1-2-65-.1-17.8-5.3-47 10-58 12-8.6 139.1-3.5 233-4 25.1.8 28.6 22.1 27.3 49.6-1.3 26.7-4.5 58.5-5.3 77.4z" fill-rule="evenodd" clip-rule="evenodd"/><g transform="translate(.048 .516)" id="polski_2_"><g id="g2801"><path id="path2789" d="M212.3 113.2V76.5c0-.8-.2-1.7-.4-2.5-.2-.7-.7-1.1-1.4-1.3-1.7-.3-3.4-.4-5.1-.4v41h-10.6V23.2h10.6v39.1c0 .8 0 .7.6.6 1.1-.1 2.1-.1 3.1-.3 2-.4 2.9-1.5 3.1-3.6.1-.6.1-1.3.1-1.9V23.2h10.6v35.1c0 .9-.1 1.9-.3 2.8-.5 2.6-2.2 4.1-4.3 5.4-.1.1-.3.1-.5.2 1.2.4 2.2.9 3.1 1.6 1.3 1.1 2 2.4 2 4.2v40.7z"/><path id="path2791" d="M101.7 68.6v33.9c0 1.8-.2 3.5-.9 5.2-1.1 2.4-3 3.8-5.2 4.8-1.8.8-3.7 1.2-5.6 1.3-2.7.2-5.4.1-8-.6-1.8-.5-3.4-1.2-4.9-2.3-2.2-1.7-3.3-4.1-3.5-6.9V35.3c0-1.9.2-3.8.9-5.6 1.3-3.3 3.8-5.4 7.1-6.3 2.8-.8 5.7-.9 8.6-.7 1.4.1 2.8.3 4.2.6 4 .8 6.2 3.5 7 7.5.3 1.4.4 2.8.4 4.2-.1 11.1-.1 22.3-.1 33.6zm-17.6-.3v35.6c.1 1.3.9 2.3 2.1 2.7.4.1.8.2 1.3.2 1.9.1 3.2-.9 3.5-2.8.1-.3.1-.7.1-1V33.2c0-.8-.2-1.5-.6-2.1-.3-.5-.7-.9-1.3-1-1-.2-2-.3-3 0-.4.1-.8.3-1 .6-.7.8-1 1.7-1 2.8-.1 11.5-.1 23.2-.1 34.8z"/><path id="path2793" d="M40.3 90.5v22.6H29.5V23h14.7c3.1 0 6.2.5 9.1 1.9.4.2.7.4 1.1.6 2.2 1.3 3.3 3.3 3.3 5.9v45c0 1.8-.1 3.6-.3 5.4-.5 4-2.8 6.5-6.5 7.6-2.4.7-4.8 1-7.2 1.1-1.1-.1-2.3 0-3.4 0zm0-7.3c1.5 0 3 0 4.4-.4 1.1-.3 1.8-1 2-2.1.2-1.1.3-2.2.3-3.3V33.2c-.1-1.5-.8-2.3-2.2-2.5-1.2-.2-2.4-.2-3.6-.2h-.9v52.7z"/><path id="path2795" d="M152.1 89.9c3.5.1 7 .1 10.6.2v12.7c0 .4 0 .8.1 1.2.2 1.3 1 2 2.2 2.4.8.2 1.7.2 2.5 0 1.3-.4 2.1-1.4 2.1-2.9V87.1c0-1.9-.4-3.6-1.4-5.1-2-3.2-4.1-6.3-6.2-9.5l-8.1-12.6c-.8-1.3-1.5-2.6-1.8-4.1-.1-.5-.1-1.1-.1-1.6V34.8c0-2.2.3-4.4 1.4-6.4 1.6-3 4.1-4.7 7.3-5.4 3.3-.8 6.6-.7 10-.3 1.2.1 2.3.4 3.4.8 2.9.9 4.7 3 5.6 5.9.5 1.4.7 2.9.7 4.4v18.5c-3.6.1-7.2.1-10.8.2V33.1c0-.9-.3-1.6-.7-2.3-.4-.7-1.1-.8-1.8-.9-.7 0-1.4 0-2.1.1-1.3.2-2.3 1.4-2.3 2.7v18.7c0 2.1.8 3.9 1.9 5.7 4.3 6.7 8.7 13.4 13 20 1.9 3 2.9 6.3 2.9 9.9v15.7c0 2.5-.6 4.7-2.1 6.7-1.4 1.8-3.3 2.8-5.3 3.5-2.6.9-5.3 1.1-8 1-2.4-.1-4.7-.5-6.9-1.5-2.3-1-4.2-2.6-5.3-5.1-.5-1.2-.8-2.6-.8-3.9V89.9z"/><path id="path2797" d="M138.8 113.2h-22V23h10.8v83h11.2"/><path id="rect2799" d="M239.8 22.8h10.6v90.1h-10.6z"/></g></g><g transform="translate(.048 .516)" id="FIAT"><path id="polygon2804" class="st3" d="M227.2 155.9h-34.9v24h14.6v223.9h20.3V179.9h14.4v-24h-14.4z"/><path id="polygon2806" class="st3" d="M80.6 179.9v-24H40v247.9h21.3V281.9h20.3v-24H61.3v-78z"/><path id="polygon2808" class="st3" d="M87.5 404h21.3V156H87.5z"/><path id="path2810" d="M142.8 155.9h-20.3v248h20.3v-122h29.1V404h20.4V238.7l-38.4-82.8zm0 102v-77.8l29.1 61.6v16.2z" class="st3"/></g></svg>