<svg xmlns="http://www.w3.org/2000/svg" height="800" width="1200" viewBox="-30 -62.7885 260 376.731"><path d="M160.813 221.511H41.836l4.767 10.415h109.62zM100.338 16.549c5.809 36.572 8.516 81.923 4.691 119.988-3.981 39.671-20.281 65.731-50.272 77.758H39.34c-10.905-23.729-21.719-47.548-32.176-71.725 15.968 10.345 44.349 14.188 58.99 2.68 27.865-21.91 31.155-81.948 34.184-128.701z"/><path d="M193.516 143.241c-8.515 20.088-17.225 39.979-25.476 60.327-8.84-14.619-14.676-32.242-34.854-35.525-3.608 23.096 11.131 40.681 29.391 46.364-28.243-.112-58.604-.112-91.06-.112 28.794-19.916 44.274-53.145 41.56-104.571 7.24 17.906 15.393 40.589 37.539 43.572 17.382 2.341 29.995-4.583 42.9-10.055z"/><circle r="4.743" cy="4.743" cx="100.147"/><circle r="3.62" cy="135.81" cx="3.62"/><circle r="3.62" cy="135.988" cx="196.38"/><path d="M47.647 240.286h.064c.512-1.104 1.44-1.36 2.625-1.36 3.121 0 3.217 1.969 3.217 4.546 0 2.465-.336 4.049-3.217 4.049-1.024 0-2.097-.191-2.529-1.216h-.08v4.754H45.71v-12.037h2.017zm3.89 3.186c0-1.905.048-3.01-1.792-3.01-2.065 0-2.017 1.009-2.017 3.01 0 1.792.272 2.513 2.017 2.513 1.392 0 1.792-.401 1.792-2.513zm9.232 2.896h-.048c-.4 1.121-1.633 1.152-2.609 1.152-1.905 0-3.137-.399-3.137-2.673 0-2.017 1.056-2.577 3.137-2.577 1.024 0 2.033.017 2.513.961h.064v-1.089c0-1.36-.112-1.841-1.792-1.841-.88 0-1.584.08-1.584 1.169h-2.017c0-2.449 1.681-2.545 3.602-2.545 2.689 0 3.81.416 3.81 3.232v5.267h-2.017zm-3.778-1.52c0 1.185.48 1.297 1.841 1.297 1.072 0 1.856-.097 1.856-1.297 0-1.168-.864-1.2-1.856-1.2-1.024 0-1.841 0-1.841 1.2zm13.25 2.577v-1.297h-.064c-.464 1.121-1.505 1.393-2.657 1.393-1.681 0-2.801-.576-2.817-2.417v-6.082h2.017v5.298c0 1.201.112 1.665 1.409 1.665 1.552 0 2.049-.656 2.049-2.113v-4.85h2.017v8.403zm5.982 0h-2.017V235.42h2.017z" fill="#444"/><path d="M82.942 247.617c0 1.633-.417 2.753-2.257 2.753a3.03 3.03 0 01-.752-.096v-1.441c.896 0 .992-.432.992-1.024v-8.787h2.017zm0-10.484h-2.017v-1.713h2.017zm4.4 1.889l-.048 1.104h.08c.4-.929 1.265-1.2 2.241-1.2 1.777 0 2.209 1.056 2.209 2.641v.672h-1.889v-.432c0-.849-.08-1.345-1.024-1.345-1.201 0-1.553.688-1.521 1.776v5.187h-2.017v-8.403zm7.2 8.403h-2.017v-2.193h2.017z"/><path d="M102.813 246.16h-.063c-.513 1.104-1.441 1.36-2.625 1.36-3.122 0-3.218-1.969-3.218-4.546 0-2.465.336-4.049 3.218-4.049 1.024 0 2.097.191 2.528 1.216h.08v-4.722h2.017v12.005h-2.017zm-3.89-3.185c0 1.905-.048 3.01 1.793 3.01 2.064 0 1.984-1.009 1.984-3.01 0-1.792-.239-2.513-1.984-2.513-1.393 0-1.793.401-1.793 2.513zm15.283 1.777c0 2.641-1.521 2.769-3.922 2.769-3.218 0-3.874-1.024-3.874-4.273 0-3.009.48-4.321 3.874-4.321 3.457 0 3.922 1.008 3.922 4.674h-5.778c0 1.809.048 2.385 1.856 2.385 1.12 0 1.904.016 1.904-1.232h2.018zm-2.018-2.433c0-1.729-.256-1.856-1.904-1.856-1.745 0-1.856.368-1.856 1.856zm8.768-1.008c0-1.009-.528-1.009-1.601-1.009s-1.809 0-1.809 1.104c0 .832.224.864 1.984.944 1.984.097 3.745-.048 3.745 2.673 0 2.273-1.792 2.497-3.921 2.497-2.289 0-3.826 0-3.826-2.736h2.018c.031 1.216.319 1.36 1.809 1.36 1.2 0 1.904.032 1.904-1.121 0-.736-.048-1.104-2.081-1.136-3.089-.049-3.649-.465-3.649-2.609 0-2.305 1.665-2.353 3.826-2.353 1.648 0 3.617.031 3.617 2.385h-2.016zm5.711-4.178h-2.018v-1.713h2.018zm0 10.292h-2.018v-8.403h2.018zm7.44-1.2h-.048c-.528 1.104-1.601 1.296-2.625 1.296-2.881 0-3.218-1.584-3.218-4.049 0-2.577.097-4.546 3.218-4.546 1.185 0 2.112.256 2.625 1.36h.064l-.08-1.265h2.017v8.388c0 3.024-.961 3.745-4.034 3.745-2.049 0-3.585-.353-3.457-2.865h1.889c0 1.152.433 1.329 1.568 1.329 1.713 0 2.081-.353 2.081-1.793zm-3.873-3.25c0 1.905 0 3.01 1.792 3.01 2.018 0 2.018-1.009 2.018-3.01 0-1.792-.272-2.513-2.018-2.513-1.392 0-1.792.401-1.792 2.513zm9.824-3.953v1.265h.064c.448-1.232 1.457-1.36 2.641-1.36 2.209 0 2.882.912 2.882 2.961v5.538h-2.017v-5.33c0-1.217-.272-1.633-1.569-1.633-1.761 0-2.001.832-2.001 2.337v4.626h-2.017v-8.403h2.017zm12.658 2.289c0-1.009-.528-1.009-1.601-1.009s-1.809 0-1.809 1.104c0 .832.224.864 1.984.944 1.984.097 3.745-.048 3.745 2.673 0 2.273-1.792 2.497-3.921 2.497-2.289 0-3.826 0-3.826-2.736h2.018c.031 1.216.319 1.36 1.809 1.36 1.2 0 1.904.032 1.904-1.121 0-.736-.048-1.104-2.081-1.136-3.089-.049-3.649-.465-3.649-2.609 0-2.305 1.665-2.353 3.826-2.353 1.648 0 3.617.031 3.617 2.385h-2.016z" fill="#444"/></svg>