<svg xmlns="http://www.w3.org/2000/svg" height="800" width="1200" viewBox="-48.04119 -18.835025 416.35698 113.01015"><defs><clipPath id="a" clipPathUnits="userSpaceOnUse"><path d="M0 1201.89h1700.787V0H0z"/></clipPath></defs><path d="M109.8109 57.4609l-1.7988 2.8783h3.9627l-1.8111-2.8783zm3.5193 5.1569l-.8156-1.343h-5.0423l-.8276 1.343h-1.511l4.0175-6.3084h1.7321l4.0058 6.3084z" fill="#231f20"/><g clip-path="url(#a)" transform="matrix(.35278 0 0 -.35278 -139.0358 247.0986)"><path d="M761.6406 522.7676c-4.147 0-5.27.646-5.27 4.997v13.055h3.842v-13.632c0-1.122.374-1.292 1.666-1.292h12.845c1.326 0 1.7.17 1.7 1.292v13.632h3.807v-13.055c0-4.317-1.155-4.997-5.337-4.997zm65.4658.1699v14.959h-10.553v2.923h24.845v-2.923h-10.451v-14.959zm71.8223 13.8027c0 1.122-.374 1.326-1.666 1.326h-14.17c-1.292 0-1.632-.204-1.632-1.326v-9.553c0-1.122.374-1.292 1.632-1.292h14.17c1.292 0 1.666.17 1.666 1.292zm-15.769-13.973c-3.977 0-5.541.783-5.541 4.964v8.295c0 4.148 1.564 4.963 5.541 4.963h14.035c3.978 0 5.542-.815 5.542-4.963v-8.295c0-4.181-1.496-4.964-5.542-4.964zm82.4443.1703v10.267c0 1.36.034 2.686.068 3.467h-.101l-9.55-12.402h-.95l-9.587 12.402h-.102c.068-.849.102-2.107.102-3.399v-10.335h-3.808v17.882h4.59l9.295-12.266h.068l9.295 12.266h4.488v-17.882zm64.0586 13.8027c0 1.122-.374 1.326-1.666 1.326h-14.17c-1.292 0-1.633-.204-1.633-1.326v-9.553c0-1.122.374-1.292 1.633-1.292h14.17c1.292 0 1.666.17 1.666 1.292zm-15.769-13.973c-3.977 0-5.541.783-5.541 4.964v8.295c0 4.148 1.564 4.963 5.541 4.963h14.036c3.977 0 5.541-.815 5.541-4.963v-8.295c0-4.181-1.496-4.964-5.541-4.964zm77.4467 6.7318c0 1.155-.408 1.359-1.699 1.359h-13.491v-4.895h13.491c1.291 0 1.699.204 1.699 1.394zm0 7.071c0 1.19-.374 1.394-1.699 1.394h-13.491v-4.522h13.627c1.122 0 1.563.239 1.563 1.361zm3.74-9.485c0-3.298-1.803-4.148-5.303-4.148h-17.367v17.882h17.264c3.978 0 5.236-.883 5.236-4.181v-1.53c0-1.326-.341-2.515-1.972-2.855v-.068c1.462-.306 2.142-1.327 2.142-2.992zm39.3617 13.734h3.841v-17.882h-3.841zm43.9843-17.8815v17.882h3.841v-14.754h17.571v-3.128zm58.9037 17.8815h3.841v-17.882h-3.841zm-6.7598 94.6912c-13.516 0-24.816-1.468-32.681-7.082-7.423-5.3-11.511-12.851-11.511-21.265 0-16.457 16.009-28.346 35.687-28.346h14.158c.561 0 1.11.167 1.576.478l4.55 3.044c.137.091.199.26.155.418-.043.158-.184.277-.348.279-18.181.232-32.948 8.576-32.948 22.241 0 14.01 13.098 23.064 33.371 23.064h51.076c.753 0 1.475.3 2.007.833l6.32 6.336zm-158.4492-.8307l-30.351-30.352h12.289c.752 0 1.472.3 2.003.831l22.217 22.216c.775.776 2.032.776 2.806 0l47.727-47.726c.534-.532 1.254-.832 2.004-.832h25.738l-55.863 55.863c-.531.532-1.252.83-2.004.83h-24.562c-.752 0-1.473-.298-2.004-.83m-100.1982.2598l-42.336-31.902a1.983 1.983 0 00-2.388-.002l-42.405 31.905c-.491.37-1.089.57-1.704.57h-30.704l66.915-50.346a1.9815 1.9815 0 012.387.001l50.623 38.146c.559.421 1.362.022 1.362-.68v-43.815h22.843v56.694h-22.887c-.616 0-1.214-.202-1.706-.571M790.122 578.816h22.843v56.694h-22.843zm-110.1397 29.8459c-1.01 0-1.516-1.221-.801-1.935l27.08-27.081c.531-.53 1.252-.83 2.004-.83h25.738l-21.838 21.83c-.505.506-.199 1.373.511 1.449l9.226.742c15.799 1.693 23.18 8.117 23.18 17.083 0 10.701-10.06 15.591-30.335 15.591h-96.411l7.135-6.349a2.8343 2.8343 0 011.994-.821h74.618c15.145 0 20.157-3.577 20.157-9.838 0-5.843-7.104-9.218-22.141-9.478-18.56-.319-20.117-.363-20.117-.363m-152.4891-36.3466l-38.901 38.895c-.552.55-.218 1.495.556 1.578l7.573.809c16.059 1.721 25.27 9.76 25.27 19.873 0 11.668-12.362 18.247-33.071 18.247h-75.272c-.752 6.478-1.295 12.89-1.61 19.172-.102 2.054 1.279 3.891 3.284 4.355 21.643 5.003 43.832 7.618 65.016 7.618h1.155c21.184 0 43.372-2.615 65.018-7.618 2.008-.465 3.387-2.296 3.283-4.355-1.606-32.067-8.853-67.397-22.301-98.574m-11.874-23.569c-9.07-15.419-19.995-29.056-32.898-39.701-1.046-.863-2.56-.865-3.607-.002-35.307 29.125-55.894 80.544-63.736 130.038l-8.987 4.821h66.56c21.395 0 24.138-6.981 24.138-11.977 0-4.993-2.743-11.974-24.138-11.974l-19.447-.003c-.744 0-1.238-.609-1.238-1.245 0-.303.112-.613.364-.865l65.213-65.21 6.995-6.995zm48.962 140.017c-26.464 7.412-55.225 11.732-83.665 11.673-28.426.059-57.186-4.256-83.665-11.673-1.855-.52-3.133-2.208-3.134-4.134-.044-70.789 26.547-158.382 84.412-197.031 1.444-.965 3.329-.965 4.774 0 57.865 38.649 84.457 126.242 84.413 197.031-.002 1.924-1.283 3.615-3.135 4.134" fill="#231f20"/></g></svg>