<svg xmlns="http://www.w3.org/2000/svg" height="800" width="1200" viewBox="-5.6694915 -2.4343425 49.135593 14.606055"><defs><clipPath clipPathUnits="userSpaceOnUse" id="c"><path d="M0 0h609.449v793.701H0z"/></clipPath><clipPath clipPathUnits="userSpaceOnUse" id="b"><path d="M0 0h609.449v793.701H0z"/></clipPath><linearGradient x1="0" y1="0" x2="1" y2="0" gradientUnits="userSpaceOnUse" gradientTransform="matrix(0 29.3276 29.3276 0 465.83508 34.63885)" spreadMethod="pad" id="a"><stop offset="0" stop-color="#004ea2"/><stop offset="1" stop-color="#00a1e9"/></linearGradient></defs><path d="M488.772 63.779v-9.882c-2.09 1.377-4.298 2.141-6.821 2.141-2.525 0-4.733-.764-6.825-2.141v9.882h-8.25V36.177h8.25v8.451c1.487 2.223 3.969 3.602 6.825 3.602 2.854 0 5.335-1.379 6.821-3.602v-8.451h8.251v27.602z" fill="url(#a)" transform="matrix(.35278 0 0 -.35278 -164.70347 22.49982)"/><path d="M29.01392 8.75038V5.7754h-.84843v3.72463h2.77354v-.74965zM21.4571 6.54762h2.2158v-.77188h-3.06387V9.5h3.06387v-.7715h-2.2158v-.74084h1.9244v-.6999h-1.9244v-.0053zm3.7779 0h2.21686v-.77188h-3.06458V9.5h3.06458v-.7715H25.235v-.74084h1.92476v-.6999H25.235v-.0053z" fill="#003c83"/><g clip-path="url(#b)" transform="matrix(.35278 0 0 -.35278 -164.70347 22.49982)"><path d="M510.1202 43.2311h-4.539c-.392 0-.586.199-.586.598v.92c0 .313.194.47.586.47h6.354v2.188h-6.927c-1.543 0-2.315-.747-2.315-2.24v-1.962c0-1.442.737-2.162 2.212-2.162h4.515c.391 0 .587-.201.587-.599v-.934c0-.315-.196-.473-.587-.473h-6.634v-2.187h7.221c1.55 0 2.327.751 2.327 2.252v1.966c0 1.442-.737 2.163-2.214 2.163" fill="#003c83"/></g><path d="M16.56887 5.77554v.77187h1.26048v2.95275h.84843V6.54741h1.26047v-.77187zm-1.37872-3.82061h-1.73849V.49972h-.81632v3.72427h.81632V2.682h1.7385v1.542h.81597V.49971h-.81598z" fill="#003c83"/><g clip-path="url(#c)" transform="matrix(.35278 0 0 -.35278 -164.70347 22.49982)"><path d="M560.2081 61.7595c-.486-.498-.506-1.221-.518-1.644v-8.31h2.308v3.367h4.913v-3.367h2.318v10.557h-7.21c-.686-.006-1.328-.103-1.811-.603m2.383-1.46h4.32v-3.067h-4.913v2.464c.013.122-.015.34.093.469.108.139.28.129.5.134m-18.7599 2.0625h-7.227V51.805h2.314v8.494h4.339c.217-.005.393.005.505-.133.105-.13.079-.347.088-.469v-7.892h2.313v8.311c-.014.422-.033 1.146-.519 1.643-.48.5-1.122.598-1.813.603m-11.5869-7.8892c-.01-.124.012-.342-.093-.473-.107-.14-.284-.126-.5-.129h-4.34v8.491h-2.314v-10.556h7.226c.693.003 1.331.103 1.81.6.493.498.509 1.222.524 1.645v8.311h-2.313zm25.5234 5.6431c-.011.422-.029 1.146-.513 1.644-.485.499-1.127.597-1.808.602h-7.232v-10.557h7.232c.681.004 1.323.103 1.808.601.484.498.502 1.222.513 1.645zm-2.303-5.643c-.012-.124.01-.342-.09-.473-.108-.14-.284-.126-.499-.129h-4.346v6.429h4.346c.215-.006.391.004.499-.134.1-.13.078-.347.09-.469z" fill="#003c83"/></g><path d="M18.25557 2.12876l-.9906-1.62878h-.97049l1.52612 2.34809V4.2239h.87171V2.84807l1.5226-2.34809h-.9698zm18.67214 2.09542h.8689V.4999h-.8689z" fill="#003c83"/></svg>