<svg xmlns="http://www.w3.org/2000/svg" height="800" width="1200" xml:space="preserve" y="0" x="0" id="shield" version="1.1" viewBox="-150.1125 -195.586 1300.975 1173.516"><style id="style3055" type="text/css">.st1{fill:#f60}.st2{fill:#fff}</style><path id="path3059" d="M510.175 5.669c88.7 64 218.3 102.9 318.6 105.2l10.5.8v132.8h161.1v289.1h-99l-9.7 9.9-24.2 21.5c-108.8 96.6-260.1 212.6-363.1 217h-.9c-79-2.6-212.3-81.3-365.6-215.6l-23.2-20.3-11.9-12.4H.375v-289h164.5v-133.1l10.7-.5c130.3-6.1 229.3-38.6 321-105.6l6.5-5z" fill="#fff" stroke="#000" stroke-width=".75"/><path id="path3061" d="M503.075 14.669c89 69 210 98.6 324.7 107.6v93.9c-24.3-1.3-44.1 24.2-44.1 39.7h205.2v266.4h-190.2c4.5 24.7 37.4 35.6 61.1 34.3-126.4 112.3-266 210.3-356.1 214.2-82.2-2.7-221.1-92.3-358.6-212.8 57 .9 62.1-35.6 62.1-35.6h-195.6v-266.3h204.6c-1-19.4-18.9-37.6-40.2-39.7v-93.9c122-5.8 227.3-35 327.1-107.8z"/><path id="path3063" d="M804.175 142.669v58.9c-22.4 4.7-45.1 35.1-45.1 54.5h-18.5c1.8-36.8 22.4-54.7 45.1-66.9v-29.2c-97.9-2.4-212-44.5-282.9-92.3-64.5 43.4-184.9 89.8-283.8 92.3v29.3c25.1 13 41.4 38.5 42.6 66.8h-19.4c-4.2-29.2-20.9-44.7-41.3-56.1v-56c111.8-6.3 237.6-49.6 302.1-99.5 61.8 50.5 191.3 89.9 301.2 98.2z" class="st1"/><path id="path3065" d="M546.675 117.969l-.2 24.9-31.5-15.5v128.7h-24.7v-128.7l-30.8 15.3.2-24.5s35.6-17.9 43.4-23.6c8.2 5.9 43.6 23.4 43.6 23.4z" class="st1"/><path id="path3067" d="M343.875 256.069c0-12.4.6-33.1-2.4-36.5-6.1 11.1-11.4 24.8-16.5 35.1-5.2-10.4-10.6-22.7-17.2-31.2l-.7 32.6h-22.4v-82c12.2-2.1 15.8-3.2 22.2-4.2l17.6 38.1 18.5-45.4c7.6-2.2 15.3-3.9 23.1-5.3v98.7z" class="st1"/><path id="path3069" d="M457.275 153.269v83.5c-.2 19.4-6.8 18.9-39.8 19.1-27.1.2-36 .6-36.3-26.6v-57c.5-21.6 6.1-20.5 30.7-32.8 38.3-18.6 44.3-12.3 45.4 13.8zm-21.5 10.1c0-13.3-28.2 2.9-30 4.8-5.7 5.8-4.3 43.1-4.1 58.8 0 3.5 1.8 7.6 6.2 7.6 7.1 0 17.5.2 23.4 0 2.3.2 4.4-1.5 4.6-3.8 0-.4 0-.9-.1-1.3v-66.1z" class="st1"/><path id="path3071" d="M627.375 165.669v68.8c0 21.5-7.6 21.5-37.6 21.5-28.3 0-40.8 0-40.8-21.5v-85.5c0-31.1 25.2-17.8 44.3-10.2 18.1 7.2 34.1 10.2 34.1 26.9zm-38.3-4.4c-10.4-3.1-17.4-4.9-17.4 6.5v51.8c0 16.7 8.6 15 18 15 6.5 0 16 1.5 15.9-8.5v-50.7c.1-12.1-9.9-12.2-16.5-14.1z" class="st1"/><path id="path3073" d="M715.775 176.969c10.8 11.9 8.3 42.8-1.1 46 9.9 7.4 7.7 33.2 7.7 33.2h-21.2c0-25.7-5-26.2-17.4-26.1-9-.2-6.5 0-17 0v26.1h-21.4v-97.5c29.6 6.3 64.6 11.9 70.4 18.3zm-48.8 8.7v22.7c14 .7 17.5.8 27.2 1.4 7.8 0 6-15.3 3.8-18.1-1.6-2.4-19.2-4.7-31-6z" class="st1"/><path id="rect3075" class="st1" d="M36.575 280.969h928.6v215.4h-928.6z"/><path id="path3077" d="M255.175 522.269c.1 19.5-8.7 38-24 50.1 90.7 81.2 213 150.3 273.2 154.3 61.1-4 180.1-77.7 271.1-154.9-18.3-16.2-23.5-29.9-23.6-49.5h18c1.6 23.5 26.5 42.5 36.9 46.9-133.5 110.3-218 164.2-303.6 175.5-89-12.4-175.2-65.7-304.5-174.5 18-8 36.2-26.7 36.1-48z" class="st1"/><path id="path3079" d="M857.275 534.569c2.8 2.7 2.8 7.2 0 10-2.7 2.8-7.2 2.8-10 0-1.3-1.3-2.1-3.1-2-5 0-3.9 3-7 6.9-7.1 2 0 3.8.8 5.1 2.1zm.8-.7c-3.2-3.2-8.4-3.2-11.5 0-3.1 3.2-3.2 8.4 0 11.5 3.2 3.2 8.4 3.2 11.5 0 1.5-1.5 2.4-3.6 2.4-5.8.1-2.1-.8-4.2-2.4-5.7zm-4.5 5.3c-.5.2-1 .2-1.5.2h-1.6v-3.2h1.4c.7 0 1.3.1 1.9.3.7.5.9 1.5.3 2.3-.1.2-.3.3-.5.4zm-4.5 4.9h1.4v-3.5h1.2c.6 0 1.2.1 1.7.3.6.5.9 1.3.8 2v1.2h1.5v-2.1c0-.5-.2-1-.5-1.4-.4-.5-.9-.8-1.6-.9.5-.1.9-.2 1.3-.4.6-.4.9-1.1.9-1.8.1-1-.5-1.9-1.4-2.3-.8-.3-1.6-.4-2.4-.3h-3.2v9z"/><path id="rect3081" d="M56.975 299.169h890.1v180.2h-890.1z"/><path id="path3083" d="M791.675 341.769v26.6h-20.3c0-16.7 0-27.6-8-27.1-6.9 0-5.7 8-5.8 14 0 17.8 9.2 21.1 18.5 28 12.4 9.3 16.7 15.3 16.8 41.6 0 19.4-6.5 34.3-27.6 34.3-24.8 0-28.2-11.2-28.2-53.5h20.5v20.6c0 3.6-.7 12.1 7.7 12.1 5.1 0 7-4.2 7-16.2 0-13.7-4-18-8.6-21.4-9.1-6.9-26.4-13.7-26.4-34.8 0-19.1-3-48 28.2-47.7 18.5.2 26.3 10.4 26.2 23.5z" class="st2"/><path id="path3085" d="M104.575 373.569h14.8v-51.8h20.3v136.1h-20.4v-56.7h-14.5v56.7h-20.6v-136.1h20.3c.1 0 .1 51.8.1 51.8z" class="st2"/><path id="path3087" d="M297.375 435.169h20.3v22.7h-42.1v-136.1h21.7z" class="st2"/><path id="path3089" d="M364.375 343.269h-20.6v31.7h20.4v23.8h-20.4v36.2h20.3v22.9h-41.9v-136.1h42.1z" class="st2"/><path id="path3091" d="M387.975 321.769c2.7 14.4 5.1 28.6 9.4 44.5 4.6-16 5.8-29.2 10.3-44.4h20.1c-5.6 28.7-13 53.5-20.4 80.1v54.7h-20.5v-55.1c-6.8-26.8-14.6-52.9-20.1-79.7z" class="st2"/><path id="path3093" d="M604.675 320.669c2.5 26.4 5.2 54.2 8 80.6 0 0 6.5-56.8 9.7-80.6h20.2l-18.9 136.1h-21.7l-18-136.1h20.6z" class="st2"/><path transform="translate(-.025 -.031)" id="polygon3095" class="st2" d="M646.5 320.7H667l.1 136.1h-20.6z"/><path id="path3097" d="M888.075 320.669c4.5 20.8 8.6 42.1 13.2 62.4l-.8-62.4h20.5v134.9h-24c-4.6-25.4-9-49.2-14-74.7l.6 74.7h-21.6v-134.9z" class="st2"/><path id="path3099" d="M854.075 346.469v87.3c0 14.3-13.8 26.6-28 26.4-11.8-.2-26.5-6.5-26.5-26.7v-87.5c0-26.2 16.7-28.6 28.3-28.7 10.7-.1 26.2 4.1 26.2 29.2zm-35.2.4v81c0 11.7 14.3 14.9 14.3 2v-82.9c.2-9.2-14.2-9.5-14.3-.1z" class="st2"/><path id="path3101" d="M506.275 321.769c10.6 0 17.9 7.5 18 23.4 0 28.9 0 63.9.2 88.5.3 13-10 23.9-23 24.2h-30.6v-136.1zm-14.9 20.6v92.6h7.3c3.2-.4 5.4-3.3 5-6.4v-.1c0-16.7-.2-74.5-.2-79.7 0-9.2-12.1-6.4-12.1-6.4z" class="st2"/><path id="path3103" d="M708.275 320.669c10.3 0 22.1 6 22.1 24v89.9c0 14.6-8.8 22.2-26.2 22.2h-28.2v-136.1zm-3.9 21.6h-6.7v92.7c12 0 13.4-.5 13.5-6.5v-78.7c-.1-3.9-3-7.1-6.8-7.5z" class="st2"/><path id="path3105" d="M245.575 321.769c19.8 0 22.1 23.3 22.1 37.6 0 6.5.5 18.7-10.2 29.4 6.7 6 10.2 10.8 10.3 25.6v43.7h-13.4c-2.4 0-8.3-2-8.2-6v-37.1c0-8.4-5-9.3-9.7-9.3h-3.6v52.2h-22l.3-136.1h34.4zm-12.8 21.6v36.1h8c2.1 0 4.5-1.6 4.4-7 .2-6.2 0-15.6 0-21.5.1-7.5-4.4-7.5-12.4-7.6z" class="st2"/><path id="path3107" d="M589.775 456.669h-19.2c-2.3-11-3.2-21.7-5.2-32.9h-14.5l-4 32.9h-19.4c4-45 11.7-91.2 16.2-136.1h29.2zm-32-106.9l-4.5 48.6h9.2c-.6-16.2-2.2-32.4-4.7-48.6z" class="st2"/><path id="path3109" d="M190.575 321.769c5.3 44 10 88.2 14.9 136.1h-18.9c-1.6-12.1-3.2-24.8-4.2-32.6h-14l-3.8 32.6h-19.4c4.7-44.8 9.6-89.6 13.9-136.1zm-16.5 27.6l-2.4 49.1h7.9c-1.5-17.2-2.6-31.4-5.5-49.1z" class="st2"/><path id="rect3111" class="st2" d="M424.275 381.869h37.4v16.9h-37.4z"/><path transform="translate(-.025 -.031)" id="polygon3113" class="st1" d="M385.2 559.8h1.7l16.6-37.4h27.2l-34.5 67.2v72l-25-14.5v-57.2l-26.9-67.5h27.3z"/><path id="path3115" d="M287.475 593.869l58.7 38.7v-27.7l-.8-3.6-35.1-20.4-1.7-1.4c-1.6-.6-2.7-2.1-2.9-3.8v-27.3c.1-2.4 2.1-4.3 4.5-4.3h26.3v-21.7h-37.7c-10-.2-18.4 7.7-18.6 17.8v39.5c0 5.7 2.7 10.9 7.3 14.2z" class="st1"/><path id="path3117" d="M497.875 679.669l-23.9-8.9-9-3.2c-3.1-1.1-5.2-4.1-5.3-7.4v-108.1c.1-4.5 3.8-8 8.3-7.9h29.9v-21.7h-45.4c-10-.2-18.4 7.7-18.6 17.8v127.8c0 5.7 2.8 11 7.5 14.3 3.9 3.2 14.3 8.6 56.2 22.2v-24.7h.3z" class="st1"/><path id="path3119" d="M535.775 522.369h-25.6v180.8c20.6-3 40.8-8.8 59.9-17.1v-23.6l-34.2 10.8z" class="st1"/><path id="path3121" d="M636.675 544.069v-21.7h-42.1c-10-.2-18.4 7.7-18.6 17.8v116.3c.5 24.6 22.5 13.9 23.8 13 5.5-3.4 37.3-23 37.3-23v-26.1l-27.1 15.2c-10.5 6-8.5-7.6-8.5-7.6v-31.8h26.9v-20.9h-26.9v-20l-.1-3.5c.1-4.4 3.7-7.9 8.1-7.8h27.1v.1z" class="st1"/><path id="path3123" d="M678.975 544.069c-2.1-.1-3.9 1.6-4 3.8v5.2c.1 2.1 1.8 3.8 4 3.8h27.5c7.6-.3 14.1 5.6 14.4 13.2v19.1c-1.7 11.1-71 49.3-71 49.3l-.2-25.9 29.2-16.5c29.7-16.8 7.2-16.2 7.2-16.2h-22.7c-7.3.3-13.4-5.4-13.6-12.7v-32.1c0-7 6.7-12.8 15-12.8h54.3v21.7z" class="st1"/></svg>