<svg xmlns="http://www.w3.org/2000/svg" height="800" width="1200" overflow="visible" viewBox="-37.965615 -16.84275 329.03533 101.0565"><g clip-rule="evenodd" fill-rule="evenodd"><path d="M125.7051 67.371h-.231c-7.416-4.181-14.831-8.13-22.247-12.08-5.099-.464-10.196-1.394-15.295-2.322h-.231v-3.021c-29.199-6.04-58.398-12.08-87.598-18.121v-.232c-.232-.232 0-.93 0-1.162h.231v-.232h.464c31.517-4.646 63.033-9.06 94.55-13.707v-.232c7.647-3.717 15.526-7.434 23.174-11.383 3.013-1.394 6.025-3.021 9.038-4.646h.232v.232c0-.232 0-.232.23-.465l31.98 18.353c31.054 5.343 62.106 10.687 92.928 16.029.232.465.232.465 0 .93-30.357 4.414-60.947 9.061-91.537 13.475-1.854 1.394-3.708 3.252-5.562 4.878-.231.232-.464.232-.695.465-26.417 11.849-26.417 11.849-29.431 13.241z" fill="#0F4191"/><path d="M125.9371 65.281c-.928-2.788-2.086-5.576-3.013-8.364 7.415-.696 15.063-.929 22.479-1.857 1.854-.232 3.477-.466 5.099-.697-8.111 3.716-16.454 7.201-24.565 10.918zm-7.879-9.99c-1.158-.231-2.549-.231-3.939-.231-8.574-.466-16.917-1.395-25.26-3.021V22.535c3.013-.464 3.013-.464 6.489-.697 8.574-.465 16.917-.697 25.26-.465h.695c11.124.697 22.016 1.162 33.139 1.859 0 4.646 0 9.292.231 13.938h-.231c0 .232 0 .232.231.465v14.636c-3.708.465-3.708.465-7.647 1.162-7.184.929-14.136 1.394-21.088 1.626-2.55.001-5.331.232-7.88.232z" fill="#FFF"/><path d="M118.7531 52.969c-4.635-.232-4.635-.232-7.879-.465-6.488-.465-13.209-1.162-19.698-2.323V24.394c7.185-.465 14.6-.697 21.784-.929 2.317 0 4.866 0 7.184.232 10.66 0 21.32.697 31.749 1.626.231 8.363.463 16.727.463 24.857-3.708.696-7.416 1.161-11.354 1.626-2.318.232-4.403.232-6.721.465-5.099.465-10.429.465-15.528.698z" fill="#0F4191"/><path d="M155.6011 51.574V40.191l4.402 7.666c-1.391 1.163-3.013 2.555-4.402 3.717zm-67.901-3.252c-25.724-5.344-51.215-10.687-76.706-16.03 25.491 2.09 51.215 4.182 76.706 6.272v9.758zm14.368-1.162V29.737h12.281v3.717h-7.879v2.788h6.952v3.949h-6.952v6.969h-4.402zm10.892 0c2.317-5.808 4.402-11.615 6.72-17.423h4.403c2.317 5.808 4.636 11.616 6.952 17.423h-4.866c-.464-1.161-.927-2.555-1.391-3.717h-5.793c-.464 1.162-.928 2.556-1.391 3.717h-4.634zm18.539 0V29.737c3.013 0 6.025-.232 9.038 0 2.086.465 3.476 1.394 4.402 3.485.232 1.858.232 3.485-.695 5.11-.926 1.162-1.621 1.859-3.243 2.324-1.623.231-3.477.231-5.099.231v6.272c-1.622.001-3.012.001-4.403.001z" fill="#FFF"/><path d="M120.3751 39.494c0-.232 1.391-3.717 1.391-3.949 1.159 3.252 1.159 3.252 1.622 3.949h-3.013z" fill="#0F4191"/><path d="M156.0631 37.171c1.391-5.575 2.78-11.151 4.172-16.727 27.576 4.646 55.385 9.292 83.194 14.171-29.199.93-58.166 1.627-87.366 2.556z" fill="#FFF"/><path d="M135.9021 37.171v-3.717c1.158 0 2.549 0 3.708.232 1.158.696 1.391 2.091.231 3.021 0 0-.231.231-.464.231-1.157.001-2.316.233-3.475.233z" fill="#0F4191"/><path d="M154.2101 22.303c-9.271-.697-18.54-1.161-27.81-1.626 10.66-1.394 21.32-1.626 31.98-1.394-1.158.929-2.317 1.858-3.476 2.788-.231 0-.463 0-.694.232zm-33.835-2.091c-4.402-1.626-9.037-2.556-13.672-3.021-3.013-.464-3.013-.464-6.721-.697 9.038-4.646 18.075-9.292 27.114-13.938-2.318 5.808-4.404 11.615-6.722 17.423.001.001.001.001.001.233z" fill="#FFF"/></g></svg>