<svg xmlns="http://www.w3.org/2000/svg" height="800" width="1200" viewBox="-45 -75 390 450"><path d="M0 0h300v300H0z" fill="#fefefe"/><path d="M29.19 13.81c6.13-1.27 12.3-3.15 18.62-2.7 2.86 1.41 4.58 4.28 6.42 6.77 2.84 4.47 5.67 9.1 7.1 14.25.8 2.76-.89 5.51-3.29 6.8-3.99 2.32-8.32 4.03-12.13 6.67 2.18 4.47 5.97 7.77 9 11.63 1.16 1.72 2.25 4.38.61 6.15-4.17 3.76-9.72 5.34-14.38 8.36 4.28.53 8.58.34 12.86.16 61.34-.16 122.67-.35 184-.59 8.38.15 16.77-.33 25.15.1-1.31 2.15-1.66 6.56-5.05 5.97-37.7-.03-75.4.24-113.1.35-15.33.16-30.68-.24-46 .46-32.77-.01-65.54.32-98.31.31 1.8-5.7 5.11-10.74 7.95-15.95 7.18-12.45 13.94-25.17 22-37.09 3.11.19 6.23.25 9.34.34-2.22 7.74-8.05 13.7-10.93 21.15-4.82 8.13-9.48 16.39-12.82 25.27 4.65-.06 9.3.07 13.95-.01-2.24-3.08-4.66-6.01-6.83-9.13 3.24-1.17 6.38-2.63 9.67-3.66 1.57.95 2.94 2.2 4.52 3.14 2.27.88 4.09-1.03 5.82-2.17-4.44-4.72-8.43-9.83-12.33-14.98 1.26-1.5 2.18-3.43 4.02-4.31 4.56-2.43 9.34-4.43 14.01-6.66-.87-4.59-3.2-8.75-6.06-12.39-.94-.83-1.55-2.5-3.01-2.4-5.6.22-10.85 2.5-16.08 4.29.49 2.15 1.01 4.28 1.57 6.41-3.22 1.49-6.58 3.66-10.29 2.98-2.55-3.73-5.73-7.93-4.81-12.74 5.64-3.7 12.42-4.96 18.81-6.78zm179.78 17.13c3.83-3.08 10.27-4.04 13.93-.19-2.38 6.12-9.47 7.65-15.33 6.64-.02-2.2-.81-5 1.4-6.45z" fill="#2a2a2a"/><path d="M121.51 29.47c3.63.31 6.94 2.27 10.4 3.33-.84 3.08-2.85 5.5-5.09 7.68 1.95.79 3.88 1.63 5.83 2.46-2.74 8.67-11.17 13.52-15.71 21.07 9.27-6.57 16.5-15.55 24.79-23.26l-3.84-2.64c2.46-2.48 4.91-4.97 7.09-7.7 3.83.11 7.45 1.49 10.7 3.46-1.43 2.12-2.89 4.23-4.23 6.4 1.76.93 3.53 1.84 5.31 2.74-4.4 8.94-12.97 14.74-18.34 23.01 3.75-.62 7.63-1.49 10.76-3.76 2.28-1.58 3.2-4.32 4.65-6.56 5.37-8.1 13.75-14.53 23.45-16.25 3.67-.38 7.67-.53 11.03 1.24 1.27 1.93 0 4.64-1.57 6.1-6.86 6.97-17.74 7.71-24.51 14.85.4.81 1.18 2.43 1.58 3.24 6.89-.15 13.08-3.71 18.75-7.3 7.58-4.85 12.23-13.17 19.77-17.99 3.79-.04 7.32 1.8 11.05 2.32-4.59 8.25-13.37 12.75-19.1 20.07 4.77-1.18 8.64-4.37 12.61-7.1 6.73-4.79 13.06-10.11 19.79-14.9-1.4-.85-2.8-1.7-4.2-2.56 2.19-2.66 4.34-5.34 6.42-8.08 2.99.14 6.03.59 8.72 2 1.8.36 1.98 2.12 2.04 3.64-.99 1.85-2.37 3.45-3.67 5.07 1.81 1.03 3.64 2.05 5.47 3.05-4.96 9.19-14.75 14.03-21.27 21.89 4.77-1.34 9.44-3.36 13.26-6.58 4.95-4.38 8.16-10.64 14.09-13.9 5.81-3.25 12.47-5.69 19.22-5.11 3.04 0 4.35 3.13 5.71 5.32 3.85-1.54 7.88-2.62 11.68-4.3 4.93-2.11 9.87-4.48 15.28-5.02-.81 4.08-5.65 3.64-8.67 4.98-.62 5.84 1.62 11.68.35 17.47-2.4 6.69-9.51 10.34-16.2 11.16-6.02 1.03-13.57-1.56-15.01-8.16 3.38-1.3 6.84-2.34 10.28-3.48 1.07 2.12 2.08 4.28 3.24 6.35 1.92.09 3.85.12 5.78.11.44-4.06-.24-8.18.47-12.21.83-3.54 3.52-6.19 5.6-9.03-3.83 1.11-7.68 2.1-11.5 3.22-3.44.75-5.36 3.95-7.58 6.37-4.95 6.12-11.43 10.96-18.64 14.1-3.64 1.61-7.72 1.27-11.59 1.07-.97-1.85-.77-4.66-2.9-5.62-5.44 2.16-10.62 4.98-16.16 6.87-4.24-.37-8.25-2.14-12-4.07 7.74-8.57 17.72-14.86 25.09-23.8-6.82 3.22-12.2 8.62-18.35 12.86-7.57 5.4-14.9 11.57-23.74 14.77-3.61-.63-7.09-1.88-10.74-2.3.13-1.21.26-2.42.4-3.62-5.47 2.13-10.64 5.41-16.55 6.11-4.12.52-7.57-2.1-10.89-4.08-4.39 1.22-8.63 2.97-13.09 3.88-3.75-.14-7.3-1.55-10.92-2.37.52-2.94 2.4-5.35 4.24-7.6 4.39-5.71 9.59-10.75 14.04-16.41-1.94 1.14-3.86 2.35-5.49 3.9-8.48 8.32-16.21 17.51-25.84 24.57-4.43-1.68-8.93-3.18-13.24-5.17 4.49-4.37 8.12-9.5 12.49-13.98 2.76-3.06 5.65-6.01 8.27-9.2-1.56.91-3.11 1.84-4.52 2.98-8.91 7.87-17.09 16.6-26.2 24.24-4.06.58-7.97-1.01-11.81-2.09.62-1.4 1.27-2.8 1.9-4.19-5.46 2.44-10.82 7.47-17.24 5.33-4.13-3.5-.9-8.82 1.22-12.49 4.94-7.07 12.25-12.79 20.63-15.1 3.66-.76 7.6-1.02 11.13.47 2.79 1.43 5.44-1.67 8.28-.47 1.87.67 4.71 0 5.6 2.22-4.62 7.1-11.7 12.36-15.62 19.93 4.25-2.23 7.24-6.05 10.59-9.37 4.26-4.24 8.46-8.53 12.82-12.67-1.44-.91-2.89-1.79-4.33-2.68 3.03-2.71 5.51-5.97 8.48-8.73z" fill="#2a2a2a"/><path d="M85.19 48.34c3.55-2.37 7.55-3.98 11.67-5.07-3.15 5.79-8.12 10.42-13.27 14.41-2.83 2.06-5.92 3.94-9.47 4.32 1.22-6.12 6.2-10.3 11.07-13.66zm83.48 6.37c3.94-5.52 9.85-10.66 17-10.72-4.09 5.53-10.56 8.77-17 10.72zm90.77-7.24c2.48-1.87 5.42-3.04 8.52-3.34-.51 4.55-4.26 7.53-7.39 10.42-5.09 4.27-10.68 8.14-17.04 10.25a59.703 59.703 0 0115.91-17.33z" fill="#fefefe"/><path d="M121.82 112.88c13.48-8.82 31.47-9.49 45.89-2.55 8.7 4.43 16.46 11.23 21.07 19.92 6.83 11.84 7.94 26.62 3.78 39.56-3.72 11.64-12.28 21.39-22.85 27.39 8.31 5.12 15.77 12.03 20 20.95 5.01 9.51 5.98 20.59 4.42 31.1-2.62 14.03-11.58 26.9-24.19 33.72-11.51 6.35-25.69 7.88-38.15 3.52-12.75-4.27-23.5-14.11-28.8-26.47-6.22-13.85-5.44-30.64 2.14-43.81 4.51-7.98 11.33-14.39 19.09-19.16-9.89-5.38-17.83-14.17-21.79-24.74-4.57-11.19-4.51-24.01-.41-35.33 3.97-9.77 10.69-18.6 19.8-24.1z" fill="#2a2a2a"/><path d="M128.92 121.66c3.94-2.27 8.37-3.45 12.74-4.57.29 24.78-.03 49.57-.06 74.35-11.69-2.2-22.52-9.74-27.61-20.62-3.91-7.88-4.61-17.1-2.63-25.61 2.28-9.84 8.94-18.4 17.56-23.55zm24.46-4.24c16.73 2.98 30.33 18.47 30.32 35.59 1.17 18-12.96 35.72-30.94 37.99.29-24.53.38-49.05.62-73.58zm-32.45 96.51c5.26-6.01 12.9-9.13 20.55-10.79.1 24.61-.24 49.21-.11 73.81-16.83-1.78-30.44-17.37-31.12-34.09-.7-10.58 2.95-21.53 10.68-28.93zm31.83-10.7c8.76 1.8 17.04 6.38 22.66 13.42 5.59 7.12 8.71 16.26 8.17 25.34-.37 17.01-14.06 32.97-31.1 35.08.08-24.61.23-49.23.27-73.84z" fill="#fefefe"/></svg>