<svg xmlns="http://www.w3.org/2000/svg" height="800" width="1200" version="1.0" viewBox="-14.489445 -15.57125 125.57519 93.4275"><path d="M73.2425 0H0v37.4162h40.5725v-13.245h8.7462c3.68 0 7.56 1.9063 7.575 6.665v6.58h39.7025c0-10.0462-4.9074-15.2762-15.6212-17.6637 4.1375-.4413 7.8875-.8825 11.2562-3.085 2.795-2.0738 5.5925-7.6463-.0712-12.4188C88.1775 1.1225 81.13 0 73.2425 0zM52.3837 15.1475H40.63V9.55h11.6975c1.6288-.015 2.655.24 3.825 1.2363.8413.7675.9138 2.3587 0 3.2662-1.0275.8387-2.2975 1.095-3.7687 1.095" fill="#006bb6" fill-rule="evenodd"/><path d="M0 62.285h96.595V40.5413H0z" fill="#a7b1b7"/><path d="M84.3275 56.5725c1.3837 0 2.525-.4562 3.41-1.3937.87-1.0213 1.4262-1.9038 1.4262-3.3663 0-1.45-.5562-2.6725-1.4262-3.6262-.9438-1.0075-2.2688-1.52-3.41-1.52-1.1988 0-2.525.5125-3.4113 1.4637-.9387 1.01-1.5112 1.9338-1.5112 3.3838 0 1.4625.5725 2.6987 1.44 3.665.8987.9375 2.0825 1.3937 3.4825 1.3937zm7.9462-4.9875c0 1.0775-.1137 2.1863-.5725 3.1538-.3687.95-.9412 1.8462-1.6812 2.5425-.7563.7537-1.655 1.3362-2.67 1.72-.94.2987-2.0113.5537-3.0225.5537-.9563 0-1.8275-.1975-2.725-.4275-.87-.2537-1.6838-.765-2.3838-1.3337-.9537-.7688-1.71-1.6638-2.2112-2.7425-.5125-1.01-.755-2.1588-.755-3.3675 0-1.0813.185-2.09.6275-3.0575.3712-.935.9425-1.845 1.7125-2.5425.7562-.7538 1.5962-1.3625 2.61-1.7488 1.0137-.425 2.055-.5962 3.125-.5962 1.0112 0 2.0825.2 3.0225.6262 1.015.3825 1.8562.9813 2.6125 1.7338.7425.6975 1.2275 1.4925 1.655 2.4162.4412.9663.6562 1.99.6562 3.07zm-29.3312 7.46V43.8525h4.1087c1.155 0 1.9688.1275 2.8526.3138.9412.2137 1.57.6387 2.2537 1.2075.8838.6387 1.5837 1.535 2.0838 2.5425.4424 1.0937.8987 2.3037.8987 3.5675 0 1.3362-.4437 2.545-.9413 3.625-.4424 1.0075-1.1424 1.9162-2.0824 2.6137-.6288.44-1.285.7813-2.0975 1.0225 0 0-1.57.3-2.725.3zm3.0662-2.7862h1.7563c.7825 0 2.0825-.3825 2.8387-1.15.74-.7538 1.4563-2.0188 1.4563-3.6825 0-1.6613-.7563-2.8-1.5013-3.5663-.755-.7675-1.68-1.2062-2.7937-1.2062h-1.7563zM34.9662 59.045l5.9775-15.1925h3.0675l5.735 15.1925h-3.2387l-1.255-3.0412h-5.8063l-1.1987 3.0412zm9.5875-5.4425l-2.1125-5.6562-2.1237 5.6562zM33.725 48.0588c-.6275-.5675-1.1825-.8663-1.8825-1.1213-.6275-.2562-1.57-.5413-2.3112-.4263-1.37.2263-1.6538.3563-2.6113 1.12-1.0562.84-1.755 2.2175-1.755 3.8825 0 1.535.6288 2.9138 1.6425 3.7213.9688.7687.9975.9962 2.495 1.2662.815.1413 1.6688.0575 2.425-.1862.6838-.2688 1.5-.6675 2.1263-1.2513v3.3413c-.6975.3825-1.4988.6537-2.2538.7675-.7.1987-1.5837.3125-2.4112.185-2.3813-.3713-3.2688-.7963-4.7938-2.2188-1.54-1.42-2.2825-3.3512-2.2825-5.655 0-2.2862.6988-4.235 2.2825-5.7125 1.525-1.4362 2.6125-1.9462 4.8663-2.2025.8275-.0838 1.6387.0437 2.3237.2275.7563.1838 1.5563.4563 2.14.8088zM20.7725 59.045h-3.1531V43.8513h3.1531zM8.4038 50.8163h.4412c1.2125 0 2.0263-.1975 2.4125-.44.425-.2563.7275-1.1938.7275-1.8888 0-.7562-.2725-1.28-.7162-1.5937-.4538-.3263-1.325-.3975-2.4238-.3975h-.4412zm45.3225 0h.4437c1.21 0 2.0238-.1975 2.41-.44.4275-.2563.7275-1.1938.7275-1.8888 0-.7562-.27-1.28-.7137-1.5937-.455-.3263-1.3263-.3975-2.4238-.3975h-.4437zM16.5338 59.045h-3.8513l-4.2787-6.3825v6.3825H5.365V43.8525h4.6075c1.77 0 3.1538.4 4.0388 1.0938.8825.6962 1.325 1.7637 1.325 3.24 0 1.0112-.2125 2.0612-.7838 2.815-.6425.71-1.8125 1.6487-2.77 1.7774zm45.3237 0H58.005l-4.2787-6.3825v6.3825h-3.0388V43.8525h4.6075c1.7713 0 3.1538.4 4.0375 1.0938.8838.6962 1.3288 1.7637 1.3288 3.24 0 1.0112-.215 2.0612-.7875 2.815-.6413.71-1.8113 1.6487-2.7663 1.7774l4.75 6.2663" fill="#fff" fill-rule="evenodd"/><path d="M5.2075 37.4163h3.0817V0H5.2075z" fill="#a7b1b7"/></svg>