<svg xmlns="http://www.w3.org/2000/svg" height="800" width="1200" viewBox="-7.937505 -10.404725 68.79171 62.42835"><path d="M52.2958 27.8194c-.0166-.0541-.0488-.2325-.0717-.3964-.1212-.8688-.8289-1.739-1.8039-2.2185-1.029-.506-2.2911-.7425-5.4354-1.0189-.6849-.0602-1.2668-.131-1.2932-.1575-.0838-.0837.3857-.509.899-.8146.2723-.162.4956-.3182.4964-.347.0009-.0287-.22-.0672-.4906-.0855-.3415-.023-.8294-.1603-1.5942-.4484-.6062-.2283-1.3093-.4575-1.5625-.5093l-.4604-.0942.2833-.216c.1558-.1189.2832-.246.2832-.2827 0-.0966-.9133-.2408-1.5022-.2371-.2779.0017-.771.0504-1.0957.1083-.3247.0578-.601.0959-.6142.0846-.054-.0467 1.1926-.52 1.6905-.6419.314-.0769.8649-.1326 1.3248-.134.8501-.0027 1.2109.0787 2.4324.5491.3853.1484.7217.2486.7477.2227.0935-.0935-.3683-.7879-.6865-1.0323-.528-.4056-.945-.459-3.5564-.4555-4.4466.0059-9.036.631-11.8479 1.6137-.5805.2029-.7784.2384-1.0953.1966-1.4881-.1962-4.7317-1.8305-8.8239-4.446-2.1-1.3423-7.6429-5.1575-8.0298-5.527-.0433-.0413.3818.1426.9447.4087 6.5426 3.0931 13.9841 5.207 21.7277 6.172 2.8133.3507 5.3114.5319 9.1913.6668 1.588.0553 1.985.0916 2.1448.1962.2726.1787.951 1.0155 1.736 2.1417l.6648.9535.5013.0513c1.6544.1695 3.5742 1.0565 4.6008 2.1256.6678.6954.9149 1.2395.916 2.0172.0006.5001-.0374.6718-.249 1.1218-.2522.5368-.317.612-.3719.433zM19.5767 24.058c-2.1605-1.2891-5.3761-3.9443-8.1443-6.7248C6.711 12.5906 3.0064 7.3257.8894 2.3496.3988 1.1967-.0377.0406.0025.0006c.0148-.0149.1486.2622.2973.6157.5815 1.3827 1.992 3.7124 3.3033 5.4557 1.52 2.021 3.7926 4.4737 5.8628 6.3278 3.9699 3.5554 8.7102 6.7547 13.8578 9.3527.8421.425 1.531.7904 1.5307.8121-.0006.049-4.4143 1.8902-4.53 1.8897-.0462-.0001-.3827-.1786-.7478-.3964z" fill="#eb1747"/><path d="M20.5266 35.2406v-6.3781l6.6719.003 6.6718.003-.4532.4272c-.7256.6839-.6078.6691-5.3473.6691h-4.0793v3.3064h3.5425c2.3025 0 3.5426.0275 3.5426.0785 0 .1562-.5688.7033-.8958.8616-.3195.1547-.468.162-3.262.162h-2.9273v4.38l-.2984.4935c-.7298 1.207-1.7896 2.0407-2.949 2.32l-.2165.0521zm27.0858 6.0981c-.8685-.3785-1.659-1.022-2.263-1.8425l-.6015-.8172v-9.7596h3.3991v6.3224c0 3.4774-.0153 6.3175-.034 6.3114-.0187-.006-.244-.1026-.5006-.2145zM35.0942 34.358v-5.5746h3.2632v4.4869h2.3794c1.3087 0 2.3795.0459 2.3795.102 0 .056-.2295.2855-.51.5098-.5029.4024-.535.4085-2.3793.4522l-1.8696.0443v5.554h-3.2632z" fill="#141212"/></svg>