<svg xmlns="http://www.w3.org/2000/svg" height="800" width="1200" viewBox="-1.363509 -2.0955475 11.817078 12.573285"><path d="M3.23355 3.68196l-.32737-.46778c-.0575-.0751-.13547-.14605-.22966-.0801-.14923.10442-.01588.2547-.0095.26423l.31997.45649-.29986.2099-.41416-.59125c-.04974-.0713-.08431-.11748-.15205-.1972l.29668-.20779.09737.12912.0032-.002c-.0208-.14852.0554-.26317.17428-.34678.0963-.0674.2406-.0928.34149-.0194-.0127-.13265.05962-.26353.17674-.35031.17039-.11924.3743-.0967.49706.079l.37218.53128-.29986.20991-.32667-.46638c-.0575-.0751-.13512-.14569-.22895-.0801-.14958.10478-.01658.25436-.01058.26282l.31961.4565zm-.9345.6544l-.06632-.0847c-.01305.12735-.07055.21484-.17216.2861-.17039.11924-.3743.0967-.4967-.0776l-.3729-.5327.29987-.2099.32737.46743c.0575.0755.13547.1464.22966.0804.14923-.10477.01623-.2547.0095-.26423l-.31997-.45649.29986-.2099.41416.59125c.04974.0713.08431.11748.15205.1972zm-1.04.72637c-.3129.21802-.74224.14217-.9599-.17074-.21802-.31292-.14076-.74295.17215-.96097l.40887-.2861.22578.3242-.36406.25294c-.13441.0938-.16757.2787-.07408.41311.09384.13476.2787.16792.41345.0741l.36477-.25577.22472.3228zm2.66454-3.0487l.09737.12911.0032-.002c-.02081-.14816.05539-.26282.17462-.34642.09596-.0674.2406-.0928.34114-.0194-.0127-.13264.05962-.26352.17674-.3503.1704-.11924.3743-.0967.49706.079l.37218.53128-.29986.2099-.32667-.46637c-.05715-.0755-.13511-.1457-.22895-.0801-.14958.10478-.01658.25435-.01058.26282l.31961.45649-.29986.20991-.32737-.46779c-.0575-.0755-.13547-.14605-.2293-.0801-.14959.10443-.01624.25436-.0099.26388l.31996.45685-.29986.2099-.41416-.59161c-.04974-.0709-.08431-.11712-.15205-.19685zM5.1837.6135l.14852.21202-.30304.21202-.14852-.21202zm.79869 1.1437l-.29986.20991-.55669-.79481.29987-.2099zM5.81765.68794l.06632.0847c.01305-.12735.0702-.21484.17216-.2861.17039-.11924.3743-.0967.49636.0776l.37288.53269-.2995.20991-.32774-.46779c-.0575-.0751-.13546-.14605-.2293-.0801-.14958.10478-.01623.25471-.0095.26423l.31961.4565-.29986.2099-.4138-.59125c-.04975-.0713-.08468-.11748-.15205-.19721zM4.72051 3.08647h3.63785V.00037H7.31943l-.242.17075c-.01906-.0268-.04023-.0473-.06527-.0526-.02822-.006-.06138.00035-.10266.0293-.04445.0311-.05362.0751-.02152.12136.04092.0582.16087-.0303.39053-.10372.1157-.0363.22154-.0233.31256.10619.1471.21061-.01305.40287-.19509.53022-.19473.13653-.4124.23001-.58032-.0134l.2847-.19932c.01198.0272.0388.0483.07055.0568.0321.008.06844.007.09701-.0134.05856-.0413.08608-.0931.05045-.14393-.09843-.14076-.51011.27234-.7119-.0159C6.483.29668 6.60927.115 6.7511 0L4.32823.00035s-1.94063-.0568-3.175 1.3074c0 0-1.15323 1.0234-1.15323 2.89136 0 .0903.0028.17569.0081.26247.0007.0289.01905.22048.0321.32208C.24728 6.28473 1.18567 7.1307 1.18567 7.1307c1.3074 1.30739 3.1182 1.25059 3.1182 1.25059h4.05448v-3.0861H4.70429s-1.21815-.008-1.21815-1.10419c0-1.08021 1.23437-1.10455 1.23437-1.10455"/><path d="M8.78984 8.11906v-.0878h.05856c.02963 0 .06174.007.06174.0416 0 .0437-.03246.0462-.06879.0462zm0 .0363h.04939l.07479.12276H8.962l-.08043-.12453c.04127-.005.07338-.0275.07338-.078 0-.0561-.03316-.0808-.10019-.0808h-.10795v.28328h.04304zm.05186.22683c.13406 0 .24836-.10407.24836-.24624 0-.14111-.1143-.24482-.24836-.24482-.13511 0-.24941.10371-.24941.24482 0 .14217.1143.24624.24941.24624m-.20002-.24624c0-.11641.08784-.2039.20002-.2039.11113 0 .19897.0875.19897.2039 0 .11818-.08784.20532-.19897.20532-.11218 0-.20002-.0871-.20002-.20532" fill="#231f20"/></svg>