<svg xmlns="http://www.w3.org/2000/svg" height="800" width="1200" viewBox="-132.87405 -31.9965 1151.5751 191.979"><path d="M79.172 62.36l65.62 65.626h55.772s-23.853-23.637-32.798-32.806c0 0 29.218-9.042 29.084-43.493C196.984-.163 148.2.022 138.815 0L48.509.007 1.831 55.661A7.427 7.427 0 000 60.558c0 1.958.774 3.707 2.032 5.024.09.097.186.208.283.298l62.091 62.099 55.78.007-67.382-67.428 16.41-19.536h66.713c6.773 0 10.665 4.786 10.665 10.665 0 5.887-4.778 10.673-10.665 10.673H79.172" fill="#ed1c24"/><path d="M747.28 113.213h-22.952v-50.86h-19.693v58.243a7.386 7.386 0 007.383 7.383h54.954V62.352H747.28v50.861m84.039-50.853h-54.947v65.626h62.33v-14.765h-42.645v-10.665h42.645V69.735a7.375 7.375 0 00-7.383-7.375m-12.295 25.378h-22.968V77.083h22.968zM229.664 62.36v65.626h19.692v-50.86h18.04l-.007-14.774-37.725.008m243.023 0h-54.955v65.619h62.337V113.22h-42.644v-10.665h42.644v-32.82a7.37 7.37 0 00-7.382-7.375m-12.303 25.378h-22.96V77.127h22.96zM329.235 62.36h-54.954v65.626h62.337V69.735a7.37 7.37 0 00-7.383-7.375m-35.262 50.86V77.119h22.96l.007 36.103h-22.967M400.965 62.36H346.01v40.196h42.645v10.665H346.01v14.765h62.33V87.753h-42.645V77.125h42.645s.007-5.753.007-7.39c0-4.079-3.312-7.375-7.382-7.375m143.444 0h-54.955v65.626h19.685V77.118h22.96v50.868h19.692V69.735a7.375 7.375 0 00-7.382-7.375m71.64 0l-35.158-.008V29.54h-19.692v98.447h62.33V69.735c.044-4.116-3.387-7.42-7.48-7.375m-12.206 50.86h-22.952V77.126l22.952-.007v36.103M848.094 62.36l.007 65.626h19.678v-50.86l18.048.007v-14.78l-37.733.007m-160.219 0H632.92l.007 14.758h42.578v10.665h-42.578l-.007 40.203h62.337V69.742a7.382 7.382 0 00-7.383-7.382m-12.37 50.86h-22.82v-10.66h22.82z" fill="#231f20"/></svg>