<svg xmlns="http://www.w3.org/2000/svg" height="800" width="1200" viewBox="-41.87475 -69.7915 362.9145 418.749"><g transform="translate(-2.147 -2.147)"><circle r="128.609" cy="141.73" cx="141.73" fill="#0E6EAD"/><path d="M188.159 37.424l-5.309-6.371-4.602 6.549-6.371-3.717 3.186 10.265h15.101l3.423-9.439zm-53.956 44.955c0 6.844 4.104 1.18 4.104 0v-7.552c0-3.539 1.239-6.135 5.015-6.135s4.482 4.011 6.371 4.011c1.889 0 5.428-.236 16.047-.236s-2.478 9.675-7.905 15.103c-5.427 5.428-19.805 19.52-23.463 23.177-3.658 3.658-1.846 5.907 2.047 2.014 8.023-8.023 13.746-15.28 23.186-12.684 6.568 1.806 4.012 7.787 2.831 11.091-1.181 3.304-1.533 6.018 1.652 2.832 3.186-3.186 34.926-45.308 34.926-52.388 0-7.08-4.248-10.088-4.248-10.088V48.87s-15.811-.237-21.71-.237c-5.898 0-4.247 2.892-7.079 2.892h-15.812c-3.541 0-3.54 3.48-7.316 3.48s-4.542-4.248-4.542-6.135v-7.552c0-2.359-4.104-2.359-4.104 0v12.743c0 3.305.742 4.483-3.506 4.483-4.248 0-7.906 1.179-7.906 5.663 0 4.601 3.423 4.721 7.906 4.721 4.482 0 3.506 6.608 3.506 13.451zm34.487-20.494c0 1.695-19.705 14-19.705 0 0-13.156 19.705-1.595 19.705 0zm52.978 101.2c-22.537 0-38.583 10.974-41.769 14.159-2.838 2.837-7.434 2.949-9.204 1.533-1.772-1.418-5.663-4.247-7.787-14.396-.997-4.762-4.956-4.719-3.658 1.771.771 3.861 3.067 11.8 5.663 15.574 2.756 4.009 1.77 8.732-6.135 8.496-10.262-.308-23.127-18.879-26.548-27.02-1.905-4.534-7.198-6.372-2.36 5.546 7.557 18.618 18.171 29.969 25.959 34.689 4.481 2.716 5.853 7.378 4.602 11.091-3.659 10.855-5.312 12.979-8.732 12.979-2.714 0-5.073-5.369-6.843-8.732-1.77-3.362-3.54-6.666-6.018-11.799-2.478-5.132-5.664-4.955-7.256-4.955-1.592 0-6.726 2.478-6.726 6.018 0 3.54 4.248 2.301 6.549 2.301s3.894 2.654 4.956 5.663c1.062 3.009 6.726 21.593 8.672 25.663 1.947 4.071 4.425 4.779 6.372 4.779 10.56 0 21.592-28.142 25.663-32.212 4.07-4.07 8.495-3.362 26.548-3.362 18.053 0 43.185-12.743 43.185-29.38s-14.691-18.406-25.133-18.406zm-18.997 30.677c-21.593 0-7.905-7.314-.117-10.854 7.381-3.354 13.096-5.429 15.81-5.429 2.714 0 7.434.708 7.434 6.726-.001 2.597 1.06 9.557-23.127 9.557z" fill="#56B948"/><path d="M141.73 2.147C64.641 2.147 2.147 64.641 2.147 141.73S64.641 281.313 141.73 281.313 281.312 218.82 281.312 141.73 218.819 2.147 141.73 2.147zm0 10.974c71.028 0 128.608 57.58 128.608 128.609 0 1.581-.038 3.152-.095 4.718h-36.896c-5.132 0-5.909-3.274-5.909-5.575l-.002-.01a261.01 261.01 0 00-.283-9.459c-.526-11.424-17.627-2.606-22.372-.75-1-8.205-11.696-4.449-18.316-1.683-1.065-.915-2.771-2.444-4.974-4.647-3.806-3.805-6.902.354-9.911 2.655-3.009 2.301 1.238 2.124 1.238 4.071v11.379c0 .01.003.018.003.028l-.003.025v.731h-.08c-.403 2.669-2.868 4.73-5.876 4.73-3.011 0-5.475-2.062-5.878-4.73h-.02l-.066-.114c.013-2.513-.042-6.297-.291-11.695-.424-9.189-11.571-5.28-18.388-2.433-1.065-.915-2.771-2.444-4.974-4.647-2.57-2.57-4.817-1.504-6.933.167-1.448 0-8.028.648-15.015.648h-14.336v-.012c-.041 0-.078.012-.119.012a3.895 3.895 0 01-3.894-3.894c.354-3.894 1.18-52.848 1.18-64.707 0-11.858 7.434-14.159 10.62-16.637 3.186-2.478.708-4.956-2.124-4.779-2.832.177-20.177 8.496-27.256 12.035-7.08 3.54-5.487 7.257-5.133 15.929.354 8.672 1.446 58.158 1.446 58.158a3.895 3.895 0 01-3.894 3.894H28.484c-4.101 0-10.139-.186-14.274-.213C22.446 61.838 76.396 13.121 141.73 13.121zm0 257.218c-71.03 0-128.61-57.58-128.61-128.609 0-2.444.075-4.871.209-7.281h58.46a3.895 3.895 0 013.894 3.894v88.901c0 6.105 1.209 7.256 3.51 8.406 2.301 1.151 6.726 3.452 12.832 6.283 6.106 2.832 4.926-2.212 4.926-10.796v-92.794a3.895 3.895 0 013.893-3.894h21.947c4.439 0 5.504 3.862 5.783 7.128v2.217h.082c.011.256.023.539.034.845l.003.107c.031.903.057 1.994.057 3.198 0 3.178.531 6.263 4.513 6.263 3.982 0 5.813-3.068 5.813-5.104v-8.533c0-.222.041-.386.109-.51a5.487 5.487 0 015.378-4.408 5.487 5.487 0 015.486 5.486c0 .01-.003.018-.003.028v10.061c0 3.009 2.332 2.979 5.163 2.979h23.097c3.717 0 5.019-1.387 5.019-5.9v-7.14c0-.01-.003-.018-.003-.028a5.486 5.486 0 0110.972 0l-.002.028v9.157l.002.019c0 4.867 7.197 4.867 7.197 0l.003-.037v-9.138c0-.01-.003-.018-.003-.028a5.486 5.486 0 0110.973 0c0 .01-.003.018-.003.028v8.339c0 .014.003.026.003.04 0 6.194 9.38 6.46 18.849 6.46h38.233c-7.102 64.309-61.612 114.333-127.816 114.333z" fill="#FED402"/></g></svg>