<svg xmlns="http://www.w3.org/2000/svg" height="800" width="1200" viewBox="-36.65415 -32.41475 317.6693 194.4885"><path d="M110.333.473c-14.208 1.903-27.25 11.075-30.5 30.031l.25 16.938c1.263 24.72 28.187 30.605 40.375 30.5 26.569-.529 37.421-12.406 40.375-32.875V34.129c-.767-14.692-9.136-28.767-30.531-33.656zm.781 3h18.438c18.588 4.98 25.925 17.555 26.75 31.062V44.63c-2.727 16.568-10.63 29.625-36.094 30.813-13.352-.603-30.996-2.945-35.875-29.532V30.504c3.7-16.57 14.363-23.875 26.781-27.031z"/><path d="M104.799 38.323L118.436.063l.252 31.441h3.283V0l13.89 37.06 5.303 37.88-18.435-38.638h-4.798L100.885 74.38zM0 129.518l22.006-35.976 9.423.063 21.189 35.825-9.887-.126-15.663-26.275-7.893 13.671h14.04l4.355 7.544H14.107l-3.063 5.306L0 129.518zm94.108-36.052H62.36c-5.287 0-9.816 5.63-9.816 8.896v18.175c0 3.783 4.387 8.418 8.205 8.666h32.976v-7.056H64.66c-1.868 0-3.067-1.802-3.067-2.914V104.28c.14-1.625.908-2.669 2.377-3.067h29.831V93.39m4.755 0v28.144l8.129 7.822h25.92l8.129-9.356V93.436h-9.216v25.432l-2.766 3.525h-18.22l-3.145-3.145V93.382l-8.83.007zm83.121-.062h-35.138v35.79h9.218v-27.765h22.666c4.436 0 4.795 8.026 0 8.026h-21.04v8.134h21.149c.999 0 2.169 1.771 2.169 2.928v9.218h9.273v-10.682c-.835-2.368-2.492-3.775-4.176-5.152 1.79-1.182 3.805-2.177 4.067-4.609v-9.164c0-1.79-5.63-6.724-8.188-6.724zm10.066 36.19l22.006-35.976 9.423.063 21.189 35.825-9.887-.126-15.663-26.275-7.893 13.671h14.04l4.355 7.544H205.85l-3.063 5.306-11.044-.032z"/></svg>