<svg xmlns="http://www.w3.org/2000/svg" height="800" width="1200" class="svg-rocket-lab-logo" viewBox="-99.825 -25.15 865.15 150.9"><path d="M423.3 47.4l22.2-7.9 1.9 5.2-16.7 5.7 16.7 5.5-1.9 5.1-22.2-7.6V61H418V39.5h5.3m56.5 0v5.2h-24.2v3.1h24.2v5.1h-24.2v3h24.2V61h-29.5V39.5m61.9 0v5.2H500V61h-5.2V44.7h-12v-5.2"/><path d="M199.4 38.1c24.1 0 46.1 5.1 46.1 11.1v2.3c0 5.6-21.9 10.9-46.1 10.9C192.8 62.4.5 51.5.5 51.5v-2.3s192.4-11.1 198.9-11.1m0 22.3c24.1 0 43.6-4.9 43.6-10 0-5.3-19.4-10.3-43.6-10.3-6.5 0-177.1 10.3-177.1 10.3s170.6 10 177.1 10" stroke-miterlimit="10" stroke="#E12726" fill="#E12726"/><path d="M345.1 39.5c5.3 0 5.3 5.2 5.3 5.2v3.1s0 5.1-5.3 5.1H342l8.3 2.9-2.7 5.2-21.5-8.1V61h-5.3V39.5zm-18.9 5.2v2.7h18.2c.7 0 .7-.6.7-.6v-1.4s0-.7-.7-.7zm51.3-5.2c5.1 0 5.1 5.2 5.1 5.2v11.2s0 5.2-5.1 5.2h-18.9c-5.2 0-5.2-5.2-5.2-5.2V44.7s0-5.2 5.2-5.2zm-18.2 5.2c-.8 0-.8.7-.8.7v9.8s0 .7.8.7h17.5c.7 0 .7-.7.7-.7v-9.8s0-.7-.7-.7zm31.6-5.2h24.2v5.2h-23.4c-.7 0-.7.7-.7.7v9.8s0 .7.7.7h23.4v5.2h-24.2c-5.3 0-5.3-5.2-5.3-5.2V44.7s0-5.2 5.3-5.2m135.6 0h5.3v16.4H556V61h-29.5m37.6-21.5h19.1c5.2 0 5.2 5.2 5.2 5.2V61h-5.2v-8.1h-19.1V61H559V44.7s0-5.2 5.1-5.2m19.1 8.3v-2.4s0-.7-.7-.7h-17.7c-.7 0-.7.7-.7.7v2.4zm32.3-8.3c5.3 0 5.3 5.2 5.3 5.2v3.1c0 1.5-.7 2.6-.7 2.6s.7 1 .7 2.5v2.9s0 5.2-5.3 5.2h-24.1V39.5zm-18.8 5.2v3.1h18.1c.8 0 .8-.7.8-.7v-1.7s0-.7-.8-.7zm0 8.2v2.9h18.1c.8 0 .8-.7.8-.7v-1.5s0-.7-.8-.7z"/><path d="M249.9 37.4c19 0 27.4 7.8 27.4 8.6v8.6c0 1-8.5 8.4-27.4 8.4zm2 2.1V61c14.5 0 23.4-6.4 23.4-7.2V47c-.1-.9-10.4-7.5-23.4-7.5m32.9 7.9h28.3c1.5 0 3 1 3 3s-1.4 3-3 3h-28.3c-1.3 0-2.9-1-2.9-3 0-2.1 1.5-3 2.9-3m-.9 3c0 .5.5 1 1 1h28.3c.5 0 1-.4 1-1s-.4-1.1-1-1.1h-28.4c-.5 0-.9.5-.9 1.1M306.4.5l9.7 34.1h-34.3L291.6.5zm-12.9 2.1l-8.7 29.9h28.3l-8.5-29.9zM281.9 66h34.3l-9.7 34.1h-14.7zm11.6 32h11.1l8.5-29.9h-28.3z" stroke-miterlimit="10" stroke="#8B8A8D" fill="#8B8A8D"/><path d="M518.4 51.4c-1.4 0-1.5-2.1 0-2.1 1.4 0 1.4 2.1 0 2.1m0-4c-4.1 0-4.1 6 0 6s4.1-6 0-6" fill="#8B8A8D"/><path d="M641.7 62.1h-16.3V38.5h16.3l20.6 8.3c1.7.7 2.7 2 2.7 3.5s-1 2.9-2.7 3.6zm-14.1-2.2h13.7l20.2-8c.8-.3 1.3-.9 1.3-1.5s-.5-1.1-1.3-1.5l-20.2-8.1h-13.7z" stroke-miterlimit="10" stroke="#8B8A8D" fill="#8B8A8D"/></svg>