<svg xmlns="http://www.w3.org/2000/svg" height="800" width="1200" version="1.0" viewBox="-44.99985 -29.00425 389.9987 174.0255"><path d="M51.289.479v53.1h47.054c10.653.165 16.647-5.171 17.311-14.401V.479H99.947v34.917c-.165 4.948-3.602 6.841-8.707 6.119L91.292.479H75.868v40.867h-9.21V.479H51.289m69.556-.174v12.177h25.028c3.719.836 5.326 3.117 5.214 6.781h-17.258c-10.038-.052-15.256 5.064-15.642 15.293v4.948c.885 9.897 6.268 14.512 16.2 13.845h32.128V16.043C166.181 5.979 160.412.249 149.257.305zm30.189 41.981V30.939h-12.598c-5.825.281-6.822 10.569 0 11.347zm36.612-6.329v17.569H172V.426h32.405c8.824-.499 15.091 4.003 16.369 13.346v5.059c-.333 5.728-3.385 9.676-9.322 11.734 5.162 1.554 8.49 5.334 8.603 10.505v12.456h-15.649v-9.508c-.165-5.282-3.44-8.119-8.382-8.061zm0-23.353l-.053 11.676h11.706c6.714.223 8.044-11.566-.056-11.676zM225.624.375v12.068h24.526c3.883.388 5.604 2.721 5.379 7.005h-17.531c-9.432.334-14.484 5.004-15.147 14.068l-.057 6.003c.72 9.396 5.938 14.289 15.702 13.791h32.401V16.002C270.234 5.656 264.963.433 255.307.264zm29.905 30.416V42.19h-11.594c-7.606.33-7.715-11.734 0-11.399zM284.212.165v35.974c-.334 3.838-3.831 5.282-10.436 4.781v12.566h10.656c9.318.335 15.147-5.726 15.481-13.509V.165zm-2.178 102.223v-6.747h-14.619c-7.86-.274-7.665 7.345 0 6.801zM136.041 64.476v15.61h18.266l20.422-15.61zm49.19 51.541V101.3H165.17l-18.626 14.716h38.687zm-52.436-14.548l46.889-36.763h44.774c12.535-.542 20.059 4.663 21.85 15.434.304 2.729.48 5.495.525 8.264 2.916-3.634 7.995-5.259 15.233-5.224h20.031c.128-3.647-1.735-3.647-6.05-4.464h-27.956V64.787h33.942c13.007-.108 17.584 4.625 17.966 14.475v36.51H262.71c-10.038.568-16.069-2.783-18.143-10.048-2.451 5.673-7.092 9.407-15.635 9.948h-40.115V80.497l-2.147-.356-44.955 35.531h-8.921v.1H95.502c-8.468.479-14.087-1.828-16.883-6.927v7.172H59.461V86.202c-.202-4.791-3.996-6.262-10.285-5.552l-.274 35.366H30.085V80.379H18.847v35.638H.094V64.652h58.895c13-.161 18.817 4.46 19.631 13.496v11.73c2.673-4.672 8.085-6.737 16.238-6.698h20.031c.128-3.647-1.739-3.647-6.054-4.464H80.88V64.787h33.941c13.015-.108 17.588 4.625 17.974 14.475zm73.93-21.328v20.815h13.974c3.76-.718 6.447-3.051 7.16-6.998v-7c-.356-3.409-3.224-6.816-7.344-6.816h-13.79zm-91.904 22.247v-6.747h-14.619c-7.856-.274-7.665 7.345 0 6.801zM45.865 12.731V0H14.514C7.081.333 1.863 4.224.202 13.233v5.951c.664 7.726 5.717 13.065 12.981 13.453h14.041c5.825.11 5.491 8.175 0 7.952H0V53.32h31.831c10.484.277 15.369-5.337 16.422-14.958v-4.168c-.997-8.897-5.712-13.622-14.259-14.237H19.953c-4.993-.388-4.716-6.835 0-7.227h25.912z" fill="#00AEEF" clip-rule="evenodd" fill-rule="evenodd"/></svg>