<svg xmlns="http://www.w3.org/2000/svg" height="800" width="1200" viewBox="-44.5641 -50.53775 386.2222 303.2265"><path fill="#FFF" d="M297.03 101.073a148.515 101.073 0 01-297.03 0 148.515 101.073 0 11297.03 0z"/><g fill="#C00"><path d="M87.813 8.794C130.63-3.88 186.27-4.14 233.883 17.504c23.692 12.214 45.988 28.62 57.476 52.854 9.826 23.765 7.236 54.974-9.396 75.577h-74.72l-70.38-133.33h-27.04l82.42 154.34h69.564c-40.695 32.882-95.497 39.713-145.9 32.727-46.57-5.73-96.44-31.25-112.55-77.02l116.08-.1 36.244 68.505 27.04.281z"/><path d="M0 101.005c1.41-40.384 32.064-69.54 64.688-83.396l43.602 83.156"/></g></svg>