<svg xmlns="http://www.w3.org/2000/svg" height="800" width="1200" viewBox="-23.79 -42.5 206.18 255"><path d="M11.1 137.2l-6.4-10.6v14.8H0v-21h6.1l5 8.6 4.8-8.6h6.2v21h-4.7v-14.8zm15-16.8h4.7v21h-4.7zm22.9 4.4h-5.7v16.6h-4.8v-16.6h-5.6v-4.4H49zm1.7 16.4v-4.4c1 .2 3.3.6 6.2.6 2.4 0 3.6-.3 3.6-1.7 0-1.5-1-1.7-4.4-3.3-3.3-1.5-5.8-2.8-5.8-6.4 0-4.4 2.7-5.9 7.9-5.9 2.7 0 4.6.2 5.9.4v4.4c-1.2-.1-3.3-.4-5.7-.4-2.8 0-3.4.3-3.4 1.5s1.5 1.8 3.8 2.8c3.5 1.6 6.3 2.9 6.3 6.9 0 4.2-2.6 6.1-8.2 6.1-2.2-.1-4.2-.3-6.2-.6m17.3-6.9v-13.9h4.7v13.7c0 2.4 1.4 3.2 3.7 3.2 2.2 0 3.7-.8 3.7-3.2v-13.7h4.7v13.9c0 5.1-3.3 7.4-8.4 7.4-5.1 0-8.4-2.3-8.4-7.4m20.8-13.9H98c4.3 0 6.7 1.6 6.7 5.4 0 3-1.7 4-3.3 4.6 1.9.6 3.9 1.6 3.9 5.1 0 3.7-2.2 5.9-6.9 5.9h-9.5v-21zm8.5 8.5c1.9 0 2.6-1 2.6-2.4 0-1.7-.8-2.1-2.6-2.1h-3.8v4.5zm.3 8.6c1.9 0 2.7-.7 2.7-2.5 0-1.6-.7-2.3-2.5-2.3h-4.3v4.8zm10.4-17.1h4.7v21H108zm8.1 20.8v-4.4c1 .2 3.3.6 6.2.6 2.4 0 3.6-.3 3.6-1.7 0-1.5-1-1.7-4.4-3.3-3.3-1.5-5.8-2.8-5.8-6.4 0-4.4 2.7-5.9 7.9-5.9 2.7 0 4.6.2 5.9.4v4.4c-1.2-.1-3.3-.4-5.7-.4-2.8 0-3.4.3-3.4 1.5s1.5 1.8 3.8 2.8c3.5 1.6 6.3 2.9 6.3 6.9 0 4.2-2.6 6.1-8.2 6.1-2.1-.1-4.2-.3-6.2-.6m21.7-8.1v8.3h-4.7v-21h4.7v8.3h7.5v-8.3h4.7v21h-4.7v-8.3zm16.1-12.7h4.7v21h-4.7zM33.1 165.5l-6.3-10.6v14.8H22v-21h6.1l5 8.5 4.9-8.5h6.2v21h-4.8v-14.8zm14.3-6.3c0-7.5 2.9-10.8 9.1-10.8 6.2 0 9.1 3.3 9.1 10.8 0 7.5-2.9 10.8-9.1 10.8-6.2 0-9.1-3.3-9.1-10.8m13.2 0c0-4.3-.7-6.5-4.2-6.5-3.4 0-4.2 2.2-4.2 6.5s.7 6.5 4.2 6.5 4.2-2.2 4.2-6.5m21.8-6.1h-5.7v16.6H72v-16.6h-5.7v-4.4h16.1zm.8 6.1c0-7.5 2.9-10.8 9.1-10.8 6.2 0 9.1 3.3 9.1 10.8 0 7.5-2.9 10.8-9.1 10.8-6.2 0-9.1-3.3-9.1-10.8m13.2 0c0-4.3-.7-6.5-4.2-6.5s-4.2 2.2-4.2 6.5.7 6.5 4.2 6.5 4.2-2.2 4.2-6.5m8.1-10.5h8.5c4.5 0 7.4 1.7 7.4 6.7 0 3.3-1.6 5.4-4.3 6l5.2 8.3h-5.5l-4.4-7.5h-2.1v7.5h-4.7v-21zm8.3 9.4c2.1 0 2.8-1.1 2.8-2.7s-.7-2.7-2.8-2.7h-3.5v5.4zm10.4 11.3V165c1 .2 3.3.6 6.2.6 2.4 0 3.6-.3 3.6-1.7 0-1.5-1-1.7-4.4-3.3-3.3-1.5-5.8-2.8-5.8-6.4 0-4.4 2.7-5.9 7.9-5.9 2.7 0 4.6.2 5.9.4v4.4c-1.2-.1-3.3-.4-5.7-.4-2.8 0-3.4.3-3.4 1.4 0 1.2 1.5 1.8 3.8 2.8 3.5 1.6 6.3 2.9 6.3 6.9 0 4.2-2.6 6.1-8.2 6.1-2.1.1-4.2-.1-6.2-.5" fill="#231916"/><path d="M58.9 34.8L79 69.7l20.2-34.9L79 0zm60.4 34.9H79l20.2 34.8h40.2zm-80.5 0H79l-20.1 34.8H18.7z" fill="#e60013"/></svg>