<svg xmlns="http://www.w3.org/2000/svg" height="800" width="1200" viewBox="-8.253255 -7.887925 71.52821 47.32755"><defs><linearGradient x1="0" y1="0" x2="1" y2="0" gradientUnits="userSpaceOnUse" gradientTransform="rotate(90 -13.7396 141.2543) scale(5.18256)" spreadMethod="pad" id="f"><stop offset="0" stop-color="#d3d2d2"/><stop offset=".1005" stop-color="#f4f4f4"/><stop offset=".5" stop-color="#f4f4f4"/><stop offset=".8888" stop-color="#f4f4f4"/><stop offset="1" stop-color="#d3d2d2"/></linearGradient><linearGradient x1="0" y1="0" x2="1" y2="0" gradientUnits="userSpaceOnUse" gradientTransform="rotate(90 -13.5927 141.1074) scale(5.71879)" spreadMethod="pad" id="e"><stop offset="0" stop-color="#f4f4f4"/><stop offset=".682" stop-color="#f4f4f4"/><stop offset="1" stop-color="#b2b1b1"/></linearGradient><linearGradient x1="0" y1="0" x2="1" y2="0" gradientUnits="userSpaceOnUse" gradientTransform="rotate(-90 149.0256 21.2872) scale(25.41312)" spreadMethod="pad" id="d"><stop offset="0" stop-color="#ba151b"/><stop offset="1" stop-color="#ee2722"/></linearGradient><linearGradient x1="0" y1="0" x2="1" y2="0" gradientUnits="userSpaceOnUse" gradientTransform="rotate(90 -8.1005 135.8043) scale(13.67777)" spreadMethod="pad" id="c"><stop offset="0" stop-color="#2e2a2b"/><stop offset="1" stop-color="#5a5758"/></linearGradient><linearGradient x1="0" y1="0" x2="1" y2="0" gradientUnits="userSpaceOnUse" gradientTransform="rotate(-90 150.2009 22.4451) scale(30.08576)" spreadMethod="pad" id="b"><stop offset="0" stop-color="#f4f4f4"/><stop offset=".682" stop-color="#f4f4f4"/><stop offset="1" stop-color="#b2b1b1"/></linearGradient><linearGradient x1="0" y1="0" x2="1" y2="0" gradientUnits="userSpaceOnUse" gradientTransform="rotate(90 -7.036 134.7889) scale(31.5517)" spreadMethod="pad" id="a"><stop offset="0" stop-color="#f4f4f4"/><stop offset=".682" stop-color="#f4f4f4"/><stop offset="1" stop-color="#b2b1b1"/></linearGradient></defs><path d="M126.2836 142.1781l-25.242 14.2293c-.437.2385-.7933.6597-.7965 1.196.002.5351.3584.955.7966 1.1966l25.2433 14.229c.447.2483.9589.3485 1.469.3499.5098-.001 1.0213-.103 1.4697-.35l25.2469-14.229c.4381-.2416.7937-.6614.7962-1.1965-.004-.5363-.3598-.9575-.7962-1.196l-25.2459-14.2293c-.4494-.2497-.961-.3496-1.4707-.351-.5115.001-1.0227.1013-1.4704.351" fill="url(#a)" transform="translate(-100.2451 -141.8271)"/><path d="M126.3524 142.8946l-24.0693 13.5682c-.4166.228-.7567.629-.7599 1.1406.002.5104.3422.9108.7599 1.1415l24.07 13.5672c.4265.2367.9148.3323 1.401.3337.486-.001.974-.0981 1.4015-.3337l24.074-13.5672c.4176-.2307.7566-.631.7587-1.1415-.004-.5116-.3429-.9127-.7588-1.1406l-24.0728-13.5682c-.4287-.2377-.9166-.333-1.4027-.3347-.4872.002-.975.097-1.4016.3347" fill="url(#b)" transform="translate(-100.2451 -141.8271)"/><path d="M53.6177 15.6578L28.37 1.4296c-.1926-.1122-.5267-.1937-.8612-.1916-.334-.002-.6688.0794-.861.1916L1.4051 15.6578c-.0924.053-.1352.0928-.155.116.0202.025.0678.072.155.1211l25.2426 14.2279c.1937.1108.527.1922.8611.1912.3345.001.6668-.0804.8612-.1912l25.2476-14.2279c.091-.0526.1337-.0935.153-.1178-.0193-.0247-.067-.0695-.153-.1193" fill="#231f20"/><path d="M103.563 157.5829c8.9828-3.2667 39.7072-3.2667 48.2815-.1023l-24.1917-13.5756z" fill="url(#c)" transform="translate(-100.2451 -141.8271)"/><path d="M121.1885 148.4654l2.977 6.9726 2.3707 5.5538 2.5354 5.938-1.4185.9182-6.2724-3.4244v2.4836l6.3592 3.4057 6.5486-3.5673-3.7525-8.7877-1.6337-3.8308-2.4956-5.8438 1.419-.92 6.2716 3.4247v-2.4835l-6.3574-3.4047z" fill="url(#d)" transform="translate(-100.2451 -141.8271)"/><path d="M36.4655 22.2211c-.0543-.0307-.1397-.0444-.2604-.0444h-.182v.4382h.1947c.0892 0 .1584-.008.2043-.0268.084-.0342.1256-.0967.1256-.1888 0-.0889-.0275-.1485-.0822-.1781m-.234-.194c.1521 0 .2629.014.3342.0437.1252.0526.188.1552.188.309 0 .1076-.0395.188-.1185.2395-.041.0275-.0995.0473-.1747.058.0942.0161.1623.0553.2054.1192.0437.0646.0656.1263.0656.1883v.0886c0 .0282.002.0586.003.0892.002.0328.006.0533.0123.064l.007.0151h-.199c-.002-.003-.003-.008-.006-.0117a.1164.1164 0 00-.001-.014l-.004-.0386v-.0956c0-.141-.0406-.2338-.1164-.279-.0441-.0261-.1246-.0388-.2378-.0388h-.1669v.4777h-.2162V22.027zm-.6557-.0614c-.1849.1862-.278.4116-.278.6759 0 .265.093.4914.2766.678.1855.1884.4117.2812.677.2812.2642 0 .4892-.0928.6744-.2812.1863-.1866.2787-.413.2787-.678 0-.2643-.0924-.4897-.2787-.676-.1852-.1862-.4102-.28-.6745-.28-.2635 0-.4893.0937-.6755.28m1.4626 1.4591c-.2156.2174-.4766.326-.7856.326-.3052 0-.5673-.1086-.7822-.326-.2148-.2159-.321-.4773-.321-.7845 0-.3059.1062-.5648.3246-.7807.2148-.2149.4755-.325.7786-.325.309 0 .57.1101.7856.325.2162.2148.3238.4748.3238.7807 0 .3062-.1076.5665-.3238.7845" fill="#fff"/><path d="M34.4428 18.9913v-3.9941h1.7423l-1.488 3.411zm13.222-6.5778h-2.0464v1.6481l-1.3007-1.6481H41.588v4.7526l-2.0722-4.7526H37.312l-1.046 2.3985v-2.3985h-6.4724v.3453a1.2806 1.2806 0 00-.876-.3453h-4.8827v5.0493l-2.2017-5.0493h-2.2035l-1.1821 2.71v-1.4231c0-.7095-.5768-1.287-1.286-1.287H7.5834c-.7098 0-1.287.5775-1.287 1.287v1.8732c0 .4597.2424.864.6062 1.0912h-.6033v1.9268l.8463.4594h4.2806a1.28 1.28 0 00.8516-.3232v.3232h2.6833v-1.8638h2.2006a1.282 1.282 0 00.4159-.069l-.8431 1.9328h2.7298l.3806-.8745h1.7734l.3814.8745h4.7173v-2.0486h.804v2.0486h2.6829v-2.6843c0-.2078-.0487-.4081-.1404-.5874a1.288 1.288 0 00.1404-.587v-.195h1.4121v4.0537h5.5298l.381-.8745h1.7727l.3796.8745h4.425v-2.4903l1.8513 2.4903h1.8277l.4597-.2667v-6.048z" fill="#231f20"/><path d="M146.3228 154.7003v2.5115l-1.9833-2.5115h-2.0475v5.7186h1.5974v-3.4192l2.542 3.4192h1.5971v-5.7186zm-8.4649 0l-2.4945 5.7186h1.7269l.3806-.8746h2.3753l.3792.8746h1.7283l-2.4945-5.7186zm.7994 2.1216l.6597 1.5106h-1.3173zm-8.1594-2.1216v1.6648h1.8228v4.0538h1.9078v-4.0538h1.8232v-1.6647zm-5.7587 0v5.7186h1.7639v-2.0486h1.4763c.1351 0 .2463.1115.2463.248v1.8006h1.7635v-2.2254a.8299.8299 0 00-.2424-.5873.8296.8296 0 00.2424-.5867v-1.4919c0-.4565-.3694-.8273-.8262-.8273zm1.7656 1.4676h1.8112v.8932h-1.8112zm-6.3295-1.4676l-2.4942 5.7186h1.7272l.3807-.8746h2.3756l.381.8746h1.725l-2.493-5.7186zm.8015 2.1216l.6586 1.5106h-1.3183zm-7.995-2.1216v5.7186h1.7646v-1.8641h2.6603c.4561 0 .8265-.3718.8265-.8283v-2.1989c0-.4565-.371-.8273-.8265-.8273zm1.7667 1.4676h1.8108v1.0763h-1.8108zm-6.92-1.4676a.8273.8273 0 00-.8274.8273v1.8733c0 .4561.3705.8269.8273.8269h2.898v.7239h-3.7224v1.4672h4.6672c.4572 0 .827-.37.827-.8266v-1.875c0-.4565-.3705-.8255-.827-.8255h-2.9058v-.7239h3.7246v-1.4676z" fill="url(#e)" transform="translate(-100.2451 -141.8271)"/><path d="M146.5906 154.9939v3.0152l-2.3802-3.0152h-1.65v5.1826h1.0612v-3.9606l2.944 3.9606h1.1948v-5.1826zm-8.5574 0l-2.2606 5.1826h1.142l.3806-.8742h2.727l.3796.8742h1.1426l-2.2602-5.1826zm.6238 1.1835l1.07 2.449h-2.1361zm-7.891-1.1835v1.1289h1.8228v4.0537h1.3716v-4.0537h1.8228v-1.129zm-5.759 0v5.1826h1.228v-2.0486h1.7444c.2833 0 .5137.2318.5137.5162v1.5324h1.2283v-1.9572a.5614.5614 0 00-.1643-.3983l-.1345-.1347-.054-.054.0536-.0543.1341-.1348a.5612.5612 0 00.1651-.398v-1.4922a.5594.5594 0 00-.5584-.5591zm1.23.9316h2.3471v1.4295h-2.347zm-5.886-.9316l-2.261 5.1826h1.1427l.3806-.8742h2.7263l.3813.8742h1.141l-2.2596-5.1826zm.6258 1.1835l1.0675 2.449h-2.1368zm-7.7269-1.1835v5.1826h1.2287v-1.864h2.928c.308 0 .5589-.2516.5589-.5603v-2.1992a.5595.5595 0 00-.5588-.5591zm1.2312.9316h2.3467v1.6126h-2.3467zm-6.6527-.9316a.56.56 0 00-.5598.5591v1.8736c0 .3083.2511.5592.5598.5592h3.1655v1.259h-3.7225v.9317h4.3998a.5595.5595 0 00.5592-.5588v-1.875c0-.3073-.2509-.5574-.5592-.5574h-3.1736v-1.2598h3.724v-.9316z" fill="url(#f)" transform="translate(-100.2451 -141.8271)"/></svg>