<svg xmlns="http://www.w3.org/2000/svg" height="800" width="1200" viewBox="-23.367735 -5.566075 202.52037 33.39645"><defs><clipPath id="d" clipPathUnits="userSpaceOnUse"><path d="M0 0h609.449v807.874H0z"/></clipPath><clipPath id="c" clipPathUnits="userSpaceOnUse"><path d="M0 0h609.449v807.874H0z"/></clipPath><clipPath id="b" clipPathUnits="userSpaceOnUse"><path d="M0 0h609.449v807.874H0z"/></clipPath><clipPath id="a" clipPathUnits="userSpaceOnUse"><path d="M0 0h609.449v807.874H0z"/></clipPath></defs><g clip-path="url(#a)" transform="matrix(1.25 0 0 -1.25 -303.0132 61.2403)"><path d="M258.8657 32.1498c.636.449 1.109.411 1.676.976.525.522-.19 1.136-.724 1.532-.575.425-.223.5.505.642 2.058.402 4.81 1.074 5.955 1.392 2.86.792 5.386 2.817 5.364 5.143-.015 1.576-1.131 2.938-2.303 3.892-1.172.955-2.426 1.508-2.822 1.622-.827.239-.391-.311-.391-.311s.741-.264 2.303-1.43c1.149-.858 2.237-2.169 2.25-3.585.037-3.68-4.987-4.788-4.987-4.788s4.553 1.35 4.52 4.783c-.014 1.465-1.559 3.37-3.652 4.753-1.544 1.02-3.334 1.589-3.716 1.651-1.077.174-.56-.351-.56-.351s1.414-.355 3.244-1.605c1.497-1.023 2.919-2.665 2.937-4.587.025-2.462-2.447-3.746-3.531-4.289-1.663-.833-3.455-1.245-3.455-1.245s2.051.54 3.677 1.574c1.484.945 2.782 2.539 2.768 3.954-.026 2.631-2.791 4.727-5.105 5.933-1.225.639-2.335 1.013-2.817 1.117-.542.118-1.318.147-.402-.423.682-.423 1.637-1.042 2.443-1.785 1.461-1.349 2.764-3.235 2.78-4.946.021-2.191-1.465-3.902-3.131-4.585-1.508-.617-2.997-.788-3.463-.883-.7-.142-.657-.72-.545-.854.355-.426 1.258-.751 1.258-1.49 0-1.275-1.709-1.422-1.916-1.422-.205 0-1.915.147-1.915 1.422 0 .739.904 1.064 1.258 1.49.112.134.155.712-.545.854-.466.095-1.955.266-3.463.883-1.667.683-3.153 2.394-3.131 4.585.016 1.711 1.319 3.597 2.781 4.946.805.743 1.76 1.362 2.442 1.785.917.57.141.541-.402.423-.482-.104-1.592-.478-2.818-1.117-2.313-1.206-5.078-3.302-5.104-5.933-.014-1.415 1.284-3.009 2.768-3.954 1.626-1.034 3.677-1.574 3.677-1.574s-1.793.412-3.454 1.245c-1.085.543-3.557 1.827-3.533 4.289.019 1.922 1.441 3.564 2.937 4.587 1.83 1.25 3.245 1.605 3.245 1.605s.517.525-.56.351c-.382-.062-2.171-.631-3.715-1.651-2.094-1.383-3.639-3.288-3.653-4.753-.034-3.433 4.52-4.783 4.52-4.783s-5.023 1.108-4.988 4.788c.014 1.416 1.102 2.727 2.251 3.585 1.562 1.166 2.303 1.43 2.303 1.43s.436.55-.391.311c-.396-.114-1.65-.667-2.822-1.622-1.172-.954-2.287-2.316-2.303-3.892-.022-2.326 2.504-4.351 5.364-5.143 1.145-.318 3.897-.99 5.954-1.392.729-.142 1.081-.217.506-.642-.535-.396-1.249-1.01-.725-1.532.568-.565 1.042-.527 1.677-.976.636-.449.871-.969 1.848-.969.976 0 1.195.52 1.831.969m29.2227 4.9662c0 1.947-1.072 2.865-3.366 3.822-1.666.694-2.915 1.179-2.915 2.376 0 .399.104 1.632 2.421 1.632 1.926 0 3.305-.816 3.305-.816v2.078s-1.649.594-3.488.594c-4.911 0-5.015-3.084-5.015-3.644 0-2.273 1.805-3.089 3.997-3.894.565-.208 2.389-.688 2.389-2.127 0-.555-.33-1.804-3.071-1.804-1.736 0-3.172.72-3.172.72V33.96s1.193-.588 3.463-.588c4.289 0 5.452 2.199 5.452 3.744m7.5478-.4301c0 1.146-.569 1.963-2.412 2.776-1.336.59-2.582 1.111-2.582 2.013 0 .328.17 1.259 1.828 1.259 1.58 0 2.671-.748 2.671-.748v1.901s-1.01.568-3.031.568c-3.845 0-3.97-2.492-3.97-2.951 0-1.643 1.128-2.407 2.724-3.1.726-.316 2.291-.729 2.291-1.917 0-.455-.399-1.362-2.229-1.362-1.346 0-2.601.631-2.601.631v-1.881s.834-.451 2.8-.451c3.323 0 4.511 1.7 4.511 3.262"/></g><path d="M91.7795 5.939h-2.5888v9.4926L83.6732 5.939h-3.65v13.1087h2.5888v-9.785l5.6875 9.785h3.48zM76.8677 19.0482h2.825l-1.135-2.95-.78-2.0238-3.1337-8.135h-3.6726l-3.1337 8.135-.7788 2.0238-1.1362 2.95h2.8262l1.12-2.9075h5.8788zm-4.0587-10.54l2.1425 5.5662H70.664z"/><g clip-path="url(#b)" transform="matrix(1.25 0 0 -1.25 -303.0132 61.2403)"><path d="M321.8981 39.5855v-1.552h2.589v-2.66s-.411-.272-1.539-.272c-3.766 0-4.025 3.076-4.025 3.701 0 1.226.444 2.264 1.119 2.973.725.759 1.819 1.052 3.286 1.052 1.841 0 3.027-.646 3.027-.646v1.738s-1.533.528-3.245.528c-2.035 0-3.748-.568-4.914-1.612-1.049-.939-1.656-2.598-1.656-3.994 0-1.288.601-5.43 6.315-5.43 2.158 0 3.882.776 3.882.776l.005 5.398z"/></g><path d="M142.1478 5.939h-2.5863v9.4926l-5.52-9.4925h-3.6475v13.1087h2.5863v-9.785l5.6875 9.785h3.48z"/><g clip-path="url(#c)" transform="matrix(1.25 0 0 -1.25 -303.0132 61.2403)"><path d="M362.1935 39.5855v-1.552h2.588v-2.66s-.41-.272-1.538-.272c-3.765 0-4.025 3.076-4.025 3.701 0 1.226.443 2.264 1.12 2.973.723.759 1.817 1.052 3.285 1.052 1.841 0 3.027-.646 3.027-.646v1.738s-1.533.528-3.245.528c-2.034 0-3.747-.568-4.915-1.612-1.049-.939-1.656-2.598-1.656-3.994 0-1.288.602-5.43 6.316-5.43 2.157 0 3.882.776 3.882.776l.006 5.398z"/></g><path d="M113.3011 13.2457l5.4812-10.1838h-2.9375l-4.0737 7.5675-4.4238-7.5675h-2.9975l5.9838 10.2363-3.3675 6.2562h2.9387l1.9588-3.6387z"/><g clip-path="url(#d)" transform="matrix(1.25 0 0 -1.25 -303.0132 61.2403)"><path d="M343.949 43.4223c-1.228.934-2.642 1.059-3.387 1.059-.742 0-2.163-.125-3.392-1.059-1.116-.848-2.232-2.163-2.232-4.454 0-2.103.816-3.312 1.847-4.275 1.219-1.141 3.22-1.312 3.777-1.312.558 0 2.555.171 3.775 1.312 1.03.963 1.846 2.172 1.846 4.275 0 2.291-1.118 3.606-2.234 4.454m-3.387-8.333c-.124 0-3.212-.208-3.212 3.874 0 3.977 3.146 3.851 3.212 3.851.068 0 3.208.126 3.208-3.851 0-4.082-3.084-3.874-3.208-3.874"/></g></svg>