<svg xmlns="http://www.w3.org/2000/svg" xmlns:xlink="http://www.w3.org/1999/xlink" height="800" width="1200" version="1.0" viewBox="-27.3873 -45.39925 237.3566 272.3955"><defs><linearGradient id="c"><stop offset="0" stop-color="#5e94ca"/><stop offset="1" stop-color="#1c458e"/></linearGradient><linearGradient id="b"><stop offset="0" stop-color="#5e94ca"/><stop offset="1" stop-color="#5e94ca" stop-opacity="0"/></linearGradient><linearGradient id="a"><stop offset="0" stop-color="#5e94ca"/><stop offset="1" stop-color="navy" stop-opacity="0"/></linearGradient><linearGradient id="d"><stop offset="0" stop-color="#007bbd"/><stop offset="1" stop-color="#007bbd" stop-opacity="0"/></linearGradient><linearGradient gradientTransform="translate(54.074 161.806) scale(.3577)" gradientUnits="userSpaceOnUse" xlink:href="#a" id="j" y2="140.867" x2="225.802" y1="511.68" x1="242.375"/><linearGradient gradientTransform="translate(54.074 161.806) scale(.3577)" gradientUnits="userSpaceOnUse" xlink:href="#b" id="i" y2="621.669" x2="94.542" y1="380.061" x1="-34.14"/><linearGradient gradientTransform="matrix(-.3577 0 0 .3577 289.857 161.806)" gradientUnits="userSpaceOnUse" xlink:href="#c" id="g" y2="749.039" x2="65.654" y1="457.534" x1="143.127"/><linearGradient gradientTransform="rotate(90 63.653 285.453) scale(.3577)" gradientUnits="userSpaceOnUse" xlink:href="#b" id="f" y2="621.669" x2="94.542" y1="380.061" x1="-34.14"/><linearGradient gradientTransform="matrix(0 -.34218 .36105 0 -7.01 455.78)" gradientUnits="userSpaceOnUse" xlink:href="#b" id="e" y2="621.669" x2="94.542" y1="380.061" x1="-34.14"/><linearGradient gradientTransform="matrix(-.3577 0 0 .3577 289.857 161.806)" gradientUnits="userSpaceOnUse" xlink:href="#b" id="h" y2="621.669" x2="94.542" y1="380.061" x1="-34.14"/><linearGradient y2="72.5" x2="87.901" y1="38.71" x1="87.901" gradientUnits="userSpaceOnUse" id="l" xlink:href="#d"/><linearGradient y2="69.863" x2="87.901" y1="40.534" x1="87.901" gradientUnits="userSpaceOnUse" id="m" xlink:href="#d"/><linearGradient y2="139.71" x2="77.279" y1="121.029" x1="77.279" gradientTransform="translate(10)" gradientUnits="userSpaceOnUse" id="n" xlink:href="#d"/><linearGradient y2="69.863" x2="87.901" y1="11.781" x1="86.345" gradientUnits="userSpaceOnUse" id="k" xlink:href="#d"/></defs><path d="M.06 181.147l11.851-11.232 160.715-1.798 9.956 13.48z" fill="navy" fill-rule="evenodd"/><path d="M80.905 429.72l11.852-11.232 160.715-1.797 9.956 13.479z" fill="url(#e)" fill-rule="evenodd" transform="translate(-80.846 -248.573)"/><path d="M181.161.47L169.42 12.212 10.195 14.09.332 0z" fill="navy" fill-rule="evenodd"/><path d="M262.007 249.043l-11.742 11.742-159.224 1.879-9.863-14.09z" fill="url(#f)" fill-rule="evenodd" transform="translate(-80.846 -248.573)"/><path d="M181.769.332l-11.742 11.742-1.88 159.224 14.092 9.863z" fill="navy" fill-rule="evenodd"/><path d="M262.615 248.905l-11.742 11.742-1.88 159.224 14.092 9.863z" fill="url(#g)" fill-rule="evenodd" transform="translate(-80.846 -248.573)"/><path d="M262.615 248.905l-11.742 11.742-1.88 159.224 14.092 9.863z" fill="url(#h)" fill-rule="evenodd" transform="translate(-80.846 -248.573)"/><path d="M.47.332l11.742 11.742 1.879 159.224L0 181.16z" fill="navy" fill-rule="evenodd"/><path d="M81.316 248.905l11.742 11.742 1.879 159.224-14.091 9.863z" fill="url(#i)" fill-rule="evenodd" transform="translate(-80.846 -248.573)"/><path fill="#1c458e" d="M9.537 9.562h163.76v165.242H9.537z"/><path d="M90.383 367.803c48.306-43.466 106.238-7.043 163.76-24.518v-85.89l-164.501.74z" fill="url(#j)" fill-rule="evenodd" transform="translate(-80.846 -248.573)"/><g transform="translate(-6 -6)" fill="url(#k)"><path d="M51.475 126.613h90.515v14.686H51.475zm44.88-75.746h15.293l7.483 49.73 7.65-49.73h15.126v67.947h-10.08v-51.17l-8.494 51.17h-8.71l-8.197-51.17v51.07H96.355V50.867m-20.96 21.575H85.73v-4.799c0-4.7 0-18.184-17.29-18.184-16.907 0-16.907 15.4-16.907 18.184v35.317c0 10.31 3.771 17.065 13.543 17.131 5.777.009 9.805-3.605 10.658-4.981v3.605l9.996.1V81.997H69.469v8.172h5.926v10.758c0 5.454-1.708 9.167-6.788 9.167-5.09 0-6.706-3.954-6.706-9.167V67.643c0-2.702 0-8.868 6.706-8.868 6.788 0 6.788 6.266 6.788 8.868v4.799" overflow="visible" fill="#fff"/><path d="M96.355 50.867h15.293l7.483 49.73 7.65-49.73h15.126v67.947h-10.08v-51.17l-8.494 51.17h-8.71l-8.197-51.17v51.07H96.355V50.867" overflow="visible" fill="url(#l)"/><path d="M75.395 72.442H85.73v-4.799c0-4.7 0-18.184-17.29-18.184-16.907 0-16.907 15.4-16.907 18.184v35.316c0 10.31 3.771 17.065 13.543 17.131 5.777.009 9.805-3.605 10.658-4.981v3.605l9.996.1V81.997H69.469v8.172h5.926v10.758c0 5.454-1.708 9.167-6.788 9.167-5.09 0-6.706-3.954-6.706-9.167V67.643c0-2.702 0-8.868 6.706-8.868 6.788 0 6.788 6.266 6.788 8.868v4.799" overflow="visible" fill="url(#m)"/><path d="M51.475 126.613h90.515v14.686H51.475z" overflow="visible" fill="url(#n)"/></g></svg>