<svg xmlns="http://www.w3.org/2000/svg" height="800" width="1200" viewBox="-4.276035 -4.88715 37.05897 29.3229"><g fill="#03408a" fill-rule="evenodd"><path shape-rendering="optimizeQuality" d="M15.9498 8.5475l.8262.7033.1147.104c.1082.096.2312.2048.2312.5811v2.1505l-.5216.0962V9.8969h-.6874c-.4992 0-.9112-.4435-.948-.4746l-2.8587-2.6825c-.4626-.4617-.529-.5284-.536-.8706h.363c.3943 0 .715-.1247.9529-.3708.4365-.4514.4185-1.1457.4177-1.1681V4.278h-.4103v.0584c.0002.006.0118.5537-.3038.8782-.1598.1643-.3746.2443-.6566.2443H9.5157v.8043l-.361.0726V5.1171c-.001-.058.0147-.2433.105-.3326.0903-.0894.2659-.1027.3248-.1006l1.985.0002V2.4845h-.37l.0008.0003-.0009-.0003-.6285.8497c-.0003.0004-.0256.0354-.0654.0665-.009.005-.0356.0114-.055.0137H9.715V1.1083h1.5494c2.0989 0 3.4028 1.1565 3.4028 3.018v1.8305l.9962 1.194c.0005.0007.0531.0615.0921.123.1289.2026.1943.4325.1943.683zm-3.4822.4158l.0002 1.0995c.002.062-.0142.1957-.0553.2417-.0474.0531-.1573.0767-.2052.0804H10.644l-.077-.3747h1.3986V8.3766c0-.0762-.0002-.2037.0518-.3017.0354-.0666.1104-.155.3518-.155h.3951l1.1119 1.0433zm4.6169-4.6844c-1.0843 0-1.1347.5915-1.1347 1.7247v.8503l-.8723-1.0457V4.1263c0-1.0536-.3718-1.9315-1.0752-2.5388-.6742-.5819-1.6209-.8895-2.7379-.8895H9.1118c-.7627 0-.851-.334-.851-.5852V0h-.4102v.1128c0 .2993.1229.9954 1.2612.9954h.193v2.7164h1.1554l.0146-.0005c.0397-.003.1769-.0181.2765-.0951a.7753.7753 0 00.1544-.1575l.2536-.3427V4.274H9.599c-.0616-.002-.4027-.004-.6279.219-.2341.2313-.228.597-.2266.6305V6.837l1.1813-.2377v-.73h1.2346c.013.5183.1626.6687.6605 1.1653l.5075.4763c-.398.0127-.586.207-.6734.3716-.1.1884-.0998.395-.0998.4945V9.6h-1.4917l.246 1.1951h1.9135c.0322-.002.32-.0202.4958-.2175.1632-.1828.1612-.4734.1593-.5223v-.6818h1.4355l.3637.3414c.0953.0813.5853.5923 1.2359.5923h.2771v2.3683l1.342-.2477V9.936c0-.5609-.2313-.7658-.3694-.8883l-.1155-.1045-.687-.585V6.0036c0-1.1916.0677-1.3145.7243-1.3145h.581c-.0805.1503-.2694.3267-.7124.3267h-.1478v.4102h.1478c.9244 0 1.1776-.6142 1.1824-.939l.003-.208zm9.5823 11.4246h.6429l.2239 1.9433h-1.0907zm.9402 2.5763l.146 1.2688h.7539l-.5072-3.811c0-.001-.017-.1266-.0222-.1674-.055-.413-.2085-.496-.4457-.496h-1.087c-.2374 0-.3905.0819-.4453.495a22.276 22.276 0 01-.0222.1669l-.5072 3.8125h.7538l.146-1.2688zm-19.2348.6444v-3.2257h1.7512l-.0712-.6242H8.0884c-.2568 0-.466.2203-.466.4913v3.4912c0 .2807.2111.4918.4916.4918h1.9382l.0712-.6244H8.3722m2.9369 0v-3.2257h1.751l-.071-.6242h-1.963c-.2576 0-.4667.2203-.4667.4913v3.4912c0 .2807.2115.4918.4916.4918h1.938l.071-.6244h-1.7509m8.7655.6244v-4.0078c0-.2574-.2201-.4665-.4915-.4665h-1.7597c-.2808 0-.4911.2113-.4911.4914v3.9829h.7399v-3.845h1.2618v3.845h.7406m3.1564-.6244v-3.2257h1.7513l-.0705-.6242H22.948c-.2573 0-.4659.2203-.4659.4913v3.4912c0 .2807.2108.4918.4907.4918h1.939l.0705-.6244H23.231"/><path d="M21.626 19.5486v-4.4743h-.7497v4.4743z"/><path shape-rendering="optimizeQuality" d="M3.8607 19.5486v-4.0078c0-.2574-.22-.4665-.4912-.4665H.4915c-.2802 0-.4915.2113-.4915.4914v3.9829h.7407v-3.845h.8194v3.845h.7406v-3.845H3.12v3.845h.7407m1.5151-.6244V17.592h1.4936v-.6323H5.3758v-1.2612h1.6438l-.0702-.6242H5.0928c-.2572 0-.4663.2203-.4663.4913v3.4912c0 .2807.2115.4918.4912.4918h1.8317l.0702-.6244H5.3758m9.4574-3.2207h.643l.2239 1.9433h-1.0907zm.9403 2.5763l.146 1.2688h.7538l-.5071-3.811c0-.001-.017-.1266-.0222-.1674-.055-.413-.2084-.496-.4456-.496h-1.087c-.2375 0-.3905.0819-.4453.495a22.276 22.276 0 01-.0222.1669l-.5072 3.8125h.7538l.146-1.2688z"/></g></svg>