<svg xmlns="http://www.w3.org/2000/svg" height="800" width="1200" viewBox="-64.875 -132.875 562.25 797.25"><g transform="translate(-66.9 -17.7)"><path d="M102.4 443.8v59.7c0 17.8 10.2 26.9 28.3 26.9 18.5 0 28.7-8.6 28.7-26.9v-59.7h35.2V502c0 32-24.3 47.2-65.1 47.2-39.4 0-62.6-14.5-62.6-47.5v-57.8h35.5zm368.5.7h-81.6c-15.7 0-28.5 12.8-28.5 28.5v47.1c0 15.7 12.8 28.5 28.5 28.5h81.6c15.7 0 28.5-12.8 28.5-28.5V473c0-15.8-12.8-28.5-28.5-28.5zm-2.7 65c0 8.7-7 15.7-15.7 15.7h-44.9c-8.7 0-15.7-7-15.7-15.7v-25.9c0-8.7 7-15.7 15.7-15.7h44.9c8.7 0 15.7 7 15.7 15.7z" fill="#004186"/><circle r="23.5" cy="407.4" cx="475.9" fill="#004186"/><path d="M465.2 401.3h-5.3v-3.8h15.3v3.8h-5.4v16.1h-4.5v-16.1zm16.8 0h-5.3v-3.8H492v3.8h-5.4v16.1H482z" fill="#FBFFFB"/><linearGradient y2="407.416" x2="283.292" y1="197.305" x1="283.292" gradientUnits="userSpaceOnUse" id="a"><stop offset="0" stop-color="#fff"/><stop offset=".609"/></linearGradient><path d="M371.1 262.8l-.4.7 51.1-39.1 13.4-25.9-1.8-1.1-12.9 15-17.8 5.8-24.4-.6-27.2-2.6-12.6 8.6-2.9 9.6-.3 95.4c0 28.2-22.9 51.2-51.1 51.2h-2.1c-28.2 0-51.1-22.9-51.1-51.2l-.3-95.4L227 221l-15.4-6.5-25.6 3.2-35.9-2.9-16.6-17.3-2 1.1 14.7 28.3 49.5 35.6V327c0 28.9 16.3 54.1 40.3 66.7 13.5 8.7 29.6 13.7 46.8 13.7h1.8c18.6 0 35.8-5.9 50-15.8 21.5-12.9 35.9-36.3 36.4-63 .2-2.6.4-5.3.4-7.9v-57.9z" fill="url(#a)"/><path d="M312 17.7c-16 0 90.1 91 90.1 139.6 0 21-16.4 25.9-30.5 28.7l-55.8-.1c-5 0-9 4-9 9v143.8c0 12.8-10.4 23.2-23.2 23.2h-.5c-12.8 0-23.2-10.4-23.2-23.2V194.9c0-5-4-9-9-9l-56.5.1c-14-2.7-30.5-7.7-30.5-28.7 0-48.6 106.2-139.6 90.1-139.6-16.1 0-124.1 118-124.1 166.6 0 48.6 64.5 32.5 64.5 32.5l11.6-1.2c11.3-1.2 21.7 6.2 24.3 17.2V329c0 28.4 23 51.3 51.3 51.3h2.4c28.4 0 51.3-23 51.3-51.3v-96.2c2.6-11 13-18.4 24.3-17.2l11.6 1.2s64.5 16.1 64.5-32.5S328 17.7 312 17.7z" fill="#848482"/><linearGradient y2="263.466" x2="173.858" y1="17.731" x1="173.858" gradientUnits="userSpaceOnUse" id="b"><stop offset="0" stop-color="#fff"/><stop offset=".695"/></linearGradient><path d="M92.1 184.4c0 48.6 86.5 79.1 102.5 79.1s-64.5-30.5-64.5-79.1c0-48.6 140.2-166.7 124.2-166.7-16 0-162.2 118.1-162.2 166.7z" fill="url(#b)"/><linearGradient y2="263.466" x2="392.434" y1="17.731" x1="392.434" gradientUnits="userSpaceOnUse" id="c"><stop offset="0" stop-color="#fff"/><stop offset=".695"/></linearGradient><path d="M474.1 184.4c0 48.6-86.5 79.1-102.5 79.1s64.5-30.5 64.5-79.1C436.1 135.8 296 17.7 312 17.7s162.1 118.1 162.1 166.7z" fill="url(#c)"/><path d="M339.6 529.1c0-2.5-.3-5-.8-7.4-.5-2.4-1.5-4.7-2.9-6.7-1.4-2.1-3.3-3.9-5.7-5.4-2.4-1.5-5.6-2.7-9.4-3.4 6.9-3 12-7 15.5-12s5.2-10.4 5.2-16.1c0-3.9-1-7.8-2.9-11.7-2-3.9-4.8-7.4-8.6-10.5-3.8-3.1-8.4-5.6-13.9-7.6s-11.9-2.9-19.1-2.9l-74.5-.1c-3.2-.2-6.1-.2-8.5 0v102.3h29.9V515h39.7c4.4 0 8.1.5 11.2 1.4 3 1 5.5 2.2 7.5 3.8 2 1.6 3.3 3.3 4.2 5.3.8 1.9 1.3 3.9 1.3 6v16.2h31.7c.3.2.5.3.5 0v-3.5zm-48-33.7c-2.9.8-6 1.3-9.3 1.3h-37.7v-32.1h37.7c3.5 0 6.8.4 9.7 1.2 3 .8 5.5 1.9 7.7 3.3s3.8 3.1 5.1 5c1.2 1.9 1.8 4 1.8 6.3s-.7 4.4-2 6.4-3.1 3.7-5.3 5.2c-2.2 1.4-4.7 2.6-7.7 3.4z" fill="#004186"/></g></svg>