<svg xmlns="http://www.w3.org/2000/svg" height="800" width="1200" viewBox="-6.27144 -6.0659 54.35248 36.3954"><path d="M20.987 1.6565c1.8089 0 3.6055-.2191 5.3411-.6578l.2194-.0547.1644.1522c1.2422 1.1512 2.0949 2.637 2.4726 4.2997l.0486.2194-.1582.1644c-2.5091 2.5883-4.3485 5.7858-5.3167 9.2328l-.061.2192-.2193.067c-.7917.2435-1.6322.3715-2.491.3715a8.3428 8.3428 0 01-2.4969-.3837l-.2132-.067-.0608-.213c-.9745-3.441-2.8137-6.6324-5.329-9.2268l-.1583-.1644.0487-.2194c.3775-1.6564 1.2424-3.1485 2.497-4.3118l.1644-.1523.2192.0548c1.7784.4446 3.569.6699 5.329.6699" fill="#112c5c" fill-rule="evenodd"/><path d="M13.7275 7.2596c0-1.9429.7552-3.7637 2.1254-5.1342C17.2233.7554 19.0442 0 20.981 0c1.943 0 3.7638.7553 5.134 2.1254 1.3704 1.3705 2.1257 3.1913 2.1257 5.1342 0 3.9952-3.2585 7.2535-7.2597 7.2535-1.9367 0-3.7576-.7552-5.128-2.1256-1.3702-1.3701-2.1254-3.1912-2.1254-5.1279" fill="#112c5c" fill-rule="evenodd"/><path d="M15.6205 1.6417a7.8259 7.8259 0 00-1.3678 1.7393 7.668 7.668 0 00-.8157 2.037c1.2517 1.3082 2.347 2.7625 3.255 4.3362a22.1905 22.1905 0 012.1061 4.953 8.012 8.012 0 001.0332.23c.3765.0579.7624.089 1.1557.089.4009 0 .7916-.0292 1.1718-.0858a7.6424 7.6424 0 001.011-.221 22.3587 22.3587 0 012.1087-4.969A22.5412 22.5412 0 0128.525 5.418a7.749 7.749 0 00-2.1594-3.7643 22.6126 22.6126 0 01-2.61.4815 22.467 22.467 0 01-2.7685.1713 21.774 21.774 0 01-2.7975-.1822 23.2108 23.2108 0 01-2.569-.4827zm-1.7648 1.5095a8.2943 8.2943 0 011.5426-1.9306l.0917-.0851.1202.0304c.8656.218 1.7444.3885 2.6368.5041a21.3193 21.3193 0 002.74.1768c.918 0 1.8236-.0574 2.7129-.1677a22.1804 22.1804 0 002.676-.501l.1207-.0305.0913.0852a8.2033 8.2033 0 011.5242 1.9195 8.2063 8.2063 0 01.8878 2.2848l.0274.1206-.0857.0885a22.0812 22.0812 0 00-3.2643 4.3342 21.8841 21.8841 0 00-2.1002 4.9844l-.0338.1202-.1199.037a8.102 8.102 0 01-1.198.2728 8.385 8.385 0 01-1.2384.0912 8.046 8.046 0 01-1.2239-.0944 8.499 8.499 0 01-1.2186-.2819l-.1197-.037-.0339-.12a21.7333 21.7333 0 00-2.0976-4.9687A22.2066 22.2066 0 0013.02 5.6462l-.0854-.0883.0271-.1208a8.116 8.116 0 01.8939-2.286" fill="#deddde"/><path d="M13.9116 7.2596c0-1.9536.7914-3.7219 2.0705-5.002C17.262.9766 19.0298.1841 20.9809.1841c1.9544 0 3.7234.7917 5.0035 2.0719 1.28 1.2803 2.0718 3.049 2.0718 5.0036 0 1.9512-.7922 3.7188-2.0733 4.9989-1.2803 1.279-3.0483 2.0704-5.002 2.0704-1.9514 0-3.7187-.7918-4.9982-2.0711-1.2794-1.2794-2.071-3.0468-2.071-4.9982zm2.3955-4.6787c-1.1958 1.1969-1.9356 2.8507-1.9356 4.6787 0 1.8247.7401 3.4768 1.9364 4.6732 1.1961 1.196 2.8485 1.9362 4.673 1.9362 1.8278 0 3.4819-.7399 4.6787-1.9357 1.1967-1.1957 1.9367-2.8483 1.9367-4.6737 0-1.8275-.74-3.4816-1.9369-4.6784C24.4624 1.384 22.8084.644 20.981.644c-1.8254 0-3.478.74-4.6738 1.937" fill="#deddde"/><path d="M18.578 6.9094c.2281-.0442.4556-.0292.6575.0445.1973.0718.3697.1994.4942.3811l.1114.2612-.2604-.0956c-.3872-.2091-.777-.0933-1.16.0207-.4872.1446-.9646.2864-1.4629-.1347-.1014-.0716-.1847-.18-.2509-.2907-.0642-.1073-.1122-.2157-.1438-.2916l-.1606-.3854.3348.2493c.002.0014.6938.5334 1.834.2424l.0068-.0012" fill="#deddde"/><path d="M20.8286 5.006c-.4871 0-.9378.0916-1.1145.3412 0 0-.1948.1827-.2313.3411 0 0-1.2485-.8467-1.6383.9927 0 0 .7551-.5421 1.1875-.1888 0 0 .2193.3106.6213.4141.548.1463.4872.2558.5115.3716 0 0-.0731.1703-.548.469-.469.3044-.737.1583-1.1694.0182 0 0-.0304.6395.8282.6274 0 0 .1401.012.3107-.0062 0 0-1.0293.4325-.6396 1.492 0 0 .3533-.4263.7431-.5238 0 0-1.1145 1.2668.3593 2.5034 0 0 0-1.1329.4203-1.4802 0 0 .2314.9014.1583 1.3948 0 0-.0183.4322-.1523.6577 0 0 1.7479-.0365 1.2485-2.1377 0 0 .7004.2377.5543 1.1938 0 0 1.5713-.7858.536-2.3997 0 0 .5907 0 .7734.7066 0 0 .8405-1.2973-.5481-2.5336 0 0 .5238-.128.81.3045 0 0-.0366-.9868-.9685-1.4678-.2131-.1156.1218-.4568.0367-.6457l-2.089-.4446" fill="#ce0f3e" fill-rule="evenodd"/><path d="M21.9128 5.7613s.5662-.7186 1.4129-.6211c0 0-.2375 1.0596-1.1693 1.2544l-.2436-.6333" fill="#ce0f3e" fill-rule="evenodd"/><path d="M22.1869 5.8648s.3228-.3166.7125-.3835c0 0-.1949.4568-.6395.5481l-.073-.1646M20.518 6.888c-.1035-.073-.2375-.1035-.3471-.0485.335.0119.3898.4872.7552.3896a.6261.6261 0 00.1827-.0854c-.2375.0976-.4324-.1215-.5907-.2557m1.9057 1.3593c-.0421-.1962-.109-.3447-.203-.4612-.1208-.15-.2868-.247-.503-.3255.048.2098.1058.4192.1072.636.0014.2021-.0426.3763-.1315.5211a.7979.7979 0 01-.226.2339c.0755-.2003.0805-.3711.0563-.507-.0452-.2536-.19-.3863-.354-.5612-.0071.1559-.0046.316-.0439.4682-.05.1937-.1464.311-.245.3823.071-.2186.02-.4241-.034-.5279l-.207.1097c.0032.01.0958.1967-.0086.4101-.0695.1423-.2102.2531-.3203.3633.419-.025.799-.0692.994-.5374.0192.3138-.1725.5638-.3424.8055.3744-.075.689-.1508.9195-.5117.1442-.2227.196-.4936.1642-.8155.2162.2902.189.668.189 1.0106.2846-.3447.4961-.6695.4928-1.1534-.0024-.3213-.1183-.6953-.4865-1.0636l-.079.2436c.4149.5272.3661.9925.2612 1.2801" fill="#deddde" fill-rule="evenodd"/><path d="M19.108 7.153c-.1489-.0442-.3143-.0509-.4818-.0192-.7583.1931-1.343.0475-1.6851-.0964.0449.0659.096.1256.1524.1644l.0055.0038.0034.003c.4054.3446.8251.2199 1.2536.0926.2464-.0732.4953-.1472.752-.1482" fill="#ce0f3e"/><path d="M21.2245 4.3727c.1462.2436.3837.5665.6821.5665.3045 0 .4872-.134.6335-.3776-.0854.0122-.1096.0122-.195-.0123-.1887-.0669-.28-.2558-.2436-.4994.061-.2131.274-.335.4812-.274.073.0245.134.0609.1765.1096-.0485-.0913-.0668-.2072-.0366-.3104.0611-.2132.3107-.384.53-.3473L22.4 5.3288h-2.8137l-.8588-2.0035c.2132-.0366.463.134.5238.347.0304.1036.0122.1828-.0366.2682.0427-.0488.1097-.1401.1767-.1646.207-.061.4446.1218.5054.329.0366.2436-.0425.3958-.2314.4627-.0853.0183-.1583.0062-.2435-.006.146.2436.3654.3776.6698.3776.2985 0 .5177-.3229.6639-.5665a.3874.3874 0 01-.2315.0733c-.2192 0-.3897-.1767-.3897-.396 0-.2192.1705-.4019.3897-.4019.067 0 .1401.0183.195.0547-.073-.073-.1219-.1765-.1219-.2862 0-.2193.1767-.3958.3898-.3958a.395.395 0 01.396.3958c0 .1097-.0549.2194-.128.2924.061-.0366.128-.0609.201-.0609.2193 0 .3897.1827.3897.4018 0 .2194-.1704.3961-.3897.3961-.0853 0-.2315-.0733-.2315-.0733" fill="#e2ad25" fill-rule="evenodd"/><path d="M20.2952 5.8525a.8026.8026 0 00-.1246 0c-.0057.1158-.095.2012-.2128.2012-.1045 0-.191-.0673-.2135-.1632a.658.658 0 01-.1161-.023c.027.1255.0972.2745.277.3083.0007.0002.2538.0537.3618-.256l.0003-.0015a.6519.6519 0 01.028-.0658zm-.4052-.523a.4016.4016 0 00-.082.0843l-.0063.0088-.0081.0078c-.0003.0003-.1063.1002-.165.2025.059.0316.1809.0675.3935.0142l.0087-.0016c.2801-.0474.4553.0154.539.0606.119.0364.2193.1504.2198.1509l-.1655.1498c-.0003-.0004-.1082-.122-.1477-.0128-.1725.4927-.6109.4006-.6122.4004-.3911-.0735-.4622-.4482-.4736-.6285-.1652-.0973-.9975-.5175-1.366.6756.283-.144.7508-.307 1.0797-.0383l.013.0107.0077.0105c.0005.0009.196.2778.5565.3706l.001.0005c.5563.1482.5731.2869.59.4265a.5327.5327 0 00.0046.0326l.0074.0352-.0141.0328c-.0003.0008-.0873.2037-.5927.5213v-.0003c-.4445.2884-.7204.2141-1.0837.0916.058.1506.2214.3485.6803.3424h.0081c.0004 0 .1354.0114.2917-.0053l.7548-.0809-.6973.3005c-.0025.001-.8092.3402-.6309 1.163.1476-.1424.3944-.3449.6613-.4117l.3488-.0871-.234.2731c-.0026.0033-.9439 1.0729.1684 2.1789.0273-.3692.1218-1.0468.451-1.3187l.1389-.1149.0451.1744c.0007.0029.2347.9142.1624 1.4312-.0017.032-.0162.2871-.0852.512.4084-.0788 1.3218-.4288.9547-1.9732l-.0489-.2058.1993.0712c.0021.0007.669.2274.6504 1.0817.3594-.261 1.0481-.9585.3045-2.1173l-.1152-.18.2132.0028c.0016.0002.5198.0005.7865.5314.1584-.4068.3318-1.2934-.6388-2.1577l-.1646-.1463.2146-.0511c.0012-.0002.3494-.0854.6616.0951-.0885-.3092-.3072-.7662-.846-1.0445l-.0024-.0015c-.0024-.0014-.0047-.0026-.0069-.004a1.4316 1.4316 0 01-.6397.3142l-.0468-.2245c.5188-.1085.9549-.729 1.042-1.0365-.7064-.0043-1.1715.5854-1.1729.587l-.1786-.1436c.0019-.0021.6054-.7682 1.5153-.6635l.1285.0148-.0297.1253c-.0005.0022-.1054.4696-.4475.8586.9368.5222.9742 1.531.9744 1.534l.0212.4189-.2317-.3502c-.1237-.1868-.3005-.2493-.444-.2662 1.1843 1.2427.3771 2.4893.3747 2.4929l-.1415.2246-.0666-.2567c-.087-.3371-.2748-.491-.4285-.5612.8134 1.5622-.7132 2.3254-.7177 2.3278l-.1996.1025.0338-.222c.08-.5219-.112-.803-.2764-.944.3311 1.983-1.404 2.02-1.409 2.02l-.2096.0071.1071-.1804c.1192-.2002.136-.6024.1361-.6034l.0002-.0045.0012-.008c.0478-.3227-.0425-.8349-.1044-1.1265-.2452.4194-.2456 1.226-.2456 1.2287l-.0018.2443-.1868-.1568c-1.0715-.8987-.851-1.8153-.6052-2.3047a2.0532 2.0532 0 00-.336.3117l-.1272.1508-.068-.1856c-.2624-.7132.0601-1.1668.3493-1.4114-.8897-.0316-.856-.7439-.856-.7458l.006-.1513.144.0466c.0563.0183.0962.032.135.045.328.1113.5647.1915.9369-.0502l.0013-.001c.3403-.2136.4547-.344.4896-.3937l-.0008-.0071c-.0075-.0619-.015-.1235-.4194-.2315v.0003c-.3942-.1014-.6289-.3833-.6767-.4454-.3667-.2783-1.036.2013-1.0379.2025l-.2387.168.0605-.2856c.2226-1.0505.7086-1.2934 1.1214-1.286.2017.0036.3966.0666.5767.1534a1.3322 1.3322 0 01.1403-.195h.3194" fill="#deddde"/><path d="M39.2151 17.741h-3.6845L33.6 22.5095l.0061-4.7748h-2.4786v6.407h4.3361l.39-.9745h3.0938l.4443.9745h2.418zm-10.9929 3.441l-2.6187-3.4472h-3.1426v4.7565l-1.9732-4.7504h-3.636l-1.5225 3.8064h-2.2717c-.1888.7978-.6212 1.1511-1.4069 1.1511-.9013 0-1.5103-.67-1.5103-1.6688 0-1.2972.5116-1.9672 1.4921-1.9672.804 0 1.2607.3594 1.4007 1.1086h2.5762l.006-.0976c0-1.5469-1.565-2.5639-3.9464-2.5639-2.5457 0-3.7516.9927-3.9587 3.2704-.3653-.3959-.9622-.7065-1.4129-.743l-.9622-.0852-1.419-.0244c-.609-.0122-.9563-.2253-.9563-.5847 0-.408.3532-.6334.999-.6334.7429 0 1.0414.274 1.0414.9501h2.71v-.0852c0-1.3216-1.2789-2.0525-3.5993-2.0525-2.5761 0-3.8369.7065-3.8369 2.1377 0 1.2242.9258 1.8819 2.6981 1.9306l1.0536.0244c.7735.0244 1.1206.2132 1.1206.6213 0 .3471-.4872.6759-.9927.6759-.8831 0-1.346-.3044-1.346-.877H0v.061c0 1.3885 1.4008 2.1498 3.9465 2.1498 2.4544 0 3.6603-.536 4.05-1.8088.7857 1.3399 1.8089 1.8271 3.8004 1.8271 1.2667 0 1.9245-.1767 2.7466-.7735l-.262.6517h2.3936l.4386-.999h3.1425l.4202.9868h4.1047v-3.7942l2.9173 3.8064h2.9052v-6.4009h-2.3814v3.441zm8.295.3775l.8464-2.1194.9623 2.1072zm-18.7458 0l.8526-2.1864.9744 2.1864h-1.827" fill="#112c5c" fill-rule="evenodd"/></svg>