<svg xmlns="http://www.w3.org/2000/svg" height="800" width="1200" version="1.0" viewBox="-38.4 -46.66275 332.8 279.9765"><g fill="#ec2424"><path d="M123.312.027C104.781.44 88.146 2.362 72.187 5.931 48.562 11.224 28.823 19.873 15.93 30.578c-2.03 1.685-4.153 3.7-5.015 4.775C6.59 40.726 3.565 47.97 2.61 55.265c-.12.836-.385 2.72-.61 4.179A204.58 204.58 0 00.209 76.277c-.279 4.285-.279 21.636 0 26.12a191.983 191.983 0 003.913 28.547c.73 3.423 2.11 9.22 2.507 10.573 1.446 4.948 4.285 9.962 7.655 13.49 1.631 1.712 5.876 4.87 10.134 7.536 19.355 12.098 48.724 20.561 80.522 23.175 12.708 1.06 26.955 1.22 39.266.464 18.107-1.101 35.458-3.953 50.939-8.357 2.772-.796 3.011-.863 7.76-2.468 15.68-5.293 28.136-11.833 37.343-19.62 1.605-1.353 1.552-1.193.756-2.109l-.677-.796.756.717.77.703.345-.305c.65-.61 3.01-3.648 4.085-5.293 3.277-4.961 5.598-10.533 6.554-15.72 2.706-14.632 3.727-31.439 2.865-46.827-.77-13.53-2.48-24.647-6.05-39.2a35.575 35.575 0 00-7.826-14.99c-1.857-2.095-7.866-6.393-13.504-9.657C207.654 10.348 177.303 2.468 144.405.478c-5.705-.344-16.038-.557-21.093-.45zm15.388 5.36c35.698 1.406 68.464 9.79 89.741 22.989 3.874 2.4 8.04 5.478 9.432 6.964 2.52 2.706 4.683 6.42 6.01 10.374.875 2.626 2.719 10.586 3.793 16.436 3.675 20.017 4.126 41.388 1.314 62.029-.81 5.903-1.619 10.068-2.468 12.536-1.512 4.404-4.855 10.108-7.933 13.49-1.22 1.354-4.51 3.954-7.826 6.222-19.938 13.544-51.298 22.432-86.823 24.595-10.347.623-22.697.596-33.362-.08-32.355-2.043-61.42-9.777-81.65-21.716-4.669-2.759-9.816-6.513-11.42-8.344-2.256-2.56-4.445-6.447-5.599-9.922-.849-2.547-2.746-10.772-3.754-16.237-3.927-21.37-4.218-43.577-.862-65.677.212-1.393.424-2.853.477-3.25.319-2.707 1.353-6.487 2.574-9.419.703-1.671 2.109-4.232 3.25-5.903 1.22-1.804 2.68-3.383 4.789-5.2C38.215 18.188 75.57 6.952 117.74 5.387a276.045 276.045 0 0120.96 0z"/><path d="M119.797 19.647v8.158h4.112l.014-6.142c0-3.82.053-6.022.132-5.863.067.146.717 2.68 1.446 5.638.743 2.958 1.393 5.598 1.473 5.877l.132.504 1.884-.04 1.87-.04 1.54-5.903c.848-3.25 1.565-5.996 1.618-6.102.04-.106.04 2.56 0 5.93l-.067 6.141h4.113l.093-.703c.04-.371.08-4.046.08-8.158v-7.455h-3.304c-2.72 0-3.316.026-3.37.186-.04.106-.623 2.321-1.313 4.934-1.194 4.617-1.233 4.736-1.38 4.232-.079-.292-.65-2.52-1.26-4.935l-1.114-4.417h-6.699zm-13.464-7.561c-3.25.597-5.333 2.44-6.129 5.399-.292 1.114-.292 3.78 0 5.147.345 1.539 1.154 3.064 2.202 4.099 1.672 1.671 2.879 2.056 6.05 1.976 1.737-.053 2.28-.119 2.984-.358 1.167-.398 1.857-.822 2.653-1.618 1.088-1.088 2.308-3.993 1.738-4.152-.385-.12-3.648-.85-3.98-.902-.292-.04-.345.026-.477.623-.385 1.685-1.22 2.507-2.72 2.68-1.446.172-2.64-.57-3.157-1.977-.504-1.366-.61-4.364-.186-5.425.226-.584.982-1.34 1.592-1.605.77-.345 1.963-.345 2.653.013.557.292 1.168.928 1.367 1.446.066.172.199.292.305.265.093-.026 1.074-.305 2.175-.637 2.295-.676 2.202-.557 1.393-1.897-.557-.928-1.552-1.95-2.335-2.414-1.366-.783-3.94-1.074-6.128-.663zm42.542.066c-3.09.425-5.24 2.335-6.129 5.439-.398 1.393-.504 3.966-.212 5.306.451 2.136 1.857 4.139 3.516 5.028 2.202 1.167 6.181 1.42 8.224.53.915-.398 1.91-1.233 2.52-2.109.65-.928 1.274-2.255 1.115-2.4-.133-.12-3.9-1.58-4.1-1.58-.079 0-.251.266-.37.584-.624 1.632-1.58 2.282-3.224 2.176-1.234-.08-1.937-.518-2.414-1.473-.61-1.233-.518-4.338.172-5.863.53-1.14 1.26-1.711 2.44-1.87 1.42-.186 2.734.57 3.171 1.817.226.637.266.663.637.597.226-.04 1.18-.173 2.123-.292.955-.12 1.777-.265 1.843-.318.186-.173-.41-1.725-.994-2.627a6.291 6.291 0 00-2.402-2.136c-1.406-.676-4.152-1.048-5.916-.809zM120.46 33.324c-.915.026-3.422.146-5.571.252-32.447 1.738-59.947 9.26-75.149 20.561-4.033 2.985-7.256 8.424-8.171 13.704-.133.835-.398 2.334-.57 3.33-1.155 6.406-1.672 12.455-1.672 19.433 0 8.636.769 15.972 2.533 24.037.504 2.335 1.964 7.853 2.52 9.604.385 1.194 1.54 3.595 2.27 4.723.822 1.273 2.467 3.21 3.461 4.072 1.367 1.181 5.36 3.582 8.941 5.373 33.655 16.874 95.95 19.951 139.5 6.911 10.082-3.024 18.545-6.779 25.165-11.196 1.671-1.114 2.334-1.645 3.515-2.879 2.892-2.958 4.961-6.234 6.155-9.71 1.075-3.104 2.176-9.83 2.826-17.126.239-2.692.239-14.247 0-16.98-.624-7.229-1.552-12.84-3.144-18.969-1.539-5.916-2.056-7.495-3.078-9.352-1.565-2.826-3.661-5.2-5.93-6.686-12.27-8.065-30.709-13.968-53.207-17.046-5.943-.81-12.27-1.393-19.434-1.804-3.45-.2-16.834-.358-20.96-.252zm-3.674 25.615c.252.796 2.799 8.915 5.664 18.041 2.866 9.14 5.253 16.622 5.293 16.622.04 0 1.42-4.789 3.038-10.652 1.632-5.85 3.9-13.969 5.04-18.041l2.057-7.389h23.174v1.685l-1.485.08c-1.685.092-2.587.318-3.396.862-1.167.782-1.804 2.082-2.016 4.138-.186 1.884-.186 51.497.013 53.593.212 2.4.915 3.568 2.613 4.404.81.398 1.008.438 2.547.504l1.658.066.04.89.04.901h-23.493v-1.83l1.698-.053c1.472-.04 1.777-.093 2.414-.385.411-.186.955-.53 1.207-.756.557-.491 1.287-1.977 1.473-3.051.146-.756.318-50.7.186-50.568-.027.04-3.503 12.695-7.708 28.123-4.205 15.427-7.667 28.162-7.707 28.282-.053.172-.212.238-.504.238h-.438l-11.05-29.953c-6.076-16.463-11.13-30.126-11.223-30.338-.145-.332-.172 4.284-.145 26.199l.026 26.597.318.929c.478 1.42.863 2.096 1.751 3.038 1.022 1.087 1.924 1.565 3.224 1.658l.942.08.04.888.04.902h-17.14l.04-.902.04-.889.663-.026c1.18-.04 1.765-.186 2.68-.637 1.685-.836 2.613-2.096 3.25-4.377l.305-1.062.04-24.408c.04-24.448-.013-28.508-.411-29.808-.252-.796-.995-1.817-1.659-2.281-.915-.637-1.79-.876-3.422-.969l-1.512-.08V57.52h21.344zm-48.91 4.033c2.76.49 5.744 2.07 8.172 4.351.477.451.902.81.941.81.04 0 .743-.81 1.566-1.791l1.486-1.791h1.419v16.582h-1.857l-.226-.57c-.45-1.128-1.897-3.9-2.666-5.068-6.62-10.175-15.056-7.946-17.855 4.709-.57 2.6-.783 4.696-.783 7.96-.013 3.302.16 5.465.65 8.356 1.326 7.88 4.218 14.42 8.079 18.24 2.122 2.11 3.7 2.959 5.717 3.091 3.104.186 5.558-1.631 7.429-5.478.849-1.738 1.366-3.303 1.963-5.983.544-2.375 1.021-3.515 1.87-4.417.73-.783 1.327-1.009 2.057-.796 1.419.424 1.605 1.34.994 4.682-.716 3.834-1.578 6.58-2.984 9.432-2.667 5.452-6.262 8.755-10.745 9.896-.478.12-1.42.186-2.72.173-1.75-.014-2.135-.053-3.183-.359-13.531-4.006-22.074-27.95-16.702-46.827 2.375-8.317 7.124-13.849 13.054-15.162.928-.2 3.29-.226 4.324-.04zm120.795.04c2.72.517 5.545 2.056 7.96 4.311.477.451.902.81.942.81.04 0 .742-.81 1.565-1.791l1.486-1.791h1.419v16.595l-.942-.04-.942-.04-.636-1.446c-3.025-6.778-7.442-10.811-11.475-10.52-3.78.28-6.805 3.954-8.37 10.122-2.017 8-1.128 18.519 2.268 26.863 3.887 9.551 10.042 13.968 14.99 10.758 2.534-1.631 4.324-5.014 5.571-10.493.531-2.335 1.101-3.674 1.937-4.497.929-.942 2.043-.995 2.865-.132.359.371.372.45.372 1.671-.013 2.945-1.605 8.689-3.383 12.23-2.149 4.272-5.346 7.562-8.675 8.928-2.07.836-4.55 1.088-6.713.677-3.157-.597-5.784-2.11-8.689-5.028-2.573-2.56-4.165-4.842-5.956-8.49-5.558-11.342-6.367-26-2.043-36.851 1.26-3.144 2.892-5.77 4.882-7.8 2.149-2.176 4.338-3.45 6.964-4.033 1.062-.239 3.396-.239 4.603-.013zM237.9 88.628c-2.959.65-4.975 3.621-4.431 6.54.862 4.669 6.407 6.393 9.724 3.024 1.538-1.565 2.016-3.874 1.246-6.023-.915-2.533-3.873-4.138-6.54-3.541zM15.69 88.8c-4.06 1.446-5.187 6.633-2.083 9.564 2.282 2.15 5.585 2.136 7.88-.053 1.273-1.207 1.817-2.626 1.711-4.483-.04-.876-.146-1.287-.478-1.99-.543-1.18-1.591-2.229-2.772-2.786-.796-.371-1.061-.424-2.229-.451-1.034-.04-1.485.013-2.03.199zm207.764 47.69a11.34 11.34 0 00-1.327.623c-.557.345-5.479 3.688-5.678 3.86-.146.133 7.482 11.289 7.681 11.21.08-.027 1.366-.89 2.865-1.91 3.781-2.588 4.683-3.583 5.041-5.506.385-2.056-.676-4.55-2.812-6.7-1.207-1.206-2.428-1.79-3.874-1.843-.888-.04-1.233.013-1.896.265zm2.069 3.86c.57.371 1.778 1.91 2.255 2.852.425.849.478 1.83.146 2.36-.265.425-1.977 1.792-2.162 1.725-.053-.013-1.022-1.366-2.15-3.01l-2.055-2.986.358-.305c.199-.172.716-.49 1.154-.703.955-.477 1.658-.464 2.454.067zm-196.926 4.948c-1.817 3.05-3.37 5.664-3.476 5.823-.172.265-.119.319.85.876.57.331 1.246.73 1.498.888l.478.279 2.574-4.364c1.419-2.401 2.6-4.351 2.613-4.338.013.013-.624 2.242-1.42 4.961-.809 2.706-1.459 4.975-1.459 5.028 0 .053.61.464 1.34.889l1.34.782 3.714-3.7 3.715-3.702-.664 1.128c-.371.623-1.525 2.586-2.6 4.377l-1.923 3.237 1.42.836c.769.464 1.458.822 1.525.796.119-.04 6.831-11.25 6.898-11.501.013-.067-1.022-.757-2.295-1.513l-2.322-1.38-3.037 2.999c-1.672 1.658-2.998 2.892-2.972 2.746a574.6 574.6 0 011.167-4.086c.61-2.096 1.075-3.834 1.048-3.86-.146-.146-4.523-2.733-4.616-2.733-.066 0-1.592 2.494-3.396 5.532zm181.379-1.194c-3.13 1.499-5.678 2.799-5.678 2.892 0 .08.305.769.663 1.512.77 1.592.505 1.552 2.813.398.862-.438 1.605-.783 1.671-.783.067 0 1.088 2.03 2.282 4.51 1.194 2.494 2.215 4.55 2.268 4.59.093.053 3.49-1.565 3.688-1.75.053-.054-.385-.996-3.024-6.461l-1.327-2.76 1.884-.928c1.034-.504 1.883-.968 1.883-1.035 0-.159-1.313-2.918-1.393-2.918-.04 0-2.613 1.234-5.73 2.733zm-13.04 5.399c-1.247.477-1.844.77-1.818.889.067.305 4.577 12.376 4.657 12.482.066.08 9.909-3.515 10.068-3.674.027-.027-1.035-2.985-1.114-3.104-.027-.027-1.393.477-3.051 1.1-1.658.637-3.065 1.102-3.118 1.049-.04-.067-.756-1.897-1.578-4.086-.823-2.189-1.605-4.298-1.751-4.683-.146-.371-.292-.69-.345-.69-.053.014-.929.332-1.95.717zm-148.507-.319c-1.075.226-2.44 1.009-3.17 1.805-1.234 1.353-2.269 3.992-2.269 5.81 0 1.685.557 3.05 1.711 4.192 1.87 1.87 5.28 2.918 7.575 2.334 2.282-.583 3.847-2.348 4.789-5.385.424-1.34.424-3.17.026-4.285-.716-1.937-2.48-3.383-5.12-4.192-1.061-.318-2.693-.451-3.542-.279zm3.436 3.662c1.008.504 1.406 1.154 1.406 2.295 0 1.671-1.114 4.099-2.162 4.709-.969.544-2.6.186-3.436-.756-.73-.823-.756-2.202-.093-3.9.955-2.441 2.44-3.264 4.285-2.348zm6.685.981l-.41 1.592.477.12c2.388.623 3.515.941 3.581.994.027.04-.517 2.256-1.207 4.948-.703 2.68-1.247 4.895-1.22 4.935.08.067 3.94 1.088 3.98 1.048.04-.053 2.586-9.75 2.586-9.83 0-.04.876.16 1.964.452 1.074.278 2.016.517 2.096.517.132 0 1.021-3.051.915-3.157-.066-.067-12.019-3.21-12.204-3.21-.08 0-.319.716-.558 1.591zm126.248-.53c-.73.12-7.455 1.844-7.535 1.923-.053.04 2.812 11.475 3.237 12.96.053.186.279.16 2.083-.305a90.51 90.51 0 002.042-.557c.014-.026-.238-1.1-.583-2.387-.332-1.3-.57-2.388-.53-2.428.039-.04.702-.252 1.485-.451 2.587-.703 3.794-1.5 4.311-2.865.518-1.393.212-3.383-.73-4.604-.782-1.021-2.294-1.538-3.78-1.286zm.305 3.581c.385.438.49 1.234.226 1.738-.173.319-.929.703-1.87.955l-.744.186-.371-1.446c-.2-.783-.345-1.46-.319-1.486.027-.026.438-.146.916-.252 1.154-.278 1.698-.199 2.162.305zm-12.111-.835c-.916.185-1.685.358-1.712.384-.026.014.306 1.884.717 4.126.822 4.39.889 5.134.517 5.704-.623.968-2.122 1.393-3.184.889-.849-.411-1.021-.915-1.857-5.492-.424-2.295-.796-4.232-.849-4.285-.093-.106-3.833.53-4.006.69-.172.146 1.46 8.437 1.844 9.392.703 1.751 2.308 2.985 4.126 3.17 1.565.173 4.298-.344 5.743-1.087.85-.425 1.897-1.605 2.242-2.547.544-1.446.504-2.163-.384-6.885a261.88 261.88 0 01-.81-4.351c0-.12-.716-.04-2.387.292zm-98.788.57c-2.123.69-3.648 2.64-4.205 5.333-.995 4.828 1.631 8.078 6.898 8.53 4.298.37 7.243-2.959 7.057-7.96-.053-1.3-.106-1.565-.478-2.361-.756-1.632-2.07-2.706-4.139-3.41-1.286-.437-3.992-.503-5.133-.132zm3.847 3.13c1.539.518 2.122 2.083 1.618 4.299-.557 2.361-1.3 3.183-2.932 3.183-2.467 0-3.396-2.215-2.294-5.518.583-1.79 1.95-2.534 3.608-1.963zm8.449-1.445c0 .066-.357 3.077-.808 6.712-.438 3.648-.783 6.646-.757 6.673.027.026.969.159 2.083.291 1.406.173 2.043.2 2.07.107.026-.08.172-1.247.331-2.6.146-1.354.305-2.52.332-2.614.08-.225.968.04 1.353.398.172.16.73 1.353 1.313 2.866.57 1.432 1.022 2.613 1.035 2.613.026.053 4.63.584 4.67.544.079-.08-1.632-4.444-1.977-5.041-.212-.345-.61-.796-.889-1.008l-.517-.372.77-.212c1.02-.292 1.843-.929 2.334-1.817.358-.664.398-.85.398-1.924 0-1.074-.04-1.26-.372-1.83-.835-1.42-1.804-1.738-7.296-2.415-4.258-.517-4.072-.504-4.072-.371zm6.952 3.727c.477.279.69.77.557 1.274-.225.889-1.154 1.234-2.772 1.021-.584-.08-1.088-.172-1.115-.199-.053-.053.2-2.268.292-2.547.066-.212 2.52.146 3.038.451zm60.597-3.157c-3.542.491-5.691 2.401-6.142 5.466-.292 1.95.225 4.444 1.22 5.93 1.3 1.95 3.263 2.798 6.01 2.626 2.228-.146 3.767-.73 4.974-1.884 1.433-1.366 1.95-2.799 1.83-5.173-.172-3.648-1.605-5.864-4.337-6.713-.969-.292-2.454-.398-3.555-.252zm1.79 3.33c1.247.464 1.897 1.963 1.897 4.377 0 1.393-.172 1.884-.835 2.468-.902.796-2.428.902-3.423.252-1.525-1.008-1.976-5.253-.69-6.474.213-.199.584-.45.836-.557.544-.239 1.685-.278 2.215-.066zm-52.624-2.083c-1.326.292-2.414 1.088-2.998 2.202-.331.637-.345 2.269-.013 2.945.584 1.18 1.857 2.03 4.232 2.8 1.645.543 1.897.662 2.4 1.127.611.583.425 1.578-.397 2.003-.464.239-1.579.172-2.162-.12-.624-.318-.916-.73-1.128-1.565l-.16-.623-1.896-.04c-1.048-.013-1.95.013-2.003.066-.16.173.106 1.46.45 2.215.439.956 1.168 1.725 1.99 2.123 1.592.743 4.79 1.021 6.395.557 2.202-.637 3.475-2.348 3.356-4.497-.067-1.114-.305-1.698-1.048-2.44-.717-.73-1.725-1.248-3.768-1.911-.942-.305-1.883-.637-2.07-.73-.768-.384-.53-1.552.346-1.724 1.114-.199 2.07.292 2.414 1.26l.239.677h3.94l-.08-.504c-.305-1.672-1.021-2.68-2.335-3.264-1.499-.676-4.059-.928-5.704-.557zm33.96.438c-1.565.093-2.918.199-2.985.225-.132.04.61 13.412.743 13.544.04.027.81 0 1.711-.066.916-.066 1.83-.133 2.043-.133h.385l-.093-1.896c-.053-1.035-.12-2.282-.172-2.786l-.08-.889h.438c1.021 0 1.207.199 3.435 3.78.491.797.982 1.46 1.088 1.46 1.433-.027 4.497-.252 4.497-.345 0-.186-2.268-3.86-2.746-4.457a4.129 4.129 0 00-1.127-.889l-.664-.332.677-.292c.756-.318 1.645-1.207 1.977-1.95.132-.305.212-.862.212-1.485 0-1.778-.876-3.078-2.361-3.516-.81-.238-2.972-.238-6.978.027zm4.444 2.76c.544.225.77.689.65 1.339-.146.81-.836 1.154-2.667 1.3-.73.066-.968.04-.981-.08 0-.092-.053-.716-.093-1.393l-.093-1.22.53-.053c1.287-.12 2.23-.08 2.654.106zm-17.471-2.574c-1.764.225-3.409 1.154-4.324 2.427-2.136 2.972-1.579 8.172 1.087 10.162 1.38 1.021 2.494 1.34 4.79 1.34 2.374 0 4.112-.505 6.075-1.765l.623-.398v-5.81h-6.5v2.931l1.406-.092 1.393-.093-.04.716-.04.716-.702.359c-1.804.915-3.94.49-4.67-.942-.57-1.128-.676-3.476-.199-4.79.451-1.26 1.552-1.936 2.985-1.83.902.067 1.353.319 1.83 1.062l.306.45 1.923-.344c1.048-.2 1.95-.398 1.99-.438.12-.106-.172-.796-.65-1.579-.73-1.207-1.884-1.857-3.675-2.082a13.69 13.69 0 00-3.608 0z"/></g></svg>