<svg xmlns="http://www.w3.org/2000/svg" height="800" width="1200" version="1.0" viewBox="-120 -20.442875 1040 122.65725"><path d="M307.75.0064h-56.852v79.073h44.818v-40.213l16.701 40.213h23.789l16.7-40.213v40.213h44.799V.0064h-56.84l-16.561 36.716zm156.427 0h-56.845v79.073h44.81v-40.213l16.701 40.213h23.793l16.709-40.213v40.213h44.799V.0064h-56.849l-16.558 36.716zM47.492 29.0314V.0064H0v79.073h47.492v-29.897h22.35v29.897h47.496V.0064H69.842v29.025zM564.001.0064v79.073l101.861-.006v-19.031h-54.356v-11.826h54.356v-17.322h-54.356v-11.857h54.356V.0064zM173.46.0304l-.006 53.048c.092 6.829 4.58 8.532 10.695 8.532 5.975 0 10.53-1.814 10.53-8.68v-52.9h47.362v53.214c0 23.463-17.088 28.533-57.892 28.527-40.858-.007-58.063-4.979-58.063-28.533V.0304zm562.631 36.076c8.87 0 13.106-3.222 13.106-9.768 0-8.212-5.35-10.413-13.155-10.413h-13.886v20.181zm13.217 42.949l-27.127-28.345v28.369h-47.505V.0064l76.296-.006c16.014 0 42.52-.437 41.104 25.945-.664 12.336-13.548 21.336-23.782 23.55L800 79.0554z"/></svg>