<svg xmlns="http://www.w3.org/2000/svg" height="800" width="1200" viewBox="-89.501265 -14.66735 775.67763 88.0041"><path d="M45.8761.0014C44.317 0 42.2731 1.018 41.3336 2.262L.4718 56.3906c-.939 1.2436-.4321 2.2617 1.127 2.2617h47.456c1.5586 0 3.6036-1.018 4.5435-2.2617l40.8985-54.109c.9398-1.2441.433-2.2621-1.1255-2.2631L45.876.0014m85.0479 2.2607C131.8626 1.018 131.355 0 129.7964 0h-22.2991c-1.5592 0-3.6037 1.018-4.543 2.2621l-40.88 54.1285c-.9394 1.2436-.433 2.2617 1.126 2.2617h22.3193c1.5587 0 3.603-1.018 4.542-2.2617L130.924 2.262M144.3326 0c-1.5587 0-3.6037 1.018-4.5425 2.2621L98.9098 56.3906c-.939 1.2436-.4327 2.2617 1.1265 2.2617h17.0068c1.5585 0 3.6035-1.018 4.543-2.2617L162.4664 2.262C163.405 1.018 162.8989 0 161.34 0h-17.0075m-11.3999 56.4086c-.9387 1.2452-.4325 2.2622 1.1275 2.2598l11.7138-.0122c1.5587-.0024 3.6025-1.022 4.5425-2.2656l40.86-54.109c.94-1.2441.4337-2.2631-1.125-2.2656l-11.715-.0121c-1.5588-.0025-3.6025 1.0141-4.5413 2.2592l-40.8625 54.1455m30.4738-.0146c-.9413 1.2417-.4375 2.2583 1.1225 2.2583h8.51c1.5587 0 3.605-1.0166 4.5462-2.2593L218.439 2.4745c.9412-1.2426.4362-2.2598-1.1225-2.2598h-8.4713c-1.5587 0-3.6062 1.0172-4.5475 2.2584L163.4064 56.394m75.36-26.5507c-1.5588 0-2.0663-1.0182-1.1288-2.2633l7.565-10.043c.9388-1.2451 2.9813-2.2636 4.54-2.2636h52.6325c1.5588 0 2.8363 1.2759 2.8388 2.8345l.0125 8.8817c.0025 1.5592-1.2725 2.835-2.8313 2.835zM235.7389.2153c-1.5588-.0005-3.6038 1.0166-4.545 2.2592l-40.855 53.938c-.9413 1.2427-.4363 2.2583 1.1225 2.2569l19.84-.0147c1.5587-.001 3.6037-1.019 4.545-2.2617l6.5187-8.606c.9413-1.2426 2.9875-2.2597 4.5463-2.2607l75.4637-.017c1.5588-.0016 2.835 1.2743 2.835 2.833v7.4755c0 1.5591 1.275 2.836 2.835 2.837l15.58.0146c1.5588.0014 2.835-1.273 2.835-2.832V3.0686c0-1.5584-1.2762-2.8343-2.835-2.8348L235.739.2153m101.2286 55.6025c0 1.5591 1.2763 2.8345 2.835 2.8345h15.5813c1.5587 0 2.835-1.2754 2.835-2.8345l.0175-29.7998c0-1.5586 1.1-2.186 2.4425-1.394l29.4925 17.3925c1.3425.7925 3.7162 1.439 5.275 1.437l11.3237-.0121c1.5588-.0025 3.9338-.6509 5.2775-1.4419l29.4888-17.3585c1.3437-.791 2.4425-.162 2.4425 1.3965l-.0175 29.7803c0 1.5591 1.2737 2.8345 2.8337 2.8345h15.6c1.5588 0 2.835-1.2754 2.835-2.8345V3.0688c0-1.5586-1.2762-2.8354-2.835-2.837L446.814.2173c-1.5588-.001-3.9063.69-5.215 1.5357l-38.09 24.6191c-1.3088.8462-3.4525.8462-4.7625 0L360.6189 1.7529c-1.31-.8458-3.6575-1.5367-5.2163-1.5357l-15.6.0147c-1.5587.0015-2.835 1.2783-2.835 2.8368v52.7491m138.8875 0c0 1.5591 1.275 2.8345 2.8338 2.8345H593.84c1.5588 0 2.835-1.2754 2.835-2.8345V26.6235c0-1.5586-1.2762-2.8345-2.835-2.8355l-56.6937-.0171c-1.5588-.0014-2.8325 1.2745-2.83 2.8331l.01 5.6591c.0025 1.5592 1.28 2.836 2.8387 2.8369l35.425.0343c1.5588.0013 2.835 1.2782 2.835 2.8368v3.003c0 1.559-1.2762 2.8344-2.835 2.8334l-72.6312-.017c-1.5588-.0015-2.835-1.2769-2.835-2.836V17.9321c0-1.5586 1.2762-2.8345 2.835-2.8345l93.8812-.0195c1.5588 0 2.835-1.2755 2.835-2.8345V3.0492c0-1.5586-1.2762-2.8344-2.835-2.8344L478.689.2344c-1.5588 0-2.8338 1.2759-2.8338 2.8344v52.749" fill="#080804"/></svg>