<svg xmlns="http://www.w3.org/2000/svg" height="800" width="1200" version="1.0" viewBox="-40.7433 -99.96975 353.1086 599.8185"><path fill="#155196" d="M90.406 379.35l3.094 3.12h1.812l-2-3.12zM6.25 383.63c-2.797 0-5.656 1.45-5.656 4.56 0 1.62.8 3.24 3.437 3.97 2.139.59 3.55.86 4.625 1.28.627.23 1.281.71 1.281 1.91 0 1.16-.902 2.34-3.28 2.34-2.17 0-3.907-.95-3.907-3.34H0c.071 3.85 2.956 5.53 6.5 5.53 3.09 0 6.157-1.37 6.157-4.85 0-1.6-.982-3.36-3.032-3.97-.8-.22-4.224-1.11-4.469-1.18-1.111-.3-1.843-.91-1.843-2 0-1.56 1.594-2.03 2.843-2.03 1.877 0 3.25.73 3.375 2.75h2.72c0-3.25-2.75-4.97-6.001-4.97zm17.032.03c-4.651 0-7.438 3.66-7.438 8.09 0 4.45 2.787 8.13 7.438 8.13 4.655 0 7.406-3.68 7.406-8.13 0-4.43-2.751-8.09-7.406-8.09zm18.156 0c-4.655 0-7.469 3.66-7.469 8.09 0 4.45 2.814 8.13 7.469 8.13 3.748 0 6.385-2.54 6.594-6.25h-2.657c-.226 2.26-1.523 4.06-3.937 4.06-3.335 0-4.75-2.95-4.75-5.94 0-2.97 1.415-5.9 4.75-5.9 2.254 0 3.372 1.3 3.844 3.09h2.719c-.347-3.35-3.09-5.28-6.563-5.28zm10.687.34v15.53h2.719V384zm8.094 0v15.53h11.344v-2.34h-8.625v-4.53h7.844v-2.25h-7.844v-4.06h8.469V384zm13.844 0v2.35h4.906v13.18h2.719v-13.18h4.937V384zm18.156 0l-5.937 15.53h2.781l1.469-4.09h6.187l1.438 4.09h2.936L95.125 384zm-68.937 1.85c3.321 0 4.687 2.93 4.687 5.9 0 2.99-1.366 5.94-4.687 5.94-3.335 0-4.719-2.95-4.719-5.94 0-2.97 1.384-5.9 4.719-5.9zm70.312.84h.063l2.344 6.69h-4.719zm18.278-2.69v15.53h2.72v-5.97h4.13c4.42.02 5.28-2.83 5.28-4.74 0-1.93-.86-4.82-5.28-4.82zm16.13 0v15.53h11.31v-2.34h-8.62v-4.53h7.84v-2.25h-7.84v-4.06h8.46V384zm15.31 0v15.53h2.72v-6.4h4c2.48 0 3.06 1.27 3.06 4.12 0 .75.03 1.61.44 2.28h2.87c-.57-.62-.81-2.28-.81-4.09 0-2.45-1.37-3.16-2.31-3.28v-.06c.5-.18 2.56-.92 2.56-3.91 0-2.62-1.74-4.19-5.12-4.19zm-28.72 2.22h4c1.42 0 2.69.51 2.69 2.56 0 1.97-1.52 2.57-2.72 2.57h-3.97zm31.44 0h4.4c1.43 0 2.69.4 2.69 2.38 0 1.61-.93 2.46-2.65 2.46h-4.44zm68.03-2.56c-4.67 0-7.44 3.66-7.44 8.09 0 4.45 2.77 8.13 7.44 8.13 4.64 0 7.44-3.68 7.44-8.13 0-4.43-2.8-8.09-7.44-8.09zm-42 .34l-5.97 15.53h2.81l1.47-4.09h6.19l1.44 4.09h2.93l-5.96-15.53zm11.94 0v2.35h8.34l-9.03 10.97v2.21h12.72v-2.34h-9.28l9.06-11.13V384zm16.22 0v15.53h2.71V384zm25.28 0v15.53h2.59v-11.4h.03l7.1 11.4h2.84V384h-2.56v11.44h-.07l-7.06-11.44zm17.4 0v15.53h2.75V384zm-28.84 1.85c3.32 0 4.72 2.93 4.72 5.9 0 2.99-1.4 5.94-4.72 5.94-3.33 0-4.72-2.95-4.72-5.94 0-2.97 1.39-5.9 4.72-5.9zm-40.59.84h.03l2.31 6.69h-4.72zM1.812.002v363.13l25.938.09v-220.53h15.562v-33.72H27.75V31.13h25.937V.004H1.812zm62.25 0v363.13h25.969V.002L64.062.004zm51.87 0v363.13h25.94v-220.44h31.16v220.44h25.94v-260.75c0-55.685-22.44-102.38-32.07-102.38l-50.97.002zm77.85 0v24.626h25.94v338.5h25.93v-338.5l25.97-.002V0h-77.84zm-51.91 29.126h13.28c5.8 0 18 27.956 18 69.468 0 6.674-.12 15.564-.12 15.564h-31.16z"/></svg>