<svg xmlns="http://www.w3.org/2000/svg" height="800" width="1200" viewBox="-37.57995 -61.9075 325.6929 371.445"><g fill="#00427A"><path d="M26.889 219.102c-2.937-.058-5.819-.228-8.758-.228-2.884 0-5.822.112-8.763.228v3.283c0 6.456.117 10.893.463 15.968-1.27-.119-2.826-.289-4.726-.289-1.903 0-3.459.17-4.726.289.345-5.075.46-9.512.46-15.968v-7.839c0-6.447-.116-10.891-.46-15.959 1.267.113 2.823.289 4.726.289 1.899 0 3.456-.176 4.726-.289-.346 5.014-.463 9.451-.463 15.847 1.96.061 4.729.112 8.819.112 4.092 0 6.514-.052 8.702-.112 0-6.396-.116-10.833-.462-15.847 1.27.113 2.823.289 4.727.289 1.899 0 3.458-.176 4.726-.289-.347 5.068-.46 9.512-.46 15.959v7.839c0 6.456.114 10.893.46 15.968-1.268-.119-2.826-.289-4.726-.289-1.904 0-3.458.17-4.727.289.346-5.075.462-9.512.462-15.968zm19.041-4.556c0-6.447-.114-10.891-.46-15.959 1.268.113 2.823.289 4.725.289 1.903 0 3.459-.176 4.727-.289-.346 5.068-.46 9.512-.46 15.959v7.839c0 6.456.114 10.893.46 15.968-1.268-.119-2.824-.289-4.727-.289-1.902 0-3.458.17-4.725.289.346-5.075.46-9.512.46-15.968zm19.202-15.959c.867.168 1.731.289 2.595.289.864 0 1.726-.121 2.595-.289 8.295 9.16 16.538 18.268 25.012 27.427 0-9.159 0-24.836-.404-27.427.864.168 1.728.289 2.59.289.866 0 1.729-.121 2.597-.289-.922 16.767-.922 24.432-.922 39.766-.809-.177-1.558-.289-2.364-.289-.808 0-1.559.112-2.249.289-7.895-9.333-16.307-18.671-25.183-28.01-.116 4.325-.116 9.102-.116 13.427 0 9.223.17 12.448.345 14.583-.922-.177-1.843-.289-2.709-.289-.864 0-1.787.112-2.649.289.289-1.674 1.152-16.542 1.152-28.295 0-5.19-.231-8.702-.29-11.471zm44.633 15.959c0-6.447-.117-10.891-.461-15.959 1.268.113 2.823.289 4.727.289 2.533 0 5.36-.289 10.431-.289 13.138 0 22.185 4.207 22.185 18.729 0 12.68-9.107 21.037-19.943 21.037-5.759 0-9.677-.289-12.672-.289-1.904 0-3.459.17-4.727.289.345-5.075.461-9.512.461-15.968v-7.839zm8.526 9.107c0 3.11 0 10.141.06 11.24 1.152.061 2.706.173 5.07.173 8.646 0 14.118-5.876 14.118-17.869 0-9.45-5.241-15.327-13.195-15.327-2.767 0-4.207.115-5.993.289-.06 1.093-.06 8.126-.06 11.236zm36.391.292c0-6.226.112-9.339.112-13.487 0-6.106-.112-9.973-.229-11.871 1.556.168 3.168.289 4.726.289 1.555 0 3.171-.121 4.726-.289-.753 7.489-.805 13.481-.805 20.171 0 14.062 4.03 16.366 11.521 16.366 9.221 0 9.858-9.973 9.858-20.69 0-5.299-.174-10.547-.462-15.847.984.168 1.959.289 2.942.289.976 0 1.896-.121 2.879-.289-.346 3.398-.75 11.641-.75 21.607 0 13.375-5.818 18.905-17.003 18.905-9.853.001-17.515-4.322-17.515-15.154zm40.077 20.973c3.168-1.439 4.206-2.359 4.495-6.565.346-5.075.461-9.512.461-15.968v-7.839c0-6.447-.115-10.891-.461-15.959 1.266.113 2.821.289 4.728.289 1.896 0 3.456-.176 4.723-.289-.343 5.068-.458 9.512-.458 15.959v7.839c0 3.115.115 6.918.115 10.489 0 9.22-4.267 13.371-12.743 14.756zm55.393-6.565c-1.847-.119-3.456-.289-5.071-.289-1.612 0-3.28.17-4.898.289a234.185 234.185 0 00-3.976-11.813 283.913 283.913 0 00-7.376-.119c-2.017 0-3.981.055-5.992.119-1.558 3.914-2.824 7.835-3.924 11.813-.923-.119-1.782-.289-2.706-.289-.923 0-1.785.17-2.879.289 2.818-6.402 11.468-26.916 16.421-40.057.753.118 1.442.291 2.192.291.747 0 1.439-.173 2.189-.291 4.899 13.141 11.644 30.657 16.02 40.057zm-15.273-15.221c-1.67-4.662-3.283-9.221-5.129-13.712-1.959 4.491-3.741 9.05-5.415 13.712zM123.177 66.729c-11.013-.355-21.982-1.145-32.712-2.405-1.19 5.038-1.853 9.942-2.007 14.78l34.665.252c.005-4.169.03-8.335.054-12.627m-.224 29.704a381.516 381.516 0 00-32.551.604c1.958 8.813 5.494 17.894 10.504 27.86a155.162 155.162 0 0122.131-1.819l-.006-1.832a7824.87 7824.87 0 01-.078-24.813zm36.995 2.6c-11.358-1.421-22.971-2.311-34.627-2.676.031 7.659.062 15.786.092 25.002l.018 1.832c8.255.042 16.509.738 24.538 2.095 4.597-9.274 7.956-17.893 9.979-26.253zm40.687 7.844c-12.165-3.28-25.114-5.794-38.44-7.562-2.028 8.434-5.375 17.091-9.931 26.391 8.504 1.603 16.728 3.965 24.417 7.117 10.872-8.509 18.811-17.197 23.954-25.946zM72.053 98.644c-8.707.996-17.176 2.302-25.303 3.918 5.682 13.48 15.397 22.588 25.71 29.752 5.542-2.125 11.358-3.881 17.343-5.277a154.782 154.782 0 018.47-1.72c-4.984-10.006-8.509-19.175-10.453-28.109a366.51 366.51 0 00-15.767 1.436zM207.687 83.11l-43.105-.702-.012.589c-.134 4.686-.711 9.338-1.7 14.049 13.459 1.786 26.529 4.352 38.78 7.674 3.869-7.206 5.843-14.443 6.037-21.61zM86.266 81.406l-44.758-.322c.205 4.112.952 8.439 2.208 13.189a61.607 61.607 0 001.91 6.034c8.439-1.688 17.213-3.052 26.205-4.069a325.57 325.57 0 0115.716-1.446c-.72-3.936-1.148-7.829-1.257-11.722-.016-.564-.016-1.114-.024-1.664zm36.851.301l-34.68-.252c0 .516 0 1.051.021 1.576.106 3.86.538 7.713 1.282 11.616 10.984-.705 22.184-.905 33.377-.638-.006-4.194-.019-8.263 0-12.302zm4.597.094l-2.217-.015a1920.3 1920.3 0 000 12.239c11.71.355 23.408 1.26 34.839 2.69.984-4.631 1.549-9.192 1.677-13.781l.012-.565zm33.023-15.636c-11.631.72-23.505.929-35.354.623-.03 4.279-.043 8.433-.062 12.576l2.266.018h.019l34.62.571c-.067-4.547-.559-9.112-1.489-13.788zm42.067-5.227c-12.646 2.414-26.087 4.103-39.874 5.065.911 4.75 1.402 9.384 1.451 14.006l43.531.72c-.201-6.672-1.938-13.295-5.108-19.791zM75.676 62.262c-9.636-1.543-18.974-3.471-27.84-5.782-3.367 6.01-5.334 11.543-6.069 17.222a39.707 39.707 0 00-.325 5.104l44.857.322c.149-4.953.802-9.943 2.001-15.066-4.26-.54-8.473-1.123-12.624-1.8zm47.811-21.735c-7.758-.179-15.578-.823-23.118-2.028-4.251 8.418-7.337 16.165-9.305 23.578a393.004 393.004 0 0032.125 2.351c.067-7.365.158-15.146.298-23.901zm27.732-1.236a212.63 212.63 0 01-25.503 1.275c-.146 8.773-.243 16.551-.304 23.934 11.667.301 23.354.097 34.82-.604-1.778-7.79-4.761-15.874-9.013-24.605zm19.327-3.298v.009c-5.065 1.194-10.793 2.214-16.982 2.988 4.209 8.755 7.155 16.916 8.916 24.766 13.557-.936 26.755-2.566 39.213-4.917l-.122-.212c-4.816-8.771-12.257-17.271-22.108-25.322a69.5 69.5 0 01-3.328 1.154 74.555 74.555 0 01-5.552 1.527zm-87.5-1.549a86.808 86.808 0 01-10.456-4.103c-9.369 6.663-17.556 14.231-23.53 24.101 8.604 2.214 17.632 4.063 26.937 5.576 4.222.671 8.498 1.27 12.816 1.81 1.958-7.489 5.02-15.285 9.244-23.718-5.192-.929-10.237-2.141-15.011-3.666zm42.506 110.728c4.646.176 8.527.862 12.05 2.107 4.282-7.033 8.03-13.636 11.255-19.909a150.502 150.502 0 00-23.372-1.932zm14.28 3.036c2.205.984 4.275 2.205 6.335 3.682l.638-.328h.006l1.118-.59c10.233-5.411 19.077-10.963 26.621-16.617-7.35-2.897-15.166-5.072-23.263-6.566-3.262 6.444-7.088 13.204-11.455 20.419zm-30.796-1.002c.456-.146.908-.273 1.382-.406-4.143-6.814-7.774-13.211-10.894-19.272a144.48 144.48 0 00-9.147 1.835 133.438 133.438 0 00-15.564 4.615c4.537 2.994 9.12 5.661 13.496 8.193 4.753 2.776 9.272 5.388 13.174 8.115l-.164.219c1.427-.82 3.003-1.567 4.68-2.242.944-.37 1.965-.717 3.037-1.057zm13.947-2.076v-.007h.236l-.066-19.67c-7.093.073-14.199.647-21.156 1.68 3.101 5.995 6.717 12.312 10.835 19.065a48.575 48.575 0 0110.151-1.068zM111.517 14.975a40.247 40.247 0 01-1.81-.662 33.478 33.478 0 01-5.904-2.998 628.849 628.849 0 01-7.877 4.622c-7.346 4.258-14.498 8.418-21.134 12.946a80.2 80.2 0 008.868 3.386c4.88 1.576 10.064 2.797 15.4 3.723 3.158-6.098 6.909-12.527 11.272-19.4.125-.197.522-.729.92-1.269v-.009zm12.364 2.393a47.793 47.793 0 01-9.98-1.634c-.191.276-.464.656-.744 1.027v-.006c-.331.453-.662.887-.814 1.13-4.176 6.55-7.766 12.688-10.817 18.506 7.164 1.105 14.592 1.704 21.961 1.889.103-6.381.23-13.28.394-20.912zm14.079-1.197a51.833 51.833 0 01-11.497 1.285h-.024v-.009h-.231a8242.88 8242.88 0 00-.406 20.866 205.91 205.91 0 0024.276-1.181c-3.323-6.575-7.362-13.511-12.118-20.961zm9.16-3.246a41.644 41.644 0 01-6.754 2.6c4.816 7.562 8.88 14.623 12.221 21.325 6.39-.784 12.317-1.825 17.535-3.052h.048a77.382 77.382 0 007.174-2.101c-7.914-6.186-17.286-12.09-27.982-17.647l-1.676-.841zm3.523-4.832a8.42 8.42 0 00.729-.632c-9.457-2.493-25.304-2.888-38.126-2.05-2.654.17-5.211.404-7.568.671a90.935 90.935 0 00-4.209.598c2.107 2.083 5.178 3.981 8.874 5.442.954.374 1.898.714 2.849 1.002 4.008 1.245 8.585 1.995 13.358 1.995h.03c8.26 0 15.986-2.059 21.301-5.145a25.355 25.355 0 002.762-1.881zm-52.03-1.372c-14.483 2.198-27.99 6.098-39.977 11.363 2.979 3.006 6.486 5.615 10.407 7.887a55.058 55.058 0 003.234 1.725c7.021-4.886 14.644-9.311 22.448-13.842 2.323-1.348 4.668-2.715 6.964-4.066-1.214-.975-2.247-2.001-3.076-3.067zm-79.34 40.162C11.665 56.489 7.04 67.239 6.171 78.604l33.072.228c.007-1.81.115-3.611.346-5.381.761-5.84 2.722-11.5 6.087-17.599l-.082-.018c-9.373-2.555-18.222-5.534-26.321-8.951zm21.649-19.251c-7.91 5.178-14.718 11.051-20.174 17.483 7.815 3.252 16.325 6.113 25.343 8.561l.671.176.355-.599c5.97-9.852 14.009-17.447 23.184-24.101a78.076 78.076 0 01-2.235-1.211c-4.373-2.536-8.288-5.494-11.552-8.919a123.905 123.905 0 00-15.592 8.61zM6.03 82.184c0 9.475 2.621 18.552 7.419 26.961 8.506-3.052 17.743-5.655 27.498-7.802l2.511-.55a64.52 64.52 0 01-1.849-5.946c-1.315-4.965-2.097-9.5-2.302-13.821l-33.253-.251c-.008.461-.024.932-.024 1.385h.007v.024zm47.759 62.052C65.69 150.049 79.299 154.47 94 157.094l.783-1.033c1.142-1.53 2.712-2.982 4.625-4.306-3.696-2.515-7.878-4.938-12.266-7.495-4.886-2.836-10.034-5.843-15.081-9.25-.562.23-1.139.461-1.704.691-5.905 2.425-11.469 5.286-16.568 8.535zm-12.826-7.367a116.354 116.354 0 0010.473 6.079c5.506-3.625 11.555-6.777 17.979-9.432l.249-.092c-10.262-7.315-19.828-16.621-25.474-30.338-.955.194-1.902.404-2.849.616-9.384 2.074-18.279 4.571-26.486 7.495 6.03 9.66 14.964 18.383 26.1 25.671h.008zm111.812 20.863c15.354-2.399 29.573-6.724 42.018-12.555-5.394-3.82-11.327-7.075-17.662-9.767-7.896 6.025-17.237 11.947-28.104 17.693l-.819.425a62.07 62.07 0 013.832 3.438c.273.256.541.523.735.766zm-19.952 1.931c5.897-.254 11.661-.759 17.304-1.542-3.911-3.687-7.55-6.317-11.674-8.036-4.307-1.804-9.202-2.617-15.555-2.617h-.024c-4.781 0-9.337.74-13.364 1.974-.954.304-1.895.644-2.839 1.015-4.249 1.67-7.665 3.924-9.751 6.377 0 .122-.037.285-.061.432l-.048.182c1.597.25 3.395.505 5.336.723 2.457.268 5.156.518 7.984.735 7.171.539 15.251.831 22.692.757zm99.834-44.013c7.179-9.718 11.321-20.536 11.637-31.942l-34.055-.559c-.194 7.395-2.181 14.856-6.074 22.272 10.155 2.868 19.721 6.278 28.492 10.229zm-23.05 21.328c8.679-5.678 16.04-12.202 21.75-19.375-8.759-3.909-18.318-7.294-28.443-10.137-5.15 8.925-13.04 17.763-23.87 26.385 6.365 2.787 12.312 6.141 17.724 10.058l-.456.583a121.003 121.003 0 0013.295-7.514zm34.899-55.605c-.213-10.25-3.492-20.037-9.274-28.996-9.293 3.237-19.454 5.928-30.211 8.093 3.164 6.654 4.877 13.465 5.071 20.338zm-48.827-61.551c-12.147-5.816-26.025-10.162-41.01-12.673l-.407.461v.015-.009c-.698.808-1.53 1.583-2.441 2.32a25.601 25.601 0 01-2.181 1.549l.79.404c11.376 5.889 21.246 12.206 29.549 18.829l.291-.121c7.222-2.965 12.634-6.815 15.409-10.775zm13.909 7.786a119.24 119.24 0 00-11.935-6.857c-2.892 4.267-8.437 8.394-15.816 11.558 9.615 8.033 16.897 16.497 21.695 25.228l.486.881c10.653-2.117 20.729-4.756 29.938-7.933-5.995-8.555-14.286-16.293-24.368-22.877zM125.266 0h.013v.009c34.407.006 65.651 9.183 88.307 24.006 22.794 14.911 36.928 35.541 36.934 58.32h.013v.015h-.013c-.006 22.771-14.14 43.417-36.946 58.32-16.156 10.574-36.697 18.282-59.638 21.816-.201.116-.45.213-.741.28v-.013.013-.013c-4.896 1.13-12.185 1.677-20.129 1.762-2.569.104-5.162.152-7.762.152v.018h-.055v-.018c-34.395 0-65.644-9.172-88.288-23.998C14.152 125.763.017 105.13.017 82.369H0v-.033h.017c0-22.78 14.145-43.409 36.951-58.32h-.008C59.605 9.193 90.845.016 125.23.01V0z"/><path d="M97.795 124.615c-13.38.015-11.352.015-24.735.024 3.489-28.04 3.225-57.093-.143-85.755h24.854c-1.485 6.948-2.187 20.308-.826 28.395 2.035 12.078 16.083 12.078 18.124 0 1.36-8.087.662-21.446-.826-28.395h24.86a382.361 382.361 0 00-2.454 32.467c15.877-15.018 36.394-5.767 37.141 13.544.498 12.91-.904 30.639 3.827 39.728l-25.662.016c1.962-9.937 3.426-17.062 3.109-27.144-.504-16.187-18.943-13.14-18.239 2.102a328.92 328.92 0 002.126 25.042c-13.387-.009-11.352-.009-24.741-.024 3.095-7.756 4.458-20.955.073-28.747-4.191-7.465-13.308-7.134-17.073 1.008-3.731 8.079-1.829 19.691.585 27.739" clip-rule="evenodd" fill-rule="evenodd"/></g></svg>