<svg xmlns="http://www.w3.org/2000/svg" height="800" width="1200" viewBox="-72.92475 -151.4325 632.0145 908.595"><path d="M217.62.88c2.81-.4 5.62-.8 8.46-.86 11.63.2 23.27.14 34.9-.02 36.03 3.46 70.88 18.11 98.53 41.46 27.15 22.73 47.42 53.59 57.32 87.6 8.09 27.49 9.49 56.89 4.19 85.05-5.19 27.73-16.99 54.22-34.24 76.56-16.44 21.46-37.76 39.19-61.89 51.4-26.13 13.28-55.54 19.94-84.84 19.44-35.14-.5-70.08-11.51-99.07-31.39-29.43-20.03-52.74-48.91-65.99-81.96-13.53-33.37-16.59-70.82-9.06-106 6.2-29.3 19.89-56.97 39.42-79.66C133.6 29.19 174.33 6.8 217.62.88m-28.17 24.24c16.89 38.26 34.01 76.42 50.97 114.65.83 1.38 1.25 3.81 3.38 3.35.3-.5.9-1.5 1.21-2.01 17.34-38.5 34.16-77.25 51.71-115.66-6.45-2.8-13.33-4.47-20.16-6.03-28.82-6.3-59.33-4.19-87.11 5.7m-82.87 64.51c-.43.91-1.64 1.89-.97 2.97 27.24 55.04 54.65 110 81.85 165.06.85 1.72 1.82 3.37 2.84 5 1.13-.96 2.25-2 2.76-3.43 10.19-23.47 20.45-46.91 30.67-70.37.75-1.73 1.93-3.92 4.18-3.62 10.05-.09 20.1-.09 30.15 0 2.36-.38 3.56 1.92 4.33 3.73 9.57 22.02 19.2 44.02 28.8 66.02 1.25 2.69 2.03 5.81 4.54 7.67 3.09-4.71 5.18-9.98 7.8-14.95 25.65-51.92 51.56-103.73 77.15-155.67-.6-2.25-2.41-4-3.65-5.93-14.5-20.32-33.3-37.65-55.14-49.8-19.48 43.97-39.39 87.76-58.96 131.7-.75 1.55-1.4 3.22-2.66 4.44-1.65.73-3.54.44-5.29.54-9-.11-18.01.08-27.01-.08-2.16.15-3.48-1.76-4.2-3.53-19.86-44.39-39.84-88.72-59.66-133.13-22.99 13.02-42.75 31.51-57.53 53.38m-27.19 99.24c1.44 30.04 11.64 59.51 28.68 84.25 20.07 29.41 49.88 52.03 83.65 63.32 28.93 9.73 60.64 10.99 90.25 3.6 28.85-7.14 55.57-22.42 76.54-43.46 20.03-19.99 34.85-45.2 42.43-72.48 9.26-33.03 7.73-68.97-4.28-101.11-1.9 3.35-3.52 6.85-5.23 10.3-30.4 61.06-60.59 122.23-91.05 183.26-1.13 2.37-3.51 4.57-6.34 3.95-3-.38-4.45-3.27-5.54-5.72-14.24-32.23-28.68-64.38-42.92-96.61-.66-1.42-1.68-2.65-2.63-3.88-2.61 3.26-3.89 7.28-5.61 11.02-13.59 30.48-27.08 61.01-40.73 91.46-1.7 5.03-9.25 4.88-10.88-.16-32.14-64.5-64.16-129.06-96.13-193.64-8.22 20.86-11.33 43.56-10.21 65.9zm318.83 262.54c4.52-2.16 10.94 1.22 10.25 6.62-.23 5.73-7.9 7.9-11.91 4.52-3.5-2.94-2.7-9.46 1.66-11.14zm69.72.66c4-.02 7.99-.02 12 .09.17 18.18-.33 36.38.25 54.56 1.99-.02 3.97-.04 5.97-.05.02 2.8-.02 5.6-.13 8.41-4.79.37-10.29 1.54-14.48-1.48-3.52-2.65-3.54-7.53-3.69-11.52.05-16.67-.1-33.34.08-50.01zm-455.16 4.84c10.26-6.25 23.5-5.28 34.11-.39-1.15 3.23-2.27 6.48-3.36 9.74-5.25-2.08-10.9-3.61-16.6-2.85-5.19.53-9.71 4.23-11.74 8.97-2.71 6.25-2.93 13.42-1.37 20 1.26 5.22 4.64 10.37 9.95 12.12 6.51 2.15 13.56.46 19.68-2.17 1.05 3.3 2.62 6.48 3.09 9.95-10.56 4.85-23.8 5.62-33.95-.64-8.07-5.03-12-14.61-12.59-23.8v-7.48c.74-9.11 4.74-18.52 12.78-23.45zM68.65 471c6.8-1.48 14.43-.85 20.28 3.2 12.79 8.96 12.03 31.69-1.94 39.16-9.98 5.15-24.38 3.33-30.77-6.58-5.12-8.07-5.15-19.17.04-27.22 2.75-4.38 7.42-7.32 12.39-8.56m2.83 9.81c-3.16 1-5.33 3.96-6.07 7.11-1.11 4.52-.95 9.6 1.33 13.75 3.14 5.59 12.09 6.09 16.04 1.17 2.44-2.94 2.9-6.97 2.8-10.65-.18-3.55-1.01-7.5-3.96-9.8-2.73-2.4-6.79-2.59-10.14-1.58zm47.08-4.84c7.21-7.3 21.3-8.26 27.37.96 5.97-6.35 16.11-8.73 24.01-4.76 5.06 2.61 7.38 8.49 7.5 13.94.17 9.53-.06 19.07.11 28.6-4.06.07-8.12.08-12.18.07 0-8.88.04-17.77 0-26.65.03-2.85-.9-6.29-3.89-7.33-4.67-1.72-9.55.48-13.2 3.38.52 10.16.05 20.35.27 30.53-4.04.06-8.08.08-12.12.09-.08-8.87.04-17.73-.05-26.6.07-2.86-1-6.12-3.81-7.35-4.46-1.6-9.53-.03-13 3-.3 10.28-.14 20.59-.06 30.88-4.06.04-8.12.06-12.18.05.07-14.42-.17-28.84.12-43.25 3.16.05 6.33.08 9.49.14.56 1.42 1.1 2.85 1.62 4.3zm81.25 0c5.56-5.14 13.9-7.32 21.08-4.47 2.69.95 4.46 3.28 6.43 5.21 6.02-5.73 15.22-8.35 23.08-5.01 5.6 2.36 8.31 8.61 8.42 14.39.09 9.56.03 19.13 0 28.69-4.03.01-8.05-.01-12.08-.07.03-8.9.07-17.8 0-26.69-.05-2.69-.74-5.99-3.51-7.12-4.63-1.82-9.84.16-13.43 3.25.08 10.22.09 20.43.03 30.65-4-.08-8-.06-12 .03-.18-9.16.08-18.32-.11-27.48-.04-2.75-1.31-5.83-4.17-6.66-4.4-1.22-9.52.1-12.66 3.44-.22 10.22.04 20.45-.1 30.67-4.05-.01-8.09-.06-12.13-.09.12-14.35.07-28.71.02-43.06 3.23-.04 6.46-.07 9.69-.05.48 1.45.96 2.91 1.44 4.37zm72.09 2.97c6.57-9.9 21.72-11.31 31.04-4.68 6.92 5.13 7.43 14.71 5.87 22.48-9.66-.08-19.32-.1-28.98.01.83 3.53 2.38 7.46 6.09 8.79 6.22 2.16 12.81.03 18.86-1.72.84 2.91 1.74 5.8 2.74 8.66-7.1 3.06-15.02 4.36-22.69 3.2-5.9-1.02-11.38-4.65-14.12-10.04-4.2-8.27-4.02-18.92 1.19-26.7m10.89 3.04c-1.81 1.92-2.3 4.61-2.88 7.09 6.22.3 12.46.05 18.69.17-.21-3.04-.34-6.67-3.12-8.58-3.81-2.48-9.65-2.33-12.69 1.32zm54.72-11.12c2.63-.88 5.42-.47 8.13-.3-.29 3.44-.72 6.86-1.04 10.3-3.25-.27-6.7-.67-9.72.84-1.74.9-4.11 2.07-3.98 4.4-.14 9.55.02 19.12-.07 28.68-4.04 0-8.08.01-12.11-.09.08-14.34.06-28.68.01-43.02 3.27-.04 6.54-.09 9.82-.1.55 1.67 1.07 3.35 1.58 5.04 2.14-2.26 4.31-4.78 7.38-5.75zm21.34 3.08c8.06-5.27 18.41-4.06 27.14-1.26-.63 3.15-1.47 6.26-2.27 9.38-5.36-1.63-11.72-3.18-16.77.11-4.24 2.78-5.2 8.32-4.73 13.03.18 3.98 2.27 8.05 5.98 9.8 4.91 2.17 10.5.96 15.35-.78.97 3.16 1.9 6.35 2.33 9.64-8.21 2.32-17.5 3.69-25.38-.42-6.55-3.12-10.1-10.33-10.65-17.31-.86-8.18 1.64-17.62 9-22.19zm60.2.19c7.38-3.43 15.93-4.7 23.96-3.22 6.02 1.11 11.07 6.13 11.8 12.28.95 7.87.15 15.84.49 23.75 1.48 0 2.96-.01 4.44-.01.01 2.8.01 5.61.01 8.42-3.54.3-7.3 1.08-10.7-.29-1.95-.75-3.02-2.65-4.28-4.17-5.86 4.27-13.71 6.89-20.75 4.03-9.45-3.43-10.65-18.8-1.89-23.67 6.58-3.49 14.27-2.79 21.46-2.89-.08-3.01-.65-6.75-4.08-7.64-6.06-1.43-12.17.69-17.91 2.48-.84-3.03-1.9-6-2.55-9.07m11.33 23.46c-3.14 1.31-3.34 5.92-.91 7.98 4.45 2.39 9.57.21 13.85-1.54.07-2.66.08-5.32.08-7.97-4.34.12-8.96-.32-13.02 1.53zm-35.07 17.19c.05-14.42-.19-28.84.11-43.25 3.98.1 7.97.09 11.96.05.01 14.39-.06 28.77.04 43.16-4.04.02-8.08.05-12.11.04zm-157.73 25.94c4.34-1.74 10.05 1.51 9.69 6.45.25 6.24-8.85 8.7-12.5 4.16-2.99-3.25-1.63-9.44 2.81-10.61zm-55.94.87c4.06-.03 8.12 0 12.17.06-.14 7.62 0 15.24-.09 22.86 5.15-3.7 11.74-6.01 18.05-4.15 6.98 1.61 11.09 8.85 11.01 15.68.07 9.42.03 18.85 0 28.27-4.03-.02-8.05 0-12.08 0 .03-8.74.04-17.48.02-26.21 0-2.89-.89-6.34-3.78-7.6-4.44-1.92-10.24-.29-13.1 3.57-.24 10.06-.01 20.14-.09 30.21-4.04 0-8.08.03-12.11.04 0-20.91-.01-41.82 0-62.73zm119.25.04c4.08-.04 8.15-.07 12.23-.01.05 18.14-.11 36.3.08 54.45 2.02.07 4.05.12 6.08.18-.01 2.68.08 5.37-.08 8.06-3.79.99-7.9 1.03-11.73.23-4.1-1.07-6.27-5.37-6.31-9.35-.33-17.85.18-35.71-.27-53.56zm-228.84 1.76c4.57-.01 9.15 0 13.72 0 5.4 15.88 10.04 32.04 15.74 47.81 5.25-15.9 9.91-32.05 15.54-47.79 4.54-.15 9.08.01 13.62.01-7.2 20.29-14.66 40.5-21.7 60.85-5.14 0-10.28.22-15.4-.2-6.99-20.29-14.54-40.39-21.52-60.68zm62.95 24.7c6.82-9.72 21.98-10.95 31.18-4.07 6.64 5.21 6.89 14.51 5.65 22.15-9.68.14-19.37.01-29.06.08.59 4 2.88 8.09 7.06 9.16 5.91 1.3 12.04-.17 17.61-2.22 1 2.91 2.21 5.78 2.77 8.83-6.57 3-13.96 3.99-21.11 3.34-6.86-.66-13.27-5.01-16.08-11.35-3.66-8.21-3.2-18.46 1.98-25.92m13.3 1.28c-3.57 1.68-4.86 5.66-5.6 9.23 6.26.06 12.53.02 18.8.04-.28-2.42-.1-5.17-1.81-7.12-2.66-3.3-7.68-3.69-11.39-2.15zm116.22-5.81c8.12-5.43 18.67-4.31 27.47-1.28-.76 3.12-1.65 6.21-2.49 9.31-5.14-1.73-11.19-3.1-16.19-.25-3.79 2.12-5.22 6.66-5.33 10.75-.13 4.39 1.05 9.55 5.2 11.86 5.06 3.03 11.18 1.4 16.46-.11.73 3.08 1.58 6.15 2.32 9.23-8.59 3.01-18.89 4.1-26.94-.95-6.49-3.85-9.39-11.69-9.4-18.95-.2-7.39 2.41-15.46 8.9-19.61zm64.3 5.56c6.69-11.06 24.01-12.5 33.23-3.95 5.52 5.43 5.17 13.74 4.43 20.84-9.71.47-19.44.13-29.16.19.59 3.87 2.64 7.85 6.64 9.07 6.08 1.64 12.42-.2 18.24-2.01.84 2.92 1.82 5.81 2.67 8.74-7.75 3.15-16.54 5.02-24.77 2.68-5.63-1.56-10.53-5.67-12.74-11.12-3.21-7.79-2.91-17.16 1.46-24.44m11.4 2.31c-1.84 1.94-2.29 4.67-2.96 7.16 6.22.09 12.44-.01 18.66.07-.12-2.77-.11-5.99-2.36-7.98-3.74-3.09-10.04-2.98-13.34.75zm40.88-9.2c8.43-4.2 18.39-2.53 26.99.3-.55 3.07-1.62 6.02-3.02 8.8-5.42-1.42-11.18-3.57-16.77-1.77-2.76.92-2.91 5.44-.08 6.4 5.84 2.58 13.07 2.31 17.86 7.06 6.04 5.78 3.55 17.06-3.97 20.36-9.17 4.07-19.99 2.45-28.77-1.88 1.27-2.8 2.34-5.69 3.65-8.47 5.71 2.05 11.87 4.64 18.01 2.86 2.89-.69 3.77-5.31.93-6.65-5.55-2.82-12.55-2.2-17.44-6.44-6.6-5.26-4.9-16.97 2.61-20.57zm-146.94-1.08c4.02.05 8.04.04 12.06-.14-.03 14.43-.01 28.86-.01 43.29-4.03 0-8.06 0-12.09-.02.03-14.38-.04-28.75.04-43.13z" fill="#012f5e"/></svg>