<svg xmlns="http://www.w3.org/2000/svg" height="800" width="1200" version="1.0" viewBox="-120.00015 -35.856 1040.0013 215.136"><g fill="#0c479c" fill-rule="evenodd"><path d="M115.816 141.233c-4.252-49.202 28.169-89.063 63.61-93.748 21.687 43.869-18.61 85.819-63.61 93.748z"/><path d="M153.849 18.339c5.339 3.336 13.815 11.389 16.74 15.339-45.302 24.155-59.236 68.302-58.062 108.106-1.96.368-4.131.518-5.941.86-3.348-57.407 21.898-98.71 47.263-124.305z"/><path d="M118.41 2.906c6.485 1.164 16.136 4.595 21.476 7.378-25.307 48.927-37.914 76.638-36.105 132.635l-5.822.367c.483-78.718 7.722-94.424 20.45-140.38zM103.208.58C96.69-.031 89.27-.246 81.582.365c6.907 47.886 7.689 68.153 8.987 143.039 1.629.033 2.806.033 4.795-.06-.3-74.398 1.328-94.45 7.844-142.764zM67.045 2.906C60.558 4.07 50.935 7.5 45.599 10.284 70.874 59.21 83.513 86.922 81.673 142.919l5.85.367c-.513-78.718-7.752-94.424-20.478-140.38z"/><path d="M31.633 18.339c-5.338 3.336-13.785 11.389-16.74 15.339 45.304 24.155 59.209 68.302 58.033 108.106 1.99.368 4.192.518 5.972.86 3.348-57.407-21.87-98.71-47.265-124.305z"/><path d="M69.668 141.233C73.89 92.03 41.496 52.17 6.057 47.485c-21.718 43.869 18.579 85.819 63.61 93.748zM211.204 27.174h41.787c8.873 0 16.38.302 21.08 1.365 6.599 1.289 12.212 3.94 16.914 7.28 4.7 3.639 8.419 7.962 10.769 12.966 2.352 5.005 3.792 11.3 3.792 18.959 0 6.295-1.44 11.909-3.792 16.917-2.807 5.684-6.523 10.308-11.68 13.947-4.245 2.653-9.403 4.707-16.001 6.376-5.156.985-11.677 1.586-20.171 1.586h-42.697V27.174zm27.227 59.38h12.664c8.343 0 14.865-1.668 19.49-5.232 4.703-3.563 7.129-8.494 7.129-14.715 0-6.143-2.426-11.072-7.432-14.636-5.231-3.564-12.06-5.46-21.006-5.46h-10.844v40.044zm340.202 17.436H555.96l-15.396-31.922-14.181 31.848H502.19l-22.298-55.053h-49.445v10.162h43.836V76.39h-43.836v9.707h49.445v17.979H341.34l-10.694-17.828-7.888 17.828h-30.183l35.492-74.477h41.635l34.202 74.477V29.598h94.418l18.729 46.03 12.97-26.01-9.176-20.02h40.117l-9.781 20.02 12.966 26.01 19.113-46.03h26.162l-30.79 74.393zM348.165 47.574l-16.91 37.613h35.644l-18.734-37.613z"/><path d="M647.493 23.835c28.06 0 50.964 19.339 50.964 42.849 0 23.51-22.903 42.774-50.964 42.774-28.058 0-50.885-19.265-50.885-42.774 0-23.51 22.827-42.85 50.885-42.85zm-22.37 42.849c0 14.028 10.084 25.479 22.37 25.479 12.286 0 22.373-11.451 22.373-25.48 0-14.03-10.087-25.481-22.373-25.481-12.286 0-22.37 11.452-22.37 25.482z"/><path d="M749.04 23.835c28.058 0 50.96 19.339 50.96 42.849 0 23.51-22.902 42.774-50.96 42.774-28.06 0-50.888-19.265-50.888-42.774 0-23.51 22.828-42.85 50.889-42.85zm-22.373 42.849c0 14.028 10.087 25.479 22.373 25.479 12.286 0 22.373-11.451 22.373-25.48 0-14.03-10.087-25.481-22.373-25.481-12.286 0-22.373 11.452-22.373 25.482z"/></g></svg>