<svg xmlns="http://www.w3.org/2000/svg" height="800" width="1200" viewBox="-7.440195 -6.0875 64.48169 36.525"><path d="M11.0813 19.7475H7.91l-.2312.115L5.7 22.4738h-.175l-1.9787-2.6113-.2313-.115H.1438L0 19.8913v4.2725l.1438.1437h2.46l.1437-.1437v-2.0513l.0875-.0287 1.5975 2.1087.2325.115h1.8963l.2312-.115 1.5988-2.1087.0862.0287v2.0513l.145.1437h2.4588l.1437-.1437v-4.2725l-.1437-.1438m7.7825 2.4325h-2.23l-.0563-.1137.6838-.9038.2325-.1137h.5112l.2313.1137.685.9038-.0575.1137m1.1237-2.3187l-.2312-.1138h-4.0275l-.2313.1138-3.28 4.3287.0575.1138h2.6413l.2312-.115.4475-.59.2313-.1163H19.66l.2313.1163.4475.59.23.115H23.21l.0575-.1138m9.8488-4.4425h-8.4l-.2325.115-.3425.4512-.0863.2588v2.91l.0863.2587.3425.4513.2325.1138h8.4l.145-.1438v-1.24l-.145-.1437h-6.185l-.1438-.145V21.42l.1438-.1438h6.185l.145-.145v-1.24l-.145-.1437m7.9237 1.7788l.015-.1588 2.9437-1.5525-.0162-.0687h-3.6263l-.2712.0687-2.7263 1.4375-.1287-.0775v-1.2837l-.1425-.145h-2.46l-.145.145v4.2712l.145.145h2.46l.1425-.145V23.53l.1288-.2125 1.4687-.775.2387.025 2.015 1.6475.2563.0925h2.9563l.0324-.0925m1.1525-.7425v-.2437h.365l.1213.1212-.1213.1225zm.6225-.1225a.258.258 0 00-.2575-.2575h-.5025v.7675h.1375v-.2525h.28l.1938.2525h.1713l-.205-.2675c.1037-.0337.1825-.1262.1825-.2425" fill="#231f20"/><path d="M45.6863 24.215c-.4076 0-.7388-.3325-.7388-.7387a.7394.7394 0 01.7388-.7388c.4074 0 .74.3313.74.7388 0 .4062-.3325.7387-.74.7387m0-1.6137c-.4826 0-.8738.3925-.8738.875 0 .4812.3912.8737.8737.8737.4838 0 .875-.3925.875-.8737 0-.4825-.3912-.875-.875-.875M40.2413 5.8338H42.08l.12-.0863.3425-1.0475.12-.0862H44.07l.1763.035.4487.1875.1512-.0263 1.1975-1.1-.0162-.0962-1.3363-.5613-.0987-.125-.1863-1.1912.07-.055 1.335.56.07-.055-.2162-1.375.0487-.1563.2938-.3075-.0163-.1112-.38-.2213L45.4475 0l-1.8163.6575L43.46.6538l-.5363-.225-.1125.0512-.07.2175.0425.1425.2675.215.0075.1225-.1787.18-.1488.0288-.5512-.2313-.0563-.1225.2413-.74L42.31.17l-.3438-.1437-.1125.0512L41.52 1.095l-.005.175.2125.8125-.005.175-.7413 2.2688-.12.0875h-.4l-.1075.09-.1875 1.04.075.09" fill="#231f20"/><path d="M44.1275 4.9775h-1.2012l-.12.0863-.2226.6825.0626.0875h1.615l.0775-.0913-.1063-.675-.105-.09m2.0987-3.7087l.0938.0462.4-.2212.0212-.115-.3275-.4-.1212-.005-.0875.0912-.05.1563m.1587 1.0087l.09.575.0988.125.9888.415.1175.1213.1012.2587.125.08.2313-.0137.1187-.0925.3238-.9863-.045-.1425-.5275-.3962-.0826-.145-.0637-.615-.0887-.0475-1.3213.73-.0662.1337" fill="#231f20"/><path d="M49.5513 1.94L48.38 1.26l-.07.045.0213.2062.0812.1463.5813.445.0437.1425-.485 1.485-.12.0925-1.5787.0937L46.715 4l-.7762 1.2612.0362.1125.3525.1488.055.1212-.3337 1.0088-.1138.0512-.9275-.3887-.175-.035h-.3175l-.0775.09.3038 1.93.0937.135 1.3313.75-.0113.05-1.1637.0675-.1288.0887-1.1262 2.5525-.0588.1713-1.2162 5.185.0287.1637.2475.37-.04.075h-.26l-.1425-.075-.1962-.2925-.0325-.165 1.0575-5.1837-.0238-.1713-.5112-.995.0175-.1512 1.6762-1.9375.045-.16-.3787-2.4075-.105-.0913h-3.6025l-.0913.0925v.1213l-.0662.1537-5.8688 5.44-.1575.0625H33.29l-.1587.0613-.3938.3662-.02.1413.7238 1.2525.0162.1662-1.36 3.9075.0163.165.1375.235.1375.08h2.6775l.1087-.09.0588-.3025-.0363-.1637-.5637-.7738.0337-.0987 3.3788-1.0188.0212-.09-1.0087-.9875-.1438-.0175-2.9212 1.7513-.1225.1275-.5263.9687-.1337.08H32.99l-.055-.0825 1.1438-2.6075.1262-.0975 2.465-.4.105-.105.4175-2.5837-.0537-.1513-.515-.455-.0513-.15.06-.3037.085-.0288.905.8.0838.1513.6362 3.805.0575.0087.9163-1.7812.1325-.065 1.1037.1987.1263-.0675.3562-.8525.02-.1737-.7475-4.46.0413-.0175 1.6537 2.1387.02.1563-.6187 1.4775.0025.1675.57 1.2387.0212.1725-.8162 4.1988.0275.1687.1387.235.1363.08H44.13l.1188-.0875.1-.3075-.0288-.1587-1.0025-1.2488-.0187-.1537 1.22-2.5488.0512-.1737.2325-1.8813.0688-.1637 1.8137-2.2663.0563-.1625-.05-1.96-.0575-.165-.1575-.215-.0263-.16.345-1.0537-.0175-.1663-.2075-.365.0388-.115 2.23-.9862.1125-.1225.65-1.9888-.05-.1337" fill="#231f20"/></svg>