<svg xmlns="http://www.w3.org/2000/svg" height="800" width="1200" version="1.0" viewBox="-35.8443 -59.7325 310.6506 358.395"><path d="M0 0h238.962v238.93H0z" overflow="visible" fill="#22559e"/><path d="M59.771 160.013h119.552v19.398H59.771zm59.277-100.045h20.2l9.883 65.683 10.104-65.683h19.979v89.744H165.9V82.126l-11.22 67.586h-11.504L132.35 82.126v67.454h-13.302V59.968M91.364 88.464h13.651v-6.339c0-6.207 0-24.018-22.836-24.018-22.331 0-22.331 20.34-22.331 24.018v46.645c0 13.618 4.98 22.54 17.887 22.627 7.63.012 12.95-4.762 14.078-6.579v4.762l13.202.131v-48.626H83.537v10.794h7.827v14.21c0 7.203-2.255 12.106-8.966 12.106-6.722 0-8.856-5.221-8.856-12.107V82.125c0-3.569 0-11.713 8.856-11.713 8.966 0 8.966 8.276 8.966 11.713v6.339" overflow="visible" fill="#fff"/></svg>