<svg xmlns="http://www.w3.org/2000/svg" height="800" width="1200" viewBox="-7.637865 -13.229175 66.19483 79.37505"><path d="M23.6204 52.8857l-2.6499-.053-.495-1.1672c-.2721-.642-3.0361-7.0638-6.1422-14.271-3.106-7.207-6.0576-14.0587-6.559-15.2258-1.6345-3.805-4.4535-9.2865-5.7819-11.243-.2392-.3524-.7854-1.0345-1.2137-1.516L0 8.5343l12.1014-.0161c-.3297 1.0695-.3378 1.8296-.2799 2.7749.0713 1.1642.6179 3.4564 1.264 5.301.3655 1.0434 2.5298 6.1176 5.743 13.4643l.8054 1.8418-.4547.7577c-.6855 1.1424-1.023 1.9263-1.3086 3.039-.9956 3.8805.2922 8.0419 3.8581 12.4672.9448 1.1725 2.7604 3.066 3.8997 4.0668.4055.3563.7159.6613.6896.6779-.0261.0165-1.2401.0062-2.6976-.023z" fill="#8b8b8d"/><path d="M27.2597 51.8951c-3.4122-3.0853-5.888-6.4771-6.9738-9.5539-.6038-1.7111-.7006-2.2935-.6896-4.1509.0088-1.5175.0404-1.799.2952-2.6526.607-2.0334 1.5837-3.6563 3.242-5.388 2.6061-2.721 6.3913-5.0905 11.572-7.2436 4.8-1.9948 7.6416-3.8236 9.4782-6.0996 1.3384-1.6587 2.0731-3.581 2.117-5.539.0128-.5683.0472-1.0328.0762-1.0322.0292.0006.3673.4418.7513.9804 1.8563 2.6034 2.9305 4.8678 3.505 7.389.3103 1.3608.3782 3.5965.1535 5.0494-.5899 3.814-2.7657 7.5651-6.4953 11.1978-2.1491 2.0932-3.9522 3.5027-6.5321 5.1065-3.3902 2.1074-4.9879 3.2836-6.4539 4.7513-2.1987 2.2013-2.955 4.036-2.8327 6.8706.031.718.0173 1.3054-.0306 1.3054-.0478 0-.5799-.4458-1.1824-.9906zm5.935-30.5488c1.6247-1.6591 2.5144-2.8679 3.215-4.368 1.0616-2.2725 1.088-4.1594.0933-6.6562-1.2779-3.2076-.8105-6.0117 1.339-8.0329.945-.8888 1.6941-1.3332 2.996-1.7776.9357-.3194 2.5707-.6207 2.5663-.473-.001.0333-.198.2515-.438.4849-.6326.6155-1.0457 1.5388-1.0444 2.3343.0013 1.0729.3459 1.9414 1.3272 3.3499 1.2359 1.7739 1.782 3.2984 1.7838 4.9792.0025 2.1549-.8523 3.913-2.811 5.7842-2.0208 1.9304-4.837 3.5399-8.549 4.886-.714.2589-1.3299.4707-1.3687.4707-.0387 0 .362-.4417.8906-.9815z" fill="#c31e32"/></svg>