<svg xmlns="http://www.w3.org/2000/svg" height="800" width="1200" viewBox="-146.58195 -211.82775 1270.3769 1270.9665"><path d="M30.33 831.054l-8.029-24.19-7.896 24.19zm2.04 6.5H12.33l-2.89 8.914H.114l15.447-46.445h13.237l15.684 46.445h-9.151zm830.407-346.017h-13.799c-8.702 12.753-19.034 23.99-30.796 33.394-19.121 15.29-38.884 24.176-63.7 29.165l2.805 6.449c-.817.167-1.624.345-2.448.5-28.869 5.443-58.74 3.494-87.807-5.093-30.09-8.893-58.686-24.714-83.742-46.159a249.654 249.654 0 01-19.145-18.256h-18.877a262.356 262.356 0 0029.19 29.128c26.695 22.726 57.167 39.373 89.196 48.568 30.876 8.862 62.54 10.609 93.051 4.485 28.872-5.794 53.755-18.06 74.055-34.705 16.26-13.332 29.557-29.5 39.765-47.476z" fill="#1b2042"/><path d="M921.062 491.537c-2.513 8.22-5.397 16.297-8.746 24.152-12.138 28.456-29.85 54.531-52.926 76.082-22.322 20.848-49.725 37.476-81.765 47.751l-2.125-7.039c-3.536 1.136-5.526 2.106-9.154 3.076-19.376 5.18-39.565 7.808-60.007 7.808-19.62 0-39.605-2.42-59.4-7.194-17.81-4.294-35.41-10.522-52.48-18.473l-2.734 7.023c-23.692-10.991-46.31-25.264-67.205-42.52a327.984 327.984 0 01-76.158-90.666H429.52c21.166 39.913 50.118 75.117 84.632 103.443 38.061 31.237 81.523 53.019 126.877 63.534 43.099 9.994 86.673 9.516 127.87-2.056 38.234-10.74 70.43-29.952 96.042-54.466 23.777-22.755 41.935-50.128 54.295-79.874 4.122-9.919 7.6-20.138 10.452-30.581zM750.557 124.108c-20.967-11.482-43.915-19.965-68.144-24.325-25.307-4.556-49.945-4.25-73.002.511-24.294 5.016-46.957 15.008-66.685 29.53-11.07 8.15-21.171 17.763-30.115 28.652h23.064c5.84-6.157 12.051-11.783 18.561-16.7 17.964-13.573 38.462-22.924 60.925-27.8 7.377-1.602 14.963-2.64 22.64-3.226l-1.34-5.196c15.234-1.242 31.02-.575 47.129 2.213 23.184 4.014 45.18 12.02 65.297 22.943 14.342 7.787 27.886 17.162 40.38 27.766h9.344c-14.632-13.263-30.784-24.91-48.054-34.368" fill="#1b2042"/><path d="M829.207 137.943c-20.424-20.392-43.616-38.352-68.766-52.82-25.962-14.938-54.575-26.477-85.083-33.209-32.22-7.113-64.046-8.32-94.34-3.947-32.387 4.674-63.272 15.766-90.844 32.967-29.67 18.513-55.5 44.095-74.833 76.095-.288.476-.557.968-.843 1.448h16.029c17.83-28.947 41.274-52.353 68.178-69.599 26.248-16.824 55.768-27.794 86.83-32.578 11.969-1.84 24.204-2.754 36.62-2.746l1.507 5.276c17.046.118 34.428 2.037 51.698 5.739 24.973 5.353 49.337 14.304 72.57 26.599l1.604-5.135a302.01 302.01 0 019.377 5.133c24.425 13.946 46.958 31.318 66.798 51.088a328.479 328.479 0 0115.191 16.223h7.201c-6.046-7.112-12.335-13.985-18.894-20.534" fill="#1b2042"/><path d="M848.028 114.75c-23.544-23.77-50.263-44.941-79.298-62.328-30.13-18.043-63.524-32.465-99.43-41.631-38.294-9.775-76.595-12.86-113.587-9.455-40.077 3.688-79.035 15.032-114.609 33.955-38.913 20.7-73.833 50.497-101.104 88.943-7.646 10.776-14.653 22.209-20.962 34.243h25.906c4.773-8.771 9.907-17.198 15.323-25.054 24.186-35.07 55.293-63.249 92.455-83.795l-4.89-5.067c.67-.376 1.334-.767 2.008-1.136 34.103-18.67 71.597-30.02 110.298-33.927 35.804-3.614 72.969-.892 110.208 8.394 34.977 8.72 67.551 22.627 96.972 40.125 8.697 5.173 17.152 10.735 25.4 16.577l-3.015 6.245a386.219 386.219 0 0149.215 41.903c10.974 11.055 21.466 23.083 31.294 35.735h15.413c-11.567-15.49-24.14-30.14-37.597-43.727M185.08 821.97c-1.495.905-3.33 1.359-5.503 1.359h-10.89v-10.396h10.89c2.445 0 4.348.443 5.706 1.328 1.36.882 2.037 2.207 2.037 3.974 0 1.584-.748 2.829-2.24 3.736m7.404 12.025a32.888 32.888 0 00-2.58-2.244c1.855-.361 3.519-.986 4.991-1.868 1.471-.885 2.718-1.957 3.738-3.227a14.034 14.034 0 002.342-4.279c.545-1.586.817-3.263.817-5.028 0-3.262-.74-5.932-2.209-8.017a16.182 16.182 0 00-5.605-4.957c-2.264-1.223-4.778-2.073-7.54-2.547-2.762-.476-5.436-.716-8.016-.716H154.6v45.449h14.06v-.23h.027v-12.666h6.417l10.725 12.896h18.815l-8.354-8.833a233.496 233.496 0 00-3.805-3.733m52.997-4.246c-.501 1.516-1.309 2.705-2.425 3.566-1.12.858-2.579 1.437-4.383 1.733-1.8.293-4 .44-6.605.44-2.602 0-4.803-.147-6.605-.44-1.801-.296-3.263-.875-4.38-1.733-1.12-.861-1.926-2.05-2.427-3.567-.499-1.517-.753-3.499-.753-5.945 0-2.445.254-4.427.753-5.942.501-1.519 1.307-2.697 2.427-3.535 1.117-.838 2.579-1.404 4.38-1.698 1.802-.295 4.003-.44 6.605-.44 2.605 0 4.804.145 6.605.44 1.804.294 3.263.86 4.383 1.698 1.116.838 1.924 2.016 2.425 3.535.499 1.515.751 3.497.751 5.942 0 2.446-.252 4.428-.751 5.945m7.021-23.745c-4.55-3.758-11.363-5.638-20.434-5.638-9.106 0-15.928 1.88-20.465 5.638-4.534 3.762-6.8 9.694-6.8 17.8 0 8.152 2.257 14.108 6.774 17.866 4.517 3.76 11.348 5.64 20.49 5.64 9.11 0 15.929-1.88 20.465-5.64 4.533-3.758 6.801-9.714 6.801-17.866 0-8.106-2.277-14.038-6.83-17.8m-125.638 6.881h23.616c-2.21-10.4-13.781-11.82-13.781-11.82h-23.966v45.449h38.053v-11.687h-23.922v-6.182h23.922V818.32h-23.922zm247.189 16.78c-.504 1.524-1.315 2.721-2.439 3.587-1.129.861-2.587 1.441-4.399 1.738-1.811.3-4.02.442-6.635.442-2.62 0-4.83-.143-6.64-.442-1.806-.297-3.277-.877-4.397-1.738-1.124-.866-1.939-2.063-2.441-3.587-.503-1.52-.752-3.515-.752-5.968 0-2.46.25-4.447.752-5.97.502-1.523 1.317-2.713 2.44-3.555 1.12-.837 2.592-1.409 4.398-1.696 1.81-.302 4.02-.45 6.64-.45 2.616 0 4.824.148 6.635.45 1.812.287 3.27.859 4.399 1.696 1.124.842 1.935 2.032 2.44 3.554.5 1.524.754 3.512.754 5.97 0 2.454-.254 4.449-.755 5.969m7.055-23.85c-4.575-3.774-11.415-5.666-20.528-5.666-9.152 0-16.002 1.892-20.561 5.665-4.558 3.782-6.835 9.74-6.835 17.883 0 8.19 2.27 14.171 6.806 17.949 4.537 3.78 11.408 5.663 20.59 5.663 9.149 0 16.002-1.883 20.556-5.663 4.556-3.778 6.835-9.759 6.835-17.95 0-8.143-2.29-14.1-6.863-17.882m143.865 16.04c-1.503.913-3.34 1.366-5.522 1.366h-10.944v-10.44h10.944c2.451 0 4.363.445 5.725 1.327 1.372.886 2.047 2.22 2.047 3.993 0 1.593-.75 2.844-2.25 3.754m7.438 12.083a32.255 32.255 0 00-2.584-2.258c1.852-.368 3.524-.984 5.012-1.876 1.471-.887 2.729-1.965 3.75-3.24a13.994 13.994 0 002.354-4.306c.545-1.59.822-3.27.822-5.046 0-3.273-.737-5.954-2.22-8.056a16.245 16.245 0 00-5.633-4.976c-2.28-1.225-4.801-2.08-7.572-2.56-2.773-.479-5.464-.72-8.053-.72h-23.934v45.657h14.13v-.224h.024v-12.728h6.443l10.774 12.952h18.9l-8.384-8.871c-1.605-1.595-2.872-2.845-3.83-3.748M423.433 800.88h-34.812v11.78h16.166v33.803h14.149s.335-33.104.181-33.802h15.985s-1.346-10.967-11.669-11.782m-108.04-.099v8.413l-11.29 11.249-14.933-14.876-.001.02c-4.13-4.142-9.93-4.879-9.93-4.879v45.871h13.916v-20.142l11.125 10.659 11.113-10.835v20.394h13.929v-32.072c-.974-12.196-13.929-13.802-13.929-13.802m161.148 28.885c-.5 1.524-1.312 2.721-2.432 3.587-1.13.861-2.588 1.441-4.402 1.738-1.806.3-4.02.442-6.637.442-2.612 0-4.826-.143-6.637-.442-1.804-.297-3.277-.877-4.4-1.738-1.12-.866-1.934-2.063-2.442-3.587-.502-1.52-.751-3.515-.751-5.968 0-2.46.249-4.447.751-5.97.508-1.523 1.321-2.713 2.441-3.555 1.124-.837 2.597-1.409 4.4-1.696 1.812-.302 4.026-.45 6.638-.45 2.617 0 4.83.148 6.637.45 1.814.287 3.271.859 4.402 1.696 1.12.842 1.933 2.032 2.432 3.554.504 1.524.762 3.512.762 5.97 0 2.454-.258 4.449-.762 5.969m7.06-23.85c-4.577-3.774-11.42-5.666-20.531-5.666-9.149 0-16 1.892-20.562 5.665-4.554 3.782-6.827 9.74-6.827 17.883 0 8.19 2.264 14.171 6.804 17.949 4.537 3.78 11.405 5.663 20.585 5.663 9.148 0 16.002-1.883 20.558-5.663 4.559-3.778 6.836-9.759 6.836-17.95 0-8.143-2.288-14.1-6.863-17.882m108.389 16.332c-3.173-2.065-7.819-3.095-13.921-3.095h-11.837c-1.79 0-3.116-.246-3.986-.717-.866-.48-1.298-1.305-1.298-2.486 0-1.184.432-1.999 1.298-2.452.87-.452 2.196-.684 3.986-.684l27.229-.062s-1.346-10.965-11.669-11.78h-14.37c-3.768 0-7.006.339-9.712 1.021-2.709.681-4.915 1.632-6.628 2.861-1.71 1.22-2.979 2.714-3.794 4.459-.818 1.746-1.233 3.688-1.233 5.822 0 1.952.374 3.734 1.119 5.34.746 1.614 1.883 2.986 3.423 4.122 1.538 1.132 3.473 2.02 5.808 2.653 2.333.635 5.115.952 8.339.952h11.834c1.835 0 3.173.254 4.022.753.841.5 1.263 1.335 1.263 2.519 0 1.176-.422 2.03-1.263 2.552-.849.52-2.187.785-4.022.785l-28.263-.002v11.71h27.073c3.774 0 7.007-.34 9.715-1.02 2.707-.684 4.93-1.661 6.661-2.93 1.74-1.273 3.007-2.834 3.8-4.702.796-1.857 1.193-3.942 1.193-6.254 0-4.183-1.59-7.3-4.767-9.365m337.697-21.465l-17.034 28.41v17.54h-8.716v-17.54l-16.563-28.41h10.099l10.804 19.557h.237l10.94-19.557zm-44.772 0v45.95h-14.777l-19.122-38.408h-.335l.302 38.407h-8.717v-45.949h14.777l19.12 38.309h.304l-.27-38.309zm-57.868 30.7l-7.944-23.934-7.81 23.934zm2.02 6.43H809.24l-2.86 8.82h-9.226l15.284-45.95h13.094l15.517 45.95h-9.055zm-55.752-13.363h9.933c3.948 0 6.456-.454 7.523-1.364 1.065-.908 1.6-3.056 1.6-6.446 0-3.882-.445-6.29-1.33-7.22-.888-.932-3.195-1.4-6.92-1.4h-10.806zm-8.718 22.182v-45.949h20.805c6.215 0 10.406 1.083 12.572 3.247 2.166 2.168 3.25 6.346 3.25 12.54 0 6.152-1.033 10.234-3.099 12.255-2.063 2.02-6.24 3.028-12.522 3.028l-2.02.034h-10.268v14.845zm-5.32-45.949v45.95h-8.72l.505-38.678h-.27l-14.337 38.677h-7.947l-14.509-38.442h-.268l.538 38.442h-8.718v-45.949h14.207l12.487 34h.303l12.22-34zm-78.637 7.07c-5.857 0-9.28.75-10.268 2.254-.986 1.504-1.482 6.712-1.482 15.62 0 6.597.579 10.57 1.734 11.918 1.157 1.344 4.563 2.02 10.219 2.02 5.406 0 8.65-.759 9.729-2.274 1.075-1.513 1.615-6.11 1.615-13.785 0-7.697-.511-12.245-1.532-13.65-1.023-1.402-4.359-2.104-10.015-2.104m.674-7.474c8.348 0 13.722 1.386 16.122 4.159 2.402 2.772 3.603 8.97 3.603 18.598 0 10.524-1.206 17.158-3.619 19.895-2.413 2.737-8.252 4.108-17.52 4.108-8.348 0-13.747-1.353-16.193-4.059-2.447-2.703-3.667-8.656-3.667-17.857 0-10.951 1.197-17.828 3.601-20.634 2.399-2.806 8.29-4.21 17.673-4.21m-33.328 29.96h8.754v1.584c0 6.394-1.17 10.53-3.503 12.404-2.335 1.873-7.494 2.812-15.484 2.812-9.067 0-14.642-1.482-16.729-4.445-2.088-2.961-3.132-10.882-3.132-23.766 0-7.584 1.414-12.572 4.242-14.964 2.827-2.39 8.74-3.585 17.74-3.585 6.553 0 10.93.984 13.128 2.947 2.2 1.965 3.299 5.863 3.299 11.697l.033 1.044h-8.751v-1.178c0-3.007-.568-4.931-1.7-5.774-1.133-.84-3.719-1.262-7.76-1.262-5.409 0-8.657.662-9.746 1.986-1.086 1.327-1.631 5.253-1.631 11.782 0 8.798.488 14.004 1.464 15.62.975 1.615 4.134 2.425 9.476 2.425 4.33 0 7.142-.45 8.433-1.35 1.289-.895 1.934-2.869 1.934-5.924z" fill="#1b2042"/><path d="M284.452 469.649H198.07v-173.54l-.03-27.327c0-45.416 36.818-82.236 82.236-82.236h4.148z" fill="#d11d24"/><path d="M86.696 186.699h-4.147c-45.419 0-82.237 36.82-82.237 82.235L0 469.648h86.384V360.705h47.088c35.676 0 64.598-28.922 64.598-64.597H86.384z" fill="#d11d24"/><path d="M108.502 846.513h-13.81V818.77l-.004-4.369c0-7.26 5.886-13.146 13.145-13.146h.664z" fill="#1b2042"/><path d="M76.888 801.28h-.663c-7.261 0-13.147 5.886-13.147 13.147l-.05 32.086h13.81v-17.415h7.528c5.702 0 10.327-4.625 10.327-10.327H76.839z" fill="#1b2042"/><path d="M397.196 469.649v-121.19c22.786 22.782 44.531 44.526 66.043 66.036l65.517-64.058v119.212h86.402V186.546c-24.74 4.458-46.14 14.686-63.73 32.375-24.12 24.256-82.582 84.408-87.833 90.084-1.42-1.24-55.728-55.737-82.263-82.955-11.648-11.946-24.003-22.744-39.28-29.67-10.083-4.571-20.467-8.16-31.899-9.744-.08 1.823-.168 180.309-.279 283.013zm532.491-72.51c-48.227.018-100.95-.005-123.51-.051-12.565-.025-24.881-1.843-36.769-6.198-18.326-6.713-32.987-17.896-40.77-36.33-12.99-30.77-.943-64.77 28.546-82.141 14.875-8.762 31.125-12.3 48.159-12.343 39.257-.1 78.515-.032 117.774-.032h6.57c-15.2-24.52-29.765-48.088-44.492-71.55-.717-1.143-2.867-1.948-4.347-1.942-30.38.098-60.773-.141-91.136.695-27.517.758-53.93 7.365-78.337 20.362-42.894 22.84-69.782 57.459-73.853 107.483-3.478 42.721 11.16 78.989 41.726 108.187 33.726 32.215 75.343 45.47 120.844 46.444 24.188.517 79.484.498 129.595.39z" fill="#d11d24"/><path d="M962.732 342.947c-2.877-10.113-6.175-19.997-9.78-29.687h-12.688l.677 1.824c3.737 10.072 6.848 19.572 9.51 29.041 9.527 33.897 14.025 68.232 13.367 102.044a329.001 329.001 0 01-2.088 31.068h6.86c-2.837 25.611-8.63 50.697-17.395 74.611-13.171 35.941-33.18 69.672-60.032 98.465-29.324 31.442-66.93 57.12-112.429 72.906-49.797 17.275-103.298 20.778-156.848 10.806-21.025-3.915-41.772-9.866-62.004-17.72l2.5-6.745c-34.129-13.243-66.814-32.015-96.563-55.66-48.767-38.759-87.964-89.124-113.355-145.655-2.372-5.28-4.714-10.909-6.994-16.72l-27.89.012c3.354 9.38 7.032 18.678 11.113 27.855 27.212 61.171 69.036 114.386 120.82 155.24 50.533 39.862 108.244 66.123 168 76.637 55.953 9.843 111.701 5.512 163.41-13.198 47.08-17.032 85.834-44.248 115.918-77.293 27.468-30.173 47.825-65.329 61.123-102.634 12.292-34.477 18.703-71.192 19.216-108.37.482-34.966-4.242-70.939-14.448-106.827" fill="#1b2042"/></svg>