<svg xmlns="http://www.w3.org/2000/svg" height="800" width="1200" viewBox="-38.322 -35.37075 332.124 212.2245"><path d="M138.42 102.465l25.278 38.84h-20.654l-2.813-4.347h-24.894l-2.815 4.348h-20.65l25.277-38.841h21.27" fill="none" stroke="#161413" stroke-width=".354"/><path d="M14.203 141.306a115.436 115.436 0 01-.795-13.566c0-63.147 51.191-114.333 114.335-114.333 63.143 0 114.331 51.186 114.331 114.333 0 4.59-.27 9.117-.796 13.566h13.313c.47-4.454.712-8.99.712-13.566 0-70.45-57.112-127.563-127.56-127.563C57.29.177.177 57.29.177 127.74c0 4.574.242 9.121.713 13.566h13.313" fill="#161413"/><path d="M14.203 141.306l-.595-6.73-.2-6.836.148-5.884.441-5.807.728-5.722 1.005-5.63 1.277-5.532 1.54-5.425 1.798-5.313 2.047-5.192 2.29-5.065 2.525-4.93 2.753-4.788 2.974-4.638 3.188-4.483 3.394-4.319 3.594-4.148 3.786-3.971 3.97-3.786 4.149-3.594 4.32-3.394 4.483-3.187 4.638-2.974 4.788-2.753 4.93-2.525 5.065-2.289 5.192-2.048 5.312-1.797 5.426-1.54 5.531-1.277 5.631-1.006 5.722-.727 5.806-.44 5.884-.15 5.883.15 5.807.44 5.721.727 5.63 1.006 5.531 1.276 5.426 1.541 5.313 1.797 5.191 2.048 5.065 2.29 4.93 2.524 4.787 2.753 4.64 2.974 4.481 3.187 4.32 3.394 4.148 3.594 3.971 3.786 3.785 3.97 3.594 4.15 3.394 4.318 3.188 4.483 2.973 4.638 2.753 4.789 2.526 4.93 2.29 5.064 2.046 5.192 1.798 5.313 1.541 5.425 1.276 5.532 1.006 5.63.726 5.722.442 5.807.15 5.884-.203 6.835-.594 6.731h13.313l.712-13.566-.166-6.565-.494-6.478-.81-6.384-1.122-6.282-1.425-6.171-1.719-6.054-2.006-5.927-2.283-5.793-2.554-5.65-2.818-5.5-3.07-5.343-3.319-5.175-3.557-5.002-3.786-4.818-4.01-4.629-4.224-4.43-4.429-4.224-4.629-4.009-4.819-3.787-5-3.557-5.176-3.317-5.342-3.072-5.5-2.817-5.65-2.554-5.793-2.285-5.927-2.006-6.054-1.718-6.17-1.425-6.282-1.121-6.384-.812-6.478-.493-6.564-.165-6.565.165-6.478.493-6.385.812-6.282 1.12-6.171 1.426-6.053 1.718-5.928 2.006-5.793 2.285-5.65 2.554-5.501 2.817-5.342 3.072-5.176 3.317-5 3.557-4.82 3.787-4.629 4.009-4.43 4.224-4.224 4.43-4.009 4.629-3.787 4.818-3.557 5.002-3.318 5.175-3.071 5.343-2.818 5.5-2.555 5.65-2.284 5.793-2.006 5.927-1.718 6.054-1.425 6.171-1.121 6.282-.812 6.384-.493 6.478-.165 6.565.18 6.831.533 6.735h13.313" fill="none" stroke="#161413" stroke-width=".354"/><path d="M122.04 2.354v.25h-4v.25h-3.25v.25h-2v.25h-2v.25h-1.75v.25h-1.5v.25h-1.5v.25h-1.5v.25h-1.25v.25h-1.25v.25h-1.25v.25h-1v.25h-1v.25h-1.25v.25h-1v.25h-1v.25h-.75v.25h-1v.25h-.75v.25h-1v.25h-.75v.25h-1v.25h-.75v.25h-.75v.25h-.75v.25h-.75v.25h-.75v.25h-.75v.25h-.75v.25h-.5v.25h-.75v.25h-.5v.25h-.75v.25h-.75v.25h-.5v.25h-.75v.25h-.5v.25h-.75v.25h-.5v.25h-.5v.25h-.75v.25h-.5v.25h-.5v.25h-.5v.25h-.5v.25h-.75v.25h-.5v.25h-.5v.25h-.5v.25h-.5v.25h-.5v.25h-.5v.25h-.5v.25h-.5v.25h-.5v.25h-.5v.25h-.5v.25h-.5v.25h-.5v.25h-.5v.25h-.25v.25h-.5v.25h-.5v.25h-.5v.25h-.25v.25h-.5v.25h-.5v.25h-.5v.25h-.25v.25h-.5v.25h-.5v.25h-.5v.25h-.25v.25h-.5v.25h-.25v.25h-.5v.25h-.25v.25h-.5v.25h-.25v.25h-.5v.25h-.5v.25h-.25v.25h-.5v.25h-.25v.25h-.5v.25h-.25v.25h-.5v.25h-.25v.25h-.25v.25h-.5v.25h-.25v.25h-.5v.25h-.25v.25h-.25v.25h-.5v.25h-.25v.25h-.5v.25h-.25v.25h-.5v.25h-.25v.25h-.25v.25h-.25v.25h-.5v.25h-.25v.25h-.25v.25h-.25v.25h-.5v.25h-.25v.25h-.25v.25h-.5v.25h-.25v.25h-.25v.25h-.25v.25h-.5v.25h-.25v.25h-.25v.25h-.25v.25h-.25v.25h-.25v.25h-.5v.25h-.25v.25h-.25v.25h-.25v.25h-.25v.25h-.25v.25h-.25v.25h-.5v.25h-.25v.25h-.25v.25h-.25v.25h-.25v.25h-.25v.25h-.25v.25h-.25v.25h-.25v.25h-.25v.25h-.25v.25h-.25v.25h-.25v.25h-.5v.25h-.25v.25h-.25v.25h-.25v.25h-.25v.25h-.25v.25h-.25v.25h-.25v.25h-.25v.25h-.25v.25h-.25v.25h-.25v.25h-.25v.25h-.25v.5h-.25v.25h-.25v.25h-.25v.25h-.25v.25h-.25v.25h-.25v.25h-.25v.25h-.25v.25h-.25v.25h-.25v.25h-.25v.25h-.25v.25h-.25v.5h-.25v.25h-.25v.25h-.25v.25h-.25v.25h-.25v.25h-.25v.5h-.25v.25h-.25v.25h-.25v.25h-.25v.25h-.25v.25h-.25v.25h-.25v.5h-.25v.25h-.25v.25h-.25v.5h-.25v.25h-.25v.25h-.25v.25h-.25v.5h-.25v.25h-.25v.25h-.25v.25h-.25v.5h-.25v.25h-.25v.25h-.25v.5h-.25v.25h-.25v.25h-.25v.5h-.25v.25h-.25v.5h-.25v.25h-.25v.25h-.25v.5h-.25v.25h-.25v.5h-.25v.25h-.25v.25h-.25v.5h-.25v.25h-.25v.5h-.25v.25h-.25v.5h-.25v.5h-.25v.25h-.25v.5h-.25v.25h-.25v.5h-.25v.25h-.25v.5h-.25v.25h-.25v.5h-.25v.5h-.25v.25h-.25v.5h-.25v.5h-.25v.5h-.25v.25h-.25v.5h-.25v.5h-.25v.5h-.25v.25h-.25v.5h-.25v.5h-.25v.5h-.25v.25h-.25v.5h-.25v.5h-.25v.5h-.25v.5h-.25v.5h-.25v.5h-.25v.5h-.25v.5h-.25v.5h-.25v.5h-.25v.5h-.25v.5h-.25v.75h-.25v.5h-.25v.5h-.25v.5h-.25v.75h-.25v.5h-.25v.5h-.25v.5h-.25v.75h-.25v.5h-.25v.75h-.25v.5h-.25v.75h-.25v.5h-.25v.75h-.25v.5h-.25v.75h-.25v.75h-.25v.75h-.25v.75h-.25v.75h-.25v.75h-.25v.75h-.25v.75h-.25v.75h-.25v.75h-.25v1h-.25v.75h-.25v1h-.25v.75h-.25v1h-.25v1h-.25v1h-.25v1.25h-.25v1h-.25v1h-.25v1.25h-.25v1.25h-.25v1.5h-.25v1.25h-.25v1.5h-.25v1.75h-.25v1.75h-.25v2h-.25v2.5h-.25v3.25h-.25v5.5h-.25v5h.25v5.5h.25v4h9v-2.75h-.25v-5.25h-.25v-9.5h.25v-3.25h.25v-3h.25v-2h.25v-2h.25v-1.75h.25v-1.25h.25v-1.5h.25v-1.25h.25v-1.5h.25v-1h.25v-1.25h.25v-1h.25v-1h.25v-1.25h.25v-.75h.25v-1h.25v-.75h.25v-1h.25v-.75h.25v-1h.25v-.75h.25v-.75h.25v-.75h.25v-.75h.25v-.75h.25v-.75h.25v-.5h.25v-.75h.25v-.75h.25v-.5h.25v-.75h.25v-.5h.25v-.75h.25v-.75h.25v-.5h.25v-.75h.25v-.5h.25v-.5h.25v-.5h.25v-.5h.25v-.75h.25v-.5h.25v-.5h.25v-.5h.25v-.5h.25v-.75h.25v-.25h.25v-.5h.25v-.5h.25v-.5h.25v-.5h.25v-.5h.25v-.5h.25v-.5h.25v-.5h.25v-.5h.25v-.5h.25v-.25h.25v-.5h.25v-.5h.25v-.5h.25v-.25h.25v-.5h.25v-.5h.25v-.5h.25v-.25h.25v-.5h.25v-.5h.25v-.25h.25v-.5h.25v-.25h.25v-.5h.25v-.25h.25v-.5h.25v-.5h.25v-.25h.25v-.5h.25v-.25h.25v-.5h.25v-.25h.25v-.5h.25v-.25h.25v-.25h.25v-.5h.25v-.25h.25v-.5h.25v-.25h.25v-.25h.25v-.5h.25v-.25h.25v-.5h.25v-.25h.25v-.25h.25v-.5h.25v-.25h.25v-.25h.25v-.25h.25v-.5h.25v-.25h.25v-.25h.25v-.5h.25v-.25h.25v-.25h.25v-.25h.25v-.5h.25v-.25h.25v-.25h.25v-.25h.25v-.25h.25v-.25h.25v-.5h.25v-.25h.25v-.25h.25v-.25h.25v-.25h.25v-.25h.25v-.5h.25v-.25h.25v-.25h.25v-.25h.25v-.25h.25v-.25h.25v-.25h.25v-.25h.25v-.25h.25v-.25h.25v-.25h.25v-.25h.25v-.5h.25v-.25h.25v-.25h.25v-.25h.25v-.25h.25v-.25h.25v-.25h.25v-.25h.25v-.25h.25v-.25h.25v-.25h.25v-.25h.25v-.25h.25v-.25h.25v-.25h.5v-.25h.25v-.25h.25v-.25h.25v-.25h.25v-.25h.25v-.25h.25v-.25h.25v-.25h.25v-.25h.25v-.25h.25v-.25h.25v-.25h.5v-.25h.25v-.25h.25v-.25h.25v-.25h.25v-.25h.25v-.25h.25v-.25h.5v-.25h.25v-.25h.25v-.25h.25v-.25h.25v-.25h.5v-.25h.25v-.25h.25v-.25h.25v-.25h.5v-.25h.25v-.25h.25v-.25h.5v-.25h.25v-.25h.25v-.25h.25v-.25h.5v-.25h.25v-.25h.25v-.25h.5v-.25h.25v-.25h.25v-.25h.5v-.25h.25v-.25h.5v-.25h.25v-.25h.25v-.25h.5v-.25h.25v-.25h.5v-.25h.25v-.25h.5v-.25h.25v-.25h.5v-.25h.25v-.25h.5v-.25h.25v-.25h.5v-.25h.5v-.25h.25v-.25h.5v-.25h.25v-.25h.5v-.25h.25v-.25h.5v-.25h.5v-.25h.5v-.25h.25v-.25h.5v-.25h.5v-.25h.5v-.25h.25v-.25h.5v-.25h.5v-.25h.5v-.25h.5v-.25h.5v-.25h.5v-.25h.25v-.25h.5v-.25h.5v-.25h.5v-.25h.5v-.25h.5v-.25h.5v-.25h.5v-.25h.75v-.25h.5v-.25h.5v-.25h.5v-.25h.5v-.25h.75v-.25h.5v-.25h.5v-.25h.75v-.25h.5v-.25h.75v-.25h.5v-.25h.75v-.25h.5v-.25h.75v-.25h.5v-.25h.75v-.25h.75v-.25h.75v-.25h.75v-.25h.75v-.25h.75v-.25h.75v-.25h.75v-.25h.75v-.25h1v-.25h.75v-.25h1v-.25h.75v-.25h1v-.25h1v-.25h1v-.25h1.25v-.25h1v-.25h1v-.25h1.25v-.25h1.5v-.25h1.5v-.25h1.25v-.25h1.75v-.25h2v-.25h1.75v-.25h2.75v-.25h3.25v-.25h14v.25h3.25v.25h2.5v.25h2v.25h2v.25h1.75v.25h1.25v.25h1.5v.25h1.25v.25h1.25v.25h1.25v.25h1v.25h1v.25h1.25v.25h1v.25h.75v.25h1v.25h.75v.25h1v.25h.75v.25h1v.25h.75v.25h.75v.25h.75v.25h.75v.25h.75v.25h.75v.25h.75v.25h.5v.25h.75v.25h.5v.25h.75v.25h.5v.25h.75v.25h.75v.25h.5v.25h.75v.25h.5v.25h.5v.25h.5v.25h.5v.25h.75v.25h.5v.25h.5v.25h.5v.25h.5v.25h.5v.25h.5v.25h.5v.25h.5v.25h.5v.25h.5v.25h.5v.25h.5v.25h.5v.25h.5v.25h.5v.25h.5v.25h.25v.25h.5v.25h.5v.25h.25v.25h.5v.25h.5v.25h.5v.25h.25v.25h.5v.25h.5v.25h.25v.25h.5v.25h.5v.25h.25v.25h.5v.25h.25v.25h.5v.25h.25v.25h.5v.25h.25v.25h.5v.25h.5v.25h.25v.25h.25v.25h.5v.25h.25v.25h.5v.25h.25v.25h.25v.25h.5v.25h.25v.25h.5v.25h.25v.25h.25v.25h.5v.25h.25v.25h.25v.25h.5v.25h.25v.25h.25v.25h.25v.25h.5v.25h.25v.25h.25v.25h.25v.25h.5v.25h.25v.25h.25v.25h.5v.25h.25v.25h.25v.25h.25v.25h.25v.25h.25v.25h.25v.25h.5v.25h.25v.25h.25v.25h.25v.25h.25v.25h.25v.25h.5v.25h.25v.25h.25v.25h.25v.25h.25v.25h.25v.25h.25v.25h.25v.25h.25v.25h.25v.25h.25v.25h.25v.25h.25v.25h.25v.25h.25v.25h.25v.25h.25v.25h.25v.25h.25v.25h.25v.25h.25v.25h.25v.25h.25v.25h.25v.25h.25v.25h.25v.25h.25v.25h.25v.25h.25v.25h.25v.25h.25v.25h.25v.25h.25v.25h.25v.25h.25v.5h.25v.25h.25v.25h.25v.25h.25v.25h.25v.25h.25v.5h.25v.25h.25v.25h.25v.25h.25v.25h.25v.25h.25v.25h.25v.5h.25v.25h.25v.25h.25v.25h.25v.5h.25v.25h.25v.25h.25v.5h.25v.25h.25v.25h.25v.25h.25v.5h.25v.25h.25v.25h.25v.25h.25v.5h.25v.25h.25v.5h.25v.25h.25v.5h.25v.25h.25v.25h.25v.5h.25v.25h.25v.5h.25v.25h.25v.25h.25v.5h.25v.25h.25v.5h.25v.5h.25v.25h.25v.5h.25v.25h.25v.5h.25v.25h.25v.5h.25v.25h.25v.5h.25v.5h.25v.25h.25v.5h.25v.5h.25v.5h.25v.25h.25v.5h.25v.5h.25v.5h.25v.25h.25v.5h.25v.5h.25v.5h.25v.5h.25v.5h.25v.5h.25v.25h.25v.5h.25v.5h.25v.5h.25v.5h.25v.5h.25v.5h.25v.75h.25v.5h.25v.5h.25v.5h.25v.5h.25v.75h.25v.5h.25v.5h.25v.5h.25v.75h.25v.5h.25v.75h.25v.75h.25v.5h.25v.75h.25v.5h.25v.75h.25v.75h.25v.75h.25v.75h.25v.75h.25v.5h.25v.75h.25v.75h.25v1h.25v.75h.25v1h.25v.75h.25v1h.25v.75h.25v1h.25v1.25h.25v1h.25v1h.25v1.25h.25v1h.25v1.5h.25v1.25h.25v1.5h.25v1.5h.25v2h.25v1.75h.25v2.25h.25v3.25h.25v5.5h.25v4h-.25v5.25h-.25v4.75h8.75v-.5h.25v-5.5h.25v-12.75h-.25v-3.25h-.25v-3h-.25v-2h-.25v-1.75h-.25v-2h-.25v-1.5h-.25v-1.25h-.25v-1.5h-.25v-1.25h-.25v-1.25h-.25v-1h-.25v-1.25h-.25v-1h-.25v-1h-.25v-1.25h-.25v-.75h-.25v-1h-.25v-.75h-.25v-1h-.25v-.75h-.25v-1h-.25v-.75h-.25v-.75h-.25v-.75h-.25v-.75h-.25v-.75h-.25v-.75h-.25v-.75h-.25v-.75h-.25v-.75h-.25v-.5h-.25v-.75h-.25v-.5h-.25v-.75h-.25v-.5h-.25v-.75h-.25v-.5h-.25v-.75h-.25v-.5h-.25v-.5h-.25v-.75h-.25v-.5h-.25v-.5h-.25v-.5h-.25v-.5h-.25v-.75h-.25v-.5h-.25v-.5h-.25v-.5h-.25v-.5h-.25v-.5h-.25v-.5h-.25v-.5h-.25v-.5h-.25v-.5h-.25v-.5h-.25v-.5h-.25v-.5h-.25v-.5h-.25v-.5h-.25v-.25h-.25v-.5h-.25v-.5h-.25v-.5h-.25v-.25h-.25v-.5h-.25v-.5h-.25v-.25h-.25v-.5h-.25v-.5h-.25v-.5h-.25v-.25h-.25v-.5h-.25v-.25h-.25v-.5h-.25v-.5h-.25v-.25h-.25v-.5h-.25v-.25h-.25v-.5h-.25v-.25h-.25v-.5h-.25v-.5h-.25v-.25h-.25v-.5h-.25v-.25h-.25v-.25h-.25v-.5h-.25v-.25h-.25v-.5h-.25v-.25h-.25v-.25h-.25v-.5h-.25v-.25h-.25v-.5h-.25v-.25h-.25v-.25h-.25v-.5h-.25v-.25h-.25v-.5h-.25v-.25h-.25v-.25h-.25v-.25h-.25v-.5h-.25v-.25h-.25v-.25h-.25v-.25h-.25v-.5h-.25v-.25h-.25v-.25h-.25v-.5h-.25v-.25h-.25v-.25h-.25v-.25h-.25v-.25h-.25v-.5h-.25v-.25h-.25v-.25h-.25v-.25h-.25v-.25h-.25v-.25h-.25v-.5h-.25v-.25h-.25v-.25h-.25v-.25h-.25v-.25h-.25v-.25h-.25v-.25h-.25v-.5h-.25v-.25h-.25v-.25h-.25v-.25h-.25v-.25h-.25v-.25h-.25v-.25h-.25v-.25h-.25v-.25h-.25v-.25h-.25v-.25h-.25v-.25h-.25v-.25h-.25v-.25h-.25v-.25h-.25v-.25h-.25v-.25h-.25v-.25h-.25v-.25h-.25v-.25h-.25v-.25h-.25v-.25h-.25v-.25h-.25v-.25h-.25v-.25h-.25v-.25h-.25v-.25h-.25v-.25h-.25v-.25h-.25v-.25h-.25v-.25h-.25v-.25h-.25v-.25h-.25v-.25h-.25v-.25h-.25v-.25h-.5v-.25h-.25v-.25h-.25v-.25h-.25v-.25h-.25v-.25h-.25v-.25h-.5v-.25h-.25v-.25h-.25v-.25h-.25v-.25h-.25v-.25h-.25v-.25h-.25v-.25h-.5v-.25h-.25v-.25h-.25v-.25h-.25v-.25h-.5v-.25h-.25v-.25h-.25v-.25h-.25v-.25h-.5v-.25h-.25v-.25h-.25v-.25h-.25v-.25h-.5v-.25h-.25v-.25h-.25v-.25h-.5v-.25h-.25v-.25h-.25v-.25h-.5v-.25h-.25v-.25h-.25v-.25h-.5v-.25h-.25v-.25h-.5v-.25h-.25v-.25h-.5v-.25h-.25v-.25h-.25v-.25h-.5v-.25h-.25v-.25h-.5v-.25h-.25v-.25h-.5v-.25h-.25v-.25h-.5v-.25h-.25v-.25h-.5v-.25h-.25v-.25h-.5v-.25h-.5v-.25h-.25v-.25h-.5v-.25h-.25v-.25h-.5v-.25h-.5v-.25h-.25v-.25h-.5v-.25h-.5v-.25h-.5v-.25h-.25v-.25h-.5v-.25h-.5v-.25h-.25v-.25h-.5v-.25h-.5v-.25h-.5v-.25h-.5v-.25h-.5v-.25h-.5v-.25h-.25v-.25h-.5v-.25h-.5v-.25h-.5v-.25h-.5v-.25h-.5v-.25h-.5v-.25h-.5v-.25h-.5v-.25h-.75v-.25h-.5v-.25h-.5v-.25h-.5v-.25h-.5v-.25h-.75v-.25h-.5v-.25h-.5v-.25h-.5v-.25h-.75v-.25h-.5v-.25h-.75v-.25h-.5v-.25h-.75v-.25h-.5v-.25h-.75v-.25h-.5v-.25h-.75v-.25h-.75v-.25h-.75v-.25h-.75v-.25h-.75v-.25h-.75v-.25h-.75v-.25h-.75v-.25h-.75v-.25h-.75v-.25h-1v-.25h-.75v-.25h-1v-.25h-.75v-.25h-1v-.25h-.75v-.25h-1.25v-.25h-1v-.25h-1v-.25h-1.25v-.25h-1v-.25h-1.25v-.25h-1.5v-.25h-1.25v-.25h-1.5v-.25h-1.5v-.25h-2v-.25h-2v-.25h-2v-.25h-3.25v-.25h-3.75v-.25h-11.5z" fill="#858788"/><path d="M56.096 115.74l13.245-13.246h18.785v38.812H68.108v-15.4l-12.012 12.01-12.01-12.01v15.4H24.058v-38.812h18.794l13.243 13.246" fill="#161413"/><path d="M56.096 115.74l13.245-13.246h18.785v38.812H68.108v-15.4l-12.012 12.01-12.01-12.01v15.4H24.058v-38.812h18.794l13.243 13.246" fill="none" stroke="#161413" stroke-width=".354"/><path d="M26.29 104.604v34.5h15.5v-18.25h.25v.25h.25v.25h.25v.25h.25v.25h.25v.25h.25v.25h.25v.25h.25v.25h.25v.25h.25v.25h.25v.25h.25v.25h.25v.25h.25v.25h.25v.25h.25v.25h.25v.25h.25v.25h.25v.25h.25v.25h.25v.25h.25v.25h.25v.25h.25v.25h.25v.25h.25v.25h.25v.25h.25v.25h.25v.25h.25v.25h.25v.25h.25v.25h.25v.25h.25v.25h.25v.25h.25v.25h.25v.25h.25v.25h.25v.25h.25v.25h.25v.25h.25v.25h.25v.25h.25v.25h.25v.25h.25v.25h.25v.25h.25v.25h.25v.25h.25v.25h.25v.25h.25v.25h.25v.25h.25v.25h.25v.25h.25v.25h.5v-.25h.25v-.25h.25v-.25h.25v-.25h.25v-.25h.25v-.25h.25v-.25h.25v-.25h.25v-.25h.25v-.25h.25v-.25h.25v-.25h.25v-.25h.25v-.25h.25v-.25h.25v-.25h.25v-.25h.25v-.25h.25v-.25h.25v-.25h.25v-.25h.25v-.25h.25v-.25h.25v-.25h.25v-.25h.25v-.25h.25v-.25h.25v-.25h.25v-.25h.25v-.25h.25v-.25h.25v-.25h.25v-.25h.25v-.25h.25v-.25h.25v-.25h.25v-.25h.25v-.25h.25v-.25h.25v-.25h.25v-.25h.25v-.25h.25v-.25h.25v-.25h.25v-.25h.25v-.25h.25v-.25h.25v-.25h.25v-.25h.25v-.25h.25v-.25h.25v-.25h.25v-.25h.25v-.25h.25v-.25h.25v-.25h.25v18.25h15.75v-34.5h-16v.25h-.25v.25h-.25v.25h-.25v.25h-.25v.25h-.25v.25h-.25v.25h-.25v.25h-.25v.25h-.25v.25h-.25v.25h-.25v.25h-.25v.25h-.25v.25h-.25v.25h-.25v.25h-.25v.25h-.25v.25h-.25v.25h-.25v.25h-.25v.25h-.25v.25h-.25v.25h-.25v.25h-.25v.25h-.25v.25h-.25v.25h-.25v.25h-.25v.25h-.25v.25h-.25v.25h-.25v.25h-.25v.25h-.25v.25h-.25v.25h-.25v.25h-.25v.25h-.25v.25h-.25v.25h-.25v.25h-.25v.25h-.25v.25h-.25v.25h-.25v.25h-.25v.25h-.25v.25h-.25v.25h-.25v.25h-.25v.25h-.25v.25h-.25v.25h-.25v.25h-.25v.25h-.25v.25h-.25v.25h-.25v.25h-.5v-.25h-.25v-.25h-.25v-.25h-.25v-.25h-.25v-.25h-.25v-.25h-.25v-.25h-.25v-.25h-.25v-.25h-.25v-.25h-.25v-.25h-.25v-.25h-.25v-.25h-.25v-.25h-.25v-.25h-.25v-.25h-.25v-.25h-.25v-.25h-.25v-.25h-.25v-.25h-.25v-.25h-.25v-.25h-.25v-.25h-.25v-.25h-.25v-.25h-.25v-.25h-.25v-.25h-.25v-.25h-.25v-.25h-.25v-.25h-.25v-.25h-.25v-.25h-.25v-.25h-.25v-.25h-.25v-.25h-.25v-.25h-.25v-.25h-.25v-.25h-.25v-.25h-.25v-.25h-.25v-.25h-.25v-.25h-.25v-.25h-.25v-.25h-.25v-.25h-.25v-.25h-.25v-.25h-.25v-.25h-.25v-.25h-.25v-.25h-.25v-.25h-.25v-.25h-.25v-.25h-.25v-.25h-.25v-.25h-.25v-.25H26.29z" fill="#858788"/><path d="M138.42 102.465l25.278 38.84h-20.654l-2.813-4.347h-24.894l-2.815 4.348h-20.65l25.277-38.841h21.27zm-4.776 24.213l-5.862-9.06-5.862 9.06h11.724z" fill="#161413" fill-rule="evenodd"/><path d="M133.644 126.678l-5.862-9.06-5.862 9.06h11.724" fill="none" stroke="#161413" stroke-width=".354"/><path d="M118.29 104.604v.25h-.25v.25h-.25v.5h-.25v.25h-.25v.5h-.25v.25h-.25v.5h-.25v.25h-.25v.5h-.25v.5h-.25v.25h-.25v.5h-.25v.25h-.25v.5h-.25v.25h-.25v.5h-.25v.25h-.25v.5h-.25v.25h-.25v.5h-.25v.25h-.25v.5h-.25v.5h-.25v.25h-.25v.5h-.25v.25h-.25v.5h-.25v.25h-.25v.5h-.25v.25h-.25v.5h-.25v.25h-.25v.5h-.25v.25h-.25v.5h-.25v.25h-.25v.5h-.25v.5h-.25v.25h-.25v.5h-.25v.25h-.25v.5h-.25v.25h-.25v.5h-.25v.25h-.25v.5h-.25v.25h-.25v.5h-.25v.25h-.25v.5h-.25v.5h-.25v.25h-.25v.5h-.25v.25h-.25v.5h-.25v.25h-.25v.5h-.25v.25h-.25v.5h-.25v.25h-.25v.5h-.25v.25h-.25v.5h-.25v.5h-.25v.25h-.25v.5h-.25v.25h-.25v.5h-.25v.25h-.25v.5h-.25v.25h-.25v.5h-.25v.25h-.25v.5h-.25v.25h-.25v.5h-.25v.25h-.25v.5h-.25v.5h-.25v.25h-.25v.5h-.25v.25h-.25v.5h-.25v.25h-.25v.5h-.25v.25h-.25v.5h-.25v.25h-.25v.5h-.25v.5h15.5v-.25h.25v-.5h.25v-.5h.25v-.25h.25v-.5h.25v-.25h.25v-.5h.25v-.25h.25v-.5h.25v-.25h.25v-.5h27.5v.5h.25v.25h.25v.5h.25v.25h.25v.5h.25v.25h.25v.5h.25v.5h.25v.25h.25v.5h.25v.25h15.5v-.5h-.25v-.5h-.25v-.25h-.25v-.5h-.25v-.25h-.25v-.5h-.25v-.25h-.25v-.5h-.25v-.25h-.25v-.5h-.25v-.25h-.25v-.5h-.25v-.25h-.25v-.5h-.25v-.5h-.25v-.25h-.25v-.5h-.25v-.25h-.25v-.5h-.25v-.25h-.25v-.5h-.25v-.25h-.25v-.5h-.25v-.25h-.25v-.5h-.25v-.25h-.25v-.5h-.25v-.25h-.25v-.5h-.25v-.5h-.25v-.25h-.25v-.5h-.25v-.25h-.25v-.5h-.25v-.25h-.25v-.5h-.25v-.25h-.25v-.5h-.25v-.25h-.25v-.5h-.25v-.25h-.25v-.5h-.25v-.5h-.25v-.25h-.25v-.5h-.25v-.25h-.25v-.5h-.25v-.25h-.25v-.5h-.25v-.25h-.25v-.5h-.25v-.25h-.25v-.5h-.25v-.25h-.25v-.5h-.25v-.5h-.25v-.25h-.25v-.5h-.25v-.25h-.25v-.5h-.25v-.25h-.25v-.5h-.25v-.25h-.25v-.5h-.25v-.25h-.25v-.5h-.25v-.25h-.25v-.5h-.25v-.25h-.25v-.5h-.25v-.5h-.25v-.25h-.25v-.5h-.25v-.25h-.25v-.5h-.25v-.25h-.25v-.5h-.25v-.25h-.25v-.5h-.25v-.25h-.25v-.5h-.25v-.25h-.25v-.5h-.25v-.5h-.25v-.25h-.25v-.5h-.25v-.25h-.25v-.5h-.25v-.25h-.25v-.25h-19zm9.25 9.5v-.25h.5v.5h.25v.25h.25v.5h.25v.25h.25v.5h.25v.5h.25v.25h.25v.5h.25v.25h.25v.5h.25v.25h.25v.5h.25v.25h.25v.5h.25v.25h.25v.5h.25v.5h.25v.25h.25v.5h.25v.25h.25v.5h.25v.25h.25v.5h.25v.25h.25v.5h.25v.25h.25v.5h.25v.5h.25v.25h.25v.5h.25v.25h.25v.5h.25v.25h.25v.5h.25v.25h.25v.5h.25v.25h.25v.5h.25v.25h-19.5v-.25h.25v-.5h.25v-.25h.25v-.5h.25v-.25h.25v-.5h.25v-.25h.25v-.5h.25v-.25h.25v-.5h.25v-.25h.25v-.5h.25v-.5h.25v-.25h.25v-.5h.25v-.25h.25v-.5h.25v-.25h.25v-.5h.25v-.25h.25v-.5h.25v-.25h.25v-.5h.25v-.5h.25v-.25h.25v-.5h.25v-.25h.25v-.5h.25v-.25h.25v-.5h.25v-.25h.25v-.5h.25v-.5h.25v-.25h.25v-.5h.25v-.25h.25v-.5h.25v-.25h.25v-.25z" fill="#b4b6b8"/><path d="M211.04 102.494h20.02v38.812h-20.02l-23.717-17.557v17.557h-20.025v-38.812h19.871l23.871 17.714v-17.714" fill="#161413"/><path d="M211.04 102.494h20.02v38.812h-20.02l-23.717-17.557v17.557h-20.025v-38.812h19.871l23.871 17.714v-17.714" fill="none" stroke="#161413" stroke-width=".354"/><path d="M169.54 104.604v34.5h15.5v-19.5h.5v.25h.25v.25h.25v.25h.5v.25h.25v.25h.25v.25h.5v.25h.25v.25h.25v.25h.5v.25h.25v.25h.5v.25h.25v.25h.25v.25h.5v.25h.25v.25h.25v.25h.5v.25h.25v.25h.25v.25h.5v.25h.25v.25h.25v.25h.5v.25h.25v.25h.25v.25h.5v.25h.25v.25h.25v.25h.5v.25h.25v.25h.5v.25h.25v.25h.25v.25h.5v.25h.25v.25h.25v.25h.5v.25h.25v.25h.25v.25h.5v.25h.25v.25h.25v.25h.5v.25h.25v.25h.25v.25h.5v.25h.25v.25h.5v.25h.25v.25h.25v.25h.5v.25h.25v.25h.25v.25h.5v.25h.25v.25h.25v.25h.5v.25h.25v.25h.25v.25h.5v.25h.25v.25h.25v.25h.5v.25h.25v.25h.25v.25h.5v.25h.25v.25h.5v.25h.25v.25h.25v.25h.5v.25h.25v.25h.25v.25h.5v.25h.25v.25h.25v.25h.5v.25h17.25v-34.5h-15.5v19.75h-.5v-.25h-.25v-.25h-.25v-.25h-.5v-.25h-.25v-.25h-.25v-.25h-.5v-.25h-.25v-.25h-.25v-.25h-.5v-.25h-.25v-.25h-.25v-.25h-.5v-.25h-.25v-.25h-.25v-.25h-.5v-.25h-.25v-.25h-.25v-.25h-.5v-.25h-.25v-.25h-.5v-.25h-.25v-.25h-.25v-.25h-.5v-.25h-.25v-.25h-.25v-.25h-.5v-.25h-.25v-.25h-.25v-.25h-.5v-.25h-.25v-.25h-.25v-.25h-.5v-.25h-.25v-.25h-.25v-.25h-.5v-.25h-.25v-.25h-.25v-.25h-.5v-.25h-.25v-.25h-.25v-.25h-.5v-.25h-.25v-.25h-.5v-.25h-.25v-.25h-.25v-.25h-.5v-.25h-.25v-.25h-.25v-.25h-.5v-.25h-.25v-.25h-.25v-.25h-.5v-.25h-.25v-.25h-.25v-.25h-.5v-.25h-.25v-.25h-.25v-.25h-.5v-.25h-.25v-.25h-.25v-.25h-.5v-.25h-.25v-.25h-.25v-.25h-.5v-.25h-.25v-.25h-.5v-.25h-.25v-.25h-.25v-.25h-.5v-.25h-.25v-.25h-.25v-.25h-.5v-.25h-.25v-.25h-.25v-.25h-.5v-.25h-.25v-.25h-.25v-.25h-.5v-.25h-17z" fill="#858788"/><path d="M168.324 103.52l1.275 1.27v34.218l-1.275 1.276V103.52m-50.624-.045l.687 1.276-22.296 34.269-2.351 1.274 23.96-36.82m-48.57 36.81l1.274-1.276h15.433l1.27 1.276H69.129m173.295.006l1.866-1.7h7.838l1.553 1.704-11.257-.004m-240.621.004l1.554-1.704h7.834l1.886 1.704H1.803" fill="#161413"/><path d="M25.082 103.52l1.704 1.699h14.938l.703-1.7H25.082" fill="#fff"/><path d="M42.427 103.52l-.703 1.699 14.372 14.37v-2.403L42.427 103.52" fill="#fff" fill-rule="evenodd"/><path d="M56.096 117.186v1.787l14.191-14.183-.525-1.27-13.666 13.666" fill="#161413"/><path d="M87.107 103.52l-1.701 1.699H70.47l-.708-1.7h17.345" fill="#fff"/><path d="M87.107 103.52l-1.701 1.699v33.364l1.7 1.7V103.52" fill="#fff"/><path d="M69.13 140.284l1.274-1.276v-18.646l-1.275 3.077v16.845" fill="#161413"/><path d="M56.096 136.473v-1.803l14.308-14.308-1.275 3.077-13.033 13.034" fill="#161413" fill-rule="evenodd"/><path d="M56.096 136.473v-1.803l-14.74-14.771 1.703 3.54 13.037 13.034" fill="#161413" fill-rule="evenodd"/><path d="M43.059 140.284l-1.702-1.701v-18.684l1.702 3.54v16.845" fill="#fff"/><path d="M43.059 140.284l-1.273-1.276h-15.43l-1.274 1.276H43.06" fill="#161413"/><path d="M25.082 103.52l1.275 1.27v34.218l-1.275 1.276V103.52" fill="#161413"/><path d="M137.837 128.946l-2.344-1.273h-15.419l-2.343 1.273h20.106" fill="#fff"/><path d="M111.974 140.294l-.692-1.274h-15.19l-2.352 1.274h18.234" fill="#161413"/><path d="M111.974 140.294l-.692-1.274 2.813-4.347.688 1.275-2.809 4.346" fill="#161413"/><path d="M140.782 135.948l.692-1.275h-27.379l.688 1.275h26" fill="#161413"/><path d="M140.782 135.948l.692-1.275 2.812 4.347-.687 1.274-2.817-4.346" fill="#161413"/><path d="M161.832 140.294l-3.144-1.704-21.744-33.41.926-1.705 23.962 36.819" fill="#fff" fill-rule="evenodd"/><path d="M117.7 103.475l.918 1.706h18.326l.926-1.706H117.7m50.624.045l1.7 1.699h16.244l.564-1.7h-18.508" fill="#fff"/><path d="M212.06 122.236l1.702 3.383-27.494-20.4.564-1.7 25.228 18.717" fill="#fff"/><path d="M212.06 122.236l1.277 2.53V104.79l-1.277-1.27v18.716" fill="#161413"/><path d="M230.037 103.52l-1.7 1.699h-14.575l-1.702-1.7h17.977" fill="#fff"/><path d="M230.037 103.52l-1.7 1.699v33.364l1.7 1.7V103.52" fill="#fff"/><path d="M211.376 140.284l.418-1.276h16.972l1.271 1.276h-18.66" fill="#161413"/><path d="M211.376 140.284l.418-1.276-27.195-20.146 1.703 2.857 25.074 18.565" fill="#161413" fill-rule="evenodd"/><path d="M186.302 140.284l-1.703-1.701v-19.721l1.703 2.857v18.565" fill="#fff"/><path d="M186.302 140.284l-1.276-1.276H169.6l-1.275 1.276h17.978" fill="#161413"/><path d="M121.29 1.104v.25h-3.5v.25h-3.25v.25h-2v.25h-1.75v.25h-2v.25h-1.5v.25h-1.5v.25h-1.5v.25h-1.25v.25h-1.25v.25h-1.25v.25h-1v.25h-1v.25h-1.25v.25h-1v.25h-1v.25h-.75v.25h-1v.25h-.75v.25h-1v.25h-.75v.25h-1v.25h-.75v.25h-.75v.25h-.75v.25h-.75v.25h-.75v.25h-.75v.25h-.75v.25h-.75v.25h-.5v.25h-.75v.25h-.5v.25h-.75v.25h-.5v.25h-.75v.25h-.5v.25h-.75v.25h-.5v.25h-.75v.25h-.5v.25h-.5v.25h-.5v.25h-.75v.25h-.5v.25h-.5v.25h-.5v.25h-.5v.25h-.75v.25h-.5v.25h-.5v.25h-.25v.25h-.5v.25h-.5v.25h-.5v.25h-.5v.25h-.5v.25h-.5v.25h-.5v.25h-.5v.25h-.5v.25h-.5v.25h-.25v.25h-.5v.25h-.5v.25h-.5v.25h-.25v.25h-.5v.25h-.5v.25h-.5v.25h-.25v.25h-.5v.25h-.5v.25h-.25v.25h-.5v.25h-.25v.25h-.5v.25h-.5v.25h-.25v.25h-.5v.25h-.25v.25h-.5v.25h-.25v.25h-.5v.25h-.25v.25h-.5v.25h-.25v.25h-.5v.25h-.25v.25h-.5v.25h-.25v.25h-.25v.25h-.5v.25h-.25v.25h-.5v.25h-.25v.25h-.25v.25h-.5v.25h-.25v.25h-.5v.25h-.25v.25h-.25v.25h-.25v.25h-.5v.25h-.25v.25h-.25v.25h-.5v.25h-.25v.25h-.25v.25h-.25v.25h-.5v.25h-.25v.25h-.25v.25h-.25v.25h-.5v.25h-.25v.25h-.25v.25h-.25v.25h-.25v.25h-.5v.25h-.25v.25h-.25v.25h-.25v.25h-.25v.25h-.25v.25h-.25v.25h-.5v.25h-.25v.25h-.25v.25h-.25v.25h-.25v.25h-.25v.25h-.25v.25h-.25v.25h-.25v.25h-.25v.25h-.5v.25h-.25v.25h-.25v.25h-.25v.25h-.25v.25h-.25v.25h-.25v.25h-.25v.25h-.25v.25h-.25v.25h-.25v.25h-.25v.25h-.25v.25h-.25v.25h-.25v.25h-.25v.25h-.25v.25h-.25v.25h-.25v.25h-.25v.25h-.25v.25h-.25v.5h-.25v.25h-.25v.25h-.25v.25h-.25v.25h-.25v.25h-.25v.25h-.25v.25h-.25v.25h-.25v.25h-.25v.25h-.25v.5h-.25v.25h-.25v.25h-.25v.25h-.25v.25h-.25v.25h-.25v.5h-.25v.25h-.25v.25h-.25v.25h-.25v.25h-.25v.25h-.25v.5h-.25v.25h-.25v.25h-.25v.25h-.25v.5h-.25v.25h-.25v.25h-.25v.25h-.25v.5h-.25v.25h-.25v.25h-.25v.5h-.25v.25h-.25v.25h-.25v.25h-.25v.5h-.25v.25h-.25v.5h-.25v.25h-.25v.25h-.25v.5h-.25v.25h-.25v.5h-.25v.25h-.25v.25h-.25v.5h-.25v.25h-.25v.5h-.25v.25h-.25v.5h-.25v.25h-.25v.5h-.25v.25h-.25v.5h-.25v.25h-.25v.5h-.25v.5h-.25v.25h-.25v.5h-.25v.25h-.25v.5h-.25v.25h-.25v.5h-.25v.5h-.25v.5h-.25v.25h-.25v.5h-.25v.5h-.25v.5h-.25v.25h-.25v.5h-.25v.5h-.25v.5h-.25v.25h-.25v.5h-.25v.5h-.25v.5h-.25v.5h-.25v.5h-.25v.5h-.25v.5h-.25v.5h-.25v.5h-.25v.5h-.25v.5h-.25v.5h-.25v.5h-.25v.5h-.25v.5h-.25v.75h-.25v.5h-.25v.5h-.25v.5h-.25v.5h-.25v.75h-.25v.5h-.25v.75h-.25v.5h-.25v.75h-.25v.5h-.25v.75h-.25v.5h-.25v.75h-.25v.5h-.25v.75h-.25v.75h-.25v.75h-.25v.75h-.25v.75h-.25v.75h-.25v.75h-.25v.75h-.25v.75h-.25v.75h-.25v1h-.25v.75h-.25v1h-.25v.75h-.25v1h-.25v1h-.25v1h-.25v1.25h-.25v1h-.25v1h-.25v1.25h-.25v1.25h-.25v1.5h-.25v1.25h-.25v1.5h-.25v1.75h-.25v1.75h-.25v2h-.25v2.25h-.25v3.25h-.25v5.25h-.25v6h.25v5.25h.25v5h.25v.25h.25v-.25h.25v-.25h.25v-.25h.25v-.25h.25v-.25h.25v-.25h.25v-2h-.25v-5.75h-.25v-9h.25v-3.75h.25v-3.25h.25v-2h.25v-2h.25v-2h.25v-1.5h.25v-1.25h.25v-1.5h.25v-1.25h.25v-1.5h.25v-1h.25v-1h.25v-1.25h.25v-1h.25v-1h.25v-1h.25v-.75h.25v-1h.25v-.75h.25v-1h.25v-.75h.25v-1h.25v-.75h.25v-.75h.25v-.75h.25v-.75h.25v-.75h.25v-.75h.25v-.75h.25v-.5h.25v-.75h.25v-.5h.25v-.75h.25v-.75h.25v-.5h.25v-.75h.25v-.5h.25v-.75h.25v-.5h.25v-.5h.25v-.75h.25v-.5h.25v-.5h.25v-.5h.25v-.5h.25v-.75h.25v-.5h.25v-.5h.25v-.5h.25v-.5h.25v-.5h.25v-.5h.25v-.5h.25v-.5h.25v-.5h.25v-.5h.25v-.5h.25v-.5h.25v-.5h.25v-.5h.25v-.25h.25v-.5h.25v-.5h.25v-.5h.25v-.25h.25v-.5h.25v-.5h.25v-.25h.25v-.5h.25v-.5h.25v-.5h.25v-.25h.25v-.5h.25v-.5h.25v-.25h.25v-.5h.25v-.25h.25v-.5h.25v-.25h.25v-.5h.25v-.25h.25v-.5h.25v-.5h.25v-.25h.25v-.5h.25v-.25h.25v-.25h.25v-.5h.25v-.25h.25v-.5h.25v-.25h.25v-.25h.25v-.5h.25v-.25h.25v-.5h.25v-.25h.25v-.25h.25v-.5h.25v-.25h.25v-.5h.25v-.25h.25v-.25h.25v-.25h.25v-.5h.25v-.25h.25v-.25h.25v-.25h.25v-.5h.25v-.25h.25v-.25h.25v-.5h.25v-.25h.25v-.25h.25v-.25h.25v-.25h.25v-.5h.25v-.25h.25v-.25h.25v-.25h.25v-.25h.25v-.25h.25v-.5h.25v-.25h.25v-.25h.25v-.25h.25v-.25h.25v-.25h.25v-.25h.25v-.5h.25v-.25h.25v-.25h.25v-.25h.25v-.25h.25v-.25h.25v-.25h.25v-.25h.25v-.25h.25v-.25h.25v-.25h.25v-.25h.25v-.25h.25v-.25h.25v-.25h.25v-.25h.25v-.25h.25v-.25h.25v-.25h.25v-.25h.25v-.25h.25v-.25h.25v-.25h.25v-.25h.25v-.25h.25v-.25h.25v-.25h.25v-.25h.25v-.25h.25v-.25h.25v-.25h.25v-.25h.25v-.25h.25v-.25h.25v-.25h.5v-.25h.25v-.25h.25v-.25h.25v-.25h.25v-.25h.25v-.25h.25v-.25h.5v-.25h.25v-.25h.25v-.25h.25v-.25h.25v-.25h.25v-.25h.5v-.25h.25v-.25h.25v-.25h.25v-.25h.25v-.25h.5v-.25h.25v-.25h.25v-.25h.5v-.25h.25v-.25h.25v-.25h.25v-.25h.5v-.25h.25v-.25h.25v-.25h.25v-.25h.5v-.25h.25v-.25h.25v-.25h.5v-.25h.25v-.25h.5v-.25h.25v-.25h.25v-.25h.5v-.25h.25v-.25h.5v-.25h.25v-.25h.25v-.25h.5v-.25h.25v-.25h.5v-.25h.25v-.25h.5v-.25h.25v-.25h.5v-.25h.5v-.25h.25v-.25h.5v-.25h.25v-.25h.5v-.25h.25v-.25h.5v-.25h.25v-.25h.5v-.25h.5v-.25h.5v-.25h.25v-.25h.5v-.25h.5v-.25h.5v-.25h.25v-.25h.5v-.25h.5v-.25h.5v-.25h.25v-.25h.5v-.25h.5v-.25h.5v-.25h.5v-.25h.5v-.25h.5v-.25h.5v-.25h.5v-.25h.5v-.25h.5v-.25h.5v-.25h.5v-.25h.5v-.25h.5v-.25h.5v-.25h.75v-.25h.5v-.25h.5v-.25h.5v-.25h.5v-.25h.75v-.25h.5v-.25h.5v-.25h.75v-.25h.75v-.25h.5v-.25h.75v-.25h.5v-.25h.75v-.25h.5v-.25h.75v-.25h.75v-.25h.75v-.25h.75v-.25h.75v-.25h.75v-.25h.75v-.25h.75v-.25h.75v-.25h.75v-.25h1v-.25h.75v-.25h1v-.25h1v-.25h.75v-.25h1v-.25h1.25v-.25h1v-.25h1v-.25h1.25v-.25h1v-.25h1.5v-.25h1.5v-.25h1.25v-.25h1.5v-.25h1.75v-.25h2v-.25h2v-.25h3v-.25h3.25v-.25h14v.25h3.25v.25h3v.25h1.75v.25h2v.25h2v.25h1.5v.25h1.25v.25h1.5v.25h1.25v.25h1.25v.25h1v.25h1.25v.25h1v.25h1v.25h1.25v.25h.75v.25h1v.25h.75v.25h1v.25h.75v.25h1v.25h.75v.25h.75v.25h.75v.25h.75v.25h.75v.25h.75v.25h.75v.25h.75v.25h.5v.25h.75v.25h.5v.25h.75v.25h.75v.25h.5v.25h.75v.25h.5v.25h.75v.25h.5v.25h.5v.25h.5v.25h.75v.25h.5v.25h.5v.25h.5v.25h.75v.25h.5v.25h.5v.25h.5v.25h.5v.25h.5v.25h.5v.25h.5v.25h.5v.25h.5v.25h.5v.25h.5v.25h.5v.25h.5v.25h.25v.25h.5v.25h.5v.25h.5v.25h.25v.25h.5v.25h.5v.25h.5v.25h.25v.25h.5v.25h.5v.25h.25v.25h.5v.25h.5v.25h.25v.25h.5v.25h.25v.25h.5v.25h.25v.25h.5v.25h.5v.25h.25v.25h.5v.25h.25v.25h.5v.25h.25v.25h.5v.25h.25v.25h.5v.25h.25v.25h.25v.25h.5v.25h.25v.25h.5v.25h.25v.25h.25v.25h.5v.25h.25v.25h.5v.25h.25v.25h.25v.25h.25v.25h.5v.25h.25v.25h.25v.25h.5v.25h.25v.25h.25v.25h.25v.25h.5v.25h.25v.25h.25v.25h.25v.25h.5v.25h.25v.25h.25v.25h.25v.25h.25v.25h.5v.25h.25v.25h.25v.25h.25v.25h.25v.25h.25v.25h.25v.25h.5v.25h.25v.25h.25v.25h.25v.25h.25v.25h.25v.25h.25v.25h.25v.25h.25v.25h.25v.25h.5v.25h.25v.25h.25v.25h.25v.25h.25v.25h.25v.25h.25v.25h.25v.25h.25v.25h.25v.25h.25v.25h.25v.25h.25v.25h.25v.25h.25v.25h.25v.25h.25v.25h.25v.25h.25v.25h.25v.25h.25v.25h.25v.5h.25v.25h.25v.25h.25v.25h.25v.25h.25v.25h.25v.25h.25v.25h.25v.25h.25v.25h.25v.25h.25v.5h.25v.25h.25v.25h.25v.25h.25v.25h.25v.25h.25v.5h.25v.25h.25v.25h.25v.25h.25v.25h.25v.25h.25v.5h.25v.25h.25v.25h.25v.5h.25v.25h.25v.25h.25v.25h.25v.5h.25v.25h.25v.25h.25v.25h.25v.5h.25v.25h.25v.25h.25v.5h.25v.25h.25v.25h.25v.5h.25v.25h.25v.5h.25v.25h.25v.25h.25v.5h.25v.25h.25v.5h.25v.25h.25v.5h.25v.25h.25v.5h.25v.25h.25v.5h.25v.25h.25v.5h.25v.25h.25v.5h.25v.25h.25v.5h.25v.5h.25v.25h.25v.5h.25v.25h.25v.5h.25v.5h.25v.25h.25v.5h.25v.5h.25v.5h.25v.25h.25v.5h.25v.5h.25v.5h.25v.25h.25v.5h.25v.5h.25v.5h.25v.5h.25v.5h.25v.5h.25v.5h.25v.5h.25v.5h.25v.5h.25v.5h.25v.5h.25v.5h.25v.5h.25v.5h.25v.5h.25v.75h.25v.5h.25v.5h.25v.5h.25v.75h.25v.5h.25v.5h.25v.75h.25v.5h.25v.75h.25v.5h.25v.75h.25v.75h.25v.5h.25v.75h.25v.75h.25v.75h.25v.5h.25v.75h.25v.75h.25v.75h.25v.75h.25v.75h.25v1h.25v.75h.25v1h.25v.75h.25v1h.25v1h.25v.75h.25v1.25h.25v1h.25v1h.25v1.25h.25v1h.25v1.5h.25v1.25h.25v1.5h.25v1.25h.25v1.75h.25v2h.25v2h.25v2.5h.25v3.25h.25v6.25h.25v3h-.25v5.75h-.25v4.25h.25v.25h.25v.25h.25v.25h.25v.5h.25v.25h.5v-2.25h.25v-5h.25v-5.25h.25v-.25h-.25v-7.5h-.25v-3.5h-.25v-2.75h-.25v-2h-.25v-1.75h-.25v-2h-.25v-1.5h-.25v-1.25h-.25v-1.5h-.25v-1.25h-.25v-1.25h-.25v-1h-.25v-1.25h-.25v-1h-.25v-1h-.25v-1.25h-.25v-.75h-.25v-1h-.25v-.75h-.25v-1h-.25v-.75h-.25v-1h-.25v-.75h-.25v-.75h-.25v-.75h-.25v-.75h-.25v-.75h-.25v-.75h-.25v-.75h-.25v-.75h-.25v-.75h-.25v-.5h-.25v-.75h-.25v-.5h-.25v-.75h-.25v-.5h-.25v-.75h-.25v-.5h-.25v-.75h-.25v-.5h-.25v-.75h-.25v-.5h-.25v-.5h-.25v-.5h-.25v-.75h-.25v-.5h-.25v-.5h-.25v-.5h-.25v-.5h-.25v-.75h-.25v-.5h-.25v-.25h-.25v-.5h-.25v-.5h-.25v-.5h-.25v-.5h-.25v-.5h-.25v-.5h-.25v-.5h-.25v-.5h-.25v-.5h-.25v-.5h-.25v-.5h-.25v-.25h-.25v-.5h-.25v-.5h-.25v-.5h-.25v-.25h-.25v-.5h-.25v-.5h-.25v-.25h-.25v-.5h-.25v-.5h-.25v-.5h-.25v-.25h-.25v-.5h-.25v-.25h-.25v-.5h-.25v-.25h-.25v-.5h-.25v-.25h-.25v-.5h-.25v-.5h-.25v-.25h-.25v-.5h-.25v-.25h-.25v-.5h-.25v-.25h-.25v-.5h-.25v-.25h-.25v-.25h-.25v-.5h-.25v-.25h-.25v-.5h-.25v-.25h-.25v-.25h-.25v-.5h-.25v-.25h-.25v-.5h-.25v-.25h-.25v-.25h-.25v-.5h-.25v-.25h-.25v-.25h-.25v-.25h-.25v-.5h-.25v-.25h-.25v-.25h-.25v-.5h-.25v-.25h-.25v-.25h-.25v-.25h-.25v-.5h-.25v-.25h-.25v-.25h-.25v-.25h-.25v-.5h-.25v-.25h-.25v-.25h-.25v-.25h-.25v-.25h-.25v-.25h-.25v-.5h-.25v-.25h-.25v-.25h-.25v-.25h-.25v-.25h-.25v-.25h-.25v-.25h-.25v-.5h-.25v-.25h-.25v-.25h-.25v-.25h-.25v-.25h-.25v-.25h-.25v-.25h-.25v-.25h-.25v-.25h-.25v-.25h-.25v-.25h-.25v-.25h-.25v-.25h-.25v-.25h-.25v-.25h-.25v-.25h-.25v-.5h-.25v-.25h-.25v-.25h-.25v-.25h-.25v-.25h-.25v-.25h-.5v-.25h-.25v-.25h-.25v-.25h-.25v-.25h-.25v-.25h-.25v-.25h-.25v-.25h-.25v-.25h-.25v-.25h-.25v-.25h-.25v-.25h-.25v-.25h-.25v-.25h-.25v-.25h-.25v-.25h-.25v-.25h-.5v-.25h-.25v-.25h-.25v-.25h-.25v-.25h-.25v-.25h-.25v-.25h-.5v-.25h-.25v-.25h-.25v-.25h-.25v-.25h-.25v-.25h-.25v-.25h-.25v-.25h-.5v-.25h-.25v-.25h-.25v-.25h-.25v-.25h-.5v-.25h-.25v-.25h-.25v-.25h-.5v-.25h-.25v-.25h-.25v-.25h-.25v-.25h-.5v-.25h-.25v-.25h-.25v-.25h-.25v-.25h-.5v-.25h-.25v-.25h-.5v-.25h-.25v-.25h-.25v-.25h-.5v-.25h-.25v-.25h-.5v-.25h-.25v-.25h-.25v-.25h-.5v-.25h-.25v-.25h-.5v-.25h-.25v-.25h-.25v-.25h-.5v-.25h-.25v-.25h-.5v-.25h-.5v-.25h-.25v-.25h-.5v-.25h-.25v-.25h-.5v-.25h-.25v-.25h-.5v-.25h-.5v-.25h-.25v-.25h-.5v-.25h-.25v-.25h-.5v-.25h-.5v-.25h-.5v-.25h-.25v-.25h-.5v-.25h-.5v-.25h-.25v-.25h-.5v-.25h-.5v-.25h-.5v-.25h-.25v-.25h-.5v-.25h-.5v-.25h-.5v-.25h-.5v-.25h-.5v-.25h-.5v-.25h-.5v-.25h-.5v-.25h-.5v-.25h-.5v-.25h-.5v-.25h-.5v-.25h-.5v-.25h-.5v-.25h-.5v-.25h-.75v-.25h-.5v-.25h-.5v-.25h-.5v-.25h-.75v-.25h-.5v-.25h-.5v-.25h-.75v-.25h-.5v-.25h-.75v-.25h-.5v-.25h-.75v-.25h-.5v-.25h-.75v-.25h-.5v-.25h-.75v-.25h-.75v-.25h-.75v-.25h-.75v-.25h-.75v-.25h-.75v-.25h-.75v-.25h-.75v-.25h-.75v-.25h-.75v-.25h-1v-.25h-.75v-.25h-1v-.25h-.75v-.25h-1v-.25h-.75v-.25h-1.25v-.25h-1v-.25h-1v-.25h-1.25v-.25h-1v-.25h-1.25v-.25h-1.5v-.25h-1.25v-.25h-1.5v-.25h-1.5v-.25h-2v-.25h-2v-.25h-2v-.25h-3.25v-.25h-3.25v-.25h-13z" fill="#fff"/><path d="M121.54 10.604v.25h-3.25v.25h-3v.25h-2v.25h-2v.25h-1.75v.25h-1.5v.25h-1.5v.25h-1.25v.25h-1.5v.25h-1v.25h-1v.25h-1.25v.25h-1v.25h-1v.25h-1v.25h-.75v.25h-1v.25h-.75v.25h-1v.25h-.75v.25h-1v.25h-.75v.25h-.75v.25h-.75v.25h-.75v.25h-.5v.25h-.75v.25h-.75v.25h-.75v.25h-.5v.25h-.75v.25h-.5v.25h-.75v.25h-.5v.25h-.75v.25h-.75v.25h-.5v.25h-.5v.25h-.5v.25h-.5v.25h-.75v.25h-.5v.25h-.5v.25h-.5v.25h-.75v.25h-.5v.25h-.5v.25h-.5v.25h-.25v.25h-.5v.25h-.5v.25h-.5v.25h-.5v.25h-.5v.25h-.5v.25h-.5v.25h-.5v.25h-.5v.25h-.25v.25h-.5v.25h-.5v.25h-.5v.25h-.25v.25h-.5v.25h-.5v.25h-.25v.25h-.5v.25h-.5v.25h-.25v.25h-.5v.25h-.25v.25h-.5v.25h-.5v.25h-.25v.25h-.5v.25h-.25v.25h-.5v.25h-.25v.25h-.5v.25h-.25v.25h-.5v.25h-.25v.25h-.5v.25h-.25v.25h-.25v.25h-.5v.25h-.25v.25h-.5v.25h-.25v.25h-.25v.25h-.5v.25h-.25v.25h-.5v.25h-.25v.25h-.25v.25h-.25v.25h-.5v.25h-.25v.25h-.25v.25h-.5v.25h-.25v.25h-.25v.25h-.25v.25h-.5v.25h-.25v.25h-.25v.25h-.25v.25h-.5v.25h-.25v.25h-.25v.25h-.25v.25h-.25v.25h-.25v.25h-.25v.25h-.5v.25h-.25v.25h-.25v.25h-.25v.25h-.25v.25h-.25v.25h-.5v.25h-.25v.25h-.25v.25h-.25v.25h-.25v.25h-.25v.25h-.25v.25h-.25v.25h-.25v.25h-.25v.25h-.25v.25h-.25v.25h-.25v.25h-.25v.25h-.25v.25h-.25v.25h-.25v.25h-.25v.25h-.25v.25h-.25v.25h-.25v.25h-.25v.25h-.25v.25h-.25v.25h-.25v.25h-.25v.25h-.25v.25h-.25v.25h-.25v.25h-.25v.25h-.25v.25h-.25v.5h-.25v.25h-.25v.25h-.25v.25h-.25v.25h-.25v.25h-.25v.25h-.25v.5h-.25v.25h-.25v.25h-.25v.25h-.25v.25h-.25v.25h-.25v.5h-.25v.25h-.25v.25h-.25v.25h-.25v.25h-.25v.5h-.25v.25h-.25v.25h-.25v.5h-.25v.25h-.25v.25h-.25v.25h-.25v.5h-.25v.25h-.25v.25h-.25v.25h-.25v.5h-.25v.25h-.25v.5h-.25v.25h-.25v.25h-.25v.5h-.25v.25h-.25v.5h-.25v.25h-.25v.25h-.25v.5h-.25v.25h-.25v.5h-.25v.25h-.25v.5h-.25v.25h-.25v.5h-.25v.25h-.25v.5h-.25v.5h-.25v.25h-.25v.5h-.25v.25h-.25v.5h-.25v.25h-.25v.5h-.25v.5h-.25v.25h-.25v.5h-.25v.5h-.25v.5h-.25v.25h-.25v.5h-.25v.5h-.25v.5h-.25v.25h-.25v.5h-.25v.5h-.25v.5h-.25v.5h-.25v.5h-.25v.5h-.25v.5h-.25v.5h-.25v.5h-.25v.5h-.25v.5h-.25v.5h-.25v.5h-.25v.5h-.25v.5h-.25v.75h-.25v.5h-.25v.5h-.25v.5h-.25v.5h-.25v.75h-.25v.5h-.25v.75h-.25v.5h-.25v.75h-.25v.5h-.25v.75h-.25v.75h-.25v.5h-.25v.75h-.25v.75h-.25v.75h-.25v.75h-.25v.75h-.25v.75h-.25v.75h-.25v.75h-.25v1h-.25v.75h-.25v1h-.25v.75h-.25v1h-.25v1h-.25v1h-.25v1h-.25v1.25h-.25v1h-.25v1h-.25v1.5h-.25v1.5h-.25v1.25h-.25v1.5h-.25v2h-.25v1.75h-.25v2h-.25v3.5h-.25v4.5h-.25v6.5h.25v5.25h.25v3.5h.25v.25h.25v.25h.25v.25h.5v.25h.25v.25h.25v.25h.5v-.75h-.25v-4.75h-.25v-4.5h-.25v-8.25h.25v-3.5h.25v-3h.25v-2h.25v-1.75h.25v-2h.25v-1.25h.25v-1.5h.25v-1.5h.25v-1.25h.25v-1h.25v-1.25h.25v-1h.25v-1h.25v-1h.25v-1h.25v-1h.25v-.75h.25v-1h.25v-.75h.25v-1h.25v-.75h.25v-.75h.25v-.75h.25v-.75h.25v-.5h.25v-.75h.25v-.75h.25v-.75h.25v-.75h.25v-.5h.25v-.75h.25v-.5h.25v-.75h.25v-.5h.25v-.75h.25v-.5h.25v-.5h.25v-.75h.25v-.5h.25v-.5h.25v-.5h.25v-.75h.25v-.5h.25v-.5h.25v-.5h.25v-.5h.25v-.5h.25v-.5h.25v-.5h.25v-.5h.25v-.5h.25v-.5h.25v-.5h.25v-.5h.25v-.5h.25v-.25h.25v-.5h.25v-.5h.25v-.5h.25v-.25h.25v-.5h.25v-.5h.25v-.5h.25v-.25h.25v-.5h.25v-.5h.25v-.25h.25v-.5h.25v-.5h.25v-.25h.25v-.5h.25v-.25h.25v-.5h.25v-.25h.25v-.5h.25v-.25h.25v-.5h.25v-.5h.25v-.25h.25v-.25h.25v-.5h.25v-.25h.25v-.5h.25v-.25h.25v-.25h.25v-.5h.25v-.25h.25v-.5h.25v-.25h.25v-.25h.25v-.5h.25v-.25h.25v-.25h.25v-.5h.25v-.25h.25v-.25h.25v-.5h.25v-.25h.25v-.25h.25v-.25h.25v-.5h.25v-.25h.25v-.25h.25v-.25h.25v-.5h.25v-.25h.25v-.25h.25v-.25h.25v-.25h.25v-.25h.25v-.5h.25v-.25h.25v-.25h.25v-.25h.25v-.25h.25v-.25h.25v-.5h.25v-.25h.25v-.25h.25v-.25h.25v-.25h.25v-.25h.25v-.25h.25v-.25h.25v-.25h.25v-.25h.25v-.25h.25v-.25h.25v-.25h.25v-.25h.25v-.25h.25v-.5h.25v-.25h.25v-.25h.25v-.25h.25v-.25h.25v-.25h.5v-.25h.25v-.25h.25v-.25h.25v-.25h.25v-.25h.25v-.25h.25v-.25h.25v-.25h.25v-.25h.25v-.25h.25v-.25h.25v-.25h.25v-.25h.25v-.25h.25v-.25h.5v-.25h.25v-.25h.25v-.25h.25v-.25h.25v-.25h.25v-.25h.25v-.25h.5v-.25h.25v-.25h.25v-.25h.25v-.25h.25v-.25h.25v-.25h.5v-.25h.25v-.25h.25v-.25h.5v-.25h.25v-.25h.25v-.25h.25v-.25h.5v-.25h.25v-.25h.25v-.25h.25v-.25h.5v-.25h.25v-.25h.25v-.25h.5v-.25h.25v-.25h.5v-.25h.25v-.25h.25v-.25h.5v-.25h.25v-.25h.5v-.25h.25v-.25h.25v-.25h.5v-.25h.25v-.25h.5v-.25h.25v-.25h.5v-.25h.5v-.25h.25v-.25h.5v-.25h.25v-.25h.5v-.25h.25v-.25h.5v-.25h.25v-.25h.5v-.25h.5v-.25h.25v-.25h.5v-.25h.5v-.25h.5v-.25h.25v-.25h.5v-.25h.5v-.25h.5v-.25h.25v-.25h.5v-.25h.5v-.25h.5v-.25h.5v-.25h.5v-.25h.5v-.25h.5v-.25h.5v-.25h.5v-.25h.5v-.25h.5v-.25h.5v-.25h.5v-.25h.5v-.25h.5v-.25h.75v-.25h.5v-.25h.5v-.25h.5v-.25h.5v-.25h.75v-.25h.5v-.25h.75v-.25h.5v-.25h.75v-.25h.5v-.25h.75v-.25h.75v-.25h.5v-.25h.75v-.25h.75v-.25h.75v-.25h.75v-.25h.75v-.25h.75v-.25h.75v-.25h.75v-.25h1v-.25h.75v-.25h1v-.25h.75v-.25h1v-.25h1v-.25h1v-.25h1.25v-.25h1v-.25h1v-.25h1.25v-.25h1.5v-.25h1.5v-.25h1.25v-.25h1.75v-.25h2v-.25h2v-.25h2.5v-.25h3.5v-.25h13v.25h3.25v.25h2.75v.25h2v.25h2v.25h1.5v.25h1.5v.25h1.5v.25h1.25v.25h1.25v.25h1.25v.25h1v.25h1v.25h1.25v.25h1v.25h.75v.25h1v.25h.75v.25h1v.25h.75v.25h1v.25h.75v.25h.75v.25h.75v.25h.75v.25h.75v.25h.75v.25h.5v.25h.75v.25h.75v.25h.5v.25h.75v.25h.5v.25h.75v.25h.5v.25h.75v.25h.5v.25h.5v.25h.75v.25h.5v.25h.5v.25h.5v.25h.5v.25h.75v.25h.5v.25h.5v.25h.5v.25h.5v.25h.5v.25h.5v.25h.5v.25h.5v.25h.5v.25h.5v.25h.5v.25h.25v.25h.5v.25h.5v.25h.5v.25h.25v.25h.5v.25h.5v.25h.5v.25h.25v.25h.5v.25h.5v.25h.5v.25h.25v.25h.5v.25h.25v.25h.5v.25h.25v.25h.5v.25h.5v.25h.25v.25h.5v.25h.25v.25h.5v.25h.25v.25h.5v.25h.25v.25h.5v.25h.25v.25h.25v.25h.5v.25h.25v.25h.5v.25h.25v.25h.25v.25h.5v.25h.25v.25h.5v.25h.25v.25h.25v.25h.25v.25h.5v.25h.25v.25h.25v.25h.25v.25h.5v.25h.25v.25h.25v.25h.5v.25h.25v.25h.25v.25h.25v.25h.5v.25h.25v.25h.25v.25h.25v.25h.25v.25h.25v.25h.25v.25h.5v.25h.25v.25h.25v.25h.25v.25h.25v.25h.25v.25h.5v.25h.25v.25h.25v.25h.25v.25h.25v.25h.25v.25h.25v.25h.25v.25h.25v.25h.25v.25h.25v.25h.25v.25h.25v.25h.25v.25h.25v.25h.25v.25h.25v.25h.25v.25h.25v.25h.25v.25h.25v.25h.25v.25h.25v.25h.25v.25h.25v.25h.25v.25h.25v.25h.25v.25h.25v.25h.25v.25h.25v.25h.25v.5h.25v.25h.25v.25h.25v.25h.25v.25h.25v.25h.25v.5h.25v.25h.25v.25h.25v.25h.25v.25h.25v.25h.25v.25h.25v.5h.25v.25h.25v.25h.25v.25h.25v.5h.25v.25h.25v.25h.25v.25h.25v.5h.25v.25h.25v.25h.25v.25h.25v.5h.25v.25h.25v.25h.25v.5h.25v.25h.25v.25h.25v.5h.25v.25h.25v.5h.25v.25h.25v.25h.25v.5h.25v.25h.25v.5h.25v.25h.25v.5h.25v.25h.25v.5h.25v.25h.25v.5h.25v.25h.25v.5h.25v.25h.25v.5h.25v.25h.25v.5h.25v.5h.25v.25h.25v.5h.25v.5h.25v.25h.25v.5h.25v.5h.25v.5h.25v.25h.25v.5h.25v.5h.25v.25h.25v.5h.25v.5h.25v.5h.25v.5h.25v.5h.25v.5h.25v.5h.25v.5h.25v.5h.25v.5h.25v.5h.25v.5h.25v.5h.25v.5h.25v.5h.25v.75h.25v.5h.25v.5h.25v.5h.25v.5h.25v.75h.25v.5h.25v.75h.25v.5h.25v.75h.25v.5h.25v.75h.25v.5h.25v.75h.25v.75h.25v.75h.25v.75h.25v.75h.25v.75h.25v.75h.25v.5h.25v1h.25v.75h.25v1h.25v.75h.25v1h.25v.75h.25v1h.25v1h.25v1.25h.25v1h.25v1h.25v1.25h.25v1.5h.25v1.25h.25v1.5h.25v1.5h.25v2h.25v1.75h.25v2.25h.25v3.25h.25v6h.25v2.75h-.25v4.5h-.25v4.75h-.25v2.5h.5v-.25h.25v-.25h.25v-.25h.25v-.25h.25v-.25h.25v-.25h.25v-.25h.25v-5.25h.25v-13h-.25v-3.25h-.25v-2.5h-.25v-2h-.25v-2h-.25v-1.75h-.25v-1.25h-.25v-1.5h-.25v-1.25h-.25v-1.25h-.25v-1.25h-.25v-1h-.25v-1h-.25v-1.25h-.25v-1h-.25v-.75h-.25v-1h-.25v-.75h-.25v-1h-.25v-.75h-.25v-1h-.25v-.75h-.25v-.75h-.25v-.75h-.25v-.75h-.25v-.75h-.25v-.75h-.25v-.75h-.25v-.5h-.25v-.75h-.25v-.5h-.25v-.75h-.25v-.75h-.25v-.5h-.25v-.75h-.25v-.5h-.25v-.75h-.25v-.5h-.25v-.5h-.25v-.5h-.25v-.5h-.25v-.75h-.25v-.5h-.25v-.5h-.25v-.5h-.25v-.75h-.25v-.5h-.25v-.25h-.25v-.5h-.25v-.5h-.25v-.5h-.25v-.5h-.25v-.5h-.25v-.5h-.25v-.5h-.25v-.5h-.25v-.5h-.25v-.5h-.25v-.25h-.25v-.5h-.25v-.5h-.25v-.5h-.25v-.25h-.25v-.5h-.25v-.5h-.25v-.5h-.25v-.25h-.25v-.5h-.25v-.5h-.25v-.25h-.25v-.5h-.25v-.25h-.25v-.5h-.25v-.25h-.25v-.5h-.25v-.5h-.25v-.25h-.25v-.5h-.25v-.25h-.25v-.5h-.25v-.25h-.25v-.5h-.25v-.25h-.25v-.25h-.25v-.5h-.25v-.25h-.25v-.5h-.25v-.25h-.25v-.25h-.25v-.5h-.25v-.25h-.25v-.5h-.25v-.25h-.25v-.25h-.25v-.5h-.25v-.25h-.25v-.25h-.25v-.25h-.25v-.5h-.25v-.25h-.25v-.25h-.25v-.5h-.25v-.25h-.25v-.25h-.25v-.25h-.25v-.5h-.25v-.25h-.25v-.25h-.25v-.25h-.25v-.25h-.25v-.25h-.25v-.5h-.25v-.25h-.25v-.25h-.25v-.25h-.25v-.25h-.25v-.25h-.25v-.5h-.25v-.25h-.25v-.25h-.25v-.25h-.25v-.25h-.25v-.25h-.25v-.25h-.25v-.25h-.25v-.25h-.25v-.25h-.25v-.25h-.25v-.25h-.25v-.5h-.25v-.25h-.25v-.25h-.25v-.25h-.25v-.25h-.25v-.25h-.25v-.25h-.25v-.25h-.25v-.25h-.25v-.25h-.25v-.25h-.25v-.25h-.25v-.25h-.25v-.25h-.25v-.25h-.25v-.25h-.5v-.25h-.25v-.25h-.25v-.25h-.25v-.25h-.25v-.25h-.25v-.25h-.25v-.25h-.25v-.25h-.25v-.25h-.25v-.25h-.25v-.25h-.25v-.25h-.5v-.25h-.25v-.25h-.25v-.25h-.25v-.25h-.25v-.25h-.25v-.25h-.5v-.25h-.25v-.25h-.25v-.25h-.25v-.25h-.25v-.25h-.25v-.25h-.5v-.25h-.25v-.25h-.25v-.25h-.5v-.25h-.25v-.25h-.25v-.25h-.25v-.25h-.5v-.25h-.25v-.25h-.25v-.25h-.25v-.25h-.5v-.25h-.25v-.25h-.25v-.25h-.5v-.25h-.25v-.25h-.5v-.25h-.25v-.25h-.5v-.25h-.25v-.25h-.25v-.25h-.5v-.25h-.25v-.25h-.5v-.25h-.25v-.25h-.25v-.25h-.5v-.25h-.5v-.25h-.25v-.25h-.5v-.25h-.25v-.25h-.5v-.25h-.25v-.25h-.5v-.25h-.25v-.25h-.5v-.25h-.5v-.25h-.25v-.25h-.5v-.25h-.5v-.25h-.25v-.25h-.5v-.25h-.5v-.25h-.5v-.25h-.25v-.25h-.5v-.25h-.5v-.25h-.5v-.25h-.25v-.25h-.5v-.25h-.5v-.25h-.5v-.25h-.5v-.25h-.5v-.25h-.5v-.25h-.5v-.25h-.5v-.25h-.5v-.25h-.5v-.25h-.5v-.25h-.5v-.25h-.5v-.25h-.75v-.25h-.5v-.25h-.5v-.25h-.5v-.25h-.5v-.25h-.75v-.25h-.5v-.25h-.5v-.25h-.75v-.25h-.5v-.25h-.75v-.25h-.75v-.25h-.5v-.25h-.75v-.25h-.5v-.25h-.75v-.25h-.75v-.25h-.75v-.25h-.75v-.25h-.75v-.25h-.75v-.25h-.75v-.25h-.75v-.25h-.75v-.25h-1v-.25h-.75v-.25h-1v-.25h-.75v-.25h-1v-.25h-1v-.25h-1.25v-.25h-1v-.25h-1v-.25h-1.25v-.25h-1.25v-.25h-1.5v-.25h-1.25v-.25h-1.5v-.25h-1.75v-.25h-2v-.25h-2v-.25h-3v-.25h-3.25v-.25h-12.5z" fill="#fff"/><path d="M137.837 128.946l-2.344-1.273-7.71-11.92v-2.342l10.054 15.535" fill="#161413" fill-rule="evenodd"/><path d="M161.832 140.294l-2.35-1.274h-15.196l-.687 1.274h18.233" fill="#161413"/></svg>