<svg xmlns="http://www.w3.org/2000/svg" height="800" width="1200" overflow="visible" viewBox="-56.43675 -64.86775 489.1185 389.2065"><linearGradient y2="0" x2="188.123" y1="259.471" x1="188.123" gradientUnits="userSpaceOnUse" id="a"><stop offset="0" stop-color="#717279"/><stop offset="1" stop-color="#eeedec"/></linearGradient><path d="M188.133 0C84.396 0 0 58.204 0 129.746c0 71.53 84.396 129.725 188.133 129.725 50.18 0 97.37-13.453 132.876-37.881 35.62-24.505 55.236-57.123 55.236-91.844C376.246 58.204 291.859 0 188.133 0zm-.002 239.669c-84.045 0-152.16-49.219-152.16-109.925 0-60.725 68.115-109.942 152.16-109.942 84.012 0 152.144 49.218 152.144 109.942 0 60.706-68.114 109.925-152.144 109.925z" fill="url(#a)"/><linearGradient y2="1" x2="188.123" y1="258.471" x1="188.123" gradientUnits="userSpaceOnUse" id="b"><stop offset=".45" stop-color="#717279"/><stop offset=".55" stop-color="#eeedec"/></linearGradient><path d="M188.133 1C84.771 1 1 58.636 1 129.746c0 71.088 83.771 128.725 187.133 128.725 103.342 0 187.112-57.637 187.112-128.725C375.246 58.636 291.455 1 188.133 1zm-.002 238.669c-84.045 0-152.16-49.219-152.16-109.925 0-60.725 68.115-109.942 152.16-109.942 84.012 0 152.144 49.218 152.144 109.942 0 60.706-68.114 109.925-152.144 109.925z" fill="url(#b)"/><linearGradient y2="247.114" x2="188.123" y1="12.357" x1="188.123" gradientUnits="userSpaceOnUse" id="c"><stop offset=".45" stop-color="#717279"/><stop offset=".55" stop-color="#eeedec"/></linearGradient><path d="M188.131 12.357c-89.417 0-161.886 52.551-161.886 117.387 0 64.817 72.47 117.369 161.886 117.369 89.401 0 161.869-52.552 161.869-117.369 0-64.836-72.486-117.387-161.869-117.387zm0 227.312c-84.045 0-152.16-49.219-152.16-109.925 0-60.725 68.115-109.942 152.16-109.942 84.012 0 152.144 49.218 152.144 109.942 0 60.706-68.114 109.925-152.144 109.925z" fill="url(#c)"/><linearGradient y2="249.114" x2="188.123" y1="10.357" x1="188.123" gradientUnits="userSpaceOnUse" id="d"><stop offset="0" stop-color="#717279"/><stop offset="1" stop-color="#eeedec"/></linearGradient><path d="M188.131 10.357c-90.367 0-163.886 53.557-163.886 119.387 0 65.82 73.519 119.369 163.886 119.369 90.357 0 163.869-53.549 163.869-119.369 0-65.83-73.511-119.387-163.869-119.387zm0 236.756c-89.417 0-161.886-52.552-161.886-117.369 0-64.836 72.47-117.387 161.886-117.387C277.514 12.357 350 64.908 350 129.744c0 64.818-72.467 117.369-161.869 117.369z" fill="url(#d)"/><linearGradient y2="108.986" x2="188.123" y1="150.485" x1="188.123" gradientUnits="userSpaceOnUse" id="e"><stop offset="0" stop-color="#717279"/><stop offset="1" stop-color="#eeedec"/></linearGradient><path d="M347.477 108.985H28.768a86.646 86.646 0 00-.002 41.5H347.48a86.646 86.646 0 002.521-20.741 86.745 86.745 0 00-2.524-20.759z" fill="url(#e)"/><path d="M336.852 106.485H39.394s-10.419 1.663-10.625 2.5h318.709c-.207-.837-10.626-2.5-10.626-2.5z" fill="#58585E"/><path d="M38.688 150.485h-9.921c.206.837 10.623 2.5 10.623 2.5h297.466s10.415-1.664 10.621-2.5h-9.919zm308.811-.081l-.021.081h.003l.018-.081zm-318.733.081h.001l-.013-.05.012.05z" fill="#3A3B3E"/><linearGradient y2="76.075" x2="173.923" y1="48.075" x1="162.589" gradientUnits="userSpaceOnUse" id="f"><stop offset=".006" stop-color="#bfbfbb"/><stop offset="1" stop-color="#f6f6f4"/></linearGradient><path d="M192.745 14.607s-41.77 42.677-49.203 94.378h36.43c-12.556-40.838 12.773-94.378 12.773-94.378z" fill="url(#f)"/><linearGradient y2="102.855" x2="215.988" y1="38.188" x1="169.321" gradientUnits="userSpaceOnUse" id="g"><stop offset=".006" stop-color="#67676f"/><stop offset=".5" stop-color="#bbbcb8"/><stop offset="1" stop-color="#959796"/></linearGradient><path d="M179.972 108.985h29.773c-33.667-18.334-17-94.378-17-94.378s-25.329 53.54-12.773 94.378z" fill="url(#g)"/><linearGradient gradientTransform="rotate(180 188.123 381.735)" y2="580.075" x2="173.923" y1="552.075" x1="162.589" gradientUnits="userSpaceOnUse" id="h"><stop offset=".006" stop-color="#bfbfbb"/><stop offset="1" stop-color="#f6f6f4"/></linearGradient><path d="M183.5 244.863s41.77-42.677 49.203-94.378h-36.43c12.557 40.838-12.773 94.378-12.773 94.378z" fill="url(#h)"/><linearGradient gradientTransform="rotate(180 188.123 381.735)" y2="606.854" x2="215.987" y1="542.188" x1="169.321" gradientUnits="userSpaceOnUse" id="i"><stop offset=".006" stop-color="#67676f"/><stop offset=".5" stop-color="#bbbcb8"/><stop offset="1" stop-color="#959796"/></linearGradient><path d="M196.274 150.485H166.5c33.667 18.334 17 94.378 17 94.378s25.33-53.54 12.774-94.378z" fill="url(#i)"/><path d="M339.062 139.229c0 3.063-2.572 5.352-5.738 5.352h-3.47v-21.849c0-1.369-1.185-2.512-2.675-2.512h-44.475v24.36h-9.434v-29.71h57.931c4.45 0 7.881 3.471 7.881 7.719zm-301.898-.017l53.743.018c1.593 0 2.695-.959 2.675-2.327l-.02-4.45H37.225v-9.862c0-4.33 3.654-7.719 8.127-7.719h57.643v5.35H48.946c-1.715 0-2.287 1.021-2.287 2.369l-.062 4.514h56.418v9.799c0 4.35-3.594 7.679-8.106 7.679H42.901c-3.164-.002-5.737-2.311-5.737-5.371zm82.636-2.473c0 1.348 1.185 2.49 2.715 2.49h53.561v5.352h-57.583c-4.492 0-8.126-3.452-8.126-7.719V122.59c0-4.248 3.634-7.719 8.126-7.719h57.583v5.35h-53.561c-1.53 0-2.715 1.164-2.715 2.512zm73.082-21.868V144.6h-9.476l.02-29.729zm73.039 7.719v14.272c0 4.267-3.635 7.719-8.108 7.719H208.36c-4.492 0-8.128-3.452-8.128-7.719V122.59c0-4.248 3.636-7.719 8.128-7.719h49.453c4.474 0 8.108 3.471 8.108 7.719zm-12.151-2.369h-41.389c-1.531 0-2.737 1.143-2.737 2.49v14.008c0 1.368 1.206 2.511 2.737 2.511h41.389c1.532 0 2.737-1.143 2.718-2.49l.02-14.028c-.02-1.349-1.206-2.491-2.738-2.491z" fill="#060506"/></svg>