<svg xmlns="http://www.w3.org/2000/svg" height="800" width="1200" version="1.2" viewBox="-35.1609 -71.9725 304.7278 431.835"><g fill="#6D6E71"><path d="M115.565 0C51.842 0 0 51.843 0 115.566s51.842 115.565 115.565 115.565S231.13 179.289 231.13 115.566 179.288 0 115.565 0zm0 224.973c-60.328 0-109.407-49.08-109.407-109.407S55.237 6.158 115.565 6.158c60.328 0 109.407 49.08 109.407 109.407s-49.079 109.408-109.407 109.408z"/><path d="M115.565 35.604c-44.091 0-79.962 35.871-79.962 79.962s35.871 79.961 79.962 79.961 79.962-35.871 79.962-79.962-35.871-79.961-79.962-79.961zm-75.701 79.962c0-41.741 33.959-75.701 75.701-75.701 27.791 0 52.119 15.06 65.285 37.441l-89.572.197c-3.692 0-8.522-.221-12.427 5.965l-34.18 58.641a75.335 75.335 0 01-4.807-26.543zm17.892 48.889l41.737-71.389c3.213-5.255 4.598-6.533 10.296-6.533h75.684a75.138 75.138 0 011.45 3.763l-70.388.206c-3.692 0-8.522-.221-12.427 5.965 0 0-42.244 72.4-42.222 72.422a93.168 93.168 0 01-4.13-4.434zm22.255 17.925l45.401-77.675c3.213-5.255 4.598-6.533 10.296-6.533h53.537c.105.469.602 2.674.901 4.399l-47.383.213c-3.692 0-8.522-.221-12.427 5.965l-44.643 76.37a75.559 75.559 0 01-5.682-2.739zm35.554 8.886c-2.404 0-4.78-.118-7.127-.338l43.202-73.943c3.213-5.255 4.598-6.533 10.296-6.533h29.153c.113 1.69.176 3.394.176 5.113.002 41.742-33.958 75.701-75.7 75.701zm-97.719 86.828c.748-2.688 1.675-5.57 2.781-8.648l5.893-16.327h8.776v34.134h-6.25v-17.296c0-2.534.102-5.477.306-8.827h-.229c-.29.97-.629 2.058-1.021 3.266-.392 1.207-.8 2.397-1.225 3.571l-7.066 19.286H15.78l-7.066-19.286a113.332 113.332 0 01-1.225-3.571 147.71 147.71 0 01-1.021-3.266h-.229c.204 3.146.306 6.08.306 8.801v17.322H.295v-34.134H9.02l5.893 16.251a117.6 117.6 0 012.781 8.725h.152zm31.863 3.929h16.786v5.229H43.459v-34.134h22.118v5.23H49.709v8.826h13.623v5.229H49.709zm48.674-18.649c0 2.381-.659 4.4-1.977 6.059-1.318 1.658-3.354 2.887-6.11 3.687v.102l10.153 14.031h-7.5l-9.286-13.215h-4.286v13.215h-6.25v-34.134H83.51c1.717 0 3.316.099 4.796.294 1.48.195 2.746.489 3.801.88 2.006.766 3.554 1.9 4.643 3.405s1.633 3.397 1.633 5.676zm-15.919 5.434c1.429 0 2.641-.063 3.636-.191.995-.128 1.832-.318 2.513-.574 1.258-.476 2.13-1.126 2.615-1.951.485-.825.727-1.773.727-2.845 0-.918-.191-1.73-.574-2.437-.383-.705-1.033-1.263-1.952-1.671-.596-.271-1.344-.472-2.245-.6-.902-.127-2.015-.19-3.342-.19h-4.464v10.459zm40.078-11.046c-1.701 0-3.27.28-4.707.842a10.185 10.185 0 00-3.699 2.449c-1.029 1.071-1.833 2.394-2.411 3.967-.578 1.573-.867 3.371-.867 5.396 0 2.007.264 3.771.791 5.293.527 1.522 1.284 2.794 2.27 3.814s2.19 1.79 3.61 2.309c1.42.519 3.032.778 4.834.778 1.292 0 2.61-.103 3.954-.307a22.615 22.615 0 003.775-.893v5.383a28.94 28.94 0 01-3.852.804 30.55 30.55 0 01-4.286.293c-2.892 0-5.434-.412-7.628-1.237-2.194-.824-4.026-1.989-5.498-3.495-1.471-1.505-2.577-3.308-3.316-5.408-.739-2.1-1.109-4.417-1.109-6.951 0-2.603.395-5.018 1.186-7.245.791-2.229 1.93-4.158 3.418-5.791 1.488-1.633 3.35-2.917 5.587-3.853 2.236-.935 4.766-1.411 7.589-1.429 1.445 0 2.814.099 4.107.294 1.292.195 2.458.472 3.495.829v5.306c-1.361-.425-2.628-.723-3.801-.893a23.98 23.98 0 00-3.442-.255zm28.063 30.128c-1.786 0-3.393-.175-4.821-.522-1.429-.349-2.688-.851-3.776-1.506a10.53 10.53 0 01-2.78-2.397 11.757 11.757 0 01-1.837-3.202 13.903 13.903 0 01-.804-3.163c-.161-1.156-.242-2.449-.242-3.878v-20.103h6.25v19.542c0 2.415.289 4.303.867 5.663.646 1.514 1.591 2.606 2.832 3.278 1.241.672 2.704 1.008 4.388 1.008 1.684 0 3.146-.336 4.388-1.008 1.242-.672 2.186-1.765 2.832-3.278.578-1.36.867-3.248.867-5.663v-19.542h6.25v20.103c0 1.429-.08 2.722-.242 3.878a13.85 13.85 0 01-.804 3.163 11.564 11.564 0 01-1.85 3.202 10.498 10.498 0 01-2.831 2.397c-1.114.655-2.395 1.157-3.84 1.506-1.446.347-3.061.522-4.847.522zm47.705-24.516c0 2.381-.66 4.4-1.978 6.059-1.318 1.658-3.354 2.887-6.109 3.687v.102l10.153 14.031h-7.501l-9.285-13.215h-4.286v13.215h-6.25v-34.134h10.383c1.718 0 3.316.099 4.796.294 1.48.195 2.746.489 3.801.88 2.007.766 3.555 1.9 4.644 3.405 1.087 1.505 1.632 3.397 1.632 5.676zm-15.919 5.434c1.429 0 2.64-.063 3.635-.191.995-.128 1.833-.318 2.513-.574 1.259-.476 2.131-1.126 2.615-1.951.484-.825.728-1.773.728-2.845 0-.918-.191-1.73-.574-2.437-.383-.705-1.033-1.263-1.952-1.671-.595-.271-1.344-.472-2.244-.6-.902-.127-2.016-.19-3.343-.19h-4.464v10.459zm35.995-.995l9.082-14.694h6.938l-12.934 20.384v13.75h-6.25v-13.75l-12.935-20.384h6.939l9.082 14.694z"/></g></svg>