<svg xmlns="http://www.w3.org/2000/svg" height="800" width="1200" viewBox="-8.68725 -15.174075 75.2895 91.04445"><defs><linearGradient id="p" spreadMethod="pad" gradientTransform="matrix(-1.87098 8.65327 8.65327 1.87098 770 799.294)" gradientUnits="userSpaceOnUse" y2="0" x2="1" y1="0" x1="0"><stop offset="0" stop-color="#231f20"/><stop offset=".4284" stop-color="#9797a2"/><stop offset=".4284" stop-color="#9797a2"/><stop offset=".7779" stop-color="#fafafa"/><stop offset="1" stop-color="#fafafa"/></linearGradient><linearGradient id="n" spreadMethod="pad" gradientTransform="matrix(4.97007 11.1096 11.1096 -4.97007 768.957 797.898)" gradientUnits="userSpaceOnUse" y2="0" x2="1" y1="0" x1="0"><stop offset="0" stop-color="#fff"/><stop offset=".35" stop-color="#9797a2"/><stop offset=".35" stop-color="#9797a2"/><stop offset="1" stop-color="#9797a2"/></linearGradient><linearGradient id="m" spreadMethod="pad" gradientTransform="matrix(0 -11.5554 -11.5554 0 740.207 794.242)" gradientUnits="userSpaceOnUse" y2="0" x2="1" y1="0" x1="0"><stop offset="0" stop-color="#231f20"/><stop offset=".8432" stop-color="#fafafa"/><stop offset=".8432" stop-color="#fafafa"/><stop offset="1" stop-color="#fafafa"/></linearGradient><linearGradient id="j" spreadMethod="pad" gradientTransform="scale(5.0802 -5.0802) rotate(83.305 164.3814 5.4923)" gradientUnits="userSpaceOnUse" y2="0" x2="1" y1="0" x1="0"><stop offset="0" stop-color="#a09f9f"/><stop offset=".3462" stop-color="#fff"/><stop offset="1" stop-color="#2a2627"/></linearGradient><linearGradient id="i" spreadMethod="pad" gradientTransform="matrix(-.01096 3.35474 3.35474 .01096 765.885 800.153)" gradientUnits="userSpaceOnUse" y2="0" x2="1" y1="0" x1="0"><stop offset="0" stop-color="#231f20"/><stop offset="1" stop-color="#fafafa"/></linearGradient><linearGradient id="h" spreadMethod="pad" gradientTransform="scale(-20.59137 20.59137) rotate(-50.982 22.4847 58.728)" gradientUnits="userSpaceOnUse" y2="0" x2="1" y1="0" x1="0"><stop offset="0" stop-color="#302c2d"/><stop offset=".1535" stop-color="#4a4647"/><stop offset=".1535" stop-color="#4a4647"/><stop offset=".2666" stop-color="#949299"/><stop offset=".4929" stop-color="#616066"/><stop offset=".7233" stop-color="#c6c5c5"/><stop offset="1" stop-color="#363233"/></linearGradient><linearGradient id="g" spreadMethod="pad" gradientTransform="matrix(0 2.16881 2.16881 0 739.281 800.232)" gradientUnits="userSpaceOnUse" y2="0" x2="1" y1="0" x1="0"><stop offset="0" stop-color="#231f20"/><stop offset="1" stop-color="#fafafa"/></linearGradient><linearGradient id="f" spreadMethod="pad" gradientTransform="matrix(8.00818 18.8394 18.8394 -8.00818 738.549 797.108)" gradientUnits="userSpaceOnUse" y2="0" x2="1" y1="0" x1="0"><stop offset="0" stop-color="#fafafa"/><stop offset=".3719" stop-color="#9797a2"/><stop offset=".9963" stop-color="#231f20"/><stop offset="1" stop-color="#231f20"/></linearGradient><linearGradient id="e" spreadMethod="pad" gradientTransform="scale(68.49122 -68.49122) rotate(35.128 24.2713 10.5498)" gradientUnits="userSpaceOnUse" y2="0" x2="1" y1="0" x1="0"><stop offset="0" stop-color="#231f20"/><stop offset=".1062" stop-color="#9797a2"/><stop offset=".1062" stop-color="#9797a2"/><stop offset="1" stop-color="#fafafa"/></linearGradient><linearGradient id="d" spreadMethod="pad" gradientTransform="matrix(-46.1179 23.8421 23.8421 46.1179 773.166 790.253)" gradientUnits="userSpaceOnUse" y2="0" x2="1" y1="0" x1="0"><stop offset="0" stop-color="#a3a1a1"/><stop offset=".074" stop-color="#494546"/><stop offset=".1512" stop-color="#2e2a2b"/><stop offset=".9725" stop-color="#b6b5b5"/><stop offset="1" stop-color="#b6b5b5"/></linearGradient><linearGradient id="c" spreadMethod="pad" gradientTransform="matrix(-31.9252 16.5327 16.5327 31.9252 770.21 791.768)" gradientUnits="userSpaceOnUse" y2="0" x2="1" y1="0" x1="0"><stop offset="0" stop-color="#a3a1a1"/><stop offset=".1498" stop-color="#7d7b7b"/><stop offset=".6954" stop-color="#b6b5b5"/><stop offset="1" stop-color="#b6b5b5"/></linearGradient><linearGradient id="b" spreadMethod="pad" gradientTransform="matrix(-31.9252 16.5327 16.5327 31.9252 770.21 791.768)" gradientUnits="userSpaceOnUse" y2="0" x2="1" y1="0" x1="0"><stop offset="0" stop-color="#a3a1a1"/><stop offset=".2088" stop-color="#2e2a2b"/><stop offset=".9725" stop-color="#b6b5b5"/><stop offset="1" stop-color="#b6b5b5"/></linearGradient><clipPath id="q" clipPathUnits="userSpaceOnUse"><path d="M27 851.882h1207.56V27H27z"/></clipPath><clipPath id="o" clipPathUnits="userSpaceOnUse"><path d="M27 851.882h1207.56V27H27z"/></clipPath><clipPath id="a" clipPathUnits="userSpaceOnUse"><path d="M27 851.882h1207.56V27H27z"/></clipPath><radialGradient id="l" spreadMethod="pad" gradientTransform="matrix(26.6704 13.3352 13.3352 -26.6704 736.26 797.444)" gradientUnits="userSpaceOnUse" r="1" cy="0" cx="0" fy="0" fx="0"><stop offset="0" stop-color="#949299"/><stop offset=".569" stop-color="#fff"/><stop offset=".9739" stop-color="#444141"/><stop offset="1" stop-color="#444141"/></radialGradient><radialGradient id="k" spreadMethod="pad" gradientTransform="matrix(26.0489 13.3315 13.3315 -26.0489 735.558 794.594)" gradientUnits="userSpaceOnUse" r="1" cy="0" cx="0" fy="0" fx="0"><stop offset="0" stop-color="#b9b7b8"/><stop offset=".1243" stop-color="#4a4647"/><stop offset=".1243" stop-color="#4a4647"/><stop offset=".2037" stop-color="#6b6769"/><stop offset=".2679" stop-color="#949299"/><stop offset=".3838" stop-color="#151111"/><stop offset=".6216" stop-color="#9e9c9d"/><stop offset=".7373" stop-color="#5c595a"/><stop offset=".8859" stop-color="#383535"/><stop offset=".9526" stop-color="#221e1f"/><stop offset="1" stop-color="#a3a1a1"/></radialGradient></defs><g clip-path="url(#a)" transform="matrix(1.25 0 0 -1.25 -912.2875 1018.805)" fill="#656263"><path d="M734.043 769.528h-2.838v1.958h-1.375v-4.978h1.375v1.836h2.838v-1.836h1.426v5.006h-1.426zm33.147.657c-.467.887-.777 1.306-1.602 1.306-.824 0-1.136-.419-1.605-1.306-.268-.506-1.795-3.555-1.811-3.584l-.043-.088h1.536s1.464 3.003 1.543 3.166c.197.41.24.482.38.482.135 0 .176-.072.381-.49.071-.155 1.535-3.158 1.535-3.158h1.54l-.045.088c-.018.029-1.539 3.078-1.809 3.584m-5.29 1.317l-.018-.034c-.013-.021-.878-1.948-.996-2.187-.07-.138-.216-.218-.406-.218-.213 0-.4.097-.476.247-.088.176-.788 1.607-1.026 2.154l-.016.038h-1.589l.047-.083c.099-.222 1.371-2.707 1.539-3.016.22-.419.66-.699 1.136-.728l-.521-1.163h1.48l2.375 4.99zm12.856-3.371c0-.012-.012-.033-.033-.05-.028-.017-.074-.029-.115-.029-.086 0-.172.042-.245.121-.195.217-2.66 2.995-2.832 3.275l-.019.03h-2.225v-4.924h1.408v3.506c.457-.511 2.25-2.518 2.795-3.113.268-.284.737-.46 1.229-.46.625 0 1.109.281 1.305.757.13.314.13.933.13 1.473v2.798h-1.398zm-26.375-.012c0-.017-.018-.034-.039-.046-.027-.021-.07-.034-.115-.034-.084 0-.168.042-.239.118-.197.217-2.636 2.969-2.812 3.25l-.016.029h-2.209v-4.881h1.397v3.476c.453-.507 2.23-2.497 2.773-3.083.264-.288.733-.46 1.217-.46.615 0 1.105.28 1.297.749.131.313.131.924.131 1.464v2.777h-1.385z"/><path d="M739.951 767.797h-1.51c-.777 0-1.158.401-1.158 1.221 0 .82.381 1.217 1.158 1.217h1.51c.783 0 1.16-.397 1.16-1.217 0-.82-.377-1.221-1.16-1.221m.502 3.718h-2.488c-1.118 0-2.034-.916-2.034-2.041v-.916c0-1.121.916-2.037 2.034-2.037h2.488c1.125 0 2.033.916 2.033 2.037v.916c0 1.125-.908 2.041-2.033 2.041m9.785-2.05v-.916c0-1.125.91-2.041 2.031-2.041h2.49c1.122 0 2.032.916 2.032 2.041v1.096h-3.336v-1.276h1.847c-.166-.393-.505-.581-1.044-.581h-1.51c-.78 0-1.16.397-1.16 1.221 0 .82.38 1.218 1.16 1.218h4.043v1.28h-4.522c-1.121 0-2.031-.917-2.031-2.042" fill-rule="evenodd"/><path d="M752.328 779.998h-3.412c.109.155.158.255.158.255h-2.111s-.11-.205-.235-.326c-.117-.117-.427-.239-.427-.239h-.77v-1.062h1.721s.262.017.715.293h4.361zm0-1.569h-6.83v-1.079h6.83zm-.125-2.505c.117.129.125.247.125.247v.932h-6.83v-1.079h3.949l-3.506-1.401s-.543-.214-.443-.799c.096-.585.828-.556.828-.556h6.002v1.079h-3.873l3.484 1.385s.151.058.264.192m-7.01 3.559h-.937l-.536.77h-1.798l1.201-1.606h-1.201l1.007-1.344s.198-.216.373-.334c.284-.179.582-.172.582-.172h1.309v1.088h-.937l-.356.518h1.293zm-2.049-4.584s-.025-.222-.119-.39c-.078-.133-.588-.163-.588-.163h-.652v-1.079h2.015s.338.034.502.289c.319.51.469 1.351.469 1.351l.346 1.464h-1.698zm-2.749-.552h-5.252v2.907h5.252v1.088h-5.252v1.928h-2.129v-5.923h-3.168v-1.079h10.549zm35.562 3.857v1.589h-2.125v-.514h-1.58v.966h-2.113v-.966h-1.577v.514h-2.113v-1.589zm-2.094-3.568c0-.167-.123-.289-.27-.289h-2.408c-.142 0-.26.122-.26.289v.497c0 .168.118.339.26.339h2.408c.147 0 .27-.171.27-.339zm2.111-.54v1.623c0 .452-.351.828-.795.828h-5.576c-.429 0-.789-.376-.789-.828v-1.623c0-.456.36-.824.789-.824h5.576c.444 0 .795.368.795.824"/><path d="M765.965 777.881v-1.075h.455v-1.945s.08-.452-.547-.519h-.213v-1.075h2.325s.486.147.548.649v2.89h7.629v1.075zm-1.693-3.534h-2.012v4.811l2.006.008v1.079l-9.883.008s-.586.005-.66-.522v-1.782s-.006-.373.44-.544c0 0-.399-.138-.44-.477v-1.397s.063-.431.481-.46h4.437v1.083h-2.521s-.264.012-.27.314c0 .359.248.343.248.343h2.104v1.501h-2.104s-.26.101-.248.423c.022.406.262.435.262.435l4.031-.012-.012-4.798-6.414-.004v-1.088h10.555z"/></g><path d="M733.285 800.693c0-7.915 8.834-14.357 19.697-14.357 10.858 0 19.69 6.442 19.69 14.357 0 7.915-8.832 14.351-19.69 14.351-10.863 0-19.697-6.436-19.697-14.351m17.16 12.478c-2.594-2.443-4.689-6.911-5.71-9.093-1.018-2.175-2.702-2.263-2.714-2.263h-4.071c1.242 9.363 10.626 11.102 12.495 11.356m.442-6.74c-.075.105.009.351.05.468l.016.048c.193.59 1.078 2.272 1.091 2.293 1.424 2.986 3.665 3.432 4.874 3.432.627 0 1.063-.114 1.219-.164 9.063-2.858 9.867-9.764 9.936-10.705-.288-.001-1.097-.006-1.917-.006-1.151 0-1.88.009-2.113.027-.086.008-.146.041-.188.099-.109.158-.06.472-.03.568.02.057.546 1.431-.032 2.434-.297.515-.834.832-1.586.945-.198.028-.38.042-.557.042-1.353 0-1.834-.856-2.101-1.604-.182-.502-.458-1.108-.745-1.753-.267-.592-.546-1.208-.739-1.73-.651-1.738-1.681-2.817-2.682-2.817-.254 0-.503.069-.74.204-1.366.763-.881 2.023-.676 2.561.467 1.218 1.56 4.066.212 5.287-.478.433-.966.641-1.494.641-.386 0-.722-.107-1.021-.203-.104-.034-.203-.066-.294-.09-.113-.029-.21-.044-.289-.044-.096 0-.163.022-.194.067m-4.575-9.212c.008.026 1.104 2.642 1.459 3.538.93 2.359 2 2.855 2.734 2.855.192 0 .382-.035.568-.103.503-.186.845-.481 1.016-.882.411-.946-.16-2.296-.539-3.188-.072-.174-.138-.332-.189-.466-.095-.252-.9-2.504.251-3.64.54-.551 1.267-.667 1.781-.667.414 0 .714.074.726.077.444.11.734.101.814-.023.09-.142-.054-.46-.135-.632-.025-.051-.042-.096-.056-.13-1.816-4.824-4.951-5.198-5.871-5.198-.227 0-.441.022-.586.061-9.435 2.583-10.307 10.037-10.383 11.025h3.797c.094 0 .158-.026.202-.083.113-.154.052-.485.023-.585-.025-.051-.608-1.286-.192-2.284.199-.471.584-.807 1.155-1.001.386-.131.761-.198 1.107-.198 1.666 0 2.31 1.509 2.318 1.524m13.307-2.14c.385.846.751 1.646 1.148 2.375 1.297 2.361 2.834 2.389 2.899 2.389h4.434c-1.114-9.353-10.79-11.162-12.629-11.421 2.091 2.129 3.18 4.531 4.148 6.657" fill="url(#b)" transform="matrix(1.25 0 0 -1.25 -912.2875 1018.805)"/><path d="M733.285 800.693c0-7.915 8.834-14.357 19.697-14.357 10.858 0 19.69 6.442 19.69 14.357 0 7.915-8.832 14.351-19.69 14.351-10.863 0-19.697-6.436-19.697-14.351m17.16 12.478c-2.594-2.443-4.689-6.911-5.71-9.093-1.018-2.175-2.702-2.263-2.714-2.263h-4.071c1.242 9.363 10.626 11.102 12.495 11.356m.442-6.74c-.075.105.009.351.05.468l.016.048c.193.59 1.078 2.272 1.091 2.293 1.424 2.986 3.665 3.432 4.874 3.432.627 0 1.063-.114 1.219-.164 9.063-2.858 9.867-9.764 9.936-10.705-.288-.001-1.097-.006-1.917-.006-1.151 0-1.88.009-2.113.027-.086.008-.146.041-.188.099-.109.158-.06.472-.03.568.02.057.546 1.431-.032 2.434-.297.515-.834.832-1.586.945-.198.028-.38.042-.557.042-1.353 0-1.834-.856-2.101-1.604-.182-.502-.458-1.108-.745-1.753-.267-.592-.546-1.208-.739-1.73-.651-1.738-1.681-2.817-2.682-2.817-.254 0-.503.069-.74.204-1.366.763-.881 2.023-.676 2.561.467 1.218 1.56 4.066.212 5.287-.478.433-.966.641-1.494.641-.386 0-.722-.107-1.021-.203-.104-.034-.203-.066-.294-.09-.113-.029-.21-.044-.289-.044-.096 0-.163.022-.194.067m-4.575-9.212c.008.026 1.104 2.642 1.459 3.538.93 2.359 2 2.855 2.734 2.855.192 0 .382-.035.568-.103.503-.186.845-.481 1.016-.882.411-.946-.16-2.296-.539-3.188-.072-.174-.138-.332-.189-.466-.095-.252-.9-2.504.251-3.64.54-.551 1.267-.667 1.781-.667.414 0 .714.074.726.077.444.11.734.101.814-.023.09-.142-.054-.46-.135-.632-.025-.051-.042-.096-.056-.13-1.816-4.824-4.951-5.198-5.871-5.198-.227 0-.441.022-.586.061-9.435 2.583-10.307 10.037-10.383 11.025h3.797c.094 0 .158-.026.202-.083.113-.154.052-.485.023-.585-.025-.051-.608-1.286-.192-2.284.199-.471.584-.807 1.155-1.001.386-.131.761-.198 1.107-.198 1.666 0 2.31 1.509 2.318 1.524m13.307-2.14c.385.846.751 1.646 1.148 2.375 1.297 2.361 2.834 2.389 2.899 2.389h4.434c-1.114-9.353-10.79-11.162-12.629-11.421 2.091 2.129 3.18 4.531 4.148 6.657" fill="url(#c)" transform="matrix(1.25 0 0 -1.25 -912.2875 1018.805)"/><path d="M733.387 800.693c0-7.863 8.764-14.25 19.595-14.25 10.825 0 19.586 6.387 19.586 14.25 0 7.848-8.761 14.247-19.586 14.247-10.831 0-19.595-6.399-19.595-14.247m1.656-.002c0 7.396 8.031 13.39 17.934 13.39 9.908 0 17.939-5.994 17.939-13.39 0-7.396-8.031-13.391-17.939-13.391-9.903 0-17.934 5.995-17.934 13.391" fill="url(#d)" transform="matrix(1.25 0 0 -1.25 -912.2875 1018.805)"/><path d="M735.043 800.715c0-7.397 8.031-13.392 17.934-13.392 9.908 0 17.939 5.995 17.939 13.392 0 7.394-8.031 13.39-17.939 13.39-9.903 0-17.934-5.996-17.934-13.39m15.715 12.622c-2.633-2.317-4.776-6.823-5.93-9.281-1.063-2.265-2.807-2.323-2.807-2.323h-4.193c1.33 10.674 12.93 11.604 12.93 11.604m.093-6.335c.2.607 1.098 2.307 1.098 2.307 1.891 3.966 5.246 3.628 6.219 3.323 9.877-3.116 10.014-10.91 10.014-10.91s-3.538-.026-4.149.021c-.517.047-.31.81-.31.81s1.115 2.843-1.534 3.236c-1.777.264-2.281-.766-2.542-1.492-.352-.987-1.088-2.418-1.485-3.484-.797-2.129-2.224-3.423-3.572-2.669-1.394.781-.97 2.04-.721 2.69.463 1.209 1.522 4.008.238 5.173-1.13 1.022-2.051.496-2.711.324-.128-.034-.233-.049-.317-.049-.512 0-.283.544-.228.72m-4.636-9.718s1.102 2.631 1.457 3.536c1.123 2.839 2.525 3.147 3.436 2.812 2.285-.844.763-3.582.351-4.672-.323-.85-.701-2.61.226-3.53.917-.933 2.407-.562 2.407-.562 1.496.373.855-.644.748-.924-2.033-5.398-5.785-5.419-6.58-5.201-10.264 2.811-10.469 11.233-10.469 11.233h3.908c.562 0 .32-.817.32-.817s-1.17-2.435.901-3.141c.4-.137.758-.194 1.077-.194 1.612 0 2.218 1.46 2.218 1.46m14.46.244c1.366 2.488 2.998 2.442 2.998 2.442h4.545c-1.173-10.606-13.038-11.666-13.038-11.666 3.068 2.999 4.043 6.575 5.495 9.224" fill="url(#e)" transform="matrix(1.25 0 0 -1.25 -912.2875 1018.805)"/><path d="M736.865 806.576c-.339-.545-1.697-2.371-1.822-5.586l2.785.717s.365 4.546 3.565 7.399c.761.683 3.732 3.587 9.365 4.207l.929.732s-.01.001-.031.001c-.594 0-9.627-.122-14.791-7.47" fill="url(#f)" transform="matrix(1.25 0 0 -1.25 -912.2875 1018.805)"/><path d="M734.98 800.977l2.811-1.026s3.238-.008 3.75.003c.518.01.49-.208.49-.208l1.551 1.231z" fill="url(#g)" transform="matrix(1.25 0 0 -1.25 -912.2875 1018.805)"/><path d="M763.069 804.841c-.117-.017-.647-.15-.97-.897-1.607-3.744-5.228-12.845-6.982-14.569-.976-1.009-2.14-1.358-2.14-1.358l2.203.287s1.619 1.298 3.195 4.412c1.252 2.527 2.768 5.585 2.719 5.48 0 0 1.084 1.675 2.671 1.751.409.021.424 1.35.042 1.898-.139.192-.122.445-.122.445l.192.734s.472 1.828-.648 1.829c-.05 0-.104-.004-.16-.012" fill="url(#h)" transform="matrix(1.25 0 0 -1.25 -912.2875 1018.805)"/><path d="M760.847 800.977l2.756-1.03h4.615l2.698 1.03z" fill="url(#i)" transform="matrix(1.25 0 0 -1.25 -912.2875 1018.805)"/><path d="M763.285 802.115l-2.438-1.138h10.069l-2.734.722-4.035.038s-.247-.006-.34.108c0 0-.065.109-.122.25-.015.037-.078.048-.151.048-.113 0-.249-.028-.249-.028" fill="url(#j)" transform="matrix(1.25 0 0 -1.25 -912.2875 1018.805)"/><path d="M756.367 813.708c-.048-.005-.093-.014-.142-.022a.7356.7356 0 01-.051-.008c-1.342-.225-2.391-.92-2.391-.92-1.744-1.04-3.683-3.078-5.244-7.42-2.606-7.241-3.334-8.881-5.121-8.37-.488.234-.545.257-.527.247-.211.108-1.302.65-1.159.053.11-.359.209-1.178 2.008-1.455.284-.011 1.551-.167 2.401 1.303.144.31 1.403 3.362 1.403 3.362s.688 1.588 1.077 2.093c.111.143 1.17 1.538 2.487 1.038 1.295-.493 1.384-1.565 1.093-2.634 0 0-.242-.764-.346-1.011-.417-.998-1.277-2.927-.353-4.338.238-.282.971-1.232 3.133-.677l1.447.744s-2.066-.293-2.886.221c-.856.536-1.681 1.825-.491 4.663.002 0 .469 1.056.494 1.812.039 1.262-.11 1.589-.953 2.037-1.902.981-4.25-.783-4.305-.814.629 1.126 2.836 2.802 2.836 2.802s-.019.168.027.421c.132.695 1.622 3.315 1.622 3.315s1.509 2.7 4.577 2.624c.536-.022.942-.069 1.983-.442 9.088-3.269 9.196-10.633 9.196-10.633s1.646-.435 2.734-.722c-.092 4.061-2.623 6.731-2.97 7.138-4.296 4.758-10.489 5.544-10.989 5.635 0 0-.015.001-.043.001-.081 0-.271-.005-.547-.043" fill="url(#k)" transform="matrix(1.25 0 0 -1.25 -912.2875 1018.805)"/><path d="M741.154 812.048c-2.461-1.382-7.083-4.629-7.724-10.46 0 0-.295-2.468.803-5.039.441-.939 1.136-.592 1.308.995 0 0-.555 1.575-.561 3.433h.014c-.004 1.078.215 2.064.715 3.389.271.641 2.666 6.979 12.057 9.186 0 0 1.594.336 3.857.452-1.567-.937-3.496-3.848-4.014-4.663-.605-.82-1.941-3.56-2.332-4.361-.531-1.091-.744-1.583-1.201-2.096-.311-.352-.74-.649-.918-.768-.042-.027-.195-.104-.346-.172-.441-.202-.791-.211-.791-.211h-4.193l-2.834-.756h8.588s-1.131-.985-1.551-1.231c.057-.341.03-.404-.07-.747-.293-.875-.269-1.433-.242-1.663.029.112.023.218.218.206.198-.01.745-.227 1.321-.496.668-.312.988-.177 1.445.055 1.104.562 2.607 4.883 3.611 7.61 2.954 8.928 7.834 8.975 8.624 9.037.527-.086 1.055-.192 1.574-.328 3.359-.924 6.348-2.044 9.464-5.352.221.208.754 1.136.18 1.626-.574.491-4.525 4.144-11.638 5.012-.592.061-1.883.229-3.625.229-2.995 0-7.325-.496-11.739-2.887" fill="url(#l)" transform="matrix(1.25 0 0 -1.25 -912.2875 1018.805)"/><path d="M735.582 795.689c-.196-.777-.111-.832.414-1.381 2.078-2.16 4.606-4.232 9.146-5.667-8.948 3.299-9.871 9.914-9.871 9.914.094-.997.446-2.314.311-2.866" fill="url(#m)" transform="matrix(1.25 0 0 -1.25 -912.2875 1018.805)"/><path d="M768.19 799.947c-.075-.864-.487-2.75-1.082-4.003-.095-.194.05-.355.316-.547 1.463-1.052.657-1.927.557-2.028 1.089 1.049 1.945 2.949 1.945 2.949 1.166 2.32.99 4.659.99 4.659zm-.219-6.587s.003.003.01.009c-.003-.003-.007-.006-.01-.009" fill="url(#n)" transform="matrix(1.25 0 0 -1.25 -912.2875 1018.805)"/><g clip-path="url(#o)" transform="matrix(1.25 0 0 -1.25 -912.2875 1018.805)"><path d="M755.18 788.304l-.627-.082s.479.206.645.314c.265.171.74.528 1.068.902-.412-.556-1.086-1.134-1.086-1.134" fill="#bbbcbf"/><path d="M743.598 800.931h-4.293c-1.074.001-2.148.002-2.951.002-.404.001-.738.001-.973.001-.408.001-.408.001-.412.039l.041.007.002.044c.109-.005 8.5-.005 8.586-.005zm27.318-.011h-10.068v.114h10.068zm-26.984-4.095c-.209 0-.48.061-.857.258-.635.328-1.123.411-1.143.415-.006.002-.158.016-.186-.074-.011-.043-.009-.103-.005-.19l-.094-.076c-.041.196-.055.313.035.377.066.053.27.216 1.43-.374.685-.345.99-.248 1.238-.165.039.013.078.027.115.036 1.153.395 2.334 3.661 2.838 5.055.065.18.119.331.164.443 1.803 5.282 2.766 6.63 3.127 7.137.035.053.068.096.094.134 2.849 4.079 6.219 3.991 6.254 3.991v-.164c-.031.001-3.362.157-6.182-3.876a2.5654 2.5654 0 00-.094-.135c-.359-.504-1.316-1.846-3.119-7.117-.041-.113-.095-.265-.158-.444-.512-1.405-1.705-4.698-2.898-5.106-.038-.013-.077-.023-.112-.037-.125-.041-.263-.088-.447-.088" fill="#fff"/><path d="M754.521 795.57c-1.094 0-1.826.424-2.182 1.26a.3463.3463 0 01-.021.051c-.537 1.117-.172 2.219.099 3.022.038.111.073.215.102.31.676 1.583.834 2.759.475 3.498-.297.609-.877.764-1.153.838a.9045.9045 0 01-.08.022c-1.787.53-3.834-1.014-3.853-1.03l-.055.071c.022.014 2.1 1.584 3.934 1.044a.6669.6669 0 01.076-.021c.291-.078.896-.241 1.209-.885.371-.765.215-1.964-.471-3.566-.027-.093-.064-.197-.101-.307-.264-.791-.625-1.873-.102-2.959.006-.013.012-.031.023-.053.34-.802 1.047-1.208 2.1-1.208.014 0 .025 0 .039.001.916.018 1.43.039 1.656.086l-.226-.112c-.237-.048-.506-.043-1.428-.062z" fill="#fff"/></g><path d="M768.303 805.909c.012-.906-.656-1.148-1.076-.6.404-.891.863-2.295.955-3.61l2.64-.643s.41 3.008-2.408 6.341a.1148.1148 0 01-.031.004c-.274 0-.088-1.004-.08-1.492" fill="url(#p)" transform="matrix(1.25 0 0 -1.25 -912.2875 1018.805)"/><g clip-path="url(#q)" transform="matrix(1.25 0 0 -1.25 -912.2875 1018.805)"><path d="M753.232 788.048l-.354-.061c.022.006 1.94.697 2.819 2.192.576.945 1.312 2.318 1.488 2.671.178.358 1.904 4.127 2.049 4.456.139.315 1.687 3.951 1.701 3.989l1.125 2.666c.002.005.281.849 1.178.961h.014c.552.037.685-.556.718-.96 0 0-.115.888-.709.873l-.015-.001c-.836-.103-1.1-.895-1.104-.904l-1.127-2.671c-.017-.036-1.564-3.674-1.699-3.989-.143-.329-1.877-4.1-2.055-4.458-.172-.355-.91-1.731-1.49-2.679-.898-1.523-2.519-2.078-2.539-2.085" fill="#fff"/></g></svg>