<svg xmlns="http://www.w3.org/2000/svg" height="800" width="1200" version="1.0" viewBox="-59.5944 -75.01575 516.4848 450.0945"><path d="M140.58 5.001c-44.802.15-90.776 8.198-108.88 73.27 0 0-16.15 80.16-25.362 136.035-5.534 33.567 5.317 55.34 44.576 68.658 61.28 20.788 139.469 11.844 194.19-5.636 27.668-8.839 31.338-33.405 29.205-48.164-6.913-47.836-13.814-88.401-24.081-142.44-1.166-6.136-9.083-43.263-32.024-59.178C204.54 18.066 185.381 4.85 140.58 5z" fill="#d93339" fill-rule="evenodd" stroke="#5e5c06" stroke-width="10"/><g stroke="#534536" stroke-width="2.6"><path d="M142.136 264.557l51.447-212.31-52.172-24.636-52.171 23.55z" fill="#dad1cc" fill-rule="evenodd"/><path d="M106.993 60.58l26.085 106.88V50.798zm69.562 0l-26.086 106.88V50.798z" fill="#f0efef" fill-rule="evenodd"/><path d="M89.599 51.115l17.548 9.479m69.939-.128l15.884-8.07" fill="none"/></g><path d="M37.465 222.888v28.949h6.404v-10.888h9.992v10.888h6.66v-28.95h-6.66l.128 12.298h-9.992l-.128-12.297zm29.205-.386h7.173s-.1 15.376 0 17.036c.1 1.673 1.344 4.757 5.38 4.74 4.162-.019 5.075-3.08 5.124-4.74.048-1.652 0-17.036 0-17.036h6.148s.296 19.627 0 21.52c-.3 1.915-2.626 7.941-11.272 7.813-8.774-.128-11.603-6.15-12.04-7.814-.47-1.782-.513-21.52-.513-21.52z" fill="#dad1cc" fill-rule="evenodd" stroke="#534536" stroke-width="2.4"/><g fill="#dad1cc" fill-rule="evenodd" stroke="#534536" stroke-width="2" stroke-linecap="round"><path d="M62.067 174.887v-6.069l-6.793 6.069h-4.982l11.775-10.96v-8.604h-3.804l-.09-5.344h3.894v-3.533l3.895-.18v3.713h4.347l.091 5.344h-4.438v4.71l7.79-6.143h4.936l-12.726 10.4v10.597z" stroke-linejoin="round"/><path d="M45.663 200.728l.128 4.611h63.022l.64-4.611H98.437s1.992-1.164 3.074-3.074c1.082-1.91 2.306-10.12 2.306-10.12l8.967-.512.512-6.917h-26.26l-.127 4.995H73.843v-10.247h-28.82l-.129 5.508h4.355v6.66h5.893s-.31 6.39.384 8.327c.694 1.936 2.562 5.38 2.562 5.38z" stroke-linejoin="round"/><path d="M49.121 180.36h13.322m-7.173 6.662l13.321-.128m-13.193 6.789l38.812-.385m-3.97-5.764h13.577" stroke-miterlimit="2.2"/><path d="M91.47 180.14h-4.438v-17.209l-13.496 11.956h-6.159l19.655-16.666v-7.246h-3.08v-3.442h3.08v-3.713h4.438v3.713h3.533l-.181 3.442H91.47v3.804l8.695-6.974h5.163L91.47 160.123z" stroke-linejoin="round"/></g><g fill="#dad1cc" fill-rule="evenodd" stroke="#534536" stroke-width="2" stroke-linecap="round"><path d="M218.763 174.887v-6.069l6.793 6.069h4.981l-11.774-10.96v-8.604h3.804l.09-5.344h-3.894v-3.533l-3.895-.18v3.713h-4.348l-.09 5.344h4.438v4.71l-7.79-6.143h-4.936l12.726 10.4v10.597z" stroke-linejoin="round"/><path d="M235.167 200.728l-.128 4.611h-63.022l-.64-4.611h11.016s-1.993-1.164-3.075-3.074-2.305-10.12-2.305-10.12l-8.967-.512-.512-6.917h26.259l.128 4.995h13.066v-10.247h28.82l.129 5.508h-4.356v6.66h-5.892s.31 6.39-.384 8.327c-.694 1.936-2.562 5.38-2.562 5.38z" stroke-linejoin="round"/><path d="M231.709 180.36h-13.322m7.173 6.662l-13.322-.128m13.194 6.789l-38.812-.385m3.97-5.764h-13.577" stroke-miterlimit="2.2"/><path d="M189.36 180.14h4.438v-17.209l13.495 11.956h6.16l-19.655-16.666v-7.246h3.08v-3.442h-3.08v-3.713h-4.439v3.713h-3.532l.181 3.442h3.351v3.804l-8.695-6.974h-5.163l13.858 12.318z" stroke-linejoin="round"/></g><path d="M98.424 222.427v29.41h14.705c1.776 0 8.997-4.644 8.967-14.884-.03-10.114-7.23-14.236-8.967-14.526-1.753-.294-14.705 0-14.705 0zm6.456 5.97s5.232-.263 6.478.24c1.355.545 3.722 2.379 3.722 8.114 0 5.608-2.366 7.83-3.34 8.249-.926.398-6.86.381-6.86.381z" fill="#dad1cc" fill-rule="evenodd" stroke="#534536" stroke-width="2.4" stroke-linecap="round" stroke-linejoin="round"/><g fill="#dad1cc" fill-rule="evenodd" stroke="#534536" stroke-width="2" stroke-linecap="round" stroke-linejoin="round"><path d="M218.311 66.254v9.864h-23.697v-9.864h4.611v3.843h3.715v-3.843h5.764v3.843h3.843v-3.843z"/><path d="M216.262 76.118V99.43h-19.598V76.118z"/><path d="M204.35 77.398h-2.435v4.868m10.505 12.937h-2.563v3.459m9.863.768h-26.515v12.938h26.515z"/></g><g fill="#dad1cc" fill-rule="evenodd" stroke="#534536" stroke-width="2" stroke-linecap="round" stroke-linejoin="round"><path d="M63.211 64.693v9.863H86.91v-9.863h-4.612v3.842h-3.714v-3.842h-5.765v3.842h-3.842v-3.842zm2.049 9.863v23.313h19.6V74.556z"/><path d="M77.174 75.837h2.433v4.867M69.104 93.642h2.562V97.1m-9.864.769h26.516v12.937H61.802z"/></g><path d="M193.359 237.891c.228 12.417 7.062 14.004 11.788 13.945 4.6-.057 11.533-1.866 11.503-13.945-.03-12.077-5.534-16.023-11.503-16.099-5.972-.076-12.017 3.62-11.788 16.1zm11.788-10.14c2.759-.046 5.39 1.553 5.347 10.14-.042 8.525-2.897 9.022-5.347 8.923-2.457-.099-5.492-1.052-5.642-8.923-.15-7.868 3.01-10.095 5.642-10.14zm18.181 24.086h7.228v-16.97l8.876 16.97h6.467v-29.8h-6.467v18.68l-9.594-18.68h-6.51z" fill="#dad1cc" fill-rule="evenodd" stroke="#534536" stroke-width="2.4" stroke-linecap="round" stroke-linejoin="round"/><text style="line-height:0%" x="409.235" y="671.418" transform="matrix(.71156 0 0 .72313 -129.953 -234.178)" font-weight="400" font-family="Bitstream Vera Sans" fill="#dad1cc" stroke="#534536" stroke-width="3.346"><tspan x="409.235" y="671.418" style="line-height:1.25;-inkscape-font-specification:'Arial Rounded MT Bold, Bold'" font-weight="700" font-size="55.542" font-family="Arial Rounded MT Bold">S</tspan></text></svg>