<svg xmlns="http://www.w3.org/2000/svg" xmlns:xlink="http://www.w3.org/1999/xlink" height="800" width="1200" version="1.0" viewBox="-37.7115 -53.9635 326.833 323.781"><defs><linearGradient id="b"><stop offset="0" stop-color="#ef1106"/><stop offset="1" stop-color="#2a1a15"/></linearGradient><linearGradient id="a"><stop offset="0" stop-color="#0247af"/><stop offset="1" stop-color="#2a2c2f"/></linearGradient><linearGradient y2="522.568" x2="764.128" y1="430.934" x1="422.143" gradientTransform="translate(3.571 -1.429)" gradientUnits="userSpaceOnUse" id="c" xlink:href="#a"/><linearGradient y2="1145.504" x2="350.714" y1="328.648" x1="350.714" gradientTransform="translate(3.571 -1.429)" gradientUnits="userSpaceOnUse" id="d" xlink:href="#b"/></defs><path fill="url(#c)" fill-rule="evenodd" d="M425.714 326.648h108.571v205.714H425.714z" transform="translate(-204.578 -278.779) scale(.85345)"/><path d="M240 327.22v202.856l177.188-192.892s6.562-9.643-2.01-9.643c-6.696 0-175.178.035-175.178-.322z" fill="url(#d)" fill-rule="evenodd" transform="translate(-204.578 -278.779) scale(.85345)"/><path style="line-height:125%;text-align:start" d="M14.333 211.268H7.575l-.93 3.77H.583L7.798 192.2h6.469l7.216 22.837h-6.208l-.942-3.77m-1.245-4.938l-2.121-8.21-2.108 8.21h4.23m9.965-7.835h4.976v2.414c.716-1.007 1.436-1.724 2.161-2.15.733-.425 1.615-.638 2.645-.638 1.109 0 1.986.233 2.632.7.647.468 1.175 1.164 1.585 2.088.838-1.08 1.602-1.812 2.292-2.196.69-.395 1.54-.592 2.553-.592 1.493 0 2.659.53 3.497 1.589.838 1.049 1.257 2.695 1.257 4.938v10.39h-5.343v-9.425c0-.747-.122-1.303-.367-1.666-.358-.571-.803-.857-1.335-.857-.629 0-1.135.27-1.52.81-.384.54-.576 1.407-.576 2.601v8.537h-5.343v-9.113c0-.727-.034-1.22-.104-1.48-.114-.415-.31-.748-.59-.997a1.393 1.393 0 00-.982-.39c-.61 0-1.113.276-1.506.826-.393.55-.589 1.454-.589 2.71v8.444h-5.343v-16.543m42.22 9.845H54.588c.096 1.017.327 1.775.694 2.274.515.716 1.187 1.075 2.017 1.075.523 0 1.02-.156 1.492-.468.288-.197.598-.545.93-1.043l5.251.576c-.803 1.662-1.772 2.856-2.907 3.583-1.135.716-2.763 1.075-4.884 1.075-1.842 0-3.292-.307-4.348-.92-1.056-.622-1.934-1.604-2.632-2.943-.69-1.35-1.035-2.934-1.035-4.752 0-2.585.694-4.678 2.082-6.277 1.397-1.6 3.322-2.4 5.776-2.4 1.99 0 3.561.359 4.714 1.076 1.152.716 2.03 1.755 2.632 3.115.602 1.36.904 3.131.904 5.312v.717m-5.422-3.038c-.105-1.225-.384-2.103-.838-2.633-.445-.53-1.035-.794-1.768-.794-.847 0-1.523.4-2.03 1.2-.323.498-.528 1.24-.615 2.227h5.251m7.949-6.807h4.99v2.71c.48-1.173.973-1.978 1.48-2.414.514-.447 1.147-.67 1.898-.67.786 0 1.646.29 2.58.872l-1.65 4.518c-.629-.312-1.126-.468-1.493-.468-.699 0-1.24.343-1.624 1.028-.55.966-.825 2.773-.825 5.421v5.546h-5.356v-16.543m12.035-6.294h5.33v4.315h-5.33V192.2m0 6.294h5.33v16.543h-5.33v-16.543m19.132 10.078l5.068.686c-.28 1.256-.738 2.347-1.375 3.27a6.608 6.608 0 01-2.449 2.135c-.986.509-2.244.763-3.771.763-1.476 0-2.707-.16-3.693-.483a6.303 6.303 0 01-2.528-1.588 8.114 8.114 0 01-1.663-2.586c-.401-.987-.602-2.295-.602-3.926 0-1.703.244-3.12.733-4.253a7.567 7.567 0 011.467-2.227c.62-.665 1.257-1.158 1.912-1.48 1.039-.509 2.37-.763 3.994-.763 2.27 0 3.998.483 5.186 1.448 1.196.966 2.034 2.379 2.514 4.238l-5.016.794c-.157-.706-.445-1.236-.864-1.589-.41-.363-.965-.545-1.663-.545-.882 0-1.598.379-2.148 1.137-.54.748-.812 1.885-.812 3.411 0 1.36.271 2.394.812 3.1.542.707 1.231 1.06 2.07 1.06.698 0 1.283-.213 1.754-.639.48-.426.838-1.08 1.074-1.963m12.401-4.72l-5.094-.638c.192-1.06.467-1.89.825-2.493.367-.613.89-1.142 1.572-1.589.489-.322 1.16-.57 2.016-.747a13.74 13.74 0 012.777-.265c1.597 0 2.88.109 3.85.327.969.208 1.776.649 2.422 1.324.454.467.812 1.132 1.074 1.994a8.31 8.31 0 01.393 2.446v7.305c0 .78.04 1.392.118 1.839.087.436.27.996.55 1.682h-5.003c-.2-.426-.331-.748-.392-.966a8.804 8.804 0 01-.184-1.06c-.698.8-1.392 1.372-2.082 1.714-.943.457-2.038.686-3.287.686-1.659 0-2.92-.457-3.784-1.371-.856-.914-1.284-2.04-1.284-3.38 0-1.257.31-2.29.93-3.1.62-.81 1.764-1.413 3.431-1.807 2-.478 3.296-.81 3.89-.997a17.301 17.301 0 001.885-.764c0-.778-.135-1.324-.406-1.635-.27-.312-.746-.468-1.427-.468-.873 0-1.528.167-1.965.499-.34.26-.615.748-.825 1.464m4.623 3.334a22.07 22.07 0 01-2.292.825c-1.082.343-1.767.68-2.056 1.013a1.735 1.735 0 00-.445 1.168c0 .499.144.909.432 1.23.297.312.73.468 1.297.468.593 0 1.143-.171 1.65-.514.515-.343.877-.758 1.087-1.246.218-.499.327-1.142.327-1.932v-1.012m8.434-8.692h4.963v2.694c.742-1.1 1.493-1.884 2.252-2.352.76-.477 1.685-.716 2.776-.716 1.476 0 2.628.524 3.457 1.573.839 1.039 1.258 2.648 1.258 4.83v10.514h-5.356v-9.097c0-1.039-.162-1.771-.485-2.197-.323-.436-.777-.654-1.362-.654-.646 0-1.17.29-1.571.872-.402.582-.603 1.626-.603 3.131v7.945h-5.33v-16.543m27.16-6.294h7.805l3.012 13.895 2.999-13.895h7.779v22.837h-4.846v-17.416l-3.758 17.416h-4.387l-3.745-17.416v17.416h-4.859V192.2m24.358 14.612c0-2.524.716-4.6 2.147-6.231 1.432-1.64 3.366-2.461 5.802-2.461 2.785 0 4.889.96 6.312 2.882 1.143 1.547 1.715 3.453 1.715 5.716 0 2.545-.711 4.632-2.134 6.263-1.415 1.62-3.375 2.43-5.88 2.43-2.235 0-4.042-.675-5.422-2.025-1.693-1.672-2.54-3.864-2.54-6.574m5.343-.016c0 1.475.249 2.566.746 3.272.507.706 1.14 1.059 1.899 1.059.768 0 1.397-.348 1.886-1.044.497-.696.746-1.812.746-3.349 0-1.433-.249-2.497-.746-3.193-.498-.706-1.113-1.06-1.847-1.06-.777 0-1.418.359-1.925 1.075-.506.706-.76 1.787-.76 3.24m19.657-14.596v6.294h2.933v4.626h-2.933v5.873c0 .706.057 1.173.17 1.402.175.353.48.53.917.53.393 0 .943-.136 1.65-.406l.393 4.378c-1.319.342-2.55.514-3.693.514-1.327 0-2.305-.203-2.934-.608-.628-.405-1.095-1.017-1.4-1.838-.298-.83-.446-2.17-.446-4.019v-5.826h-1.964v-4.626h1.964v-3.038l5.343-3.256m4.806 14.612c0-2.524.716-4.6 2.148-6.231 1.431-1.64 3.365-2.461 5.8-2.461 2.786 0 4.89.96 6.313 2.882 1.143 1.547 1.715 3.453 1.715 5.716 0 2.545-.711 4.632-2.134 6.263-1.415 1.62-3.375 2.43-5.88 2.43-2.235 0-4.042-.675-5.422-2.025-1.693-1.672-2.54-3.864-2.54-6.574m5.343-.016c0 1.475.249 2.566.746 3.272.507.706 1.14 1.059 1.9 1.059.767 0 1.396-.348 1.885-1.044.497-.696.746-1.812.746-3.349 0-1.433-.249-2.497-.746-3.193-.498-.706-1.113-1.06-1.847-1.06-.777 0-1.418.359-1.925 1.075-.506.706-.76 1.787-.76 3.24m13.28-8.302h4.989v2.71c.48-1.173.973-1.978 1.48-2.414.515-.447 1.148-.67 1.899-.67.785 0 1.645.29 2.58.872l-1.65 4.518c-.63-.312-1.127-.468-1.494-.468-.698 0-1.24.343-1.623 1.028-.55.966-.825 2.773-.825 5.421v5.546h-5.356v-16.543m11.576 11.963l5.29-.592c.219.748.524 1.283.917 1.605.393.322.917.483 1.572.483.715 0 1.27-.182 1.663-.546.305-.27.458-.607.458-1.012 0-.457-.2-.81-.602-1.06-.288-.176-1.052-.394-2.292-.654-1.85-.384-3.139-.737-3.863-1.059-.716-.332-1.323-.888-1.82-1.667-.49-.779-.734-1.667-.734-2.664 0-1.09.266-2.03.799-2.82.533-.788 1.266-1.375 2.2-1.76.934-.394 2.187-.591 3.758-.591 1.66 0 2.881.15 3.667.451a4.66 4.66 0 011.978 1.402c.532.634.973 1.49 1.322 2.57l-5.055.593c-.13-.53-.349-.92-.654-1.169-.42-.332-.926-.498-1.52-.498-.602 0-1.043.13-1.322.39a1.2 1.2 0 00-.406.918c0 .405.175.712.524.92.349.207 1.108.394 2.278.56 1.773.24 3.09.571 3.955.997.864.426 1.524 1.034 1.978 1.823a5.05 5.05 0 01.694 2.601c0 .956-.245 1.885-.734 2.789-.48.903-1.244 1.625-2.291 2.165-1.04.53-2.458.794-4.256.794-2.54 0-4.352-.43-5.435-1.293-1.074-.862-1.764-2.087-2.07-3.676" font-weight="400" font-size="34.336" font-family="Arial Black" stroke="#000" stroke-width=".853"/></svg>