<svg xmlns="http://www.w3.org/2000/svg" height="800" width="1200" version="1.0" viewBox="-40.0422 -66.737 347.0324 400.422"><path d="M38.319 216.378l-6.788-6.84 4.873-2.166c2.68-1.192 13.648-5.533 24.373-9.648 29.861-11.457 34.39-13.28 49.99-20.112 17.308-7.581 20.54-9.61 23.078-14.486 2.546-4.89 2.44-8.74-.355-12.892-4.196-6.233-5.118-6.388-36.213-6.11-36.87.328-41.8-.865-46.61-11.288-2.338-5.065-2.336-8.942.006-14 4.397-9.498 8.466-11.385 89.604-41.548 16.5-6.134 34.95-13.093 41-15.464 14.993-5.876 37.669-14.242 40.599-14.977 1.965-.493 3.038.178 5.906 3.693 6.797 8.33 6.535 7.633 3.354 8.912-6.592 2.65-18.596 7.312-29.36 11.404-49.257 18.727-62.81 25.347-66.5 32.482-2 3.865-1.9 10.456.205 13.67 3.524 5.378 6.14 5.784 38.296 5.942 17.891.088 31.088.578 33.535 1.246 8.426 2.3 14.149 12.575 11.65 20.918-.652 2.173-2.056 5.059-3.121 6.413-2.526 3.211-11.448 7.915-24.265 12.794-5.665 2.156-19.524 7.57-30.8 12.03a6117.674 6117.674 0 01-39.5 15.44c-42.5 16.4-63.336 24.79-69.584 28.022l-6.585 3.406z"/><path d="M259.448 133.474a125.974 125.974 0 11-251.948 0 125.974 125.974 0 11251.948 0z" fill="none" stroke="#000" stroke-width="15"/></svg>