<svg xmlns="http://www.w3.org/2000/svg" height="800" width="1200" version="1.0" viewBox="-48.00015 -27.9695 416.0013 167.817"><path d="M57.01 95.39c-2.746 0-4.968.81-6.668 2.435-1.7 1.625-2.548 3.525-2.548 5.694 0 2.206.852 4.111 2.563 5.713 1.711 1.603 3.93 2.4 6.654 2.4 2.693 0 4.898-.805 6.617-2.415 1.72-1.61 2.579-3.507 2.579-5.698 0-2.162-.847-4.06-2.543-5.689-1.696-1.628-3.914-2.44-6.653-2.44zm63.722 0c-2.747 0-4.97.81-6.67 2.435-1.699 1.625-2.552 3.525-2.552 5.694 0 2.206.857 4.111 2.568 5.713 1.711 1.603 3.93 2.4 6.653 2.4 2.694 0 4.9-.805 6.618-2.415 1.72-1.61 2.579-3.507 2.579-5.698 0-2.162-.847-4.06-2.543-5.689-1.696-1.628-3.914-2.44-6.653-2.44zm63.2 0c-2.878 0-5.207.792-6.99 2.379-1.785 1.587-2.677 3.52-2.677 5.796 0 2.274.846 4.186 2.538 5.739 1.692 1.553 3.963 2.328 6.817 2.328 2.202 0 4.311-.522 6.322-1.572v-3.457c-1.52.733-2.664 1.204-3.432 1.42a8.823 8.823 0 01-2.395.321c-1.672 0-3.045-.454-4.115-1.368-1.07-.915-1.604-2.077-1.604-3.483 0-1.398.544-2.549 1.63-3.452 1.085-.903 2.48-1.353 4.192-1.353 1.741 0 3.59.538 5.54 1.619v-3.524c-1.588-.929-3.532-1.393-5.826-1.393zm61.05 0c-2.877 0-5.212.792-6.996 2.379-1.784 1.587-2.675 3.52-2.675 5.796 0 2.274.846 4.186 2.538 5.739 1.691 1.553 3.967 2.328 6.822 2.328 2.202 0 4.305-.522 6.316-1.572v-3.457c-1.52.733-2.66 1.204-3.426 1.42a8.822 8.822 0 01-2.395.321c-1.673 0-3.045-.454-4.116-1.368-1.07-.915-1.603-2.077-1.603-3.483 0-1.398.538-2.549 1.624-3.452 1.085-.903 2.486-1.353 4.197-1.353 1.742 0 3.586.538 5.535 1.619v-3.524c-1.588-.929-3.527-1.393-5.821-1.393zm-230.43.204v15.834h4.004v-9.885l4.34 4.968h.613l4.335-4.968v9.885h4.008V95.594h-3.487l-5.168 5.872-5.157-5.872zm66.494 0v2.9h5.821v12.934h4.008V98.494h5.821v-2.9zm64.86 0v15.834h4.003V105h1.149c.529 0 1.026.213 1.49.629.465.415 1.022 1.352 1.67 2.818.649 1.466 1.103 2.46 1.364 2.982h4.412a256.97 256.97 0 01-2.104-4.488c-.725-1.587-1.495-2.556-2.308-2.91 1.841-.84 2.762-2.136 2.762-3.881 0-1.263-.486-2.335-1.46-3.223-.975-.887-2.242-1.332-3.8-1.332zm58.512 0l6.342 8.435v7.4h4.008v-7.4l6.342-8.435h-4.835l-3.508 4.978-3.488-4.978zm62.848 0v15.834h12.255v-2.9h-8.252V95.594zm27.62 0v15.834h11.856v-2.9h-7.848v-3.81h7.332v-2.9h-7.332v-3.324h7.69v-2.9zm-144.977 2.9h2.027c1.527 0 2.287.598 2.287 1.792 0 .582-.197 1.03-.592 1.343-.395.314-.928.47-1.603.47h-2.12zm-92.898.194c1.519 0 2.743.444 3.671 1.328.929.884 1.394 2.052 1.394 3.503 0 1.443-.465 2.61-1.394 3.497-.928.888-2.152 1.328-3.671 1.328-1.527 0-2.755-.44-3.687-1.328-.932-.887-1.4-2.054-1.4-3.497 0-1.451.468-2.62 1.4-3.503.932-.884 2.16-1.328 3.687-1.328zm63.72 0c1.52 0 2.743.444 3.672 1.328.928.884 1.394 2.052 1.394 3.503 0 1.443-.466 2.61-1.394 3.497-.929.888-2.152 1.328-3.671 1.328-1.527 0-2.76-.44-3.692-1.328-.933-.887-1.394-2.054-1.394-3.497 0-1.451.461-2.62 1.394-3.503.932-.884 2.165-1.328 3.691-1.328z" stroke-width=".49" font-weight="700" font-size="114.531" font-family="Gill Sans MT" letter-spacing="0" word-spacing="0" fill="#512f1a" stroke="#512f1a"/><path d="M106.3 0c-3.02.005-5.994.072-7.577.194-11.867.92-20.833 4.187-26.614 9.661l-1.777 1.696-3.982.245c-12.868.796-20.732 2.961-26.022 7.169-4.391 3.492-6.086 8.17-4.677 12.929.47 1.593.96 2.43 2.226 3.799 2.758 2.982 6.74 4.289 12.419 4.044 4.922-.204 8.435-1.491 10.947-4.024 1.226-1.225 2.247-2.737 2.022-2.961-.06-.041-.776.081-1.593.306-3.799.98-8.619 1.083-10.866.225-2.696-1.022-3.778-2.513-3.615-4.882.143-1.879.817-3.145 2.614-4.8 3.085-2.86 9.13-5.126 15.4-5.78 1.267-.123 1.41-.102 1.288.204-.715 1.859-1.267 5.964-1.083 8.089.592 6.638 3.86 11.417 10.458 15.236.347.205.326.327-.511 2.145-2.451 5.372-5.985 10.989-9.804 15.564C58.261 67.78 49.785 73.6 41.37 75.644c-5.637 1.389-11.52 1.49-16.177.306-2.042-.53-5.33-2.104-6.944-3.35-4.922-3.778-6.74-10.008-4.31-14.787 1.512-2.982 5.495-5.637 9.763-6.495 2.308-.47 6.434-.327 7.721.245 1.92.878 2.941 2.553 2.451 4.044-.735 2.267-3.268 3.39-8.354 3.717-2.369.164-2.369.164-.347 1.614a20.134 20.134 0 005.964 2.86c1.45.428 2.41.571 4.78.653 4.636.184 7.536-.572 10.314-2.655 1.185-.878 1.552-1.307 2.145-2.451.612-1.226.694-1.593.694-2.86-.061-5.535-5.862-9.62-15.482-10.886-3.35-.45-9.518-.45-12.582 0-6.556.919-11.887 3.227-15.706 6.78-3.8 3.515-5.556 7.58-5.27 12.134.613 9.171 7.516 15.503 20.384 18.669 3.554.857 6.128 1.164 11.234 1.286 8.231.205 14.93-.776 22.304-3.227 10.947-3.656 21.711-11.846 29.085-22.16 2.063-2.88 5.535-8.293 7.66-11.95l1.653-2.838h1.267c.694 0 2.124-.143 3.186-.327 7.843-1.348 13.378-5.699 14.604-11.52.796-3.82-.51-7.537-3.86-10.907l-1.798-1.817.715-1.042c3.105-4.514 9.232-10.723 15.176-15.42 1.368-1.083 2.43-2.023 2.349-2.105-.164-.143-5.72-.715-9.845-.98C112.387.05 109.32-.005 106.3 0zm-1.204 4.708c.572-.02 1.103.041 1.164.143.061.082-.735.797-1.777 1.573-2.288 1.695-5.351 4.31-7.823 6.679l-1.838 1.736-2.329-.592c-1.286-.327-3.819-.817-5.616-1.124-1.798-.286-3.677-.572-4.187-.653l-.92-.164 1.696-1.348c1.838-1.45 5.167-3.268 7.496-4.105 1.96-.695 5.698-1.512 8.17-1.777 1.858-.184 2.798-.245 5.964-.368zM80.412 17.535a35.13 35.13 0 014.157.306c1.98.266 5.76 1.124 6.005 1.39.04.04-.715 1.041-1.696 2.205-2.206 2.635-4.595 5.862-6.78 9.13l-1.676 2.512-.837-.47c-2.941-1.654-4.065-5.882-2.92-10.906.285-1.267 1.143-3.39 1.551-3.901.164-.184 1.017-.274 2.196-.266zm126.236 3.88l-6.822.021-6.617 9.375c-3.636 5.168-6.68 9.396-6.74 9.396-.062 0-.532-.286-1.022-.613-2.41-1.634-6.393-1.757-12.377-.368-13.113 3.044-24.776 12.786-31.782 26.593l-1.552 3.064-1.777 1.062c-3.063 1.859-4.983 2.35-5.74 1.491-.326-.326-.346-.51-.183-.98.123-.306 3.288-5.33 7.026-11.172 3.758-5.822 7.128-11.193 7.476-11.929 2.246-4.493.53-7.577-4.82-8.619-3.473-.694-10.193.164-15.503 1.981l-1.532.51-.551-.673c-1.39-1.695-4.596-2.635-7.15-2.083-2.94.612-5.575 2.39-11.008 7.455-1.96 1.817-4.167 3.82-4.902 4.432-1.92 1.593-4.575 2.86-6.842 3.247-1.001.184-1.88.368-1.92.409-.205.184.715 1.777 1.348 2.328.796.695 1.715.92 3.37.756 2.287-.204 6.209-2.471 9.742-5.637.94-.817 1.41-1.144 1.246-.838-.204.368-16.38 23.816-20.057 29.045l-.388.571h13.869l7.107-10.212c6.353-9.13 7.17-10.212 7.64-10.212 1 0 3.676-.797 4.963-1.471 1.49-.776 3.186-2.39 3.799-3.595.245-.47.429-.878.429-.919 0-.04-.49 0-1.063.102-2.246.409-3.635-.04-3.635-1.184 0-.634 1.184-2.84 2.083-3.86 2.594-2.942 9.15-2.799 9.15.204 0 .919-.53 1.838-4.085 6.944-3.942 5.637-8.782 12.95-10.518 15.83-2.329 3.86-2.717 5.044-2.063 6.29.98 1.88 3.635 2.92 7.475 2.941 3.289.02 7.537-1.368 14.196-4.657 2.716-1.327 3.492-1.634 3.615-1.43 1.082 1.941 3.86 4.045 6.434 4.882 2.267.756 3.676.96 6.372.96 3.922 0 7.517-.98 10.846-2.941l1.532-.878.776.878c2.124 2.43 7.373 3.37 11.499 2.104 1.838-.572 3.084-1.205 5.065-2.594l1.614-1.124.429.593c1.205 1.695 3.125 2.9 5.576 3.472 1.082.266 1.94.306 3.778.204 4.433-.245 8.518-1.675 13.828-4.881 1.123-.654 1.757-.94 1.818-.797.184.592 1.756 2.329 2.757 3.084 2.533 1.92 5.903 2.88 10.05 2.88 4.064 0 7.883-1.062 11.07-3.064l1.327-.817.878.98c2.247 2.493 7.374 3.35 11.786 1.962 3.268-1.042 5.82-2.656 8.925-5.678 1.165-1.144 6.046-6.72 10.887-12.419 4.82-5.698 9.17-10.723 9.681-11.172 1.45-1.267 2.267-1.267 1.593 0-.184.367-4.657 6.903-9.967 14.563a6187.54 6187.54 0 00-10.008 14.46l-.368.572h13.828l7.148-10.212c6.169-8.803 7.21-10.212 7.66-10.212 1-.02 3.186-.634 4.595-1.328 1.532-.735 3.044-2.043 3.84-3.309.838-1.368.838-1.45-.122-1.266-1.41.265-2.88.204-3.37-.143-1.614-1.124 1.409-5.637 4.636-6.904 1.757-.674 4.575-.367 5.637.613.634.592.695 1.9.123 2.962-.204.388-1.695 2.594-3.289 4.881-6.29 9.028-11.397 16.932-12.111 18.75-.532 1.307-.47 3.432.122 4.555.92 1.736 3.043 2.839 5.515 2.839 2.737 0 8.047-1.491 11.479-3.207 3.063-1.532 5.31-3.206 8.027-5.903 1.368-1.388 2.491-2.614 2.491-2.716 0-.123-.429-.02-.96.204-4.064 1.757-8.027 3.044-9.456 3.044-.409 0-.92-.123-1.124-.286-.53-.389-.49-1.573.062-2.84.224-.53 3.41-5.535 7.046-11.11 3.636-5.597 6.863-10.662 7.17-11.234 2.103-4.187.98-7.088-3.31-8.456-3.553-1.124-10.069-.572-16.237 1.389l-2.267.715-.43-.49c-1.735-2.023-5.024-2.88-8.312-2.186-5.209 1.123-12.562 6.944-20.589 16.32-4.656 5.453-11.969 13.561-13.582 15.073-2.206 2.104-3.779 2.696-3.513 1.287.061-.307 4.84-7.68 10.6-16.381 5.78-8.701 10.56-15.931 10.662-16.074.123-.184-1.266-.246-6.618-.246h-6.74l-.633 1.022-.633 1.02-.695-.612c-4.044-3.554-18.116-.53-27.348 5.883-7.047 4.881-13.154 12.05-17.055 19.996l-1.226 2.47-1.797 1.124c-4.187 2.635-6.27 3.166-7.128 1.859-.286-.45-.286-.592-.02-1.266.163-.43 4.962-7.619 10.661-15.973l10.355-15.216-6.372-.061c-4.943-.041-6.454.02-6.638.204-.123.143-3.248 4.759-6.924 10.233-3.677 5.494-7.762 11.376-9.09 13.072-2.614 3.35-6.72 7.557-8.619 8.823-2.083 1.369-4.023 1.144-3.778-.429.081-.408 6.005-9.314 16.237-24.305 8.865-13.031 16.28-23.918 16.483-24.245l.348-.551zm16.34 2.278c-.738 0-1.511.092-2.37.276-1.695.368-4.003 1.613-4.86 2.614-.98 1.124-1.573 2.533-1.594 3.656-.02.777.103 1.124.593 1.736 1 1.267 2.287 1.777 4.657 1.86 4.759.203 7.863-1.635 8.782-5.148.634-2.39-.449-4.044-3.043-4.718a8.665 8.665 0 00-2.165-.276zm-120.17 1.328c.1-.014.184.05.296.133.225.143.674.612 1.001 1.041.94 1.164 1.328 2.39 1.185 3.697-.225 2.267-2.226 4.882-4.514 5.944-1.123.51-4.126 1.041-4.698.837-.347-.143.204-1.144 4.228-7.904 1.762-2.972 2.203-3.706 2.502-3.748zm76.39 20.226c.676-.005 1.229.125 1.643.393.634.388.756 1.184.409 2.43-.633 2.145-2.696 4.616-4.596 5.495-.796.367-1.286.428-3.186.408-1.45-.02-2.594-.143-3.247-.347l-1.001-.327.143.96c.245 1.818 1.695 4.044 3.472 5.27l.572.408-1.369 2.247c-1.715 2.757-2.94 4.33-4.759 6.046-1.756 1.654-2.88 2.43-4.8 3.329-3.043 1.45-6.004 1.43-7.27-.02-.552-.613-.634-.858-.634-1.94 0-1.104.123-1.471 1.389-3.922 4.31-8.416 10.62-15.217 17.116-18.485 2.542-1.278 4.63-1.937 6.117-1.945zm69.536.097c.53-.01 1.003.053 1.41.194 1.163.408 1.368 1.613.55 3.37-.673 1.45-2.961 3.82-4.31 4.493-1.45.695-3.696.858-5.8.409-.837-.184-1.552-.286-1.613-.245-.164.163.612 2.471 1.123 3.329.266.47 1.042 1.368 1.736 2.001l1.226 1.144-1.39 2.165c-4.248 6.659-8.72 10.192-13.275 10.437-3.044.164-4.35-.919-4.106-3.37.286-2.716 5.556-11.09 9.722-15.461 4.611-4.808 11.02-8.397 14.727-8.466zm67.417 30.188c-1.054 0-1.958.375-2.711 1.128-.753.753-1.129 1.658-1.129 2.711 0 1.06.374 1.966 1.124 2.717.749.75 1.655 1.123 2.716 1.123 1.058 0 1.96-.374 2.712-1.128.75-.755 1.128-1.659 1.128-2.712 0-1.049-.375-1.951-1.128-2.706-.753-.754-1.658-1.133-2.712-1.133zm0 .74c.836 0 1.55.301 2.145.909.595.608.893 1.34.893 2.19 0 .854-.298 1.583-.893 2.191-.595.608-1.31.914-2.145.914-.839 0-1.556-.305-2.15-.909-.593-.604-.888-1.334-.888-2.196 0-.85.298-1.582.894-2.19.595-.608 1.309-.91 2.144-.91zm-1.486.878v4.443h.925v-1.808h.602l.74 1.808h.996l-.909-1.992c.47-.239.705-.622.705-1.154 0-.865-.522-1.297-1.573-1.297zm.925.674h.525c.463 0 .695.203.695.608 0 .456-.234.684-.7.684h-.52z" fill="#961923"/></svg>